%TF.GenerationSoftware,KiCad,Pcbnew,8.0.5*%
%TF.CreationDate,2024-10-17T13:37:37-04:00*%
%TF.ProjectId,PCB,5043422e-6b69-4636-9164-5f7063625858,rev?*%
%TF.SameCoordinates,Original*%
%TF.FileFunction,Legend,Top*%
%TF.FilePolarity,Positive*%
%FSLAX46Y46*%
G04 Gerber Fmt 4.6, Leading zero omitted, Abs format (unit mm)*
G04 Created by KiCad (PCBNEW 8.0.5) date 2024-10-17 13:37:37*
%MOMM*%
%LPD*%
G01*
G04 APERTURE LIST*
%ADD10C,0.100000*%
%ADD11C,0.150000*%
%ADD12C,0.146304*%
%ADD13C,0.120000*%
%ADD14C,0.152400*%
%ADD15C,0.203200*%
%ADD16C,0.200000*%
G04 APERTURE END LIST*
D10*
X214804360Y-136562867D02*
X215054360Y-136562867D01*
X215161503Y-136955724D02*
X214804360Y-136955724D01*
X214804360Y-136955724D02*
X214804360Y-136205724D01*
X214804360Y-136205724D02*
X215161503Y-136205724D01*
X215911502Y-136884295D02*
X215875788Y-136920010D01*
X215875788Y-136920010D02*
X215768645Y-136955724D01*
X215768645Y-136955724D02*
X215697217Y-136955724D01*
X215697217Y-136955724D02*
X215590074Y-136920010D01*
X215590074Y-136920010D02*
X215518645Y-136848581D01*
X215518645Y-136848581D02*
X215482931Y-136777152D01*
X215482931Y-136777152D02*
X215447217Y-136634295D01*
X215447217Y-136634295D02*
X215447217Y-136527152D01*
X215447217Y-136527152D02*
X215482931Y-136384295D01*
X215482931Y-136384295D02*
X215518645Y-136312867D01*
X215518645Y-136312867D02*
X215590074Y-136241438D01*
X215590074Y-136241438D02*
X215697217Y-136205724D01*
X215697217Y-136205724D02*
X215768645Y-136205724D01*
X215768645Y-136205724D02*
X215875788Y-136241438D01*
X215875788Y-136241438D02*
X215911502Y-136277152D01*
X216232931Y-136562867D02*
X216482931Y-136562867D01*
X216590074Y-136955724D02*
X216232931Y-136955724D01*
X216232931Y-136955724D02*
X216232931Y-136205724D01*
X216232931Y-136205724D02*
X216590074Y-136205724D01*
X217804360Y-136455724D02*
X217804360Y-136955724D01*
X217625788Y-136170010D02*
X217447217Y-136705724D01*
X217447217Y-136705724D02*
X217911502Y-136705724D01*
X218125788Y-136205724D02*
X218625788Y-136205724D01*
X218625788Y-136205724D02*
X218304360Y-136955724D01*
X218840074Y-136205724D02*
X219340074Y-136205724D01*
X219340074Y-136205724D02*
X219018646Y-136955724D01*
X220090075Y-136205724D02*
X220518647Y-136205724D01*
X220304361Y-136955724D02*
X220304361Y-136205724D01*
X221054361Y-136920010D02*
X220982933Y-136955724D01*
X220982933Y-136955724D02*
X220840076Y-136955724D01*
X220840076Y-136955724D02*
X220768647Y-136920010D01*
X220768647Y-136920010D02*
X220732933Y-136848581D01*
X220732933Y-136848581D02*
X220732933Y-136562867D01*
X220732933Y-136562867D02*
X220768647Y-136491438D01*
X220768647Y-136491438D02*
X220840076Y-136455724D01*
X220840076Y-136455724D02*
X220982933Y-136455724D01*
X220982933Y-136455724D02*
X221054361Y-136491438D01*
X221054361Y-136491438D02*
X221090076Y-136562867D01*
X221090076Y-136562867D02*
X221090076Y-136634295D01*
X221090076Y-136634295D02*
X220732933Y-136705724D01*
X221732933Y-136955724D02*
X221732933Y-136562867D01*
X221732933Y-136562867D02*
X221697218Y-136491438D01*
X221697218Y-136491438D02*
X221625790Y-136455724D01*
X221625790Y-136455724D02*
X221482933Y-136455724D01*
X221482933Y-136455724D02*
X221411504Y-136491438D01*
X221732933Y-136920010D02*
X221661504Y-136955724D01*
X221661504Y-136955724D02*
X221482933Y-136955724D01*
X221482933Y-136955724D02*
X221411504Y-136920010D01*
X221411504Y-136920010D02*
X221375790Y-136848581D01*
X221375790Y-136848581D02*
X221375790Y-136777152D01*
X221375790Y-136777152D02*
X221411504Y-136705724D01*
X221411504Y-136705724D02*
X221482933Y-136670010D01*
X221482933Y-136670010D02*
X221661504Y-136670010D01*
X221661504Y-136670010D02*
X221732933Y-136634295D01*
X222090075Y-136955724D02*
X222090075Y-136455724D01*
X222090075Y-136527152D02*
X222125789Y-136491438D01*
X222125789Y-136491438D02*
X222197218Y-136455724D01*
X222197218Y-136455724D02*
X222304361Y-136455724D01*
X222304361Y-136455724D02*
X222375789Y-136491438D01*
X222375789Y-136491438D02*
X222411504Y-136562867D01*
X222411504Y-136562867D02*
X222411504Y-136955724D01*
X222411504Y-136562867D02*
X222447218Y-136491438D01*
X222447218Y-136491438D02*
X222518646Y-136455724D01*
X222518646Y-136455724D02*
X222625789Y-136455724D01*
X222625789Y-136455724D02*
X222697218Y-136491438D01*
X222697218Y-136491438D02*
X222732932Y-136562867D01*
X222732932Y-136562867D02*
X222732932Y-136955724D01*
X224018647Y-136205724D02*
X223661504Y-136205724D01*
X223661504Y-136205724D02*
X223625790Y-136562867D01*
X223625790Y-136562867D02*
X223661504Y-136527152D01*
X223661504Y-136527152D02*
X223732933Y-136491438D01*
X223732933Y-136491438D02*
X223911504Y-136491438D01*
X223911504Y-136491438D02*
X223982933Y-136527152D01*
X223982933Y-136527152D02*
X224018647Y-136562867D01*
X224018647Y-136562867D02*
X224054361Y-136634295D01*
X224054361Y-136634295D02*
X224054361Y-136812867D01*
X224054361Y-136812867D02*
X224018647Y-136884295D01*
X224018647Y-136884295D02*
X223982933Y-136920010D01*
X223982933Y-136920010D02*
X223911504Y-136955724D01*
X223911504Y-136955724D02*
X223732933Y-136955724D01*
X223732933Y-136955724D02*
X223661504Y-136920010D01*
X223661504Y-136920010D02*
X223625790Y-136884295D01*
X224375790Y-136884295D02*
X224411504Y-136920010D01*
X224411504Y-136920010D02*
X224375790Y-136955724D01*
X224375790Y-136955724D02*
X224340076Y-136920010D01*
X224340076Y-136920010D02*
X224375790Y-136884295D01*
X224375790Y-136884295D02*
X224375790Y-136955724D01*
X224375790Y-136491438D02*
X224411504Y-136527152D01*
X224411504Y-136527152D02*
X224375790Y-136562867D01*
X224375790Y-136562867D02*
X224340076Y-136527152D01*
X224340076Y-136527152D02*
X224375790Y-136491438D01*
X224375790Y-136491438D02*
X224375790Y-136562867D01*
X225268648Y-136920010D02*
X225375791Y-136955724D01*
X225375791Y-136955724D02*
X225554362Y-136955724D01*
X225554362Y-136955724D02*
X225625791Y-136920010D01*
X225625791Y-136920010D02*
X225661505Y-136884295D01*
X225661505Y-136884295D02*
X225697219Y-136812867D01*
X225697219Y-136812867D02*
X225697219Y-136741438D01*
X225697219Y-136741438D02*
X225661505Y-136670010D01*
X225661505Y-136670010D02*
X225625791Y-136634295D01*
X225625791Y-136634295D02*
X225554362Y-136598581D01*
X225554362Y-136598581D02*
X225411505Y-136562867D01*
X225411505Y-136562867D02*
X225340076Y-136527152D01*
X225340076Y-136527152D02*
X225304362Y-136491438D01*
X225304362Y-136491438D02*
X225268648Y-136420010D01*
X225268648Y-136420010D02*
X225268648Y-136348581D01*
X225268648Y-136348581D02*
X225304362Y-136277152D01*
X225304362Y-136277152D02*
X225340076Y-136241438D01*
X225340076Y-136241438D02*
X225411505Y-136205724D01*
X225411505Y-136205724D02*
X225590076Y-136205724D01*
X225590076Y-136205724D02*
X225697219Y-136241438D01*
X226018648Y-136955724D02*
X226018648Y-136455724D01*
X226018648Y-136527152D02*
X226054362Y-136491438D01*
X226054362Y-136491438D02*
X226125791Y-136455724D01*
X226125791Y-136455724D02*
X226232934Y-136455724D01*
X226232934Y-136455724D02*
X226304362Y-136491438D01*
X226304362Y-136491438D02*
X226340077Y-136562867D01*
X226340077Y-136562867D02*
X226340077Y-136955724D01*
X226340077Y-136562867D02*
X226375791Y-136491438D01*
X226375791Y-136491438D02*
X226447219Y-136455724D01*
X226447219Y-136455724D02*
X226554362Y-136455724D01*
X226554362Y-136455724D02*
X226625791Y-136491438D01*
X226625791Y-136491438D02*
X226661505Y-136562867D01*
X226661505Y-136562867D02*
X226661505Y-136955724D01*
X227340077Y-136955724D02*
X227340077Y-136562867D01*
X227340077Y-136562867D02*
X227304362Y-136491438D01*
X227304362Y-136491438D02*
X227232934Y-136455724D01*
X227232934Y-136455724D02*
X227090077Y-136455724D01*
X227090077Y-136455724D02*
X227018648Y-136491438D01*
X227340077Y-136920010D02*
X227268648Y-136955724D01*
X227268648Y-136955724D02*
X227090077Y-136955724D01*
X227090077Y-136955724D02*
X227018648Y-136920010D01*
X227018648Y-136920010D02*
X226982934Y-136848581D01*
X226982934Y-136848581D02*
X226982934Y-136777152D01*
X226982934Y-136777152D02*
X227018648Y-136705724D01*
X227018648Y-136705724D02*
X227090077Y-136670010D01*
X227090077Y-136670010D02*
X227268648Y-136670010D01*
X227268648Y-136670010D02*
X227340077Y-136634295D01*
X227697219Y-136955724D02*
X227697219Y-136455724D01*
X227697219Y-136598581D02*
X227732933Y-136527152D01*
X227732933Y-136527152D02*
X227768648Y-136491438D01*
X227768648Y-136491438D02*
X227840076Y-136455724D01*
X227840076Y-136455724D02*
X227911505Y-136455724D01*
X228054362Y-136455724D02*
X228340076Y-136455724D01*
X228161505Y-136205724D02*
X228161505Y-136848581D01*
X228161505Y-136848581D02*
X228197219Y-136920010D01*
X228197219Y-136920010D02*
X228268648Y-136955724D01*
X228268648Y-136955724D02*
X228340076Y-136955724D01*
X229161505Y-136955724D02*
X229161505Y-136205724D01*
X229161505Y-136205724D02*
X229340076Y-136205724D01*
X229340076Y-136205724D02*
X229447219Y-136241438D01*
X229447219Y-136241438D02*
X229518648Y-136312867D01*
X229518648Y-136312867D02*
X229554362Y-136384295D01*
X229554362Y-136384295D02*
X229590076Y-136527152D01*
X229590076Y-136527152D02*
X229590076Y-136634295D01*
X229590076Y-136634295D02*
X229554362Y-136777152D01*
X229554362Y-136777152D02*
X229518648Y-136848581D01*
X229518648Y-136848581D02*
X229447219Y-136920010D01*
X229447219Y-136920010D02*
X229340076Y-136955724D01*
X229340076Y-136955724D02*
X229161505Y-136955724D01*
X230018648Y-136955724D02*
X229947219Y-136920010D01*
X229947219Y-136920010D02*
X229911505Y-136884295D01*
X229911505Y-136884295D02*
X229875791Y-136812867D01*
X229875791Y-136812867D02*
X229875791Y-136598581D01*
X229875791Y-136598581D02*
X229911505Y-136527152D01*
X229911505Y-136527152D02*
X229947219Y-136491438D01*
X229947219Y-136491438D02*
X230018648Y-136455724D01*
X230018648Y-136455724D02*
X230125791Y-136455724D01*
X230125791Y-136455724D02*
X230197219Y-136491438D01*
X230197219Y-136491438D02*
X230232934Y-136527152D01*
X230232934Y-136527152D02*
X230268648Y-136598581D01*
X230268648Y-136598581D02*
X230268648Y-136812867D01*
X230268648Y-136812867D02*
X230232934Y-136884295D01*
X230232934Y-136884295D02*
X230197219Y-136920010D01*
X230197219Y-136920010D02*
X230125791Y-136955724D01*
X230125791Y-136955724D02*
X230018648Y-136955724D01*
X230911505Y-136455724D02*
X230911505Y-137062867D01*
X230911505Y-137062867D02*
X230875790Y-137134295D01*
X230875790Y-137134295D02*
X230840076Y-137170010D01*
X230840076Y-137170010D02*
X230768647Y-137205724D01*
X230768647Y-137205724D02*
X230661505Y-137205724D01*
X230661505Y-137205724D02*
X230590076Y-137170010D01*
X230911505Y-136920010D02*
X230840076Y-136955724D01*
X230840076Y-136955724D02*
X230697219Y-136955724D01*
X230697219Y-136955724D02*
X230625790Y-136920010D01*
X230625790Y-136920010D02*
X230590076Y-136884295D01*
X230590076Y-136884295D02*
X230554362Y-136812867D01*
X230554362Y-136812867D02*
X230554362Y-136598581D01*
X230554362Y-136598581D02*
X230590076Y-136527152D01*
X230590076Y-136527152D02*
X230625790Y-136491438D01*
X230625790Y-136491438D02*
X230697219Y-136455724D01*
X230697219Y-136455724D02*
X230840076Y-136455724D01*
X230840076Y-136455724D02*
X230911505Y-136491438D01*
X232268647Y-136884295D02*
X232232933Y-136920010D01*
X232232933Y-136920010D02*
X232125790Y-136955724D01*
X232125790Y-136955724D02*
X232054362Y-136955724D01*
X232054362Y-136955724D02*
X231947219Y-136920010D01*
X231947219Y-136920010D02*
X231875790Y-136848581D01*
X231875790Y-136848581D02*
X231840076Y-136777152D01*
X231840076Y-136777152D02*
X231804362Y-136634295D01*
X231804362Y-136634295D02*
X231804362Y-136527152D01*
X231804362Y-136527152D02*
X231840076Y-136384295D01*
X231840076Y-136384295D02*
X231875790Y-136312867D01*
X231875790Y-136312867D02*
X231947219Y-136241438D01*
X231947219Y-136241438D02*
X232054362Y-136205724D01*
X232054362Y-136205724D02*
X232125790Y-136205724D01*
X232125790Y-136205724D02*
X232232933Y-136241438D01*
X232232933Y-136241438D02*
X232268647Y-136277152D01*
X232697219Y-136955724D02*
X232625790Y-136920010D01*
X232625790Y-136920010D02*
X232590076Y-136884295D01*
X232590076Y-136884295D02*
X232554362Y-136812867D01*
X232554362Y-136812867D02*
X232554362Y-136598581D01*
X232554362Y-136598581D02*
X232590076Y-136527152D01*
X232590076Y-136527152D02*
X232625790Y-136491438D01*
X232625790Y-136491438D02*
X232697219Y-136455724D01*
X232697219Y-136455724D02*
X232804362Y-136455724D01*
X232804362Y-136455724D02*
X232875790Y-136491438D01*
X232875790Y-136491438D02*
X232911505Y-136527152D01*
X232911505Y-136527152D02*
X232947219Y-136598581D01*
X232947219Y-136598581D02*
X232947219Y-136812867D01*
X232947219Y-136812867D02*
X232911505Y-136884295D01*
X232911505Y-136884295D02*
X232875790Y-136920010D01*
X232875790Y-136920010D02*
X232804362Y-136955724D01*
X232804362Y-136955724D02*
X232697219Y-136955724D01*
X233375790Y-136955724D02*
X233304361Y-136920010D01*
X233304361Y-136920010D02*
X233268647Y-136848581D01*
X233268647Y-136848581D02*
X233268647Y-136205724D01*
X233768647Y-136955724D02*
X233697218Y-136920010D01*
X233697218Y-136920010D02*
X233661504Y-136848581D01*
X233661504Y-136848581D02*
X233661504Y-136205724D01*
X234375790Y-136955724D02*
X234375790Y-136562867D01*
X234375790Y-136562867D02*
X234340075Y-136491438D01*
X234340075Y-136491438D02*
X234268647Y-136455724D01*
X234268647Y-136455724D02*
X234125790Y-136455724D01*
X234125790Y-136455724D02*
X234054361Y-136491438D01*
X234375790Y-136920010D02*
X234304361Y-136955724D01*
X234304361Y-136955724D02*
X234125790Y-136955724D01*
X234125790Y-136955724D02*
X234054361Y-136920010D01*
X234054361Y-136920010D02*
X234018647Y-136848581D01*
X234018647Y-136848581D02*
X234018647Y-136777152D01*
X234018647Y-136777152D02*
X234054361Y-136705724D01*
X234054361Y-136705724D02*
X234125790Y-136670010D01*
X234125790Y-136670010D02*
X234304361Y-136670010D01*
X234304361Y-136670010D02*
X234375790Y-136634295D01*
X234732932Y-136955724D02*
X234732932Y-136455724D01*
X234732932Y-136598581D02*
X234768646Y-136527152D01*
X234768646Y-136527152D02*
X234804361Y-136491438D01*
X234804361Y-136491438D02*
X234875789Y-136455724D01*
X234875789Y-136455724D02*
X234947218Y-136455724D01*
X214768646Y-137948896D02*
X215125789Y-137948896D01*
X214697217Y-138163182D02*
X214947217Y-137413182D01*
X214947217Y-137413182D02*
X215197217Y-138163182D01*
X215447217Y-137663182D02*
X215447217Y-138163182D01*
X215447217Y-137734610D02*
X215482931Y-137698896D01*
X215482931Y-137698896D02*
X215554360Y-137663182D01*
X215554360Y-137663182D02*
X215661503Y-137663182D01*
X215661503Y-137663182D02*
X215732931Y-137698896D01*
X215732931Y-137698896D02*
X215768646Y-137770325D01*
X215768646Y-137770325D02*
X215768646Y-138163182D01*
X216447217Y-138163182D02*
X216447217Y-137413182D01*
X216447217Y-138127468D02*
X216375788Y-138163182D01*
X216375788Y-138163182D02*
X216232931Y-138163182D01*
X216232931Y-138163182D02*
X216161502Y-138127468D01*
X216161502Y-138127468D02*
X216125788Y-138091753D01*
X216125788Y-138091753D02*
X216090074Y-138020325D01*
X216090074Y-138020325D02*
X216090074Y-137806039D01*
X216090074Y-137806039D02*
X216125788Y-137734610D01*
X216125788Y-137734610D02*
X216161502Y-137698896D01*
X216161502Y-137698896D02*
X216232931Y-137663182D01*
X216232931Y-137663182D02*
X216375788Y-137663182D01*
X216375788Y-137663182D02*
X216447217Y-137698896D01*
X216804359Y-138163182D02*
X216804359Y-137663182D01*
X216804359Y-137806039D02*
X216840073Y-137734610D01*
X216840073Y-137734610D02*
X216875788Y-137698896D01*
X216875788Y-137698896D02*
X216947216Y-137663182D01*
X216947216Y-137663182D02*
X217018645Y-137663182D01*
X217554359Y-138127468D02*
X217482931Y-138163182D01*
X217482931Y-138163182D02*
X217340074Y-138163182D01*
X217340074Y-138163182D02*
X217268645Y-138127468D01*
X217268645Y-138127468D02*
X217232931Y-138056039D01*
X217232931Y-138056039D02*
X217232931Y-137770325D01*
X217232931Y-137770325D02*
X217268645Y-137698896D01*
X217268645Y-137698896D02*
X217340074Y-137663182D01*
X217340074Y-137663182D02*
X217482931Y-137663182D01*
X217482931Y-137663182D02*
X217554359Y-137698896D01*
X217554359Y-137698896D02*
X217590074Y-137770325D01*
X217590074Y-137770325D02*
X217590074Y-137841753D01*
X217590074Y-137841753D02*
X217232931Y-137913182D01*
X217840073Y-137663182D02*
X217982931Y-138163182D01*
X217982931Y-138163182D02*
X218125788Y-137806039D01*
X218125788Y-137806039D02*
X218268645Y-138163182D01*
X218268645Y-138163182D02*
X218411502Y-137663182D01*
X219197216Y-137413182D02*
X219375788Y-138163182D01*
X219375788Y-138163182D02*
X219518645Y-137627468D01*
X219518645Y-137627468D02*
X219661502Y-138163182D01*
X219661502Y-138163182D02*
X219840074Y-137413182D01*
X220447217Y-137663182D02*
X220447217Y-138163182D01*
X220125788Y-137663182D02*
X220125788Y-138056039D01*
X220125788Y-138056039D02*
X220161502Y-138127468D01*
X220161502Y-138127468D02*
X220232931Y-138163182D01*
X220232931Y-138163182D02*
X220340074Y-138163182D01*
X220340074Y-138163182D02*
X220411502Y-138127468D01*
X220411502Y-138127468D02*
X220447217Y-138091753D01*
X214804360Y-139370640D02*
X214804360Y-138620640D01*
X214804360Y-138620640D02*
X215232931Y-139370640D01*
X215232931Y-139370640D02*
X215232931Y-138620640D01*
X215590074Y-139370640D02*
X215590074Y-138870640D01*
X215590074Y-138620640D02*
X215554360Y-138656354D01*
X215554360Y-138656354D02*
X215590074Y-138692068D01*
X215590074Y-138692068D02*
X215625788Y-138656354D01*
X215625788Y-138656354D02*
X215590074Y-138620640D01*
X215590074Y-138620640D02*
X215590074Y-138692068D01*
X216268646Y-139334926D02*
X216197217Y-139370640D01*
X216197217Y-139370640D02*
X216054360Y-139370640D01*
X216054360Y-139370640D02*
X215982931Y-139334926D01*
X215982931Y-139334926D02*
X215947217Y-139299211D01*
X215947217Y-139299211D02*
X215911503Y-139227783D01*
X215911503Y-139227783D02*
X215911503Y-139013497D01*
X215911503Y-139013497D02*
X215947217Y-138942068D01*
X215947217Y-138942068D02*
X215982931Y-138906354D01*
X215982931Y-138906354D02*
X216054360Y-138870640D01*
X216054360Y-138870640D02*
X216197217Y-138870640D01*
X216197217Y-138870640D02*
X216268646Y-138906354D01*
X216590074Y-139370640D02*
X216590074Y-138620640D01*
X216661503Y-139084926D02*
X216875788Y-139370640D01*
X216875788Y-138870640D02*
X216590074Y-139156354D01*
X217768646Y-139370640D02*
X217768646Y-138620640D01*
X217768646Y-138620640D02*
X217947217Y-138620640D01*
X217947217Y-138620640D02*
X218054360Y-138656354D01*
X218054360Y-138656354D02*
X218125789Y-138727783D01*
X218125789Y-138727783D02*
X218161503Y-138799211D01*
X218161503Y-138799211D02*
X218197217Y-138942068D01*
X218197217Y-138942068D02*
X218197217Y-139049211D01*
X218197217Y-139049211D02*
X218161503Y-139192068D01*
X218161503Y-139192068D02*
X218125789Y-139263497D01*
X218125789Y-139263497D02*
X218054360Y-139334926D01*
X218054360Y-139334926D02*
X217947217Y-139370640D01*
X217947217Y-139370640D02*
X217768646Y-139370640D01*
X218840075Y-138870640D02*
X218840075Y-139370640D01*
X218518646Y-138870640D02*
X218518646Y-139263497D01*
X218518646Y-139263497D02*
X218554360Y-139334926D01*
X218554360Y-139334926D02*
X218625789Y-139370640D01*
X218625789Y-139370640D02*
X218732932Y-139370640D01*
X218732932Y-139370640D02*
X218804360Y-139334926D01*
X218804360Y-139334926D02*
X218840075Y-139299211D01*
X219197217Y-139370640D02*
X219197217Y-138870640D01*
X219197217Y-139013497D02*
X219232931Y-138942068D01*
X219232931Y-138942068D02*
X219268646Y-138906354D01*
X219268646Y-138906354D02*
X219340074Y-138870640D01*
X219340074Y-138870640D02*
X219411503Y-138870640D01*
X219661503Y-138870640D02*
X219661503Y-139370640D01*
X219661503Y-138942068D02*
X219697217Y-138906354D01*
X219697217Y-138906354D02*
X219768646Y-138870640D01*
X219768646Y-138870640D02*
X219875789Y-138870640D01*
X219875789Y-138870640D02*
X219947217Y-138906354D01*
X219947217Y-138906354D02*
X219982932Y-138977783D01*
X219982932Y-138977783D02*
X219982932Y-139370640D01*
X220340074Y-139370640D02*
X220340074Y-138870640D01*
X220340074Y-138620640D02*
X220304360Y-138656354D01*
X220304360Y-138656354D02*
X220340074Y-138692068D01*
X220340074Y-138692068D02*
X220375788Y-138656354D01*
X220375788Y-138656354D02*
X220340074Y-138620640D01*
X220340074Y-138620640D02*
X220340074Y-138692068D01*
X220804360Y-139370640D02*
X220732931Y-139334926D01*
X220732931Y-139334926D02*
X220697217Y-139263497D01*
X220697217Y-139263497D02*
X220697217Y-138620640D01*
X214804360Y-140578098D02*
X214804360Y-139828098D01*
X214804360Y-139828098D02*
X214982931Y-139828098D01*
X214982931Y-139828098D02*
X215090074Y-139863812D01*
X215090074Y-139863812D02*
X215161503Y-139935241D01*
X215161503Y-139935241D02*
X215197217Y-140006669D01*
X215197217Y-140006669D02*
X215232931Y-140149526D01*
X215232931Y-140149526D02*
X215232931Y-140256669D01*
X215232931Y-140256669D02*
X215197217Y-140399526D01*
X215197217Y-140399526D02*
X215161503Y-140470955D01*
X215161503Y-140470955D02*
X215090074Y-140542384D01*
X215090074Y-140542384D02*
X214982931Y-140578098D01*
X214982931Y-140578098D02*
X214804360Y-140578098D01*
X215875789Y-140578098D02*
X215875789Y-140185241D01*
X215875789Y-140185241D02*
X215840074Y-140113812D01*
X215840074Y-140113812D02*
X215768646Y-140078098D01*
X215768646Y-140078098D02*
X215625789Y-140078098D01*
X215625789Y-140078098D02*
X215554360Y-140113812D01*
X215875789Y-140542384D02*
X215804360Y-140578098D01*
X215804360Y-140578098D02*
X215625789Y-140578098D01*
X215625789Y-140578098D02*
X215554360Y-140542384D01*
X215554360Y-140542384D02*
X215518646Y-140470955D01*
X215518646Y-140470955D02*
X215518646Y-140399526D01*
X215518646Y-140399526D02*
X215554360Y-140328098D01*
X215554360Y-140328098D02*
X215625789Y-140292384D01*
X215625789Y-140292384D02*
X215804360Y-140292384D01*
X215804360Y-140292384D02*
X215875789Y-140256669D01*
X216161502Y-140078098D02*
X216340074Y-140578098D01*
X216340074Y-140578098D02*
X216518645Y-140078098D01*
X216804360Y-140578098D02*
X216804360Y-140078098D01*
X216804360Y-139828098D02*
X216768646Y-139863812D01*
X216768646Y-139863812D02*
X216804360Y-139899526D01*
X216804360Y-139899526D02*
X216840074Y-139863812D01*
X216840074Y-139863812D02*
X216804360Y-139828098D01*
X216804360Y-139828098D02*
X216804360Y-139899526D01*
X217482932Y-140578098D02*
X217482932Y-139828098D01*
X217482932Y-140542384D02*
X217411503Y-140578098D01*
X217411503Y-140578098D02*
X217268646Y-140578098D01*
X217268646Y-140578098D02*
X217197217Y-140542384D01*
X217197217Y-140542384D02*
X217161503Y-140506669D01*
X217161503Y-140506669D02*
X217125789Y-140435241D01*
X217125789Y-140435241D02*
X217125789Y-140220955D01*
X217125789Y-140220955D02*
X217161503Y-140149526D01*
X217161503Y-140149526D02*
X217197217Y-140113812D01*
X217197217Y-140113812D02*
X217268646Y-140078098D01*
X217268646Y-140078098D02*
X217411503Y-140078098D01*
X217411503Y-140078098D02*
X217482932Y-140113812D01*
X218411503Y-140578098D02*
X218411503Y-139828098D01*
X218411503Y-139828098D02*
X218661503Y-140363812D01*
X218661503Y-140363812D02*
X218911503Y-139828098D01*
X218911503Y-139828098D02*
X218911503Y-140578098D01*
X219590075Y-140578098D02*
X219590075Y-140185241D01*
X219590075Y-140185241D02*
X219554360Y-140113812D01*
X219554360Y-140113812D02*
X219482932Y-140078098D01*
X219482932Y-140078098D02*
X219340075Y-140078098D01*
X219340075Y-140078098D02*
X219268646Y-140113812D01*
X219590075Y-140542384D02*
X219518646Y-140578098D01*
X219518646Y-140578098D02*
X219340075Y-140578098D01*
X219340075Y-140578098D02*
X219268646Y-140542384D01*
X219268646Y-140542384D02*
X219232932Y-140470955D01*
X219232932Y-140470955D02*
X219232932Y-140399526D01*
X219232932Y-140399526D02*
X219268646Y-140328098D01*
X219268646Y-140328098D02*
X219340075Y-140292384D01*
X219340075Y-140292384D02*
X219518646Y-140292384D01*
X219518646Y-140292384D02*
X219590075Y-140256669D01*
X219947217Y-140078098D02*
X219947217Y-140578098D01*
X219947217Y-140149526D02*
X219982931Y-140113812D01*
X219982931Y-140113812D02*
X220054360Y-140078098D01*
X220054360Y-140078098D02*
X220161503Y-140078098D01*
X220161503Y-140078098D02*
X220232931Y-140113812D01*
X220232931Y-140113812D02*
X220268646Y-140185241D01*
X220268646Y-140185241D02*
X220268646Y-140578098D01*
X220732931Y-140578098D02*
X220661502Y-140542384D01*
X220661502Y-140542384D02*
X220625788Y-140506669D01*
X220625788Y-140506669D02*
X220590074Y-140435241D01*
X220590074Y-140435241D02*
X220590074Y-140220955D01*
X220590074Y-140220955D02*
X220625788Y-140149526D01*
X220625788Y-140149526D02*
X220661502Y-140113812D01*
X220661502Y-140113812D02*
X220732931Y-140078098D01*
X220732931Y-140078098D02*
X220840074Y-140078098D01*
X220840074Y-140078098D02*
X220911502Y-140113812D01*
X220911502Y-140113812D02*
X220947217Y-140149526D01*
X220947217Y-140149526D02*
X220982931Y-140220955D01*
X220982931Y-140220955D02*
X220982931Y-140435241D01*
X220982931Y-140435241D02*
X220947217Y-140506669D01*
X220947217Y-140506669D02*
X220911502Y-140542384D01*
X220911502Y-140542384D02*
X220840074Y-140578098D01*
X220840074Y-140578098D02*
X220732931Y-140578098D01*
X221304359Y-140078098D02*
X221304359Y-140720955D01*
X221304359Y-140720955D02*
X221268645Y-140792384D01*
X221268645Y-140792384D02*
X221197216Y-140828098D01*
X221197216Y-140828098D02*
X221161502Y-140828098D01*
X221304359Y-139828098D02*
X221268645Y-139863812D01*
X221268645Y-139863812D02*
X221304359Y-139899526D01*
X221304359Y-139899526D02*
X221340073Y-139863812D01*
X221340073Y-139863812D02*
X221304359Y-139828098D01*
X221304359Y-139828098D02*
X221304359Y-139899526D01*
X221768645Y-140578098D02*
X221697216Y-140542384D01*
X221697216Y-140542384D02*
X221661502Y-140470955D01*
X221661502Y-140470955D02*
X221661502Y-139828098D01*
X222161502Y-140578098D02*
X222090073Y-140542384D01*
X222090073Y-140542384D02*
X222054359Y-140506669D01*
X222054359Y-140506669D02*
X222018645Y-140435241D01*
X222018645Y-140435241D02*
X222018645Y-140220955D01*
X222018645Y-140220955D02*
X222054359Y-140149526D01*
X222054359Y-140149526D02*
X222090073Y-140113812D01*
X222090073Y-140113812D02*
X222161502Y-140078098D01*
X222161502Y-140078098D02*
X222268645Y-140078098D01*
X222268645Y-140078098D02*
X222340073Y-140113812D01*
X222340073Y-140113812D02*
X222375788Y-140149526D01*
X222375788Y-140149526D02*
X222411502Y-140220955D01*
X222411502Y-140220955D02*
X222411502Y-140435241D01*
X222411502Y-140435241D02*
X222375788Y-140506669D01*
X222375788Y-140506669D02*
X222340073Y-140542384D01*
X222340073Y-140542384D02*
X222268645Y-140578098D01*
X222268645Y-140578098D02*
X222161502Y-140578098D01*
X222661501Y-140078098D02*
X222840073Y-140578098D01*
X222840073Y-140578098D02*
X223018644Y-140078098D01*
X223304359Y-140578098D02*
X223304359Y-140078098D01*
X223304359Y-139828098D02*
X223268645Y-139863812D01*
X223268645Y-139863812D02*
X223304359Y-139899526D01*
X223304359Y-139899526D02*
X223340073Y-139863812D01*
X223340073Y-139863812D02*
X223304359Y-139828098D01*
X223304359Y-139828098D02*
X223304359Y-139899526D01*
X223982931Y-140542384D02*
X223911502Y-140578098D01*
X223911502Y-140578098D02*
X223768645Y-140578098D01*
X223768645Y-140578098D02*
X223697216Y-140542384D01*
X223697216Y-140542384D02*
X223661502Y-140506669D01*
X223661502Y-140506669D02*
X223625788Y-140435241D01*
X223625788Y-140435241D02*
X223625788Y-140220955D01*
X223625788Y-140220955D02*
X223661502Y-140149526D01*
X223661502Y-140149526D02*
X223697216Y-140113812D01*
X223697216Y-140113812D02*
X223768645Y-140078098D01*
X223768645Y-140078098D02*
X223911502Y-140078098D01*
X223911502Y-140078098D02*
X223982931Y-140113812D01*
X214804360Y-141392699D02*
X215054360Y-141392699D01*
X215161503Y-141785556D02*
X214804360Y-141785556D01*
X214804360Y-141785556D02*
X214804360Y-141035556D01*
X214804360Y-141035556D02*
X215161503Y-141035556D01*
X215375788Y-141285556D02*
X215661502Y-141285556D01*
X215482931Y-141035556D02*
X215482931Y-141678413D01*
X215482931Y-141678413D02*
X215518645Y-141749842D01*
X215518645Y-141749842D02*
X215590074Y-141785556D01*
X215590074Y-141785556D02*
X215661502Y-141785556D01*
X215911502Y-141785556D02*
X215911502Y-141035556D01*
X216232931Y-141785556D02*
X216232931Y-141392699D01*
X216232931Y-141392699D02*
X216197216Y-141321270D01*
X216197216Y-141321270D02*
X216125788Y-141285556D01*
X216125788Y-141285556D02*
X216018645Y-141285556D01*
X216018645Y-141285556D02*
X215947216Y-141321270D01*
X215947216Y-141321270D02*
X215911502Y-141356984D01*
X216911502Y-141785556D02*
X216911502Y-141392699D01*
X216911502Y-141392699D02*
X216875787Y-141321270D01*
X216875787Y-141321270D02*
X216804359Y-141285556D01*
X216804359Y-141285556D02*
X216661502Y-141285556D01*
X216661502Y-141285556D02*
X216590073Y-141321270D01*
X216911502Y-141749842D02*
X216840073Y-141785556D01*
X216840073Y-141785556D02*
X216661502Y-141785556D01*
X216661502Y-141785556D02*
X216590073Y-141749842D01*
X216590073Y-141749842D02*
X216554359Y-141678413D01*
X216554359Y-141678413D02*
X216554359Y-141606984D01*
X216554359Y-141606984D02*
X216590073Y-141535556D01*
X216590073Y-141535556D02*
X216661502Y-141499842D01*
X216661502Y-141499842D02*
X216840073Y-141499842D01*
X216840073Y-141499842D02*
X216911502Y-141464127D01*
X217268644Y-141285556D02*
X217268644Y-141785556D01*
X217268644Y-141356984D02*
X217304358Y-141321270D01*
X217304358Y-141321270D02*
X217375787Y-141285556D01*
X217375787Y-141285556D02*
X217482930Y-141285556D01*
X217482930Y-141285556D02*
X217554358Y-141321270D01*
X217554358Y-141321270D02*
X217590073Y-141392699D01*
X217590073Y-141392699D02*
X217590073Y-141785556D01*
X218732930Y-141035556D02*
X218732930Y-141571270D01*
X218732930Y-141571270D02*
X218697215Y-141678413D01*
X218697215Y-141678413D02*
X218625787Y-141749842D01*
X218625787Y-141749842D02*
X218518644Y-141785556D01*
X218518644Y-141785556D02*
X218447215Y-141785556D01*
X219411502Y-141785556D02*
X219411502Y-141392699D01*
X219411502Y-141392699D02*
X219375787Y-141321270D01*
X219375787Y-141321270D02*
X219304359Y-141285556D01*
X219304359Y-141285556D02*
X219161502Y-141285556D01*
X219161502Y-141285556D02*
X219090073Y-141321270D01*
X219411502Y-141749842D02*
X219340073Y-141785556D01*
X219340073Y-141785556D02*
X219161502Y-141785556D01*
X219161502Y-141785556D02*
X219090073Y-141749842D01*
X219090073Y-141749842D02*
X219054359Y-141678413D01*
X219054359Y-141678413D02*
X219054359Y-141606984D01*
X219054359Y-141606984D02*
X219090073Y-141535556D01*
X219090073Y-141535556D02*
X219161502Y-141499842D01*
X219161502Y-141499842D02*
X219340073Y-141499842D01*
X219340073Y-141499842D02*
X219411502Y-141464127D01*
X219768644Y-141785556D02*
X219768644Y-141285556D01*
X219768644Y-141356984D02*
X219804358Y-141321270D01*
X219804358Y-141321270D02*
X219875787Y-141285556D01*
X219875787Y-141285556D02*
X219982930Y-141285556D01*
X219982930Y-141285556D02*
X220054358Y-141321270D01*
X220054358Y-141321270D02*
X220090073Y-141392699D01*
X220090073Y-141392699D02*
X220090073Y-141785556D01*
X220090073Y-141392699D02*
X220125787Y-141321270D01*
X220125787Y-141321270D02*
X220197215Y-141285556D01*
X220197215Y-141285556D02*
X220304358Y-141285556D01*
X220304358Y-141285556D02*
X220375787Y-141321270D01*
X220375787Y-141321270D02*
X220411501Y-141392699D01*
X220411501Y-141392699D02*
X220411501Y-141785556D01*
X221054358Y-141749842D02*
X220982930Y-141785556D01*
X220982930Y-141785556D02*
X220840073Y-141785556D01*
X220840073Y-141785556D02*
X220768644Y-141749842D01*
X220768644Y-141749842D02*
X220732930Y-141678413D01*
X220732930Y-141678413D02*
X220732930Y-141392699D01*
X220732930Y-141392699D02*
X220768644Y-141321270D01*
X220768644Y-141321270D02*
X220840073Y-141285556D01*
X220840073Y-141285556D02*
X220982930Y-141285556D01*
X220982930Y-141285556D02*
X221054358Y-141321270D01*
X221054358Y-141321270D02*
X221090073Y-141392699D01*
X221090073Y-141392699D02*
X221090073Y-141464127D01*
X221090073Y-141464127D02*
X220732930Y-141535556D01*
X221375787Y-141749842D02*
X221447215Y-141785556D01*
X221447215Y-141785556D02*
X221590072Y-141785556D01*
X221590072Y-141785556D02*
X221661501Y-141749842D01*
X221661501Y-141749842D02*
X221697215Y-141678413D01*
X221697215Y-141678413D02*
X221697215Y-141642699D01*
X221697215Y-141642699D02*
X221661501Y-141571270D01*
X221661501Y-141571270D02*
X221590072Y-141535556D01*
X221590072Y-141535556D02*
X221482930Y-141535556D01*
X221482930Y-141535556D02*
X221411501Y-141499842D01*
X221411501Y-141499842D02*
X221375787Y-141428413D01*
X221375787Y-141428413D02*
X221375787Y-141392699D01*
X221375787Y-141392699D02*
X221411501Y-141321270D01*
X221411501Y-141321270D02*
X221482930Y-141285556D01*
X221482930Y-141285556D02*
X221590072Y-141285556D01*
X221590072Y-141285556D02*
X221661501Y-141321270D01*
X214697217Y-142243014D02*
X214947217Y-142993014D01*
X214947217Y-142993014D02*
X215197217Y-142243014D01*
X215732931Y-142957300D02*
X215661503Y-142993014D01*
X215661503Y-142993014D02*
X215518646Y-142993014D01*
X215518646Y-142993014D02*
X215447217Y-142957300D01*
X215447217Y-142957300D02*
X215411503Y-142885871D01*
X215411503Y-142885871D02*
X215411503Y-142600157D01*
X215411503Y-142600157D02*
X215447217Y-142528728D01*
X215447217Y-142528728D02*
X215518646Y-142493014D01*
X215518646Y-142493014D02*
X215661503Y-142493014D01*
X215661503Y-142493014D02*
X215732931Y-142528728D01*
X215732931Y-142528728D02*
X215768646Y-142600157D01*
X215768646Y-142600157D02*
X215768646Y-142671585D01*
X215768646Y-142671585D02*
X215411503Y-142743014D01*
X216090074Y-142993014D02*
X216090074Y-142493014D01*
X216090074Y-142635871D02*
X216125788Y-142564442D01*
X216125788Y-142564442D02*
X216161503Y-142528728D01*
X216161503Y-142528728D02*
X216232931Y-142493014D01*
X216232931Y-142493014D02*
X216304360Y-142493014D01*
X216518646Y-142957300D02*
X216590074Y-142993014D01*
X216590074Y-142993014D02*
X216732931Y-142993014D01*
X216732931Y-142993014D02*
X216804360Y-142957300D01*
X216804360Y-142957300D02*
X216840074Y-142885871D01*
X216840074Y-142885871D02*
X216840074Y-142850157D01*
X216840074Y-142850157D02*
X216804360Y-142778728D01*
X216804360Y-142778728D02*
X216732931Y-142743014D01*
X216732931Y-142743014D02*
X216625789Y-142743014D01*
X216625789Y-142743014D02*
X216554360Y-142707300D01*
X216554360Y-142707300D02*
X216518646Y-142635871D01*
X216518646Y-142635871D02*
X216518646Y-142600157D01*
X216518646Y-142600157D02*
X216554360Y-142528728D01*
X216554360Y-142528728D02*
X216625789Y-142493014D01*
X216625789Y-142493014D02*
X216732931Y-142493014D01*
X216732931Y-142493014D02*
X216804360Y-142528728D01*
X217161503Y-142993014D02*
X217161503Y-142493014D01*
X217161503Y-142243014D02*
X217125789Y-142278728D01*
X217125789Y-142278728D02*
X217161503Y-142314442D01*
X217161503Y-142314442D02*
X217197217Y-142278728D01*
X217197217Y-142278728D02*
X217161503Y-142243014D01*
X217161503Y-142243014D02*
X217161503Y-142314442D01*
X217625789Y-142993014D02*
X217554360Y-142957300D01*
X217554360Y-142957300D02*
X217518646Y-142921585D01*
X217518646Y-142921585D02*
X217482932Y-142850157D01*
X217482932Y-142850157D02*
X217482932Y-142635871D01*
X217482932Y-142635871D02*
X217518646Y-142564442D01*
X217518646Y-142564442D02*
X217554360Y-142528728D01*
X217554360Y-142528728D02*
X217625789Y-142493014D01*
X217625789Y-142493014D02*
X217732932Y-142493014D01*
X217732932Y-142493014D02*
X217804360Y-142528728D01*
X217804360Y-142528728D02*
X217840075Y-142564442D01*
X217840075Y-142564442D02*
X217875789Y-142635871D01*
X217875789Y-142635871D02*
X217875789Y-142850157D01*
X217875789Y-142850157D02*
X217840075Y-142921585D01*
X217840075Y-142921585D02*
X217804360Y-142957300D01*
X217804360Y-142957300D02*
X217732932Y-142993014D01*
X217732932Y-142993014D02*
X217625789Y-142993014D01*
X218197217Y-142493014D02*
X218197217Y-142993014D01*
X218197217Y-142564442D02*
X218232931Y-142528728D01*
X218232931Y-142528728D02*
X218304360Y-142493014D01*
X218304360Y-142493014D02*
X218411503Y-142493014D01*
X218411503Y-142493014D02*
X218482931Y-142528728D01*
X218482931Y-142528728D02*
X218518646Y-142600157D01*
X218518646Y-142600157D02*
X218518646Y-142993014D01*
X219804360Y-142243014D02*
X219447217Y-142243014D01*
X219447217Y-142243014D02*
X219411503Y-142600157D01*
X219411503Y-142600157D02*
X219447217Y-142564442D01*
X219447217Y-142564442D02*
X219518646Y-142528728D01*
X219518646Y-142528728D02*
X219697217Y-142528728D01*
X219697217Y-142528728D02*
X219768646Y-142564442D01*
X219768646Y-142564442D02*
X219804360Y-142600157D01*
X219804360Y-142600157D02*
X219840074Y-142671585D01*
X219840074Y-142671585D02*
X219840074Y-142850157D01*
X219840074Y-142850157D02*
X219804360Y-142921585D01*
X219804360Y-142921585D02*
X219768646Y-142957300D01*
X219768646Y-142957300D02*
X219697217Y-142993014D01*
X219697217Y-142993014D02*
X219518646Y-142993014D01*
X219518646Y-142993014D02*
X219447217Y-142957300D01*
X219447217Y-142957300D02*
X219411503Y-142921585D01*
D11*
X183909636Y-131899819D02*
X183909636Y-132137914D01*
X183671541Y-132042676D02*
X183909636Y-132137914D01*
X183909636Y-132137914D02*
X184147731Y-132042676D01*
X183766779Y-132328390D02*
X183909636Y-132137914D01*
X183909636Y-132137914D02*
X184052493Y-132328390D01*
X206389636Y-98429819D02*
X206389636Y-98667914D01*
X206151541Y-98572676D02*
X206389636Y-98667914D01*
X206389636Y-98667914D02*
X206627731Y-98572676D01*
X206246779Y-98858390D02*
X206389636Y-98667914D01*
X206389636Y-98667914D02*
X206532493Y-98858390D01*
X197209636Y-113994819D02*
X197209636Y-114232914D01*
X196971541Y-114137676D02*
X197209636Y-114232914D01*
X197209636Y-114232914D02*
X197447731Y-114137676D01*
X197066779Y-114423390D02*
X197209636Y-114232914D01*
X197209636Y-114232914D02*
X197352493Y-114423390D01*
X179619636Y-121719819D02*
X179619636Y-121957914D01*
X179381541Y-121862676D02*
X179619636Y-121957914D01*
X179619636Y-121957914D02*
X179857731Y-121862676D01*
X179476779Y-122148390D02*
X179619636Y-121957914D01*
X179619636Y-121957914D02*
X179762493Y-122148390D01*
X179859636Y-116649819D02*
X179859636Y-116887914D01*
X179621541Y-116792676D02*
X179859636Y-116887914D01*
X179859636Y-116887914D02*
X180097731Y-116792676D01*
X179716779Y-117078390D02*
X179859636Y-116887914D01*
X179859636Y-116887914D02*
X180002493Y-117078390D01*
X193429636Y-118209819D02*
X193429636Y-118447914D01*
X193191541Y-118352676D02*
X193429636Y-118447914D01*
X193429636Y-118447914D02*
X193667731Y-118352676D01*
X193286779Y-118638390D02*
X193429636Y-118447914D01*
X193429636Y-118447914D02*
X193572493Y-118638390D01*
X179649636Y-126779819D02*
X179649636Y-127017914D01*
X179411541Y-126922676D02*
X179649636Y-127017914D01*
X179649636Y-127017914D02*
X179887731Y-126922676D01*
X179506779Y-127208390D02*
X179649636Y-127017914D01*
X179649636Y-127017914D02*
X179792493Y-127208390D01*
X177833333Y-99454819D02*
X177500000Y-98978628D01*
X177261905Y-99454819D02*
X177261905Y-98454819D01*
X177261905Y-98454819D02*
X177642857Y-98454819D01*
X177642857Y-98454819D02*
X177738095Y-98502438D01*
X177738095Y-98502438D02*
X177785714Y-98550057D01*
X177785714Y-98550057D02*
X177833333Y-98645295D01*
X177833333Y-98645295D02*
X177833333Y-98788152D01*
X177833333Y-98788152D02*
X177785714Y-98883390D01*
X177785714Y-98883390D02*
X177738095Y-98931009D01*
X177738095Y-98931009D02*
X177642857Y-98978628D01*
X177642857Y-98978628D02*
X177261905Y-98978628D01*
X178166667Y-98454819D02*
X178785714Y-98454819D01*
X178785714Y-98454819D02*
X178452381Y-98835771D01*
X178452381Y-98835771D02*
X178595238Y-98835771D01*
X178595238Y-98835771D02*
X178690476Y-98883390D01*
X178690476Y-98883390D02*
X178738095Y-98931009D01*
X178738095Y-98931009D02*
X178785714Y-99026247D01*
X178785714Y-99026247D02*
X178785714Y-99264342D01*
X178785714Y-99264342D02*
X178738095Y-99359580D01*
X178738095Y-99359580D02*
X178690476Y-99407200D01*
X178690476Y-99407200D02*
X178595238Y-99454819D01*
X178595238Y-99454819D02*
X178309524Y-99454819D01*
X178309524Y-99454819D02*
X178214286Y-99407200D01*
X178214286Y-99407200D02*
X178166667Y-99359580D01*
X204260833Y-95344819D02*
X203784643Y-95344819D01*
X203784643Y-95344819D02*
X203784643Y-94344819D01*
X205117976Y-95344819D02*
X204546548Y-95344819D01*
X204832262Y-95344819D02*
X204832262Y-94344819D01*
X204832262Y-94344819D02*
X204737024Y-94487676D01*
X204737024Y-94487676D02*
X204641786Y-94582914D01*
X204641786Y-94582914D02*
X204546548Y-94630533D01*
X219454819Y-116166666D02*
X218978628Y-116499999D01*
X219454819Y-116738094D02*
X218454819Y-116738094D01*
X218454819Y-116738094D02*
X218454819Y-116357142D01*
X218454819Y-116357142D02*
X218502438Y-116261904D01*
X218502438Y-116261904D02*
X218550057Y-116214285D01*
X218550057Y-116214285D02*
X218645295Y-116166666D01*
X218645295Y-116166666D02*
X218788152Y-116166666D01*
X218788152Y-116166666D02*
X218883390Y-116214285D01*
X218883390Y-116214285D02*
X218931009Y-116261904D01*
X218931009Y-116261904D02*
X218978628Y-116357142D01*
X218978628Y-116357142D02*
X218978628Y-116738094D01*
X218454819Y-115309523D02*
X218454819Y-115499999D01*
X218454819Y-115499999D02*
X218502438Y-115595237D01*
X218502438Y-115595237D02*
X218550057Y-115642856D01*
X218550057Y-115642856D02*
X218692914Y-115738094D01*
X218692914Y-115738094D02*
X218883390Y-115785713D01*
X218883390Y-115785713D02*
X219264342Y-115785713D01*
X219264342Y-115785713D02*
X219359580Y-115738094D01*
X219359580Y-115738094D02*
X219407200Y-115690475D01*
X219407200Y-115690475D02*
X219454819Y-115595237D01*
X219454819Y-115595237D02*
X219454819Y-115404761D01*
X219454819Y-115404761D02*
X219407200Y-115309523D01*
X219407200Y-115309523D02*
X219359580Y-115261904D01*
X219359580Y-115261904D02*
X219264342Y-115214285D01*
X219264342Y-115214285D02*
X219026247Y-115214285D01*
X219026247Y-115214285D02*
X218931009Y-115261904D01*
X218931009Y-115261904D02*
X218883390Y-115309523D01*
X218883390Y-115309523D02*
X218835771Y-115404761D01*
X218835771Y-115404761D02*
X218835771Y-115595237D01*
X218835771Y-115595237D02*
X218883390Y-115690475D01*
X218883390Y-115690475D02*
X218931009Y-115738094D01*
X218931009Y-115738094D02*
X219026247Y-115785713D01*
X231918095Y-125164819D02*
X231918095Y-124164819D01*
X231918095Y-124641009D02*
X232489523Y-124641009D01*
X232489523Y-125164819D02*
X232489523Y-124164819D01*
X233489523Y-125164819D02*
X232918095Y-125164819D01*
X233203809Y-125164819D02*
X233203809Y-124164819D01*
X233203809Y-124164819D02*
X233108571Y-124307676D01*
X233108571Y-124307676D02*
X233013333Y-124402914D01*
X233013333Y-124402914D02*
X232918095Y-124450533D01*
X172666666Y-123140419D02*
X172714285Y-123092800D01*
X172714285Y-123092800D02*
X172857142Y-123045180D01*
X172857142Y-123045180D02*
X172952380Y-123045180D01*
X172952380Y-123045180D02*
X173095237Y-123092800D01*
X173095237Y-123092800D02*
X173190475Y-123188038D01*
X173190475Y-123188038D02*
X173238094Y-123283276D01*
X173238094Y-123283276D02*
X173285713Y-123473752D01*
X173285713Y-123473752D02*
X173285713Y-123616609D01*
X173285713Y-123616609D02*
X173238094Y-123807085D01*
X173238094Y-123807085D02*
X173190475Y-123902323D01*
X173190475Y-123902323D02*
X173095237Y-123997561D01*
X173095237Y-123997561D02*
X172952380Y-124045180D01*
X172952380Y-124045180D02*
X172857142Y-124045180D01*
X172857142Y-124045180D02*
X172714285Y-123997561D01*
X172714285Y-123997561D02*
X172666666Y-123949942D01*
X171809523Y-124045180D02*
X171999999Y-124045180D01*
X171999999Y-124045180D02*
X172095237Y-123997561D01*
X172095237Y-123997561D02*
X172142856Y-123949942D01*
X172142856Y-123949942D02*
X172238094Y-123807085D01*
X172238094Y-123807085D02*
X172285713Y-123616609D01*
X172285713Y-123616609D02*
X172285713Y-123235657D01*
X172285713Y-123235657D02*
X172238094Y-123140419D01*
X172238094Y-123140419D02*
X172190475Y-123092800D01*
X172190475Y-123092800D02*
X172095237Y-123045180D01*
X172095237Y-123045180D02*
X171904761Y-123045180D01*
X171904761Y-123045180D02*
X171809523Y-123092800D01*
X171809523Y-123092800D02*
X171761904Y-123140419D01*
X171761904Y-123140419D02*
X171714285Y-123235657D01*
X171714285Y-123235657D02*
X171714285Y-123473752D01*
X171714285Y-123473752D02*
X171761904Y-123568990D01*
X171761904Y-123568990D02*
X171809523Y-123616609D01*
X171809523Y-123616609D02*
X171904761Y-123664228D01*
X171904761Y-123664228D02*
X172095237Y-123664228D01*
X172095237Y-123664228D02*
X172190475Y-123616609D01*
X172190475Y-123616609D02*
X172238094Y-123568990D01*
X172238094Y-123568990D02*
X172285713Y-123473752D01*
X208788095Y-86154819D02*
X208788095Y-85154819D01*
X208788095Y-85631009D02*
X209359523Y-85631009D01*
X209359523Y-86154819D02*
X209359523Y-85154819D01*
X209788095Y-85250057D02*
X209835714Y-85202438D01*
X209835714Y-85202438D02*
X209930952Y-85154819D01*
X209930952Y-85154819D02*
X210169047Y-85154819D01*
X210169047Y-85154819D02*
X210264285Y-85202438D01*
X210264285Y-85202438D02*
X210311904Y-85250057D01*
X210311904Y-85250057D02*
X210359523Y-85345295D01*
X210359523Y-85345295D02*
X210359523Y-85440533D01*
X210359523Y-85440533D02*
X210311904Y-85583390D01*
X210311904Y-85583390D02*
X209740476Y-86154819D01*
X209740476Y-86154819D02*
X210359523Y-86154819D01*
X177683333Y-85996619D02*
X177207143Y-85996619D01*
X177207143Y-85996619D02*
X177207143Y-84996619D01*
X177969048Y-85091857D02*
X178016667Y-85044238D01*
X178016667Y-85044238D02*
X178111905Y-84996619D01*
X178111905Y-84996619D02*
X178350000Y-84996619D01*
X178350000Y-84996619D02*
X178445238Y-85044238D01*
X178445238Y-85044238D02*
X178492857Y-85091857D01*
X178492857Y-85091857D02*
X178540476Y-85187095D01*
X178540476Y-85187095D02*
X178540476Y-85282333D01*
X178540476Y-85282333D02*
X178492857Y-85425190D01*
X178492857Y-85425190D02*
X177921429Y-85996619D01*
X177921429Y-85996619D02*
X178540476Y-85996619D01*
D12*
X216744329Y-96745058D02*
X217283874Y-96745058D01*
X217283874Y-96745058D02*
X217347350Y-96713320D01*
X217347350Y-96713320D02*
X217379088Y-96681582D01*
X217379088Y-96681582D02*
X217410825Y-96618106D01*
X217410825Y-96618106D02*
X217410825Y-96491155D01*
X217410825Y-96491155D02*
X217379088Y-96427679D01*
X217379088Y-96427679D02*
X217347350Y-96395941D01*
X217347350Y-96395941D02*
X217283874Y-96364203D01*
X217283874Y-96364203D02*
X216744329Y-96364203D01*
X216807805Y-96078562D02*
X216776067Y-96046824D01*
X216776067Y-96046824D02*
X216744329Y-95983348D01*
X216744329Y-95983348D02*
X216744329Y-95824659D01*
X216744329Y-95824659D02*
X216776067Y-95761183D01*
X216776067Y-95761183D02*
X216807805Y-95729445D01*
X216807805Y-95729445D02*
X216871281Y-95697707D01*
X216871281Y-95697707D02*
X216934757Y-95697707D01*
X216934757Y-95697707D02*
X217029971Y-95729445D01*
X217029971Y-95729445D02*
X217410825Y-96110300D01*
X217410825Y-96110300D02*
X217410825Y-95697707D01*
D11*
X196448095Y-111884819D02*
X196448095Y-112694342D01*
X196448095Y-112694342D02*
X196495714Y-112789580D01*
X196495714Y-112789580D02*
X196543333Y-112837200D01*
X196543333Y-112837200D02*
X196638571Y-112884819D01*
X196638571Y-112884819D02*
X196829047Y-112884819D01*
X196829047Y-112884819D02*
X196924285Y-112837200D01*
X196924285Y-112837200D02*
X196971904Y-112789580D01*
X196971904Y-112789580D02*
X197019523Y-112694342D01*
X197019523Y-112694342D02*
X197019523Y-111884819D01*
X198019523Y-112884819D02*
X197448095Y-112884819D01*
X197733809Y-112884819D02*
X197733809Y-111884819D01*
X197733809Y-111884819D02*
X197638571Y-112027676D01*
X197638571Y-112027676D02*
X197543333Y-112122914D01*
X197543333Y-112122914D02*
X197448095Y-112170533D01*
X184166666Y-133640419D02*
X184214285Y-133592800D01*
X184214285Y-133592800D02*
X184357142Y-133545180D01*
X184357142Y-133545180D02*
X184452380Y-133545180D01*
X184452380Y-133545180D02*
X184595237Y-133592800D01*
X184595237Y-133592800D02*
X184690475Y-133688038D01*
X184690475Y-133688038D02*
X184738094Y-133783276D01*
X184738094Y-133783276D02*
X184785713Y-133973752D01*
X184785713Y-133973752D02*
X184785713Y-134116609D01*
X184785713Y-134116609D02*
X184738094Y-134307085D01*
X184738094Y-134307085D02*
X184690475Y-134402323D01*
X184690475Y-134402323D02*
X184595237Y-134497561D01*
X184595237Y-134497561D02*
X184452380Y-134545180D01*
X184452380Y-134545180D02*
X184357142Y-134545180D01*
X184357142Y-134545180D02*
X184214285Y-134497561D01*
X184214285Y-134497561D02*
X184166666Y-134449942D01*
X183690475Y-133545180D02*
X183499999Y-133545180D01*
X183499999Y-133545180D02*
X183404761Y-133592800D01*
X183404761Y-133592800D02*
X183357142Y-133640419D01*
X183357142Y-133640419D02*
X183261904Y-133783276D01*
X183261904Y-133783276D02*
X183214285Y-133973752D01*
X183214285Y-133973752D02*
X183214285Y-134354704D01*
X183214285Y-134354704D02*
X183261904Y-134449942D01*
X183261904Y-134449942D02*
X183309523Y-134497561D01*
X183309523Y-134497561D02*
X183404761Y-134545180D01*
X183404761Y-134545180D02*
X183595237Y-134545180D01*
X183595237Y-134545180D02*
X183690475Y-134497561D01*
X183690475Y-134497561D02*
X183738094Y-134449942D01*
X183738094Y-134449942D02*
X183785713Y-134354704D01*
X183785713Y-134354704D02*
X183785713Y-134116609D01*
X183785713Y-134116609D02*
X183738094Y-134021371D01*
X183738094Y-134021371D02*
X183690475Y-133973752D01*
X183690475Y-133973752D02*
X183595237Y-133926133D01*
X183595237Y-133926133D02*
X183404761Y-133926133D01*
X183404761Y-133926133D02*
X183309523Y-133973752D01*
X183309523Y-133973752D02*
X183261904Y-134021371D01*
X183261904Y-134021371D02*
X183214285Y-134116609D01*
X172666666Y-118140419D02*
X172714285Y-118092800D01*
X172714285Y-118092800D02*
X172857142Y-118045180D01*
X172857142Y-118045180D02*
X172952380Y-118045180D01*
X172952380Y-118045180D02*
X173095237Y-118092800D01*
X173095237Y-118092800D02*
X173190475Y-118188038D01*
X173190475Y-118188038D02*
X173238094Y-118283276D01*
X173238094Y-118283276D02*
X173285713Y-118473752D01*
X173285713Y-118473752D02*
X173285713Y-118616609D01*
X173285713Y-118616609D02*
X173238094Y-118807085D01*
X173238094Y-118807085D02*
X173190475Y-118902323D01*
X173190475Y-118902323D02*
X173095237Y-118997561D01*
X173095237Y-118997561D02*
X172952380Y-119045180D01*
X172952380Y-119045180D02*
X172857142Y-119045180D01*
X172857142Y-119045180D02*
X172714285Y-118997561D01*
X172714285Y-118997561D02*
X172666666Y-118949942D01*
X172333332Y-119045180D02*
X171666666Y-119045180D01*
X171666666Y-119045180D02*
X172095237Y-118045180D01*
X187415180Y-122828095D02*
X186605657Y-122828095D01*
X186605657Y-122828095D02*
X186510419Y-122875714D01*
X186510419Y-122875714D02*
X186462800Y-122923333D01*
X186462800Y-122923333D02*
X186415180Y-123018571D01*
X186415180Y-123018571D02*
X186415180Y-123209047D01*
X186415180Y-123209047D02*
X186462800Y-123304285D01*
X186462800Y-123304285D02*
X186510419Y-123351904D01*
X186510419Y-123351904D02*
X186605657Y-123399523D01*
X186605657Y-123399523D02*
X187415180Y-123399523D01*
X186986609Y-124018571D02*
X187034228Y-123923333D01*
X187034228Y-123923333D02*
X187081847Y-123875714D01*
X187081847Y-123875714D02*
X187177085Y-123828095D01*
X187177085Y-123828095D02*
X187224704Y-123828095D01*
X187224704Y-123828095D02*
X187319942Y-123875714D01*
X187319942Y-123875714D02*
X187367561Y-123923333D01*
X187367561Y-123923333D02*
X187415180Y-124018571D01*
X187415180Y-124018571D02*
X187415180Y-124209047D01*
X187415180Y-124209047D02*
X187367561Y-124304285D01*
X187367561Y-124304285D02*
X187319942Y-124351904D01*
X187319942Y-124351904D02*
X187224704Y-124399523D01*
X187224704Y-124399523D02*
X187177085Y-124399523D01*
X187177085Y-124399523D02*
X187081847Y-124351904D01*
X187081847Y-124351904D02*
X187034228Y-124304285D01*
X187034228Y-124304285D02*
X186986609Y-124209047D01*
X186986609Y-124209047D02*
X186986609Y-124018571D01*
X186986609Y-124018571D02*
X186938990Y-123923333D01*
X186938990Y-123923333D02*
X186891371Y-123875714D01*
X186891371Y-123875714D02*
X186796133Y-123828095D01*
X186796133Y-123828095D02*
X186605657Y-123828095D01*
X186605657Y-123828095D02*
X186510419Y-123875714D01*
X186510419Y-123875714D02*
X186462800Y-123923333D01*
X186462800Y-123923333D02*
X186415180Y-124018571D01*
X186415180Y-124018571D02*
X186415180Y-124209047D01*
X186415180Y-124209047D02*
X186462800Y-124304285D01*
X186462800Y-124304285D02*
X186510419Y-124351904D01*
X186510419Y-124351904D02*
X186605657Y-124399523D01*
X186605657Y-124399523D02*
X186796133Y-124399523D01*
X186796133Y-124399523D02*
X186891371Y-124351904D01*
X186891371Y-124351904D02*
X186938990Y-124304285D01*
X186938990Y-124304285D02*
X186986609Y-124209047D01*
X187095180Y-121670000D02*
X186857085Y-121670000D01*
X186952323Y-121431905D02*
X186857085Y-121670000D01*
X186857085Y-121670000D02*
X186952323Y-121908095D01*
X186666609Y-121527143D02*
X186857085Y-121670000D01*
X186857085Y-121670000D02*
X186666609Y-121812857D01*
X185861619Y-121561849D02*
X186099714Y-121561849D01*
X186004476Y-121799944D02*
X186099714Y-121561849D01*
X186099714Y-121561849D02*
X186004476Y-121323754D01*
X186290190Y-121704706D02*
X186099714Y-121561849D01*
X186099714Y-121561849D02*
X186290190Y-121418992D01*
X193954819Y-114761904D02*
X194764342Y-114761904D01*
X194764342Y-114761904D02*
X194859580Y-114714285D01*
X194859580Y-114714285D02*
X194907200Y-114666666D01*
X194907200Y-114666666D02*
X194954819Y-114571428D01*
X194954819Y-114571428D02*
X194954819Y-114380952D01*
X194954819Y-114380952D02*
X194907200Y-114285714D01*
X194907200Y-114285714D02*
X194859580Y-114238095D01*
X194859580Y-114238095D02*
X194764342Y-114190476D01*
X194764342Y-114190476D02*
X193954819Y-114190476D01*
X194954819Y-113666666D02*
X194954819Y-113476190D01*
X194954819Y-113476190D02*
X194907200Y-113380952D01*
X194907200Y-113380952D02*
X194859580Y-113333333D01*
X194859580Y-113333333D02*
X194716723Y-113238095D01*
X194716723Y-113238095D02*
X194526247Y-113190476D01*
X194526247Y-113190476D02*
X194145295Y-113190476D01*
X194145295Y-113190476D02*
X194050057Y-113238095D01*
X194050057Y-113238095D02*
X194002438Y-113285714D01*
X194002438Y-113285714D02*
X193954819Y-113380952D01*
X193954819Y-113380952D02*
X193954819Y-113571428D01*
X193954819Y-113571428D02*
X194002438Y-113666666D01*
X194002438Y-113666666D02*
X194050057Y-113714285D01*
X194050057Y-113714285D02*
X194145295Y-113761904D01*
X194145295Y-113761904D02*
X194383390Y-113761904D01*
X194383390Y-113761904D02*
X194478628Y-113714285D01*
X194478628Y-113714285D02*
X194526247Y-113666666D01*
X194526247Y-113666666D02*
X194573866Y-113571428D01*
X194573866Y-113571428D02*
X194573866Y-113380952D01*
X194573866Y-113380952D02*
X194526247Y-113285714D01*
X194526247Y-113285714D02*
X194478628Y-113238095D01*
X194478628Y-113238095D02*
X194383390Y-113190476D01*
X184658095Y-136954819D02*
X184658095Y-135954819D01*
X184658095Y-136431009D02*
X185229523Y-136431009D01*
X185229523Y-136954819D02*
X185229523Y-135954819D01*
X186134285Y-136288152D02*
X186134285Y-136954819D01*
X185896190Y-135907200D02*
X185658095Y-136621485D01*
X185658095Y-136621485D02*
X186277142Y-136621485D01*
X180833333Y-102046619D02*
X180500000Y-101570428D01*
X180261905Y-102046619D02*
X180261905Y-101046619D01*
X180261905Y-101046619D02*
X180642857Y-101046619D01*
X180642857Y-101046619D02*
X180738095Y-101094238D01*
X180738095Y-101094238D02*
X180785714Y-101141857D01*
X180785714Y-101141857D02*
X180833333Y-101237095D01*
X180833333Y-101237095D02*
X180833333Y-101379952D01*
X180833333Y-101379952D02*
X180785714Y-101475190D01*
X180785714Y-101475190D02*
X180738095Y-101522809D01*
X180738095Y-101522809D02*
X180642857Y-101570428D01*
X180642857Y-101570428D02*
X180261905Y-101570428D01*
X181785714Y-102046619D02*
X181214286Y-102046619D01*
X181500000Y-102046619D02*
X181500000Y-101046619D01*
X181500000Y-101046619D02*
X181404762Y-101189476D01*
X181404762Y-101189476D02*
X181309524Y-101284714D01*
X181309524Y-101284714D02*
X181214286Y-101332333D01*
X197256666Y-91094822D02*
X197256666Y-91809107D01*
X197256666Y-91809107D02*
X197209047Y-91951964D01*
X197209047Y-91951964D02*
X197113809Y-92047203D01*
X197113809Y-92047203D02*
X196970952Y-92094822D01*
X196970952Y-92094822D02*
X196875714Y-92094822D01*
X197685238Y-91190060D02*
X197732857Y-91142441D01*
X197732857Y-91142441D02*
X197828095Y-91094822D01*
X197828095Y-91094822D02*
X198066190Y-91094822D01*
X198066190Y-91094822D02*
X198161428Y-91142441D01*
X198161428Y-91142441D02*
X198209047Y-91190060D01*
X198209047Y-91190060D02*
X198256666Y-91285298D01*
X198256666Y-91285298D02*
X198256666Y-91380536D01*
X198256666Y-91380536D02*
X198209047Y-91523393D01*
X198209047Y-91523393D02*
X197637619Y-92094822D01*
X197637619Y-92094822D02*
X198256666Y-92094822D01*
X188545180Y-99738095D02*
X187735657Y-99738095D01*
X187735657Y-99738095D02*
X187640419Y-99785714D01*
X187640419Y-99785714D02*
X187592800Y-99833333D01*
X187592800Y-99833333D02*
X187545180Y-99928571D01*
X187545180Y-99928571D02*
X187545180Y-100119047D01*
X187545180Y-100119047D02*
X187592800Y-100214285D01*
X187592800Y-100214285D02*
X187640419Y-100261904D01*
X187640419Y-100261904D02*
X187735657Y-100309523D01*
X187735657Y-100309523D02*
X188545180Y-100309523D01*
X188545180Y-101261904D02*
X188545180Y-100785714D01*
X188545180Y-100785714D02*
X188068990Y-100738095D01*
X188068990Y-100738095D02*
X188116609Y-100785714D01*
X188116609Y-100785714D02*
X188164228Y-100880952D01*
X188164228Y-100880952D02*
X188164228Y-101119047D01*
X188164228Y-101119047D02*
X188116609Y-101214285D01*
X188116609Y-101214285D02*
X188068990Y-101261904D01*
X188068990Y-101261904D02*
X187973752Y-101309523D01*
X187973752Y-101309523D02*
X187735657Y-101309523D01*
X187735657Y-101309523D02*
X187640419Y-101261904D01*
X187640419Y-101261904D02*
X187592800Y-101214285D01*
X187592800Y-101214285D02*
X187545180Y-101119047D01*
X187545180Y-101119047D02*
X187545180Y-100880952D01*
X187545180Y-100880952D02*
X187592800Y-100785714D01*
X187592800Y-100785714D02*
X187640419Y-100738095D01*
X187075719Y-98768599D02*
X187313814Y-98768599D01*
X187218576Y-99006694D02*
X187313814Y-98768599D01*
X187313814Y-98768599D02*
X187218576Y-98530504D01*
X187504290Y-98911456D02*
X187313814Y-98768599D01*
X187313814Y-98768599D02*
X187504290Y-98625742D01*
X188166080Y-98768600D02*
X187927985Y-98768600D01*
X188023223Y-98530505D02*
X187927985Y-98768600D01*
X187927985Y-98768600D02*
X188023223Y-99006695D01*
X187737509Y-98625743D02*
X187927985Y-98768600D01*
X187927985Y-98768600D02*
X187737509Y-98911457D01*
X227197200Y-130313332D02*
X227244819Y-130170475D01*
X227244819Y-130170475D02*
X227244819Y-129932380D01*
X227244819Y-129932380D02*
X227197200Y-129837142D01*
X227197200Y-129837142D02*
X227149580Y-129789523D01*
X227149580Y-129789523D02*
X227054342Y-129741904D01*
X227054342Y-129741904D02*
X226959104Y-129741904D01*
X226959104Y-129741904D02*
X226863866Y-129789523D01*
X226863866Y-129789523D02*
X226816247Y-129837142D01*
X226816247Y-129837142D02*
X226768628Y-129932380D01*
X226768628Y-129932380D02*
X226721009Y-130122856D01*
X226721009Y-130122856D02*
X226673390Y-130218094D01*
X226673390Y-130218094D02*
X226625771Y-130265713D01*
X226625771Y-130265713D02*
X226530533Y-130313332D01*
X226530533Y-130313332D02*
X226435295Y-130313332D01*
X226435295Y-130313332D02*
X226340057Y-130265713D01*
X226340057Y-130265713D02*
X226292438Y-130218094D01*
X226292438Y-130218094D02*
X226244819Y-130122856D01*
X226244819Y-130122856D02*
X226244819Y-129884761D01*
X226244819Y-129884761D02*
X226292438Y-129741904D01*
X226244819Y-129408570D02*
X227244819Y-129170475D01*
X227244819Y-129170475D02*
X226530533Y-128979999D01*
X226530533Y-128979999D02*
X227244819Y-128789523D01*
X227244819Y-128789523D02*
X226244819Y-128551428D01*
X227244819Y-127646666D02*
X227244819Y-128218094D01*
X227244819Y-127932380D02*
X226244819Y-127932380D01*
X226244819Y-127932380D02*
X226387676Y-128027618D01*
X226387676Y-128027618D02*
X226482914Y-128122856D01*
X226482914Y-128122856D02*
X226530533Y-128218094D01*
X173166666Y-134454819D02*
X173166666Y-135169104D01*
X173166666Y-135169104D02*
X173119047Y-135311961D01*
X173119047Y-135311961D02*
X173023809Y-135407200D01*
X173023809Y-135407200D02*
X172880952Y-135454819D01*
X172880952Y-135454819D02*
X172785714Y-135454819D01*
X173547619Y-134454819D02*
X174166666Y-134454819D01*
X174166666Y-134454819D02*
X173833333Y-134835771D01*
X173833333Y-134835771D02*
X173976190Y-134835771D01*
X173976190Y-134835771D02*
X174071428Y-134883390D01*
X174071428Y-134883390D02*
X174119047Y-134931009D01*
X174119047Y-134931009D02*
X174166666Y-135026247D01*
X174166666Y-135026247D02*
X174166666Y-135264342D01*
X174166666Y-135264342D02*
X174119047Y-135359580D01*
X174119047Y-135359580D02*
X174071428Y-135407200D01*
X174071428Y-135407200D02*
X173976190Y-135454819D01*
X173976190Y-135454819D02*
X173690476Y-135454819D01*
X173690476Y-135454819D02*
X173595238Y-135407200D01*
X173595238Y-135407200D02*
X173547619Y-135359580D01*
D10*
X187542580Y-133238095D02*
X186733057Y-133238095D01*
X186733057Y-133238095D02*
X186637819Y-133285714D01*
X186637819Y-133285714D02*
X186590200Y-133333333D01*
X186590200Y-133333333D02*
X186542580Y-133428571D01*
X186542580Y-133428571D02*
X186542580Y-133619047D01*
X186542580Y-133619047D02*
X186590200Y-133714285D01*
X186590200Y-133714285D02*
X186637819Y-133761904D01*
X186637819Y-133761904D02*
X186733057Y-133809523D01*
X186733057Y-133809523D02*
X187542580Y-133809523D01*
X187542580Y-134190476D02*
X187542580Y-134809523D01*
X187542580Y-134809523D02*
X187161628Y-134476190D01*
X187161628Y-134476190D02*
X187161628Y-134619047D01*
X187161628Y-134619047D02*
X187114009Y-134714285D01*
X187114009Y-134714285D02*
X187066390Y-134761904D01*
X187066390Y-134761904D02*
X186971152Y-134809523D01*
X186971152Y-134809523D02*
X186733057Y-134809523D01*
X186733057Y-134809523D02*
X186637819Y-134761904D01*
X186637819Y-134761904D02*
X186590200Y-134714285D01*
X186590200Y-134714285D02*
X186542580Y-134619047D01*
X186542580Y-134619047D02*
X186542580Y-134333333D01*
X186542580Y-134333333D02*
X186590200Y-134238095D01*
X186590200Y-134238095D02*
X186637819Y-134190476D01*
D11*
X192539580Y-104408466D02*
X192587200Y-104456085D01*
X192587200Y-104456085D02*
X192634819Y-104598942D01*
X192634819Y-104598942D02*
X192634819Y-104694180D01*
X192634819Y-104694180D02*
X192587200Y-104837037D01*
X192587200Y-104837037D02*
X192491961Y-104932275D01*
X192491961Y-104932275D02*
X192396723Y-104979894D01*
X192396723Y-104979894D02*
X192206247Y-105027513D01*
X192206247Y-105027513D02*
X192063390Y-105027513D01*
X192063390Y-105027513D02*
X191872914Y-104979894D01*
X191872914Y-104979894D02*
X191777676Y-104932275D01*
X191777676Y-104932275D02*
X191682438Y-104837037D01*
X191682438Y-104837037D02*
X191634819Y-104694180D01*
X191634819Y-104694180D02*
X191634819Y-104598942D01*
X191634819Y-104598942D02*
X191682438Y-104456085D01*
X191682438Y-104456085D02*
X191730057Y-104408466D01*
X191634819Y-103503704D02*
X191634819Y-103979894D01*
X191634819Y-103979894D02*
X192111009Y-104027513D01*
X192111009Y-104027513D02*
X192063390Y-103979894D01*
X192063390Y-103979894D02*
X192015771Y-103884656D01*
X192015771Y-103884656D02*
X192015771Y-103646561D01*
X192015771Y-103646561D02*
X192063390Y-103551323D01*
X192063390Y-103551323D02*
X192111009Y-103503704D01*
X192111009Y-103503704D02*
X192206247Y-103456085D01*
X192206247Y-103456085D02*
X192444342Y-103456085D01*
X192444342Y-103456085D02*
X192539580Y-103503704D01*
X192539580Y-103503704D02*
X192587200Y-103551323D01*
X192587200Y-103551323D02*
X192634819Y-103646561D01*
X192634819Y-103646561D02*
X192634819Y-103884656D01*
X192634819Y-103884656D02*
X192587200Y-103979894D01*
X192587200Y-103979894D02*
X192539580Y-104027513D01*
X223454819Y-116166666D02*
X222978628Y-116499999D01*
X223454819Y-116738094D02*
X222454819Y-116738094D01*
X222454819Y-116738094D02*
X222454819Y-116357142D01*
X222454819Y-116357142D02*
X222502438Y-116261904D01*
X222502438Y-116261904D02*
X222550057Y-116214285D01*
X222550057Y-116214285D02*
X222645295Y-116166666D01*
X222645295Y-116166666D02*
X222788152Y-116166666D01*
X222788152Y-116166666D02*
X222883390Y-116214285D01*
X222883390Y-116214285D02*
X222931009Y-116261904D01*
X222931009Y-116261904D02*
X222978628Y-116357142D01*
X222978628Y-116357142D02*
X222978628Y-116738094D01*
X222883390Y-115595237D02*
X222835771Y-115690475D01*
X222835771Y-115690475D02*
X222788152Y-115738094D01*
X222788152Y-115738094D02*
X222692914Y-115785713D01*
X222692914Y-115785713D02*
X222645295Y-115785713D01*
X222645295Y-115785713D02*
X222550057Y-115738094D01*
X222550057Y-115738094D02*
X222502438Y-115690475D01*
X222502438Y-115690475D02*
X222454819Y-115595237D01*
X222454819Y-115595237D02*
X222454819Y-115404761D01*
X222454819Y-115404761D02*
X222502438Y-115309523D01*
X222502438Y-115309523D02*
X222550057Y-115261904D01*
X222550057Y-115261904D02*
X222645295Y-115214285D01*
X222645295Y-115214285D02*
X222692914Y-115214285D01*
X222692914Y-115214285D02*
X222788152Y-115261904D01*
X222788152Y-115261904D02*
X222835771Y-115309523D01*
X222835771Y-115309523D02*
X222883390Y-115404761D01*
X222883390Y-115404761D02*
X222883390Y-115595237D01*
X222883390Y-115595237D02*
X222931009Y-115690475D01*
X222931009Y-115690475D02*
X222978628Y-115738094D01*
X222978628Y-115738094D02*
X223073866Y-115785713D01*
X223073866Y-115785713D02*
X223264342Y-115785713D01*
X223264342Y-115785713D02*
X223359580Y-115738094D01*
X223359580Y-115738094D02*
X223407200Y-115690475D01*
X223407200Y-115690475D02*
X223454819Y-115595237D01*
X223454819Y-115595237D02*
X223454819Y-115404761D01*
X223454819Y-115404761D02*
X223407200Y-115309523D01*
X223407200Y-115309523D02*
X223359580Y-115261904D01*
X223359580Y-115261904D02*
X223264342Y-115214285D01*
X223264342Y-115214285D02*
X223073866Y-115214285D01*
X223073866Y-115214285D02*
X222978628Y-115261904D01*
X222978628Y-115261904D02*
X222931009Y-115309523D01*
X222931009Y-115309523D02*
X222883390Y-115404761D01*
X175833333Y-107281380D02*
X175785714Y-107329000D01*
X175785714Y-107329000D02*
X175642857Y-107376619D01*
X175642857Y-107376619D02*
X175547619Y-107376619D01*
X175547619Y-107376619D02*
X175404762Y-107329000D01*
X175404762Y-107329000D02*
X175309524Y-107233761D01*
X175309524Y-107233761D02*
X175261905Y-107138523D01*
X175261905Y-107138523D02*
X175214286Y-106948047D01*
X175214286Y-106948047D02*
X175214286Y-106805190D01*
X175214286Y-106805190D02*
X175261905Y-106614714D01*
X175261905Y-106614714D02*
X175309524Y-106519476D01*
X175309524Y-106519476D02*
X175404762Y-106424238D01*
X175404762Y-106424238D02*
X175547619Y-106376619D01*
X175547619Y-106376619D02*
X175642857Y-106376619D01*
X175642857Y-106376619D02*
X175785714Y-106424238D01*
X175785714Y-106424238D02*
X175833333Y-106471857D01*
X176166667Y-106376619D02*
X176785714Y-106376619D01*
X176785714Y-106376619D02*
X176452381Y-106757571D01*
X176452381Y-106757571D02*
X176595238Y-106757571D01*
X176595238Y-106757571D02*
X176690476Y-106805190D01*
X176690476Y-106805190D02*
X176738095Y-106852809D01*
X176738095Y-106852809D02*
X176785714Y-106948047D01*
X176785714Y-106948047D02*
X176785714Y-107186142D01*
X176785714Y-107186142D02*
X176738095Y-107281380D01*
X176738095Y-107281380D02*
X176690476Y-107329000D01*
X176690476Y-107329000D02*
X176595238Y-107376619D01*
X176595238Y-107376619D02*
X176309524Y-107376619D01*
X176309524Y-107376619D02*
X176214286Y-107329000D01*
X176214286Y-107329000D02*
X176166667Y-107281380D01*
X203025178Y-100108095D02*
X202215655Y-100108095D01*
X202215655Y-100108095D02*
X202120417Y-100155714D01*
X202120417Y-100155714D02*
X202072798Y-100203333D01*
X202072798Y-100203333D02*
X202025178Y-100298571D01*
X202025178Y-100298571D02*
X202025178Y-100489047D01*
X202025178Y-100489047D02*
X202072798Y-100584285D01*
X202072798Y-100584285D02*
X202120417Y-100631904D01*
X202120417Y-100631904D02*
X202215655Y-100679523D01*
X202215655Y-100679523D02*
X203025178Y-100679523D01*
X202691845Y-101584285D02*
X202025178Y-101584285D01*
X203072798Y-101346190D02*
X202358512Y-101108095D01*
X202358512Y-101108095D02*
X202358512Y-101727142D01*
X199349580Y-101106669D02*
X199397200Y-101154288D01*
X199397200Y-101154288D02*
X199444819Y-101297145D01*
X199444819Y-101297145D02*
X199444819Y-101392383D01*
X199444819Y-101392383D02*
X199397200Y-101535240D01*
X199397200Y-101535240D02*
X199301961Y-101630478D01*
X199301961Y-101630478D02*
X199206723Y-101678097D01*
X199206723Y-101678097D02*
X199016247Y-101725716D01*
X199016247Y-101725716D02*
X198873390Y-101725716D01*
X198873390Y-101725716D02*
X198682914Y-101678097D01*
X198682914Y-101678097D02*
X198587676Y-101630478D01*
X198587676Y-101630478D02*
X198492438Y-101535240D01*
X198492438Y-101535240D02*
X198444819Y-101392383D01*
X198444819Y-101392383D02*
X198444819Y-101297145D01*
X198444819Y-101297145D02*
X198492438Y-101154288D01*
X198492438Y-101154288D02*
X198540057Y-101106669D01*
X199444819Y-100154288D02*
X199444819Y-100725716D01*
X199444819Y-100440002D02*
X198444819Y-100440002D01*
X198444819Y-100440002D02*
X198587676Y-100535240D01*
X198587676Y-100535240D02*
X198682914Y-100630478D01*
X198682914Y-100630478D02*
X198730533Y-100725716D01*
X221454819Y-123738094D02*
X220454819Y-123738094D01*
X220454819Y-123738094D02*
X220454819Y-123499999D01*
X220454819Y-123499999D02*
X220502438Y-123357142D01*
X220502438Y-123357142D02*
X220597676Y-123261904D01*
X220597676Y-123261904D02*
X220692914Y-123214285D01*
X220692914Y-123214285D02*
X220883390Y-123166666D01*
X220883390Y-123166666D02*
X221026247Y-123166666D01*
X221026247Y-123166666D02*
X221216723Y-123214285D01*
X221216723Y-123214285D02*
X221311961Y-123261904D01*
X221311961Y-123261904D02*
X221407200Y-123357142D01*
X221407200Y-123357142D02*
X221454819Y-123499999D01*
X221454819Y-123499999D02*
X221454819Y-123738094D01*
X220454819Y-122309523D02*
X220454819Y-122499999D01*
X220454819Y-122499999D02*
X220502438Y-122595237D01*
X220502438Y-122595237D02*
X220550057Y-122642856D01*
X220550057Y-122642856D02*
X220692914Y-122738094D01*
X220692914Y-122738094D02*
X220883390Y-122785713D01*
X220883390Y-122785713D02*
X221264342Y-122785713D01*
X221264342Y-122785713D02*
X221359580Y-122738094D01*
X221359580Y-122738094D02*
X221407200Y-122690475D01*
X221407200Y-122690475D02*
X221454819Y-122595237D01*
X221454819Y-122595237D02*
X221454819Y-122404761D01*
X221454819Y-122404761D02*
X221407200Y-122309523D01*
X221407200Y-122309523D02*
X221359580Y-122261904D01*
X221359580Y-122261904D02*
X221264342Y-122214285D01*
X221264342Y-122214285D02*
X221026247Y-122214285D01*
X221026247Y-122214285D02*
X220931009Y-122261904D01*
X220931009Y-122261904D02*
X220883390Y-122309523D01*
X220883390Y-122309523D02*
X220835771Y-122404761D01*
X220835771Y-122404761D02*
X220835771Y-122595237D01*
X220835771Y-122595237D02*
X220883390Y-122690475D01*
X220883390Y-122690475D02*
X220931009Y-122738094D01*
X220931009Y-122738094D02*
X221026247Y-122785713D01*
X190109580Y-117215357D02*
X190157200Y-117262976D01*
X190157200Y-117262976D02*
X190204819Y-117405833D01*
X190204819Y-117405833D02*
X190204819Y-117501071D01*
X190204819Y-117501071D02*
X190157200Y-117643928D01*
X190157200Y-117643928D02*
X190061961Y-117739166D01*
X190061961Y-117739166D02*
X189966723Y-117786785D01*
X189966723Y-117786785D02*
X189776247Y-117834404D01*
X189776247Y-117834404D02*
X189633390Y-117834404D01*
X189633390Y-117834404D02*
X189442914Y-117786785D01*
X189442914Y-117786785D02*
X189347676Y-117739166D01*
X189347676Y-117739166D02*
X189252438Y-117643928D01*
X189252438Y-117643928D02*
X189204819Y-117501071D01*
X189204819Y-117501071D02*
X189204819Y-117405833D01*
X189204819Y-117405833D02*
X189252438Y-117262976D01*
X189252438Y-117262976D02*
X189300057Y-117215357D01*
X190204819Y-116262976D02*
X190204819Y-116834404D01*
X190204819Y-116548690D02*
X189204819Y-116548690D01*
X189204819Y-116548690D02*
X189347676Y-116643928D01*
X189347676Y-116643928D02*
X189442914Y-116739166D01*
X189442914Y-116739166D02*
X189490533Y-116834404D01*
X190204819Y-115786785D02*
X190204819Y-115596309D01*
X190204819Y-115596309D02*
X190157200Y-115501071D01*
X190157200Y-115501071D02*
X190109580Y-115453452D01*
X190109580Y-115453452D02*
X189966723Y-115358214D01*
X189966723Y-115358214D02*
X189776247Y-115310595D01*
X189776247Y-115310595D02*
X189395295Y-115310595D01*
X189395295Y-115310595D02*
X189300057Y-115358214D01*
X189300057Y-115358214D02*
X189252438Y-115405833D01*
X189252438Y-115405833D02*
X189204819Y-115501071D01*
X189204819Y-115501071D02*
X189204819Y-115691547D01*
X189204819Y-115691547D02*
X189252438Y-115786785D01*
X189252438Y-115786785D02*
X189300057Y-115834404D01*
X189300057Y-115834404D02*
X189395295Y-115882023D01*
X189395295Y-115882023D02*
X189633390Y-115882023D01*
X189633390Y-115882023D02*
X189728628Y-115834404D01*
X189728628Y-115834404D02*
X189776247Y-115786785D01*
X189776247Y-115786785D02*
X189823866Y-115691547D01*
X189823866Y-115691547D02*
X189823866Y-115501071D01*
X189823866Y-115501071D02*
X189776247Y-115405833D01*
X189776247Y-115405833D02*
X189728628Y-115358214D01*
X189728628Y-115358214D02*
X189633390Y-115310595D01*
X177833333Y-96359580D02*
X177785714Y-96407200D01*
X177785714Y-96407200D02*
X177642857Y-96454819D01*
X177642857Y-96454819D02*
X177547619Y-96454819D01*
X177547619Y-96454819D02*
X177404762Y-96407200D01*
X177404762Y-96407200D02*
X177309524Y-96311961D01*
X177309524Y-96311961D02*
X177261905Y-96216723D01*
X177261905Y-96216723D02*
X177214286Y-96026247D01*
X177214286Y-96026247D02*
X177214286Y-95883390D01*
X177214286Y-95883390D02*
X177261905Y-95692914D01*
X177261905Y-95692914D02*
X177309524Y-95597676D01*
X177309524Y-95597676D02*
X177404762Y-95502438D01*
X177404762Y-95502438D02*
X177547619Y-95454819D01*
X177547619Y-95454819D02*
X177642857Y-95454819D01*
X177642857Y-95454819D02*
X177785714Y-95502438D01*
X177785714Y-95502438D02*
X177833333Y-95550057D01*
X178690476Y-95788152D02*
X178690476Y-96454819D01*
X178452381Y-95407200D02*
X178214286Y-96121485D01*
X178214286Y-96121485D02*
X178833333Y-96121485D01*
X187198095Y-85354819D02*
X187198095Y-84354819D01*
X187198095Y-84831009D02*
X187769523Y-84831009D01*
X187769523Y-85354819D02*
X187769523Y-84354819D01*
X188150476Y-84354819D02*
X188769523Y-84354819D01*
X188769523Y-84354819D02*
X188436190Y-84735771D01*
X188436190Y-84735771D02*
X188579047Y-84735771D01*
X188579047Y-84735771D02*
X188674285Y-84783390D01*
X188674285Y-84783390D02*
X188721904Y-84831009D01*
X188721904Y-84831009D02*
X188769523Y-84926247D01*
X188769523Y-84926247D02*
X188769523Y-85164342D01*
X188769523Y-85164342D02*
X188721904Y-85259580D01*
X188721904Y-85259580D02*
X188674285Y-85307200D01*
X188674285Y-85307200D02*
X188579047Y-85354819D01*
X188579047Y-85354819D02*
X188293333Y-85354819D01*
X188293333Y-85354819D02*
X188198095Y-85307200D01*
X188198095Y-85307200D02*
X188150476Y-85259580D01*
X193954819Y-95858994D02*
X192954819Y-95858994D01*
X192954819Y-95858994D02*
X192954819Y-95620899D01*
X192954819Y-95620899D02*
X193002438Y-95478042D01*
X193002438Y-95478042D02*
X193097676Y-95382804D01*
X193097676Y-95382804D02*
X193192914Y-95335185D01*
X193192914Y-95335185D02*
X193383390Y-95287566D01*
X193383390Y-95287566D02*
X193526247Y-95287566D01*
X193526247Y-95287566D02*
X193716723Y-95335185D01*
X193716723Y-95335185D02*
X193811961Y-95382804D01*
X193811961Y-95382804D02*
X193907200Y-95478042D01*
X193907200Y-95478042D02*
X193954819Y-95620899D01*
X193954819Y-95620899D02*
X193954819Y-95858994D01*
X192954819Y-94954232D02*
X192954819Y-94335185D01*
X192954819Y-94335185D02*
X193335771Y-94668518D01*
X193335771Y-94668518D02*
X193335771Y-94525661D01*
X193335771Y-94525661D02*
X193383390Y-94430423D01*
X193383390Y-94430423D02*
X193431009Y-94382804D01*
X193431009Y-94382804D02*
X193526247Y-94335185D01*
X193526247Y-94335185D02*
X193764342Y-94335185D01*
X193764342Y-94335185D02*
X193859580Y-94382804D01*
X193859580Y-94382804D02*
X193907200Y-94430423D01*
X193907200Y-94430423D02*
X193954819Y-94525661D01*
X193954819Y-94525661D02*
X193954819Y-94811375D01*
X193954819Y-94811375D02*
X193907200Y-94906613D01*
X193907200Y-94906613D02*
X193859580Y-94954232D01*
X190454819Y-98156199D02*
X190692914Y-98156199D01*
X190597676Y-98394294D02*
X190692914Y-98156199D01*
X190692914Y-98156199D02*
X190597676Y-97918104D01*
X190883390Y-98299056D02*
X190692914Y-98156199D01*
X190692914Y-98156199D02*
X190883390Y-98013342D01*
X190454819Y-98156199D02*
X190692914Y-98156199D01*
X190597676Y-98394294D02*
X190692914Y-98156199D01*
X190692914Y-98156199D02*
X190597676Y-97918104D01*
X190883390Y-98299056D02*
X190692914Y-98156199D01*
X190692914Y-98156199D02*
X190883390Y-98013342D01*
X172666666Y-128140419D02*
X172714285Y-128092800D01*
X172714285Y-128092800D02*
X172857142Y-128045180D01*
X172857142Y-128045180D02*
X172952380Y-128045180D01*
X172952380Y-128045180D02*
X173095237Y-128092800D01*
X173095237Y-128092800D02*
X173190475Y-128188038D01*
X173190475Y-128188038D02*
X173238094Y-128283276D01*
X173238094Y-128283276D02*
X173285713Y-128473752D01*
X173285713Y-128473752D02*
X173285713Y-128616609D01*
X173285713Y-128616609D02*
X173238094Y-128807085D01*
X173238094Y-128807085D02*
X173190475Y-128902323D01*
X173190475Y-128902323D02*
X173095237Y-128997561D01*
X173095237Y-128997561D02*
X172952380Y-129045180D01*
X172952380Y-129045180D02*
X172857142Y-129045180D01*
X172857142Y-129045180D02*
X172714285Y-128997561D01*
X172714285Y-128997561D02*
X172666666Y-128949942D01*
X172095237Y-128616609D02*
X172190475Y-128664228D01*
X172190475Y-128664228D02*
X172238094Y-128711847D01*
X172238094Y-128711847D02*
X172285713Y-128807085D01*
X172285713Y-128807085D02*
X172285713Y-128854704D01*
X172285713Y-128854704D02*
X172238094Y-128949942D01*
X172238094Y-128949942D02*
X172190475Y-128997561D01*
X172190475Y-128997561D02*
X172095237Y-129045180D01*
X172095237Y-129045180D02*
X171904761Y-129045180D01*
X171904761Y-129045180D02*
X171809523Y-128997561D01*
X171809523Y-128997561D02*
X171761904Y-128949942D01*
X171761904Y-128949942D02*
X171714285Y-128854704D01*
X171714285Y-128854704D02*
X171714285Y-128807085D01*
X171714285Y-128807085D02*
X171761904Y-128711847D01*
X171761904Y-128711847D02*
X171809523Y-128664228D01*
X171809523Y-128664228D02*
X171904761Y-128616609D01*
X171904761Y-128616609D02*
X172095237Y-128616609D01*
X172095237Y-128616609D02*
X172190475Y-128568990D01*
X172190475Y-128568990D02*
X172238094Y-128521371D01*
X172238094Y-128521371D02*
X172285713Y-128426133D01*
X172285713Y-128426133D02*
X172285713Y-128235657D01*
X172285713Y-128235657D02*
X172238094Y-128140419D01*
X172238094Y-128140419D02*
X172190475Y-128092800D01*
X172190475Y-128092800D02*
X172095237Y-128045180D01*
X172095237Y-128045180D02*
X171904761Y-128045180D01*
X171904761Y-128045180D02*
X171809523Y-128092800D01*
X171809523Y-128092800D02*
X171761904Y-128140419D01*
X171761904Y-128140419D02*
X171714285Y-128235657D01*
X171714285Y-128235657D02*
X171714285Y-128426133D01*
X171714285Y-128426133D02*
X171761904Y-128521371D01*
X171761904Y-128521371D02*
X171809523Y-128568990D01*
X171809523Y-128568990D02*
X171904761Y-128616609D01*
X221454819Y-116738094D02*
X220454819Y-116738094D01*
X220454819Y-116738094D02*
X220454819Y-116499999D01*
X220454819Y-116499999D02*
X220502438Y-116357142D01*
X220502438Y-116357142D02*
X220597676Y-116261904D01*
X220597676Y-116261904D02*
X220692914Y-116214285D01*
X220692914Y-116214285D02*
X220883390Y-116166666D01*
X220883390Y-116166666D02*
X221026247Y-116166666D01*
X221026247Y-116166666D02*
X221216723Y-116214285D01*
X221216723Y-116214285D02*
X221311961Y-116261904D01*
X221311961Y-116261904D02*
X221407200Y-116357142D01*
X221407200Y-116357142D02*
X221454819Y-116499999D01*
X221454819Y-116499999D02*
X221454819Y-116738094D01*
X220550057Y-115785713D02*
X220502438Y-115738094D01*
X220502438Y-115738094D02*
X220454819Y-115642856D01*
X220454819Y-115642856D02*
X220454819Y-115404761D01*
X220454819Y-115404761D02*
X220502438Y-115309523D01*
X220502438Y-115309523D02*
X220550057Y-115261904D01*
X220550057Y-115261904D02*
X220645295Y-115214285D01*
X220645295Y-115214285D02*
X220740533Y-115214285D01*
X220740533Y-115214285D02*
X220883390Y-115261904D01*
X220883390Y-115261904D02*
X221454819Y-115833332D01*
X221454819Y-115833332D02*
X221454819Y-115214285D01*
X210029580Y-101069166D02*
X210077200Y-101116785D01*
X210077200Y-101116785D02*
X210124819Y-101259642D01*
X210124819Y-101259642D02*
X210124819Y-101354880D01*
X210124819Y-101354880D02*
X210077200Y-101497737D01*
X210077200Y-101497737D02*
X209981961Y-101592975D01*
X209981961Y-101592975D02*
X209886723Y-101640594D01*
X209886723Y-101640594D02*
X209696247Y-101688213D01*
X209696247Y-101688213D02*
X209553390Y-101688213D01*
X209553390Y-101688213D02*
X209362914Y-101640594D01*
X209362914Y-101640594D02*
X209267676Y-101592975D01*
X209267676Y-101592975D02*
X209172438Y-101497737D01*
X209172438Y-101497737D02*
X209124819Y-101354880D01*
X209124819Y-101354880D02*
X209124819Y-101259642D01*
X209124819Y-101259642D02*
X209172438Y-101116785D01*
X209172438Y-101116785D02*
X209220057Y-101069166D01*
X209220057Y-100688213D02*
X209172438Y-100640594D01*
X209172438Y-100640594D02*
X209124819Y-100545356D01*
X209124819Y-100545356D02*
X209124819Y-100307261D01*
X209124819Y-100307261D02*
X209172438Y-100212023D01*
X209172438Y-100212023D02*
X209220057Y-100164404D01*
X209220057Y-100164404D02*
X209315295Y-100116785D01*
X209315295Y-100116785D02*
X209410533Y-100116785D01*
X209410533Y-100116785D02*
X209553390Y-100164404D01*
X209553390Y-100164404D02*
X210124819Y-100735832D01*
X210124819Y-100735832D02*
X210124819Y-100116785D01*
X225454819Y-116738094D02*
X224454819Y-116738094D01*
X224454819Y-116738094D02*
X224454819Y-116499999D01*
X224454819Y-116499999D02*
X224502438Y-116357142D01*
X224502438Y-116357142D02*
X224597676Y-116261904D01*
X224597676Y-116261904D02*
X224692914Y-116214285D01*
X224692914Y-116214285D02*
X224883390Y-116166666D01*
X224883390Y-116166666D02*
X225026247Y-116166666D01*
X225026247Y-116166666D02*
X225216723Y-116214285D01*
X225216723Y-116214285D02*
X225311961Y-116261904D01*
X225311961Y-116261904D02*
X225407200Y-116357142D01*
X225407200Y-116357142D02*
X225454819Y-116499999D01*
X225454819Y-116499999D02*
X225454819Y-116738094D01*
X224454819Y-115261904D02*
X224454819Y-115738094D01*
X224454819Y-115738094D02*
X224931009Y-115785713D01*
X224931009Y-115785713D02*
X224883390Y-115738094D01*
X224883390Y-115738094D02*
X224835771Y-115642856D01*
X224835771Y-115642856D02*
X224835771Y-115404761D01*
X224835771Y-115404761D02*
X224883390Y-115309523D01*
X224883390Y-115309523D02*
X224931009Y-115261904D01*
X224931009Y-115261904D02*
X225026247Y-115214285D01*
X225026247Y-115214285D02*
X225264342Y-115214285D01*
X225264342Y-115214285D02*
X225359580Y-115261904D01*
X225359580Y-115261904D02*
X225407200Y-115309523D01*
X225407200Y-115309523D02*
X225454819Y-115404761D01*
X225454819Y-115404761D02*
X225454819Y-115642856D01*
X225454819Y-115642856D02*
X225407200Y-115738094D01*
X225407200Y-115738094D02*
X225359580Y-115785713D01*
X224954819Y-123738094D02*
X223954819Y-123738094D01*
X223954819Y-123738094D02*
X223954819Y-123499999D01*
X223954819Y-123499999D02*
X224002438Y-123357142D01*
X224002438Y-123357142D02*
X224097676Y-123261904D01*
X224097676Y-123261904D02*
X224192914Y-123214285D01*
X224192914Y-123214285D02*
X224383390Y-123166666D01*
X224383390Y-123166666D02*
X224526247Y-123166666D01*
X224526247Y-123166666D02*
X224716723Y-123214285D01*
X224716723Y-123214285D02*
X224811961Y-123261904D01*
X224811961Y-123261904D02*
X224907200Y-123357142D01*
X224907200Y-123357142D02*
X224954819Y-123499999D01*
X224954819Y-123499999D02*
X224954819Y-123738094D01*
X224288152Y-122309523D02*
X224954819Y-122309523D01*
X223907200Y-122547618D02*
X224621485Y-122785713D01*
X224621485Y-122785713D02*
X224621485Y-122166666D01*
X228698181Y-117251736D02*
X229412466Y-117251736D01*
X229412466Y-117251736D02*
X229555323Y-117299355D01*
X229555323Y-117299355D02*
X229650562Y-117394593D01*
X229650562Y-117394593D02*
X229698181Y-117537450D01*
X229698181Y-117537450D02*
X229698181Y-117632688D01*
X228698181Y-116299355D02*
X228698181Y-116775545D01*
X228698181Y-116775545D02*
X229174371Y-116823164D01*
X229174371Y-116823164D02*
X229126752Y-116775545D01*
X229126752Y-116775545D02*
X229079133Y-116680307D01*
X229079133Y-116680307D02*
X229079133Y-116442212D01*
X229079133Y-116442212D02*
X229126752Y-116346974D01*
X229126752Y-116346974D02*
X229174371Y-116299355D01*
X229174371Y-116299355D02*
X229269609Y-116251736D01*
X229269609Y-116251736D02*
X229507704Y-116251736D01*
X229507704Y-116251736D02*
X229602942Y-116299355D01*
X229602942Y-116299355D02*
X229650562Y-116346974D01*
X229650562Y-116346974D02*
X229698181Y-116442212D01*
X229698181Y-116442212D02*
X229698181Y-116680307D01*
X229698181Y-116680307D02*
X229650562Y-116775545D01*
X229650562Y-116775545D02*
X229602942Y-116823164D01*
X185333333Y-94546619D02*
X185000000Y-94070428D01*
X184761905Y-94546619D02*
X184761905Y-93546619D01*
X184761905Y-93546619D02*
X185142857Y-93546619D01*
X185142857Y-93546619D02*
X185238095Y-93594238D01*
X185238095Y-93594238D02*
X185285714Y-93641857D01*
X185285714Y-93641857D02*
X185333333Y-93737095D01*
X185333333Y-93737095D02*
X185333333Y-93879952D01*
X185333333Y-93879952D02*
X185285714Y-93975190D01*
X185285714Y-93975190D02*
X185238095Y-94022809D01*
X185238095Y-94022809D02*
X185142857Y-94070428D01*
X185142857Y-94070428D02*
X184761905Y-94070428D01*
X185714286Y-93641857D02*
X185761905Y-93594238D01*
X185761905Y-93594238D02*
X185857143Y-93546619D01*
X185857143Y-93546619D02*
X186095238Y-93546619D01*
X186095238Y-93546619D02*
X186190476Y-93594238D01*
X186190476Y-93594238D02*
X186238095Y-93641857D01*
X186238095Y-93641857D02*
X186285714Y-93737095D01*
X186285714Y-93737095D02*
X186285714Y-93832333D01*
X186285714Y-93832333D02*
X186238095Y-93975190D01*
X186238095Y-93975190D02*
X185666667Y-94546619D01*
X185666667Y-94546619D02*
X186285714Y-94546619D01*
X219454819Y-123166666D02*
X218978628Y-123499999D01*
X219454819Y-123738094D02*
X218454819Y-123738094D01*
X218454819Y-123738094D02*
X218454819Y-123357142D01*
X218454819Y-123357142D02*
X218502438Y-123261904D01*
X218502438Y-123261904D02*
X218550057Y-123214285D01*
X218550057Y-123214285D02*
X218645295Y-123166666D01*
X218645295Y-123166666D02*
X218788152Y-123166666D01*
X218788152Y-123166666D02*
X218883390Y-123214285D01*
X218883390Y-123214285D02*
X218931009Y-123261904D01*
X218931009Y-123261904D02*
X218978628Y-123357142D01*
X218978628Y-123357142D02*
X218978628Y-123738094D01*
X219454819Y-122690475D02*
X219454819Y-122499999D01*
X219454819Y-122499999D02*
X219407200Y-122404761D01*
X219407200Y-122404761D02*
X219359580Y-122357142D01*
X219359580Y-122357142D02*
X219216723Y-122261904D01*
X219216723Y-122261904D02*
X219026247Y-122214285D01*
X219026247Y-122214285D02*
X218645295Y-122214285D01*
X218645295Y-122214285D02*
X218550057Y-122261904D01*
X218550057Y-122261904D02*
X218502438Y-122309523D01*
X218502438Y-122309523D02*
X218454819Y-122404761D01*
X218454819Y-122404761D02*
X218454819Y-122595237D01*
X218454819Y-122595237D02*
X218502438Y-122690475D01*
X218502438Y-122690475D02*
X218550057Y-122738094D01*
X218550057Y-122738094D02*
X218645295Y-122785713D01*
X218645295Y-122785713D02*
X218883390Y-122785713D01*
X218883390Y-122785713D02*
X218978628Y-122738094D01*
X218978628Y-122738094D02*
X219026247Y-122690475D01*
X219026247Y-122690475D02*
X219073866Y-122595237D01*
X219073866Y-122595237D02*
X219073866Y-122404761D01*
X219073866Y-122404761D02*
X219026247Y-122309523D01*
X219026247Y-122309523D02*
X218978628Y-122261904D01*
X218978628Y-122261904D02*
X218883390Y-122214285D01*
X223454819Y-123166666D02*
X222978628Y-123499999D01*
X223454819Y-123738094D02*
X222454819Y-123738094D01*
X222454819Y-123738094D02*
X222454819Y-123357142D01*
X222454819Y-123357142D02*
X222502438Y-123261904D01*
X222502438Y-123261904D02*
X222550057Y-123214285D01*
X222550057Y-123214285D02*
X222645295Y-123166666D01*
X222645295Y-123166666D02*
X222788152Y-123166666D01*
X222788152Y-123166666D02*
X222883390Y-123214285D01*
X222883390Y-123214285D02*
X222931009Y-123261904D01*
X222931009Y-123261904D02*
X222978628Y-123357142D01*
X222978628Y-123357142D02*
X222978628Y-123738094D01*
X222454819Y-122833332D02*
X222454819Y-122166666D01*
X222454819Y-122166666D02*
X223454819Y-122595237D01*
X214424834Y-102578319D02*
X214472454Y-102625938D01*
X214472454Y-102625938D02*
X214520073Y-102768795D01*
X214520073Y-102768795D02*
X214520073Y-102864033D01*
X214520073Y-102864033D02*
X214472454Y-103006890D01*
X214472454Y-103006890D02*
X214377215Y-103102128D01*
X214377215Y-103102128D02*
X214281977Y-103149747D01*
X214281977Y-103149747D02*
X214091501Y-103197366D01*
X214091501Y-103197366D02*
X213948644Y-103197366D01*
X213948644Y-103197366D02*
X213758168Y-103149747D01*
X213758168Y-103149747D02*
X213662930Y-103102128D01*
X213662930Y-103102128D02*
X213567692Y-103006890D01*
X213567692Y-103006890D02*
X213520073Y-102864033D01*
X213520073Y-102864033D02*
X213520073Y-102768795D01*
X213520073Y-102768795D02*
X213567692Y-102625938D01*
X213567692Y-102625938D02*
X213615311Y-102578319D01*
X214520073Y-101625938D02*
X214520073Y-102197366D01*
X214520073Y-101911652D02*
X213520073Y-101911652D01*
X213520073Y-101911652D02*
X213662930Y-102006890D01*
X213662930Y-102006890D02*
X213758168Y-102102128D01*
X213758168Y-102102128D02*
X213805787Y-102197366D01*
X213948644Y-101054509D02*
X213901025Y-101149747D01*
X213901025Y-101149747D02*
X213853406Y-101197366D01*
X213853406Y-101197366D02*
X213758168Y-101244985D01*
X213758168Y-101244985D02*
X213710549Y-101244985D01*
X213710549Y-101244985D02*
X213615311Y-101197366D01*
X213615311Y-101197366D02*
X213567692Y-101149747D01*
X213567692Y-101149747D02*
X213520073Y-101054509D01*
X213520073Y-101054509D02*
X213520073Y-100864033D01*
X213520073Y-100864033D02*
X213567692Y-100768795D01*
X213567692Y-100768795D02*
X213615311Y-100721176D01*
X213615311Y-100721176D02*
X213710549Y-100673557D01*
X213710549Y-100673557D02*
X213758168Y-100673557D01*
X213758168Y-100673557D02*
X213853406Y-100721176D01*
X213853406Y-100721176D02*
X213901025Y-100768795D01*
X213901025Y-100768795D02*
X213948644Y-100864033D01*
X213948644Y-100864033D02*
X213948644Y-101054509D01*
X213948644Y-101054509D02*
X213996263Y-101149747D01*
X213996263Y-101149747D02*
X214043882Y-101197366D01*
X214043882Y-101197366D02*
X214139120Y-101244985D01*
X214139120Y-101244985D02*
X214329596Y-101244985D01*
X214329596Y-101244985D02*
X214424834Y-101197366D01*
X214424834Y-101197366D02*
X214472454Y-101149747D01*
X214472454Y-101149747D02*
X214520073Y-101054509D01*
X214520073Y-101054509D02*
X214520073Y-100864033D01*
X214520073Y-100864033D02*
X214472454Y-100768795D01*
X214472454Y-100768795D02*
X214424834Y-100721176D01*
X214424834Y-100721176D02*
X214329596Y-100673557D01*
X214329596Y-100673557D02*
X214139120Y-100673557D01*
X214139120Y-100673557D02*
X214043882Y-100721176D01*
X214043882Y-100721176D02*
X213996263Y-100768795D01*
X213996263Y-100768795D02*
X213948644Y-100864033D01*
D13*
%TO.C,R3*%
X181314564Y-98006800D02*
X180860436Y-98006800D01*
X181314564Y-99476800D02*
X180860436Y-99476800D01*
%TO.C,L1*%
X204027878Y-95880000D02*
X204827122Y-95880000D01*
X204027878Y-97000000D02*
X204827122Y-97000000D01*
%TO.C,R6*%
X218071638Y-113546161D02*
X218071638Y-113092033D01*
X219541638Y-113546161D02*
X219541638Y-113092033D01*
D14*
%TO.C,C6*%
X173672500Y-119646700D02*
X173672500Y-120977660D01*
X173672500Y-122862340D02*
X173672500Y-124193300D01*
X173672500Y-124193300D02*
X178219100Y-124193300D01*
X178219100Y-119646700D02*
X173672500Y-119646700D01*
X178219100Y-120977660D02*
X178219100Y-119646700D01*
X178219100Y-124193300D02*
X178219100Y-122862340D01*
D13*
%TO.C,L2*%
X174850000Y-86241800D02*
X177180000Y-86241800D01*
X174850000Y-88571800D02*
X174850000Y-86241800D01*
X175230000Y-86621800D02*
X175230000Y-88891800D01*
X175230000Y-86621800D02*
X182470000Y-86621800D01*
X175230000Y-91591800D02*
X175230000Y-93861800D01*
X175230000Y-93861800D02*
X182470000Y-93861800D01*
X182470000Y-86621800D02*
X182470000Y-88891800D01*
X182470000Y-91591800D02*
X182470000Y-93861800D01*
D15*
%TO.C,U2*%
X217890000Y-88520000D02*
X218390000Y-88520000D01*
X217890000Y-104520000D02*
X217890000Y-88520000D01*
X233390000Y-88520000D02*
X233890000Y-88520000D01*
X233890000Y-88520000D02*
X233890000Y-104520000D01*
X217806200Y-105620000D02*
G75*
G02*
X217173800Y-105620000I-316200J0D01*
G01*
X217173800Y-105620000D02*
G75*
G02*
X217806200Y-105620000I316200J0D01*
G01*
D13*
%TO.C,U1*%
X198070000Y-114175000D02*
X198070000Y-115125000D01*
X198070000Y-115125000D02*
X196730000Y-115125000D01*
X198070000Y-124395000D02*
X198070000Y-123445000D01*
X199020000Y-114175000D02*
X198070000Y-114175000D01*
X199020000Y-124395000D02*
X198070000Y-124395000D01*
X207340000Y-114175000D02*
X208290000Y-114175000D01*
X207340000Y-124395000D02*
X208290000Y-124395000D01*
X208290000Y-114175000D02*
X208290000Y-115125000D01*
X208290000Y-124395000D02*
X208290000Y-123445000D01*
D14*
%TO.C,C9*%
X178066700Y-129806700D02*
X178066700Y-131137660D01*
X178066700Y-133022340D02*
X178066700Y-134353300D01*
X178066700Y-134353300D02*
X182613300Y-134353300D01*
X182613300Y-129806700D02*
X178066700Y-129806700D01*
X182613300Y-131137660D02*
X182613300Y-129806700D01*
X182613300Y-134353300D02*
X182613300Y-133022340D01*
%TO.C,C7*%
X173672500Y-114646700D02*
X173672500Y-115977660D01*
X173672500Y-117862340D02*
X173672500Y-119193300D01*
X173672500Y-119193300D02*
X178219100Y-119193300D01*
X178219100Y-114646700D02*
X173672500Y-114646700D01*
X178219100Y-115977660D02*
X178219100Y-114646700D01*
X178219100Y-119193300D02*
X178219100Y-117862340D01*
%TO.C,U8*%
X180171100Y-122419100D02*
X180171100Y-126660900D01*
X185428900Y-126660900D02*
X185428900Y-122419100D01*
D13*
%TO.C,U9*%
X193270000Y-115880000D02*
X193930000Y-115880000D01*
X193270000Y-117290000D02*
X193270000Y-115880000D01*
X194930000Y-115880000D02*
X195590000Y-115880000D01*
X195590000Y-117290000D02*
X195590000Y-115880000D01*
X193290000Y-117660000D02*
X192960000Y-117900000D01*
X192960000Y-117420000D01*
X193290000Y-117660000D01*
G36*
X193290000Y-117660000D02*
G01*
X192960000Y-117900000D01*
X192960000Y-117420000D01*
X193290000Y-117660000D01*
G37*
%TO.C,R1*%
X180772936Y-102506800D02*
X181227064Y-102506800D01*
X180772936Y-103976800D02*
X181227064Y-103976800D01*
%TO.C,J2*%
X193515000Y-87390000D02*
X195840000Y-87390000D01*
X193515000Y-88240000D02*
X193515000Y-87390000D01*
X193515000Y-92610000D02*
X193515000Y-91760000D01*
X199360000Y-87390000D02*
X199360000Y-85000000D01*
X201685000Y-87390000D02*
X199360000Y-87390000D01*
X201685000Y-88240000D02*
X201685000Y-87390000D01*
X201685000Y-91760000D02*
X201685000Y-92610000D01*
X201685000Y-92610000D02*
X193515000Y-92610000D01*
D14*
%TO.C,U5*%
X184001400Y-99856565D02*
X184001400Y-100627035D01*
X185159640Y-101080000D02*
X185840360Y-101080000D01*
X186998600Y-100627035D02*
X186998600Y-99856565D01*
D13*
%TO.C,SW1*%
X219290000Y-126730000D02*
X219290000Y-131230000D01*
X221790000Y-132480000D02*
X223290000Y-132480000D01*
X223290000Y-125480000D02*
X221790000Y-125480000D01*
X225790000Y-131230000D02*
X225790000Y-126730000D01*
%TO.C,J3*%
X173501221Y-135734384D02*
X181671221Y-135734384D01*
X173501221Y-136584384D02*
X173501221Y-135734384D01*
X173501221Y-140104384D02*
X173501221Y-140954384D01*
X173501221Y-140954384D02*
X175826221Y-140954384D01*
X175826221Y-140954384D02*
X175826221Y-143344384D01*
X181671221Y-135734384D02*
X181671221Y-136584384D01*
X181671221Y-140104384D02*
X181671221Y-140954384D01*
X181671221Y-140954384D02*
X179346221Y-140954384D01*
%TO.C,U3*%
D10*
X213160000Y-127390000D02*
X188160000Y-127390000D01*
X188160000Y-144390000D01*
X213160000Y-144390000D01*
X213160000Y-127390000D01*
D13*
%TO.C,C5*%
X189765000Y-104018048D02*
X189765000Y-104540552D01*
X191235000Y-104018048D02*
X191235000Y-104540552D01*
%TO.C,R8*%
X222055000Y-113110436D02*
X222055000Y-113564564D01*
X223525000Y-113110436D02*
X223525000Y-113564564D01*
%TO.C,C3*%
X176261252Y-104506800D02*
X175738748Y-104506800D01*
X176261252Y-105976800D02*
X175738748Y-105976800D01*
D16*
%TO.C,U4*%
X202779996Y-99169998D02*
X202779996Y-99329998D01*
X202779996Y-99169998D02*
X202939996Y-99169998D01*
X202779996Y-102410002D02*
X202779996Y-102570002D01*
X202779996Y-102570002D02*
X202939996Y-102570002D01*
X206020000Y-99170001D02*
X206180000Y-99170001D01*
X206020000Y-102570002D02*
X206180000Y-102570002D01*
X206180000Y-99170001D02*
X206180000Y-99720000D01*
X206180000Y-102410002D02*
X206180000Y-102570002D01*
D13*
%TO.C,C1*%
X200255000Y-100716248D02*
X200255000Y-101238752D01*
X201725000Y-100716248D02*
X201725000Y-101238752D01*
%TO.C,D6*%
X219868010Y-119305981D02*
X219868010Y-121990981D01*
X219868010Y-121990981D02*
X221788010Y-121990981D01*
X221788010Y-121990981D02*
X221788010Y-119305981D01*
%TO.C,C19*%
X190695000Y-116833752D02*
X190695000Y-116311248D01*
X192165000Y-116833752D02*
X192165000Y-116311248D01*
%TO.C,C4*%
X181298752Y-95006800D02*
X180776248Y-95006800D01*
X181298752Y-96476800D02*
X180776248Y-96476800D01*
D14*
%TO.C,D3*%
X189666500Y-93088900D02*
X189666500Y-97152900D01*
X192333500Y-97152900D02*
X192333500Y-93088900D01*
%TO.C,C8*%
X173672500Y-124646700D02*
X173672500Y-125977660D01*
X173672500Y-127862340D02*
X173672500Y-129193300D01*
X173672500Y-129193300D02*
X178219100Y-129193300D01*
X178219100Y-124646700D02*
X173672500Y-124646700D01*
X178219100Y-125977660D02*
X178219100Y-124646700D01*
X178219100Y-129193300D02*
X178219100Y-127862340D01*
D13*
%TO.C,D2*%
X219846638Y-112344097D02*
X219846638Y-115029097D01*
X219846638Y-115029097D02*
X221766638Y-115029097D01*
X221766638Y-115029097D02*
X221766638Y-112344097D01*
%TO.C,C2*%
X207255000Y-100641248D02*
X207255000Y-101163752D01*
X208725000Y-100641248D02*
X208725000Y-101163752D01*
%TO.C,D5*%
X223830000Y-112362500D02*
X223830000Y-115047500D01*
X223830000Y-115047500D02*
X225750000Y-115047500D01*
X225750000Y-115047500D02*
X225750000Y-112362500D01*
%TO.C,D4*%
X223830000Y-119317500D02*
X223830000Y-122002500D01*
X223830000Y-122002500D02*
X225750000Y-122002500D01*
X225750000Y-122002500D02*
X225750000Y-119317500D01*
%TO.C,J5*%
X230700000Y-110540000D02*
X230700000Y-123260000D01*
X230700000Y-123260000D02*
X234720000Y-123260000D01*
X231200000Y-111040000D02*
X232410000Y-111040000D01*
X231200000Y-122760000D02*
X231200000Y-111040000D01*
X232410000Y-111040000D02*
X232410000Y-110540000D01*
X232410000Y-122760000D02*
X231200000Y-122760000D01*
X232410000Y-123260000D02*
X232410000Y-122760000D01*
X232520000Y-123560000D02*
X235020000Y-123560000D01*
X233220000Y-110540000D02*
X233220000Y-111540000D01*
X233220000Y-111540000D02*
X234720000Y-111540000D01*
X233220000Y-122260000D02*
X234720000Y-122260000D01*
X233220000Y-123260000D02*
X233220000Y-122260000D01*
X234720000Y-110540000D02*
X230700000Y-110540000D01*
X234720000Y-123260000D02*
X234720000Y-110540000D01*
X235020000Y-123560000D02*
X235020000Y-121060000D01*
%TO.C,R2*%
X185272936Y-95006800D02*
X185727064Y-95006800D01*
X185272936Y-96476800D02*
X185727064Y-96476800D01*
%TO.C,R9*%
X218093010Y-120508045D02*
X218093010Y-120053917D01*
X219563010Y-120508045D02*
X219563010Y-120053917D01*
%TO.C,R7*%
X222055000Y-120519564D02*
X222055000Y-120065436D01*
X223525000Y-120519564D02*
X223525000Y-120065436D01*
%TO.C,C18*%
X215020254Y-104256711D02*
X215020254Y-103734207D01*
X216490254Y-104256711D02*
X216490254Y-103734207D01*
%TD*%
M02*
