%TF.GenerationSoftware,KiCad,Pcbnew,8.0.5*%
%TF.CreationDate,2024-10-17T12:46:32-04:00*%
%TF.ProjectId,PCB,5043422e-6b69-4636-9164-5f7063625858,rev?*%
%TF.SameCoordinates,Original*%
%TF.FileFunction,Soldermask,Top*%
%TF.FilePolarity,Negative*%
%FSLAX46Y46*%
G04 Gerber Fmt 4.6, Leading zero omitted, Abs format (unit mm)*
G04 Created by KiCad (PCBNEW 8.0.5) date 2024-10-17 12:46:32*
%MOMM*%
%LPD*%
G01*
G04 APERTURE LIST*
G04 Aperture macros list*
%AMRoundRect*
0 Rectangle with rounded corners*
0 $1 Rounding radius*
0 $2 $3 $4 $5 $6 $7 $8 $9 X,Y pos of 4 corners*
0 Add a 4 corners polygon primitive as box body*
4,1,4,$2,$3,$4,$5,$6,$7,$8,$9,$2,$3,0*
0 Add four circle primitives for the rounded corners*
1,1,$1+$1,$2,$3*
1,1,$1+$1,$4,$5*
1,1,$1+$1,$6,$7*
1,1,$1+$1,$8,$9*
0 Add four rect primitives between the rounded corners*
20,1,$1+$1,$2,$3,$4,$5,0*
20,1,$1+$1,$4,$5,$6,$7,0*
20,1,$1+$1,$6,$7,$8,$9,0*
20,1,$1+$1,$8,$9,$2,$3,0*%
G04 Aperture macros list end*
%ADD10RoundRect,0.250000X0.350000X0.450000X-0.350000X0.450000X-0.350000X-0.450000X0.350000X-0.450000X0*%
%ADD11RoundRect,0.218750X-0.218750X-0.381250X0.218750X-0.381250X0.218750X0.381250X-0.218750X0.381250X0*%
%ADD12RoundRect,0.250000X0.450000X-0.262500X0.450000X0.262500X-0.450000X0.262500X-0.450000X-0.262500X0*%
%ADD13C,2.100000*%
%ADD14R,2.514600X1.219200*%
%ADD15RoundRect,0.375000X-0.375000X-0.725000X0.375000X-0.725000X0.375000X0.725000X-0.375000X0.725000X0*%
%ADD16C,3.000000*%
%ADD17RoundRect,0.050800X0.500000X-1.000000X0.500000X1.000000X-0.500000X1.000000X-0.500000X-1.000000X0*%
%ADD18RoundRect,0.050800X-0.500000X1.000000X-0.500000X-1.000000X0.500000X-1.000000X0.500000X1.000000X0*%
%ADD19RoundRect,0.075000X-0.700000X-0.075000X0.700000X-0.075000X0.700000X0.075000X-0.700000X0.075000X0*%
%ADD20RoundRect,0.075000X-0.075000X-0.700000X0.075000X-0.700000X0.075000X0.700000X-0.075000X0.700000X0*%
%ADD21R,0.558800X1.460500*%
%ADD22RoundRect,0.112500X-0.112500X-0.237500X0.112500X-0.237500X0.112500X0.237500X-0.112500X0.237500X0*%
%ADD23RoundRect,0.250000X-0.350000X-0.450000X0.350000X-0.450000X0.350000X0.450000X-0.350000X0.450000X0*%
%ADD24RoundRect,0.250000X0.250000X2.500000X-0.250000X2.500000X-0.250000X-2.500000X0.250000X-2.500000X0*%
%ADD25RoundRect,0.250000X0.550000X1.250000X-0.550000X1.250000X-0.550000X-1.250000X0.550000X-1.250000X0*%
%ADD26R,0.558800X1.270000*%
%ADD27C,2.000000*%
%ADD28RoundRect,0.250000X-0.250000X-2.500000X0.250000X-2.500000X0.250000X2.500000X-0.250000X2.500000X0*%
%ADD29RoundRect,0.250000X-0.550000X-1.250000X0.550000X-1.250000X0.550000X1.250000X-0.550000X1.250000X0*%
%ADD30C,1.000000*%
%ADD31RoundRect,0.250000X-0.475000X0.337500X-0.475000X-0.337500X0.475000X-0.337500X0.475000X0.337500X0*%
%ADD32RoundRect,0.250000X-0.450000X0.262500X-0.450000X-0.262500X0.450000X-0.262500X0.450000X0.262500X0*%
%ADD33RoundRect,0.250000X0.337500X0.475000X-0.337500X0.475000X-0.337500X-0.475000X0.337500X-0.475000X0*%
%ADD34R,0.240000X0.899999*%
%ADD35R,2.400000X1.649999*%
%ADD36RoundRect,0.243750X0.456250X-0.243750X0.456250X0.243750X-0.456250X0.243750X-0.456250X-0.243750X0*%
%ADD37RoundRect,0.250000X0.475000X-0.337500X0.475000X0.337500X-0.475000X0.337500X-0.475000X-0.337500X0*%
%ADD38R,1.854200X1.066800*%
%ADD39RoundRect,0.250000X0.725000X-0.600000X0.725000X0.600000X-0.725000X0.600000X-0.725000X-0.600000X0*%
%ADD40O,1.950000X1.700000*%
G04 APERTURE END LIST*
D10*
%TO.C,R3*%
X182087500Y-98741800D03*
X180087500Y-98741800D03*
%TD*%
D11*
%TO.C,L1*%
X203365000Y-96440000D03*
X205490000Y-96440000D03*
%TD*%
D12*
%TO.C,R6*%
X218806638Y-114231597D03*
X218806638Y-112406597D03*
%TD*%
D13*
%TO.C,H1*%
X232680000Y-127910000D03*
%TD*%
D14*
%TO.C,C6*%
X177800000Y-121920000D03*
X174091600Y-121920000D03*
%TD*%
D13*
%TO.C,H2*%
X209550000Y-88900000D03*
%TD*%
D15*
%TO.C,L2*%
X175700000Y-90241800D03*
X182000000Y-90241800D03*
%TD*%
D16*
%TO.C,U2*%
X225090000Y-96320000D03*
D17*
X219140000Y-104520000D03*
X220640000Y-104520000D03*
X222140000Y-104520000D03*
X223640000Y-104520000D03*
X225140000Y-104520000D03*
X226640000Y-104520000D03*
X228140000Y-104520000D03*
X229640000Y-104520000D03*
X231140000Y-104520000D03*
X232640000Y-104520000D03*
D18*
X232640000Y-88520000D03*
X231140000Y-88520000D03*
X229640000Y-88520000D03*
X228140000Y-88520000D03*
X226640000Y-88520000D03*
X225140000Y-88520000D03*
X223640000Y-88520000D03*
X222140000Y-88520000D03*
X220640000Y-88520000D03*
X219140000Y-88520000D03*
%TD*%
D19*
%TO.C,U1*%
X197505000Y-115535000D03*
X197505000Y-116035000D03*
X197505000Y-116535000D03*
X197505000Y-117035000D03*
X197505000Y-117535000D03*
X197505000Y-118035000D03*
X197505000Y-118535000D03*
X197505000Y-119035000D03*
X197505000Y-119535000D03*
X197505000Y-120035000D03*
X197505000Y-120535000D03*
X197505000Y-121035000D03*
X197505000Y-121535000D03*
X197505000Y-122035000D03*
X197505000Y-122535000D03*
X197505000Y-123035000D03*
D20*
X199430000Y-124960000D03*
X199930000Y-124960000D03*
X200430000Y-124960000D03*
X200930000Y-124960000D03*
X201430000Y-124960000D03*
X201930000Y-124960000D03*
X202430000Y-124960000D03*
X202930000Y-124960000D03*
X203430000Y-124960000D03*
X203930000Y-124960000D03*
X204430000Y-124960000D03*
X204930000Y-124960000D03*
X205430000Y-124960000D03*
X205930000Y-124960000D03*
X206430000Y-124960000D03*
X206930000Y-124960000D03*
D19*
X208855000Y-123035000D03*
X208855000Y-122535000D03*
X208855000Y-122035000D03*
X208855000Y-121535000D03*
X208855000Y-121035000D03*
X208855000Y-120535000D03*
X208855000Y-120035000D03*
X208855000Y-119535000D03*
X208855000Y-119035000D03*
X208855000Y-118535000D03*
X208855000Y-118035000D03*
X208855000Y-117535000D03*
X208855000Y-117035000D03*
X208855000Y-116535000D03*
X208855000Y-116035000D03*
X208855000Y-115535000D03*
D20*
X206930000Y-113610000D03*
X206430000Y-113610000D03*
X205930000Y-113610000D03*
X205430000Y-113610000D03*
X204930000Y-113610000D03*
X204430000Y-113610000D03*
X203930000Y-113610000D03*
X203430000Y-113610000D03*
X202930000Y-113610000D03*
X202430000Y-113610000D03*
X201930000Y-113610000D03*
X201430000Y-113610000D03*
X200930000Y-113610000D03*
X200430000Y-113610000D03*
X199930000Y-113610000D03*
X199430000Y-113610000D03*
%TD*%
D14*
%TO.C,C9*%
X182194200Y-132080000D03*
X178485800Y-132080000D03*
%TD*%
%TO.C,C7*%
X177800000Y-116920000D03*
X174091600Y-116920000D03*
%TD*%
D21*
%TO.C,U8*%
X184705000Y-121815850D03*
X183435000Y-121815850D03*
X182165000Y-121815850D03*
X180895000Y-121815850D03*
X180895000Y-127264150D03*
X182165000Y-127264150D03*
X183435000Y-127264150D03*
X184705000Y-127264150D03*
%TD*%
D22*
%TO.C,U9*%
X193780000Y-117610000D03*
X195080000Y-117610000D03*
X194430000Y-115610000D03*
%TD*%
D13*
%TO.C,H4*%
X185420000Y-139700000D03*
%TD*%
D23*
%TO.C,R1*%
X180000000Y-103241800D03*
X182000000Y-103241800D03*
%TD*%
D24*
%TO.C,J2*%
X198600000Y-87750000D03*
X196600000Y-87750000D03*
D25*
X201000000Y-90000000D03*
X194200000Y-90000000D03*
%TD*%
D26*
%TO.C,U5*%
X186452500Y-99022600D03*
X185500000Y-99022600D03*
X184547500Y-99022600D03*
X184547500Y-101461000D03*
X186452500Y-101461000D03*
%TD*%
D27*
%TO.C,SW1*%
X224790000Y-125730000D03*
X224790000Y-132230000D03*
X220290000Y-125730000D03*
X220290000Y-132230000D03*
%TD*%
D28*
%TO.C,J3*%
X176586221Y-140594384D03*
X178586221Y-140594384D03*
D29*
X174186221Y-138344384D03*
X180986221Y-138344384D03*
%TD*%
D30*
%TO.C,U3*%
X190700000Y-129540000D03*
X190700000Y-132080000D03*
X190700000Y-134620000D03*
X190700000Y-137160000D03*
X190700000Y-139700000D03*
X190700000Y-142140000D03*
%TD*%
D31*
%TO.C,C5*%
X190500000Y-103241800D03*
X190500000Y-105316800D03*
%TD*%
D32*
%TO.C,R8*%
X222790000Y-112425000D03*
X222790000Y-114250000D03*
%TD*%
D33*
%TO.C,C3*%
X177037500Y-105241800D03*
X174962500Y-105241800D03*
%TD*%
D34*
%TO.C,U4*%
X205479999Y-99320000D03*
X204980000Y-99320000D03*
X204479998Y-99320000D03*
X203979999Y-99320000D03*
X203480000Y-99320000D03*
X203480000Y-102420000D03*
X203979999Y-102420000D03*
X204479998Y-102420000D03*
X204980000Y-102420000D03*
X205479999Y-102420000D03*
D35*
X204479998Y-100870003D03*
%TD*%
D31*
%TO.C,C1*%
X200990000Y-99940000D03*
X200990000Y-102015000D03*
%TD*%
D36*
%TO.C,D6*%
X220828010Y-121243481D03*
X220828010Y-119368481D03*
%TD*%
D37*
%TO.C,C19*%
X191430000Y-117610000D03*
X191430000Y-115535000D03*
%TD*%
D33*
%TO.C,C4*%
X182075000Y-95741800D03*
X180000000Y-95741800D03*
%TD*%
D13*
%TO.C,H3*%
X187960000Y-88100000D03*
%TD*%
D38*
%TO.C,D3*%
X191000000Y-97241800D03*
X191000000Y-93000000D03*
%TD*%
D14*
%TO.C,C8*%
X177800000Y-126920000D03*
X174091600Y-126920000D03*
%TD*%
D36*
%TO.C,D2*%
X220806638Y-114281597D03*
X220806638Y-112406597D03*
%TD*%
D31*
%TO.C,C2*%
X207990000Y-99865000D03*
X207990000Y-101940000D03*
%TD*%
D36*
%TO.C,D5*%
X224790000Y-114300000D03*
X224790000Y-112425000D03*
%TD*%
%TO.C,D4*%
X224790000Y-121255000D03*
X224790000Y-119380000D03*
%TD*%
D39*
%TO.C,J5*%
X232410000Y-120650000D03*
D40*
X232410000Y-118150000D03*
X232410000Y-115650000D03*
X232410000Y-113150000D03*
%TD*%
D23*
%TO.C,R2*%
X184500000Y-95741800D03*
X186500000Y-95741800D03*
%TD*%
D12*
%TO.C,R9*%
X218828010Y-121193481D03*
X218828010Y-119368481D03*
%TD*%
%TO.C,R7*%
X222790000Y-121205000D03*
X222790000Y-119380000D03*
%TD*%
D37*
%TO.C,C18*%
X215755254Y-105032959D03*
X215755254Y-102957959D03*
%TD*%
M02*
