%TF.GenerationSoftware,KiCad,Pcbnew,8.0.5*%
%TF.CreationDate,2024-10-17T12:47:14-04:00*%
%TF.ProjectId,PCB,5043422e-6b69-4636-9164-5f7063625858,rev?*%
%TF.SameCoordinates,Original*%
%TF.FileFunction,Drillmap*%
%TF.FilePolarity,Positive*%
%FSLAX45Y45*%
G04 Gerber Fmt 4.5, Leading zero omitted, Abs format (unit mm)*
G04 Created by KiCad (PCBNEW 8.0.5) date 2024-10-17 12:47:14*
%MOMM*%
%LPD*%
G01*
G04 APERTURE LIST*
%ADD10C,0.200000*%
%ADD11C,0.210000*%
%ADD12C,0.300000*%
G04 APERTURE END LIST*
D10*
X17145000Y-8382000D02*
X23622000Y-8382000D01*
X23622000Y-14478000D01*
X17145000Y-14478000D01*
X17145000Y-8382000D01*
D11*
X18437000Y-13865000D02*
X18647000Y-14075000D01*
X18647000Y-13865000D02*
X18437000Y-14075000D01*
X18691000Y-8705000D02*
X18901000Y-8915000D01*
X18901000Y-8705000D02*
X18691000Y-8915000D01*
X20850000Y-8785000D02*
X21060000Y-8995000D01*
X21060000Y-8785000D02*
X20850000Y-8995000D01*
X23163000Y-12686000D02*
X23373000Y-12896000D01*
X23373000Y-12686000D02*
X23163000Y-12896000D01*
D12*
X22659000Y-9632000D02*
G75*
G02*
X22359000Y-9632000I-150000J0D01*
G01*
X22359000Y-9632000D02*
G75*
G02*
X22659000Y-9632000I150000J0D01*
G01*
D10*
X17395777Y-14799484D02*
X17395777Y-14599484D01*
X17395777Y-14599484D02*
X17443396Y-14599484D01*
X17443396Y-14599484D02*
X17471967Y-14609008D01*
X17471967Y-14609008D02*
X17491015Y-14628055D01*
X17491015Y-14628055D02*
X17500539Y-14647103D01*
X17500539Y-14647103D02*
X17510063Y-14685198D01*
X17510063Y-14685198D02*
X17510063Y-14713769D01*
X17510063Y-14713769D02*
X17500539Y-14751865D01*
X17500539Y-14751865D02*
X17491015Y-14770912D01*
X17491015Y-14770912D02*
X17471967Y-14789960D01*
X17471967Y-14789960D02*
X17443396Y-14799484D01*
X17443396Y-14799484D02*
X17395777Y-14799484D01*
X17595777Y-14799484D02*
X17595777Y-14666150D01*
X17595777Y-14704246D02*
X17605301Y-14685198D01*
X17605301Y-14685198D02*
X17614824Y-14675674D01*
X17614824Y-14675674D02*
X17633872Y-14666150D01*
X17633872Y-14666150D02*
X17652920Y-14666150D01*
X17719586Y-14799484D02*
X17719586Y-14666150D01*
X17719586Y-14599484D02*
X17710063Y-14609008D01*
X17710063Y-14609008D02*
X17719586Y-14618531D01*
X17719586Y-14618531D02*
X17729110Y-14609008D01*
X17729110Y-14609008D02*
X17719586Y-14599484D01*
X17719586Y-14599484D02*
X17719586Y-14618531D01*
X17843396Y-14799484D02*
X17824348Y-14789960D01*
X17824348Y-14789960D02*
X17814824Y-14770912D01*
X17814824Y-14770912D02*
X17814824Y-14599484D01*
X17948158Y-14799484D02*
X17929110Y-14789960D01*
X17929110Y-14789960D02*
X17919586Y-14770912D01*
X17919586Y-14770912D02*
X17919586Y-14599484D01*
X18176729Y-14799484D02*
X18176729Y-14599484D01*
X18176729Y-14599484D02*
X18243396Y-14742341D01*
X18243396Y-14742341D02*
X18310063Y-14599484D01*
X18310063Y-14599484D02*
X18310063Y-14799484D01*
X18491015Y-14799484D02*
X18491015Y-14694722D01*
X18491015Y-14694722D02*
X18481491Y-14675674D01*
X18481491Y-14675674D02*
X18462444Y-14666150D01*
X18462444Y-14666150D02*
X18424348Y-14666150D01*
X18424348Y-14666150D02*
X18405301Y-14675674D01*
X18491015Y-14789960D02*
X18471967Y-14799484D01*
X18471967Y-14799484D02*
X18424348Y-14799484D01*
X18424348Y-14799484D02*
X18405301Y-14789960D01*
X18405301Y-14789960D02*
X18395777Y-14770912D01*
X18395777Y-14770912D02*
X18395777Y-14751865D01*
X18395777Y-14751865D02*
X18405301Y-14732817D01*
X18405301Y-14732817D02*
X18424348Y-14723293D01*
X18424348Y-14723293D02*
X18471967Y-14723293D01*
X18471967Y-14723293D02*
X18491015Y-14713769D01*
X18586253Y-14666150D02*
X18586253Y-14866150D01*
X18586253Y-14675674D02*
X18605301Y-14666150D01*
X18605301Y-14666150D02*
X18643396Y-14666150D01*
X18643396Y-14666150D02*
X18662444Y-14675674D01*
X18662444Y-14675674D02*
X18671967Y-14685198D01*
X18671967Y-14685198D02*
X18681491Y-14704246D01*
X18681491Y-14704246D02*
X18681491Y-14761388D01*
X18681491Y-14761388D02*
X18671967Y-14780436D01*
X18671967Y-14780436D02*
X18662444Y-14789960D01*
X18662444Y-14789960D02*
X18643396Y-14799484D01*
X18643396Y-14799484D02*
X18605301Y-14799484D01*
X18605301Y-14799484D02*
X18586253Y-14789960D01*
X18767205Y-14780436D02*
X18776729Y-14789960D01*
X18776729Y-14789960D02*
X18767205Y-14799484D01*
X18767205Y-14799484D02*
X18757682Y-14789960D01*
X18757682Y-14789960D02*
X18767205Y-14780436D01*
X18767205Y-14780436D02*
X18767205Y-14799484D01*
X18767205Y-14675674D02*
X18776729Y-14685198D01*
X18776729Y-14685198D02*
X18767205Y-14694722D01*
X18767205Y-14694722D02*
X18757682Y-14685198D01*
X18757682Y-14685198D02*
X18767205Y-14675674D01*
X18767205Y-14675674D02*
X18767205Y-14694722D01*
X16935000Y-15028000D02*
X17135000Y-15228000D01*
X17135000Y-15028000D02*
X16935000Y-15228000D01*
X17386253Y-15038531D02*
X17395777Y-15029008D01*
X17395777Y-15029008D02*
X17414824Y-15019484D01*
X17414824Y-15019484D02*
X17462444Y-15019484D01*
X17462444Y-15019484D02*
X17481491Y-15029008D01*
X17481491Y-15029008D02*
X17491015Y-15038531D01*
X17491015Y-15038531D02*
X17500539Y-15057579D01*
X17500539Y-15057579D02*
X17500539Y-15076627D01*
X17500539Y-15076627D02*
X17491015Y-15105198D01*
X17491015Y-15105198D02*
X17376729Y-15219484D01*
X17376729Y-15219484D02*
X17500539Y-15219484D01*
X17586253Y-15200436D02*
X17595777Y-15209960D01*
X17595777Y-15209960D02*
X17586253Y-15219484D01*
X17586253Y-15219484D02*
X17576729Y-15209960D01*
X17576729Y-15209960D02*
X17586253Y-15200436D01*
X17586253Y-15200436D02*
X17586253Y-15219484D01*
X17786253Y-15219484D02*
X17671967Y-15219484D01*
X17729110Y-15219484D02*
X17729110Y-15019484D01*
X17729110Y-15019484D02*
X17710063Y-15048055D01*
X17710063Y-15048055D02*
X17691015Y-15067103D01*
X17691015Y-15067103D02*
X17671967Y-15076627D01*
X17910063Y-15019484D02*
X17929110Y-15019484D01*
X17929110Y-15019484D02*
X17948158Y-15029008D01*
X17948158Y-15029008D02*
X17957682Y-15038531D01*
X17957682Y-15038531D02*
X17967205Y-15057579D01*
X17967205Y-15057579D02*
X17976729Y-15095674D01*
X17976729Y-15095674D02*
X17976729Y-15143293D01*
X17976729Y-15143293D02*
X17967205Y-15181388D01*
X17967205Y-15181388D02*
X17957682Y-15200436D01*
X17957682Y-15200436D02*
X17948158Y-15209960D01*
X17948158Y-15209960D02*
X17929110Y-15219484D01*
X17929110Y-15219484D02*
X17910063Y-15219484D01*
X17910063Y-15219484D02*
X17891015Y-15209960D01*
X17891015Y-15209960D02*
X17881491Y-15200436D01*
X17881491Y-15200436D02*
X17871967Y-15181388D01*
X17871967Y-15181388D02*
X17862444Y-15143293D01*
X17862444Y-15143293D02*
X17862444Y-15095674D01*
X17862444Y-15095674D02*
X17871967Y-15057579D01*
X17871967Y-15057579D02*
X17881491Y-15038531D01*
X17881491Y-15038531D02*
X17891015Y-15029008D01*
X17891015Y-15029008D02*
X17910063Y-15019484D01*
X18100539Y-15019484D02*
X18119586Y-15019484D01*
X18119586Y-15019484D02*
X18138634Y-15029008D01*
X18138634Y-15029008D02*
X18148158Y-15038531D01*
X18148158Y-15038531D02*
X18157682Y-15057579D01*
X18157682Y-15057579D02*
X18167205Y-15095674D01*
X18167205Y-15095674D02*
X18167205Y-15143293D01*
X18167205Y-15143293D02*
X18157682Y-15181388D01*
X18157682Y-15181388D02*
X18148158Y-15200436D01*
X18148158Y-15200436D02*
X18138634Y-15209960D01*
X18138634Y-15209960D02*
X18119586Y-15219484D01*
X18119586Y-15219484D02*
X18100539Y-15219484D01*
X18100539Y-15219484D02*
X18081491Y-15209960D01*
X18081491Y-15209960D02*
X18071967Y-15200436D01*
X18071967Y-15200436D02*
X18062444Y-15181388D01*
X18062444Y-15181388D02*
X18052920Y-15143293D01*
X18052920Y-15143293D02*
X18052920Y-15095674D01*
X18052920Y-15095674D02*
X18062444Y-15057579D01*
X18062444Y-15057579D02*
X18071967Y-15038531D01*
X18071967Y-15038531D02*
X18081491Y-15029008D01*
X18081491Y-15029008D02*
X18100539Y-15019484D01*
X18252920Y-15219484D02*
X18252920Y-15086150D01*
X18252920Y-15105198D02*
X18262444Y-15095674D01*
X18262444Y-15095674D02*
X18281491Y-15086150D01*
X18281491Y-15086150D02*
X18310063Y-15086150D01*
X18310063Y-15086150D02*
X18329110Y-15095674D01*
X18329110Y-15095674D02*
X18338634Y-15114722D01*
X18338634Y-15114722D02*
X18338634Y-15219484D01*
X18338634Y-15114722D02*
X18348158Y-15095674D01*
X18348158Y-15095674D02*
X18367205Y-15086150D01*
X18367205Y-15086150D02*
X18395777Y-15086150D01*
X18395777Y-15086150D02*
X18414825Y-15095674D01*
X18414825Y-15095674D02*
X18424348Y-15114722D01*
X18424348Y-15114722D02*
X18424348Y-15219484D01*
X18519586Y-15219484D02*
X18519586Y-15086150D01*
X18519586Y-15105198D02*
X18529110Y-15095674D01*
X18529110Y-15095674D02*
X18548158Y-15086150D01*
X18548158Y-15086150D02*
X18576729Y-15086150D01*
X18576729Y-15086150D02*
X18595777Y-15095674D01*
X18595777Y-15095674D02*
X18605301Y-15114722D01*
X18605301Y-15114722D02*
X18605301Y-15219484D01*
X18605301Y-15114722D02*
X18614825Y-15095674D01*
X18614825Y-15095674D02*
X18633872Y-15086150D01*
X18633872Y-15086150D02*
X18662444Y-15086150D01*
X18662444Y-15086150D02*
X18681491Y-15095674D01*
X18681491Y-15095674D02*
X18691015Y-15114722D01*
X18691015Y-15114722D02*
X18691015Y-15219484D01*
X19081491Y-15009960D02*
X18910063Y-15267103D01*
X19338634Y-15019484D02*
X19357682Y-15019484D01*
X19357682Y-15019484D02*
X19376729Y-15029008D01*
X19376729Y-15029008D02*
X19386253Y-15038531D01*
X19386253Y-15038531D02*
X19395777Y-15057579D01*
X19395777Y-15057579D02*
X19405301Y-15095674D01*
X19405301Y-15095674D02*
X19405301Y-15143293D01*
X19405301Y-15143293D02*
X19395777Y-15181388D01*
X19395777Y-15181388D02*
X19386253Y-15200436D01*
X19386253Y-15200436D02*
X19376729Y-15209960D01*
X19376729Y-15209960D02*
X19357682Y-15219484D01*
X19357682Y-15219484D02*
X19338634Y-15219484D01*
X19338634Y-15219484D02*
X19319587Y-15209960D01*
X19319587Y-15209960D02*
X19310063Y-15200436D01*
X19310063Y-15200436D02*
X19300539Y-15181388D01*
X19300539Y-15181388D02*
X19291015Y-15143293D01*
X19291015Y-15143293D02*
X19291015Y-15095674D01*
X19291015Y-15095674D02*
X19300539Y-15057579D01*
X19300539Y-15057579D02*
X19310063Y-15038531D01*
X19310063Y-15038531D02*
X19319587Y-15029008D01*
X19319587Y-15029008D02*
X19338634Y-15019484D01*
X19491015Y-15200436D02*
X19500539Y-15209960D01*
X19500539Y-15209960D02*
X19491015Y-15219484D01*
X19491015Y-15219484D02*
X19481491Y-15209960D01*
X19481491Y-15209960D02*
X19491015Y-15200436D01*
X19491015Y-15200436D02*
X19491015Y-15219484D01*
X19624348Y-15019484D02*
X19643396Y-15019484D01*
X19643396Y-15019484D02*
X19662444Y-15029008D01*
X19662444Y-15029008D02*
X19671968Y-15038531D01*
X19671968Y-15038531D02*
X19681491Y-15057579D01*
X19681491Y-15057579D02*
X19691015Y-15095674D01*
X19691015Y-15095674D02*
X19691015Y-15143293D01*
X19691015Y-15143293D02*
X19681491Y-15181388D01*
X19681491Y-15181388D02*
X19671968Y-15200436D01*
X19671968Y-15200436D02*
X19662444Y-15209960D01*
X19662444Y-15209960D02*
X19643396Y-15219484D01*
X19643396Y-15219484D02*
X19624348Y-15219484D01*
X19624348Y-15219484D02*
X19605301Y-15209960D01*
X19605301Y-15209960D02*
X19595777Y-15200436D01*
X19595777Y-15200436D02*
X19586253Y-15181388D01*
X19586253Y-15181388D02*
X19576729Y-15143293D01*
X19576729Y-15143293D02*
X19576729Y-15095674D01*
X19576729Y-15095674D02*
X19586253Y-15057579D01*
X19586253Y-15057579D02*
X19595777Y-15038531D01*
X19595777Y-15038531D02*
X19605301Y-15029008D01*
X19605301Y-15029008D02*
X19624348Y-15019484D01*
X19805301Y-15105198D02*
X19786253Y-15095674D01*
X19786253Y-15095674D02*
X19776729Y-15086150D01*
X19776729Y-15086150D02*
X19767206Y-15067103D01*
X19767206Y-15067103D02*
X19767206Y-15057579D01*
X19767206Y-15057579D02*
X19776729Y-15038531D01*
X19776729Y-15038531D02*
X19786253Y-15029008D01*
X19786253Y-15029008D02*
X19805301Y-15019484D01*
X19805301Y-15019484D02*
X19843396Y-15019484D01*
X19843396Y-15019484D02*
X19862444Y-15029008D01*
X19862444Y-15029008D02*
X19871968Y-15038531D01*
X19871968Y-15038531D02*
X19881491Y-15057579D01*
X19881491Y-15057579D02*
X19881491Y-15067103D01*
X19881491Y-15067103D02*
X19871968Y-15086150D01*
X19871968Y-15086150D02*
X19862444Y-15095674D01*
X19862444Y-15095674D02*
X19843396Y-15105198D01*
X19843396Y-15105198D02*
X19805301Y-15105198D01*
X19805301Y-15105198D02*
X19786253Y-15114722D01*
X19786253Y-15114722D02*
X19776729Y-15124246D01*
X19776729Y-15124246D02*
X19767206Y-15143293D01*
X19767206Y-15143293D02*
X19767206Y-15181388D01*
X19767206Y-15181388D02*
X19776729Y-15200436D01*
X19776729Y-15200436D02*
X19786253Y-15209960D01*
X19786253Y-15209960D02*
X19805301Y-15219484D01*
X19805301Y-15219484D02*
X19843396Y-15219484D01*
X19843396Y-15219484D02*
X19862444Y-15209960D01*
X19862444Y-15209960D02*
X19871968Y-15200436D01*
X19871968Y-15200436D02*
X19881491Y-15181388D01*
X19881491Y-15181388D02*
X19881491Y-15143293D01*
X19881491Y-15143293D02*
X19871968Y-15124246D01*
X19871968Y-15124246D02*
X19862444Y-15114722D01*
X19862444Y-15114722D02*
X19843396Y-15105198D01*
X19957682Y-15038531D02*
X19967206Y-15029008D01*
X19967206Y-15029008D02*
X19986253Y-15019484D01*
X19986253Y-15019484D02*
X20033872Y-15019484D01*
X20033872Y-15019484D02*
X20052920Y-15029008D01*
X20052920Y-15029008D02*
X20062444Y-15038531D01*
X20062444Y-15038531D02*
X20071968Y-15057579D01*
X20071968Y-15057579D02*
X20071968Y-15076627D01*
X20071968Y-15076627D02*
X20062444Y-15105198D01*
X20062444Y-15105198D02*
X19948158Y-15219484D01*
X19948158Y-15219484D02*
X20071968Y-15219484D01*
X20138634Y-15019484D02*
X20271968Y-15019484D01*
X20271968Y-15019484D02*
X20186253Y-15219484D01*
X20338634Y-15019484D02*
X20338634Y-15057579D01*
X20414825Y-15019484D02*
X20414825Y-15057579D01*
X20710063Y-15295674D02*
X20700539Y-15286150D01*
X20700539Y-15286150D02*
X20681491Y-15257579D01*
X20681491Y-15257579D02*
X20671968Y-15238531D01*
X20671968Y-15238531D02*
X20662444Y-15209960D01*
X20662444Y-15209960D02*
X20652920Y-15162341D01*
X20652920Y-15162341D02*
X20652920Y-15124246D01*
X20652920Y-15124246D02*
X20662444Y-15076627D01*
X20662444Y-15076627D02*
X20671968Y-15048055D01*
X20671968Y-15048055D02*
X20681491Y-15029008D01*
X20681491Y-15029008D02*
X20700539Y-15000436D01*
X20700539Y-15000436D02*
X20710063Y-14990912D01*
X20871968Y-15086150D02*
X20871968Y-15219484D01*
X20824349Y-15009960D02*
X20776730Y-15152817D01*
X20776730Y-15152817D02*
X20900539Y-15152817D01*
X21129111Y-15219484D02*
X21129111Y-15019484D01*
X21214825Y-15219484D02*
X21214825Y-15114722D01*
X21214825Y-15114722D02*
X21205301Y-15095674D01*
X21205301Y-15095674D02*
X21186253Y-15086150D01*
X21186253Y-15086150D02*
X21157682Y-15086150D01*
X21157682Y-15086150D02*
X21138634Y-15095674D01*
X21138634Y-15095674D02*
X21129111Y-15105198D01*
X21338634Y-15219484D02*
X21319587Y-15209960D01*
X21319587Y-15209960D02*
X21310063Y-15200436D01*
X21310063Y-15200436D02*
X21300539Y-15181388D01*
X21300539Y-15181388D02*
X21300539Y-15124246D01*
X21300539Y-15124246D02*
X21310063Y-15105198D01*
X21310063Y-15105198D02*
X21319587Y-15095674D01*
X21319587Y-15095674D02*
X21338634Y-15086150D01*
X21338634Y-15086150D02*
X21367206Y-15086150D01*
X21367206Y-15086150D02*
X21386253Y-15095674D01*
X21386253Y-15095674D02*
X21395777Y-15105198D01*
X21395777Y-15105198D02*
X21405301Y-15124246D01*
X21405301Y-15124246D02*
X21405301Y-15181388D01*
X21405301Y-15181388D02*
X21395777Y-15200436D01*
X21395777Y-15200436D02*
X21386253Y-15209960D01*
X21386253Y-15209960D02*
X21367206Y-15219484D01*
X21367206Y-15219484D02*
X21338634Y-15219484D01*
X21519587Y-15219484D02*
X21500539Y-15209960D01*
X21500539Y-15209960D02*
X21491015Y-15190912D01*
X21491015Y-15190912D02*
X21491015Y-15019484D01*
X21671968Y-15209960D02*
X21652920Y-15219484D01*
X21652920Y-15219484D02*
X21614825Y-15219484D01*
X21614825Y-15219484D02*
X21595777Y-15209960D01*
X21595777Y-15209960D02*
X21586253Y-15190912D01*
X21586253Y-15190912D02*
X21586253Y-15114722D01*
X21586253Y-15114722D02*
X21595777Y-15095674D01*
X21595777Y-15095674D02*
X21614825Y-15086150D01*
X21614825Y-15086150D02*
X21652920Y-15086150D01*
X21652920Y-15086150D02*
X21671968Y-15095674D01*
X21671968Y-15095674D02*
X21681492Y-15114722D01*
X21681492Y-15114722D02*
X21681492Y-15133769D01*
X21681492Y-15133769D02*
X21586253Y-15152817D01*
X21757682Y-15209960D02*
X21776730Y-15219484D01*
X21776730Y-15219484D02*
X21814825Y-15219484D01*
X21814825Y-15219484D02*
X21833873Y-15209960D01*
X21833873Y-15209960D02*
X21843396Y-15190912D01*
X21843396Y-15190912D02*
X21843396Y-15181388D01*
X21843396Y-15181388D02*
X21833873Y-15162341D01*
X21833873Y-15162341D02*
X21814825Y-15152817D01*
X21814825Y-15152817D02*
X21786253Y-15152817D01*
X21786253Y-15152817D02*
X21767206Y-15143293D01*
X21767206Y-15143293D02*
X21757682Y-15124246D01*
X21757682Y-15124246D02*
X21757682Y-15114722D01*
X21757682Y-15114722D02*
X21767206Y-15095674D01*
X21767206Y-15095674D02*
X21786253Y-15086150D01*
X21786253Y-15086150D02*
X21814825Y-15086150D01*
X21814825Y-15086150D02*
X21833873Y-15095674D01*
X21910063Y-15295674D02*
X21919587Y-15286150D01*
X21919587Y-15286150D02*
X21938634Y-15257579D01*
X21938634Y-15257579D02*
X21948158Y-15238531D01*
X21948158Y-15238531D02*
X21957682Y-15209960D01*
X21957682Y-15209960D02*
X21967206Y-15162341D01*
X21967206Y-15162341D02*
X21967206Y-15124246D01*
X21967206Y-15124246D02*
X21957682Y-15076627D01*
X21957682Y-15076627D02*
X21948158Y-15048055D01*
X21948158Y-15048055D02*
X21938634Y-15029008D01*
X21938634Y-15029008D02*
X21919587Y-15000436D01*
X21919587Y-15000436D02*
X21910063Y-14990912D01*
X22271968Y-15295674D02*
X22262444Y-15286150D01*
X22262444Y-15286150D02*
X22243396Y-15257579D01*
X22243396Y-15257579D02*
X22233873Y-15238531D01*
X22233873Y-15238531D02*
X22224349Y-15209960D01*
X22224349Y-15209960D02*
X22214825Y-15162341D01*
X22214825Y-15162341D02*
X22214825Y-15124246D01*
X22214825Y-15124246D02*
X22224349Y-15076627D01*
X22224349Y-15076627D02*
X22233873Y-15048055D01*
X22233873Y-15048055D02*
X22243396Y-15029008D01*
X22243396Y-15029008D02*
X22262444Y-15000436D01*
X22262444Y-15000436D02*
X22271968Y-14990912D01*
X22348158Y-15086150D02*
X22348158Y-15219484D01*
X22348158Y-15105198D02*
X22357682Y-15095674D01*
X22357682Y-15095674D02*
X22376730Y-15086150D01*
X22376730Y-15086150D02*
X22405301Y-15086150D01*
X22405301Y-15086150D02*
X22424349Y-15095674D01*
X22424349Y-15095674D02*
X22433872Y-15114722D01*
X22433872Y-15114722D02*
X22433872Y-15219484D01*
X22557682Y-15219484D02*
X22538634Y-15209960D01*
X22538634Y-15209960D02*
X22529111Y-15200436D01*
X22529111Y-15200436D02*
X22519587Y-15181388D01*
X22519587Y-15181388D02*
X22519587Y-15124246D01*
X22519587Y-15124246D02*
X22529111Y-15105198D01*
X22529111Y-15105198D02*
X22538634Y-15095674D01*
X22538634Y-15095674D02*
X22557682Y-15086150D01*
X22557682Y-15086150D02*
X22586253Y-15086150D01*
X22586253Y-15086150D02*
X22605301Y-15095674D01*
X22605301Y-15095674D02*
X22614825Y-15105198D01*
X22614825Y-15105198D02*
X22624349Y-15124246D01*
X22624349Y-15124246D02*
X22624349Y-15181388D01*
X22624349Y-15181388D02*
X22614825Y-15200436D01*
X22614825Y-15200436D02*
X22605301Y-15209960D01*
X22605301Y-15209960D02*
X22586253Y-15219484D01*
X22586253Y-15219484D02*
X22557682Y-15219484D01*
X22681492Y-15086150D02*
X22757682Y-15086150D01*
X22710063Y-15019484D02*
X22710063Y-15190912D01*
X22710063Y-15190912D02*
X22719587Y-15209960D01*
X22719587Y-15209960D02*
X22738634Y-15219484D01*
X22738634Y-15219484D02*
X22757682Y-15219484D01*
X22976730Y-15086150D02*
X22976730Y-15286150D01*
X22976730Y-15095674D02*
X22995777Y-15086150D01*
X22995777Y-15086150D02*
X23033873Y-15086150D01*
X23033873Y-15086150D02*
X23052920Y-15095674D01*
X23052920Y-15095674D02*
X23062444Y-15105198D01*
X23062444Y-15105198D02*
X23071968Y-15124246D01*
X23071968Y-15124246D02*
X23071968Y-15181388D01*
X23071968Y-15181388D02*
X23062444Y-15200436D01*
X23062444Y-15200436D02*
X23052920Y-15209960D01*
X23052920Y-15209960D02*
X23033873Y-15219484D01*
X23033873Y-15219484D02*
X22995777Y-15219484D01*
X22995777Y-15219484D02*
X22976730Y-15209960D01*
X23186253Y-15219484D02*
X23167206Y-15209960D01*
X23167206Y-15209960D02*
X23157682Y-15190912D01*
X23157682Y-15190912D02*
X23157682Y-15019484D01*
X23348158Y-15219484D02*
X23348158Y-15114722D01*
X23348158Y-15114722D02*
X23338634Y-15095674D01*
X23338634Y-15095674D02*
X23319587Y-15086150D01*
X23319587Y-15086150D02*
X23281492Y-15086150D01*
X23281492Y-15086150D02*
X23262444Y-15095674D01*
X23348158Y-15209960D02*
X23329111Y-15219484D01*
X23329111Y-15219484D02*
X23281492Y-15219484D01*
X23281492Y-15219484D02*
X23262444Y-15209960D01*
X23262444Y-15209960D02*
X23252920Y-15190912D01*
X23252920Y-15190912D02*
X23252920Y-15171865D01*
X23252920Y-15171865D02*
X23262444Y-15152817D01*
X23262444Y-15152817D02*
X23281492Y-15143293D01*
X23281492Y-15143293D02*
X23329111Y-15143293D01*
X23329111Y-15143293D02*
X23348158Y-15133769D01*
X23414825Y-15086150D02*
X23491015Y-15086150D01*
X23443396Y-15019484D02*
X23443396Y-15190912D01*
X23443396Y-15190912D02*
X23452920Y-15209960D01*
X23452920Y-15209960D02*
X23471968Y-15219484D01*
X23471968Y-15219484D02*
X23491015Y-15219484D01*
X23633873Y-15209960D02*
X23614825Y-15219484D01*
X23614825Y-15219484D02*
X23576730Y-15219484D01*
X23576730Y-15219484D02*
X23557682Y-15209960D01*
X23557682Y-15209960D02*
X23548158Y-15190912D01*
X23548158Y-15190912D02*
X23548158Y-15114722D01*
X23548158Y-15114722D02*
X23557682Y-15095674D01*
X23557682Y-15095674D02*
X23576730Y-15086150D01*
X23576730Y-15086150D02*
X23614825Y-15086150D01*
X23614825Y-15086150D02*
X23633873Y-15095674D01*
X23633873Y-15095674D02*
X23643396Y-15114722D01*
X23643396Y-15114722D02*
X23643396Y-15133769D01*
X23643396Y-15133769D02*
X23548158Y-15152817D01*
X23814825Y-15219484D02*
X23814825Y-15019484D01*
X23814825Y-15209960D02*
X23795777Y-15219484D01*
X23795777Y-15219484D02*
X23757682Y-15219484D01*
X23757682Y-15219484D02*
X23738634Y-15209960D01*
X23738634Y-15209960D02*
X23729111Y-15200436D01*
X23729111Y-15200436D02*
X23719587Y-15181388D01*
X23719587Y-15181388D02*
X23719587Y-15124246D01*
X23719587Y-15124246D02*
X23729111Y-15105198D01*
X23729111Y-15105198D02*
X23738634Y-15095674D01*
X23738634Y-15095674D02*
X23757682Y-15086150D01*
X23757682Y-15086150D02*
X23795777Y-15086150D01*
X23795777Y-15086150D02*
X23814825Y-15095674D01*
X23891015Y-15295674D02*
X23900539Y-15286150D01*
X23900539Y-15286150D02*
X23919587Y-15257579D01*
X23919587Y-15257579D02*
X23929111Y-15238531D01*
X23929111Y-15238531D02*
X23938634Y-15209960D01*
X23938634Y-15209960D02*
X23948158Y-15162341D01*
X23948158Y-15162341D02*
X23948158Y-15124246D01*
X23948158Y-15124246D02*
X23938634Y-15076627D01*
X23938634Y-15076627D02*
X23929111Y-15048055D01*
X23929111Y-15048055D02*
X23919587Y-15029008D01*
X23919587Y-15029008D02*
X23900539Y-15000436D01*
X23900539Y-15000436D02*
X23891015Y-14990912D01*
X17135000Y-15448000D02*
G75*
G02*
X16935000Y-15448000I-100000J0D01*
G01*
X16935000Y-15448000D02*
G75*
G02*
X17135000Y-15448000I100000J0D01*
G01*
X17376729Y-15339484D02*
X17500539Y-15339484D01*
X17500539Y-15339484D02*
X17433872Y-15415674D01*
X17433872Y-15415674D02*
X17462444Y-15415674D01*
X17462444Y-15415674D02*
X17481491Y-15425198D01*
X17481491Y-15425198D02*
X17491015Y-15434722D01*
X17491015Y-15434722D02*
X17500539Y-15453769D01*
X17500539Y-15453769D02*
X17500539Y-15501388D01*
X17500539Y-15501388D02*
X17491015Y-15520436D01*
X17491015Y-15520436D02*
X17481491Y-15529960D01*
X17481491Y-15529960D02*
X17462444Y-15539484D01*
X17462444Y-15539484D02*
X17405301Y-15539484D01*
X17405301Y-15539484D02*
X17386253Y-15529960D01*
X17386253Y-15529960D02*
X17376729Y-15520436D01*
X17586253Y-15520436D02*
X17595777Y-15529960D01*
X17595777Y-15529960D02*
X17586253Y-15539484D01*
X17586253Y-15539484D02*
X17576729Y-15529960D01*
X17576729Y-15529960D02*
X17586253Y-15520436D01*
X17586253Y-15520436D02*
X17586253Y-15539484D01*
X17719586Y-15339484D02*
X17738634Y-15339484D01*
X17738634Y-15339484D02*
X17757682Y-15349008D01*
X17757682Y-15349008D02*
X17767205Y-15358531D01*
X17767205Y-15358531D02*
X17776729Y-15377579D01*
X17776729Y-15377579D02*
X17786253Y-15415674D01*
X17786253Y-15415674D02*
X17786253Y-15463293D01*
X17786253Y-15463293D02*
X17776729Y-15501388D01*
X17776729Y-15501388D02*
X17767205Y-15520436D01*
X17767205Y-15520436D02*
X17757682Y-15529960D01*
X17757682Y-15529960D02*
X17738634Y-15539484D01*
X17738634Y-15539484D02*
X17719586Y-15539484D01*
X17719586Y-15539484D02*
X17700539Y-15529960D01*
X17700539Y-15529960D02*
X17691015Y-15520436D01*
X17691015Y-15520436D02*
X17681491Y-15501388D01*
X17681491Y-15501388D02*
X17671967Y-15463293D01*
X17671967Y-15463293D02*
X17671967Y-15415674D01*
X17671967Y-15415674D02*
X17681491Y-15377579D01*
X17681491Y-15377579D02*
X17691015Y-15358531D01*
X17691015Y-15358531D02*
X17700539Y-15349008D01*
X17700539Y-15349008D02*
X17719586Y-15339484D01*
X17910063Y-15339484D02*
X17929110Y-15339484D01*
X17929110Y-15339484D02*
X17948158Y-15349008D01*
X17948158Y-15349008D02*
X17957682Y-15358531D01*
X17957682Y-15358531D02*
X17967205Y-15377579D01*
X17967205Y-15377579D02*
X17976729Y-15415674D01*
X17976729Y-15415674D02*
X17976729Y-15463293D01*
X17976729Y-15463293D02*
X17967205Y-15501388D01*
X17967205Y-15501388D02*
X17957682Y-15520436D01*
X17957682Y-15520436D02*
X17948158Y-15529960D01*
X17948158Y-15529960D02*
X17929110Y-15539484D01*
X17929110Y-15539484D02*
X17910063Y-15539484D01*
X17910063Y-15539484D02*
X17891015Y-15529960D01*
X17891015Y-15529960D02*
X17881491Y-15520436D01*
X17881491Y-15520436D02*
X17871967Y-15501388D01*
X17871967Y-15501388D02*
X17862444Y-15463293D01*
X17862444Y-15463293D02*
X17862444Y-15415674D01*
X17862444Y-15415674D02*
X17871967Y-15377579D01*
X17871967Y-15377579D02*
X17881491Y-15358531D01*
X17881491Y-15358531D02*
X17891015Y-15349008D01*
X17891015Y-15349008D02*
X17910063Y-15339484D01*
X18100539Y-15339484D02*
X18119586Y-15339484D01*
X18119586Y-15339484D02*
X18138634Y-15349008D01*
X18138634Y-15349008D02*
X18148158Y-15358531D01*
X18148158Y-15358531D02*
X18157682Y-15377579D01*
X18157682Y-15377579D02*
X18167205Y-15415674D01*
X18167205Y-15415674D02*
X18167205Y-15463293D01*
X18167205Y-15463293D02*
X18157682Y-15501388D01*
X18157682Y-15501388D02*
X18148158Y-15520436D01*
X18148158Y-15520436D02*
X18138634Y-15529960D01*
X18138634Y-15529960D02*
X18119586Y-15539484D01*
X18119586Y-15539484D02*
X18100539Y-15539484D01*
X18100539Y-15539484D02*
X18081491Y-15529960D01*
X18081491Y-15529960D02*
X18071967Y-15520436D01*
X18071967Y-15520436D02*
X18062444Y-15501388D01*
X18062444Y-15501388D02*
X18052920Y-15463293D01*
X18052920Y-15463293D02*
X18052920Y-15415674D01*
X18052920Y-15415674D02*
X18062444Y-15377579D01*
X18062444Y-15377579D02*
X18071967Y-15358531D01*
X18071967Y-15358531D02*
X18081491Y-15349008D01*
X18081491Y-15349008D02*
X18100539Y-15339484D01*
X18252920Y-15539484D02*
X18252920Y-15406150D01*
X18252920Y-15425198D02*
X18262444Y-15415674D01*
X18262444Y-15415674D02*
X18281491Y-15406150D01*
X18281491Y-15406150D02*
X18310063Y-15406150D01*
X18310063Y-15406150D02*
X18329110Y-15415674D01*
X18329110Y-15415674D02*
X18338634Y-15434722D01*
X18338634Y-15434722D02*
X18338634Y-15539484D01*
X18338634Y-15434722D02*
X18348158Y-15415674D01*
X18348158Y-15415674D02*
X18367205Y-15406150D01*
X18367205Y-15406150D02*
X18395777Y-15406150D01*
X18395777Y-15406150D02*
X18414825Y-15415674D01*
X18414825Y-15415674D02*
X18424348Y-15434722D01*
X18424348Y-15434722D02*
X18424348Y-15539484D01*
X18519586Y-15539484D02*
X18519586Y-15406150D01*
X18519586Y-15425198D02*
X18529110Y-15415674D01*
X18529110Y-15415674D02*
X18548158Y-15406150D01*
X18548158Y-15406150D02*
X18576729Y-15406150D01*
X18576729Y-15406150D02*
X18595777Y-15415674D01*
X18595777Y-15415674D02*
X18605301Y-15434722D01*
X18605301Y-15434722D02*
X18605301Y-15539484D01*
X18605301Y-15434722D02*
X18614825Y-15415674D01*
X18614825Y-15415674D02*
X18633872Y-15406150D01*
X18633872Y-15406150D02*
X18662444Y-15406150D01*
X18662444Y-15406150D02*
X18681491Y-15415674D01*
X18681491Y-15415674D02*
X18691015Y-15434722D01*
X18691015Y-15434722D02*
X18691015Y-15539484D01*
X19081491Y-15329960D02*
X18910063Y-15587103D01*
X19338634Y-15339484D02*
X19357682Y-15339484D01*
X19357682Y-15339484D02*
X19376729Y-15349008D01*
X19376729Y-15349008D02*
X19386253Y-15358531D01*
X19386253Y-15358531D02*
X19395777Y-15377579D01*
X19395777Y-15377579D02*
X19405301Y-15415674D01*
X19405301Y-15415674D02*
X19405301Y-15463293D01*
X19405301Y-15463293D02*
X19395777Y-15501388D01*
X19395777Y-15501388D02*
X19386253Y-15520436D01*
X19386253Y-15520436D02*
X19376729Y-15529960D01*
X19376729Y-15529960D02*
X19357682Y-15539484D01*
X19357682Y-15539484D02*
X19338634Y-15539484D01*
X19338634Y-15539484D02*
X19319587Y-15529960D01*
X19319587Y-15529960D02*
X19310063Y-15520436D01*
X19310063Y-15520436D02*
X19300539Y-15501388D01*
X19300539Y-15501388D02*
X19291015Y-15463293D01*
X19291015Y-15463293D02*
X19291015Y-15415674D01*
X19291015Y-15415674D02*
X19300539Y-15377579D01*
X19300539Y-15377579D02*
X19310063Y-15358531D01*
X19310063Y-15358531D02*
X19319587Y-15349008D01*
X19319587Y-15349008D02*
X19338634Y-15339484D01*
X19491015Y-15520436D02*
X19500539Y-15529960D01*
X19500539Y-15529960D02*
X19491015Y-15539484D01*
X19491015Y-15539484D02*
X19481491Y-15529960D01*
X19481491Y-15529960D02*
X19491015Y-15520436D01*
X19491015Y-15520436D02*
X19491015Y-15539484D01*
X19691015Y-15539484D02*
X19576729Y-15539484D01*
X19633872Y-15539484D02*
X19633872Y-15339484D01*
X19633872Y-15339484D02*
X19614825Y-15368055D01*
X19614825Y-15368055D02*
X19595777Y-15387103D01*
X19595777Y-15387103D02*
X19576729Y-15396627D01*
X19881491Y-15539484D02*
X19767206Y-15539484D01*
X19824348Y-15539484D02*
X19824348Y-15339484D01*
X19824348Y-15339484D02*
X19805301Y-15368055D01*
X19805301Y-15368055D02*
X19786253Y-15387103D01*
X19786253Y-15387103D02*
X19767206Y-15396627D01*
X19995777Y-15425198D02*
X19976729Y-15415674D01*
X19976729Y-15415674D02*
X19967206Y-15406150D01*
X19967206Y-15406150D02*
X19957682Y-15387103D01*
X19957682Y-15387103D02*
X19957682Y-15377579D01*
X19957682Y-15377579D02*
X19967206Y-15358531D01*
X19967206Y-15358531D02*
X19976729Y-15349008D01*
X19976729Y-15349008D02*
X19995777Y-15339484D01*
X19995777Y-15339484D02*
X20033872Y-15339484D01*
X20033872Y-15339484D02*
X20052920Y-15349008D01*
X20052920Y-15349008D02*
X20062444Y-15358531D01*
X20062444Y-15358531D02*
X20071968Y-15377579D01*
X20071968Y-15377579D02*
X20071968Y-15387103D01*
X20071968Y-15387103D02*
X20062444Y-15406150D01*
X20062444Y-15406150D02*
X20052920Y-15415674D01*
X20052920Y-15415674D02*
X20033872Y-15425198D01*
X20033872Y-15425198D02*
X19995777Y-15425198D01*
X19995777Y-15425198D02*
X19976729Y-15434722D01*
X19976729Y-15434722D02*
X19967206Y-15444246D01*
X19967206Y-15444246D02*
X19957682Y-15463293D01*
X19957682Y-15463293D02*
X19957682Y-15501388D01*
X19957682Y-15501388D02*
X19967206Y-15520436D01*
X19967206Y-15520436D02*
X19976729Y-15529960D01*
X19976729Y-15529960D02*
X19995777Y-15539484D01*
X19995777Y-15539484D02*
X20033872Y-15539484D01*
X20033872Y-15539484D02*
X20052920Y-15529960D01*
X20052920Y-15529960D02*
X20062444Y-15520436D01*
X20062444Y-15520436D02*
X20071968Y-15501388D01*
X20071968Y-15501388D02*
X20071968Y-15463293D01*
X20071968Y-15463293D02*
X20062444Y-15444246D01*
X20062444Y-15444246D02*
X20052920Y-15434722D01*
X20052920Y-15434722D02*
X20033872Y-15425198D01*
X20262444Y-15539484D02*
X20148158Y-15539484D01*
X20205301Y-15539484D02*
X20205301Y-15339484D01*
X20205301Y-15339484D02*
X20186253Y-15368055D01*
X20186253Y-15368055D02*
X20167206Y-15387103D01*
X20167206Y-15387103D02*
X20148158Y-15396627D01*
X20338634Y-15339484D02*
X20338634Y-15377579D01*
X20414825Y-15339484D02*
X20414825Y-15377579D01*
X20710063Y-15615674D02*
X20700539Y-15606150D01*
X20700539Y-15606150D02*
X20681491Y-15577579D01*
X20681491Y-15577579D02*
X20671968Y-15558531D01*
X20671968Y-15558531D02*
X20662444Y-15529960D01*
X20662444Y-15529960D02*
X20652920Y-15482341D01*
X20652920Y-15482341D02*
X20652920Y-15444246D01*
X20652920Y-15444246D02*
X20662444Y-15396627D01*
X20662444Y-15396627D02*
X20671968Y-15368055D01*
X20671968Y-15368055D02*
X20681491Y-15349008D01*
X20681491Y-15349008D02*
X20700539Y-15320436D01*
X20700539Y-15320436D02*
X20710063Y-15310912D01*
X20891015Y-15539484D02*
X20776730Y-15539484D01*
X20833872Y-15539484D02*
X20833872Y-15339484D01*
X20833872Y-15339484D02*
X20814825Y-15368055D01*
X20814825Y-15368055D02*
X20795777Y-15387103D01*
X20795777Y-15387103D02*
X20776730Y-15396627D01*
X21129111Y-15539484D02*
X21129111Y-15339484D01*
X21214825Y-15539484D02*
X21214825Y-15434722D01*
X21214825Y-15434722D02*
X21205301Y-15415674D01*
X21205301Y-15415674D02*
X21186253Y-15406150D01*
X21186253Y-15406150D02*
X21157682Y-15406150D01*
X21157682Y-15406150D02*
X21138634Y-15415674D01*
X21138634Y-15415674D02*
X21129111Y-15425198D01*
X21338634Y-15539484D02*
X21319587Y-15529960D01*
X21319587Y-15529960D02*
X21310063Y-15520436D01*
X21310063Y-15520436D02*
X21300539Y-15501388D01*
X21300539Y-15501388D02*
X21300539Y-15444246D01*
X21300539Y-15444246D02*
X21310063Y-15425198D01*
X21310063Y-15425198D02*
X21319587Y-15415674D01*
X21319587Y-15415674D02*
X21338634Y-15406150D01*
X21338634Y-15406150D02*
X21367206Y-15406150D01*
X21367206Y-15406150D02*
X21386253Y-15415674D01*
X21386253Y-15415674D02*
X21395777Y-15425198D01*
X21395777Y-15425198D02*
X21405301Y-15444246D01*
X21405301Y-15444246D02*
X21405301Y-15501388D01*
X21405301Y-15501388D02*
X21395777Y-15520436D01*
X21395777Y-15520436D02*
X21386253Y-15529960D01*
X21386253Y-15529960D02*
X21367206Y-15539484D01*
X21367206Y-15539484D02*
X21338634Y-15539484D01*
X21519587Y-15539484D02*
X21500539Y-15529960D01*
X21500539Y-15529960D02*
X21491015Y-15510912D01*
X21491015Y-15510912D02*
X21491015Y-15339484D01*
X21671968Y-15529960D02*
X21652920Y-15539484D01*
X21652920Y-15539484D02*
X21614825Y-15539484D01*
X21614825Y-15539484D02*
X21595777Y-15529960D01*
X21595777Y-15529960D02*
X21586253Y-15510912D01*
X21586253Y-15510912D02*
X21586253Y-15434722D01*
X21586253Y-15434722D02*
X21595777Y-15415674D01*
X21595777Y-15415674D02*
X21614825Y-15406150D01*
X21614825Y-15406150D02*
X21652920Y-15406150D01*
X21652920Y-15406150D02*
X21671968Y-15415674D01*
X21671968Y-15415674D02*
X21681492Y-15434722D01*
X21681492Y-15434722D02*
X21681492Y-15453769D01*
X21681492Y-15453769D02*
X21586253Y-15472817D01*
X21748158Y-15615674D02*
X21757682Y-15606150D01*
X21757682Y-15606150D02*
X21776730Y-15577579D01*
X21776730Y-15577579D02*
X21786253Y-15558531D01*
X21786253Y-15558531D02*
X21795777Y-15529960D01*
X21795777Y-15529960D02*
X21805301Y-15482341D01*
X21805301Y-15482341D02*
X21805301Y-15444246D01*
X21805301Y-15444246D02*
X21795777Y-15396627D01*
X21795777Y-15396627D02*
X21786253Y-15368055D01*
X21786253Y-15368055D02*
X21776730Y-15349008D01*
X21776730Y-15349008D02*
X21757682Y-15320436D01*
X21757682Y-15320436D02*
X21748158Y-15310912D01*
X22110063Y-15615674D02*
X22100539Y-15606150D01*
X22100539Y-15606150D02*
X22081492Y-15577579D01*
X22081492Y-15577579D02*
X22071968Y-15558531D01*
X22071968Y-15558531D02*
X22062444Y-15529960D01*
X22062444Y-15529960D02*
X22052920Y-15482341D01*
X22052920Y-15482341D02*
X22052920Y-15444246D01*
X22052920Y-15444246D02*
X22062444Y-15396627D01*
X22062444Y-15396627D02*
X22071968Y-15368055D01*
X22071968Y-15368055D02*
X22081492Y-15349008D01*
X22081492Y-15349008D02*
X22100539Y-15320436D01*
X22100539Y-15320436D02*
X22110063Y-15310912D01*
X22186253Y-15406150D02*
X22186253Y-15539484D01*
X22186253Y-15425198D02*
X22195777Y-15415674D01*
X22195777Y-15415674D02*
X22214825Y-15406150D01*
X22214825Y-15406150D02*
X22243396Y-15406150D01*
X22243396Y-15406150D02*
X22262444Y-15415674D01*
X22262444Y-15415674D02*
X22271968Y-15434722D01*
X22271968Y-15434722D02*
X22271968Y-15539484D01*
X22395777Y-15539484D02*
X22376730Y-15529960D01*
X22376730Y-15529960D02*
X22367206Y-15520436D01*
X22367206Y-15520436D02*
X22357682Y-15501388D01*
X22357682Y-15501388D02*
X22357682Y-15444246D01*
X22357682Y-15444246D02*
X22367206Y-15425198D01*
X22367206Y-15425198D02*
X22376730Y-15415674D01*
X22376730Y-15415674D02*
X22395777Y-15406150D01*
X22395777Y-15406150D02*
X22424349Y-15406150D01*
X22424349Y-15406150D02*
X22443396Y-15415674D01*
X22443396Y-15415674D02*
X22452920Y-15425198D01*
X22452920Y-15425198D02*
X22462444Y-15444246D01*
X22462444Y-15444246D02*
X22462444Y-15501388D01*
X22462444Y-15501388D02*
X22452920Y-15520436D01*
X22452920Y-15520436D02*
X22443396Y-15529960D01*
X22443396Y-15529960D02*
X22424349Y-15539484D01*
X22424349Y-15539484D02*
X22395777Y-15539484D01*
X22519587Y-15406150D02*
X22595777Y-15406150D01*
X22548158Y-15339484D02*
X22548158Y-15510912D01*
X22548158Y-15510912D02*
X22557682Y-15529960D01*
X22557682Y-15529960D02*
X22576730Y-15539484D01*
X22576730Y-15539484D02*
X22595777Y-15539484D01*
X22814825Y-15406150D02*
X22814825Y-15606150D01*
X22814825Y-15415674D02*
X22833872Y-15406150D01*
X22833872Y-15406150D02*
X22871968Y-15406150D01*
X22871968Y-15406150D02*
X22891015Y-15415674D01*
X22891015Y-15415674D02*
X22900539Y-15425198D01*
X22900539Y-15425198D02*
X22910063Y-15444246D01*
X22910063Y-15444246D02*
X22910063Y-15501388D01*
X22910063Y-15501388D02*
X22900539Y-15520436D01*
X22900539Y-15520436D02*
X22891015Y-15529960D01*
X22891015Y-15529960D02*
X22871968Y-15539484D01*
X22871968Y-15539484D02*
X22833872Y-15539484D01*
X22833872Y-15539484D02*
X22814825Y-15529960D01*
X23024349Y-15539484D02*
X23005301Y-15529960D01*
X23005301Y-15529960D02*
X22995777Y-15510912D01*
X22995777Y-15510912D02*
X22995777Y-15339484D01*
X23186253Y-15539484D02*
X23186253Y-15434722D01*
X23186253Y-15434722D02*
X23176730Y-15415674D01*
X23176730Y-15415674D02*
X23157682Y-15406150D01*
X23157682Y-15406150D02*
X23119587Y-15406150D01*
X23119587Y-15406150D02*
X23100539Y-15415674D01*
X23186253Y-15529960D02*
X23167206Y-15539484D01*
X23167206Y-15539484D02*
X23119587Y-15539484D01*
X23119587Y-15539484D02*
X23100539Y-15529960D01*
X23100539Y-15529960D02*
X23091015Y-15510912D01*
X23091015Y-15510912D02*
X23091015Y-15491865D01*
X23091015Y-15491865D02*
X23100539Y-15472817D01*
X23100539Y-15472817D02*
X23119587Y-15463293D01*
X23119587Y-15463293D02*
X23167206Y-15463293D01*
X23167206Y-15463293D02*
X23186253Y-15453769D01*
X23252920Y-15406150D02*
X23329111Y-15406150D01*
X23281492Y-15339484D02*
X23281492Y-15510912D01*
X23281492Y-15510912D02*
X23291015Y-15529960D01*
X23291015Y-15529960D02*
X23310063Y-15539484D01*
X23310063Y-15539484D02*
X23329111Y-15539484D01*
X23471968Y-15529960D02*
X23452920Y-15539484D01*
X23452920Y-15539484D02*
X23414825Y-15539484D01*
X23414825Y-15539484D02*
X23395777Y-15529960D01*
X23395777Y-15529960D02*
X23386253Y-15510912D01*
X23386253Y-15510912D02*
X23386253Y-15434722D01*
X23386253Y-15434722D02*
X23395777Y-15415674D01*
X23395777Y-15415674D02*
X23414825Y-15406150D01*
X23414825Y-15406150D02*
X23452920Y-15406150D01*
X23452920Y-15406150D02*
X23471968Y-15415674D01*
X23471968Y-15415674D02*
X23481492Y-15434722D01*
X23481492Y-15434722D02*
X23481492Y-15453769D01*
X23481492Y-15453769D02*
X23386253Y-15472817D01*
X23652920Y-15539484D02*
X23652920Y-15339484D01*
X23652920Y-15529960D02*
X23633873Y-15539484D01*
X23633873Y-15539484D02*
X23595777Y-15539484D01*
X23595777Y-15539484D02*
X23576730Y-15529960D01*
X23576730Y-15529960D02*
X23567206Y-15520436D01*
X23567206Y-15520436D02*
X23557682Y-15501388D01*
X23557682Y-15501388D02*
X23557682Y-15444246D01*
X23557682Y-15444246D02*
X23567206Y-15425198D01*
X23567206Y-15425198D02*
X23576730Y-15415674D01*
X23576730Y-15415674D02*
X23595777Y-15406150D01*
X23595777Y-15406150D02*
X23633873Y-15406150D01*
X23633873Y-15406150D02*
X23652920Y-15415674D01*
X23729111Y-15615674D02*
X23738634Y-15606150D01*
X23738634Y-15606150D02*
X23757682Y-15577579D01*
X23757682Y-15577579D02*
X23767206Y-15558531D01*
X23767206Y-15558531D02*
X23776730Y-15529960D01*
X23776730Y-15529960D02*
X23786253Y-15482341D01*
X23786253Y-15482341D02*
X23786253Y-15444246D01*
X23786253Y-15444246D02*
X23776730Y-15396627D01*
X23776730Y-15396627D02*
X23767206Y-15368055D01*
X23767206Y-15368055D02*
X23757682Y-15349008D01*
X23757682Y-15349008D02*
X23738634Y-15320436D01*
X23738634Y-15320436D02*
X23729111Y-15310912D01*
M02*
