%TF.GenerationSoftware,KiCad,Pcbnew,8.0.5*%
%TF.CreationDate,2024-10-17T13:29:10-04:00*%
%TF.ProjectId,PCB,5043422e-6b69-4636-9164-5f7063625858,rev?*%
%TF.SameCoordinates,Original*%
%TF.FileFunction,Soldermask,Bot*%
%TF.FilePolarity,Negative*%
%FSLAX46Y46*%
G04 Gerber Fmt 4.6, Leading zero omitted, Abs format (unit mm)*
G04 Created by KiCad (PCBNEW 8.0.5) date 2024-10-17 13:29:10*
%MOMM*%
%LPD*%
G01*
G04 APERTURE LIST*
G04 Aperture macros list*
%AMRoundRect*
0 Rectangle with rounded corners*
0 $1 Rounding radius*
0 $2 $3 $4 $5 $6 $7 $8 $9 X,Y pos of 4 corners*
0 Add a 4 corners polygon primitive as box body*
4,1,4,$2,$3,$4,$5,$6,$7,$8,$9,$2,$3,0*
0 Add four circle primitives for the rounded corners*
1,1,$1+$1,$2,$3*
1,1,$1+$1,$4,$5*
1,1,$1+$1,$6,$7*
1,1,$1+$1,$8,$9*
0 Add four rect primitives between the rounded corners*
20,1,$1+$1,$2,$3,$4,$5,0*
20,1,$1+$1,$4,$5,$6,$7,0*
20,1,$1+$1,$6,$7,$8,$9,0*
20,1,$1+$1,$8,$9,$2,$3,0*%
G04 Aperture macros list end*
%ADD10C,2.100000*%
%ADD11C,3.000000*%
%ADD12C,2.000000*%
%ADD13C,1.000000*%
%ADD14RoundRect,0.250000X0.725000X-0.600000X0.725000X0.600000X-0.725000X0.600000X-0.725000X-0.600000X0*%
%ADD15O,1.950000X1.700000*%
%ADD16RoundRect,0.250000X0.475000X-0.337500X0.475000X0.337500X-0.475000X0.337500X-0.475000X-0.337500X0*%
%ADD17RoundRect,0.250000X0.450000X-0.262500X0.450000X0.262500X-0.450000X0.262500X-0.450000X-0.262500X0*%
%ADD18RoundRect,0.250000X0.337500X0.475000X-0.337500X0.475000X-0.337500X-0.475000X0.337500X-0.475000X0*%
%ADD19RoundRect,0.250000X-0.337500X-0.475000X0.337500X-0.475000X0.337500X0.475000X-0.337500X0.475000X0*%
%ADD20RoundRect,0.250000X-0.262500X-0.450000X0.262500X-0.450000X0.262500X0.450000X-0.262500X0.450000X0*%
%ADD21R,1.854200X1.066800*%
%ADD22RoundRect,0.250000X-0.350000X-0.450000X0.350000X-0.450000X0.350000X0.450000X-0.350000X0.450000X0*%
G04 APERTURE END LIST*
D10*
%TO.C,H1*%
X232680000Y-127910000D03*
%TD*%
%TO.C,H2*%
X209550000Y-88900000D03*
%TD*%
D11*
%TO.C,U2*%
X225090000Y-96320000D03*
%TD*%
D10*
%TO.C,H4*%
X185420000Y-139700000D03*
%TD*%
D12*
%TO.C,SW1*%
X224790000Y-125730000D03*
X224790000Y-132230000D03*
X220290000Y-125730000D03*
X220290000Y-132230000D03*
%TD*%
D13*
%TO.C,U3*%
X190700000Y-129540000D03*
X190700000Y-132080000D03*
X190700000Y-134620000D03*
X190700000Y-137160000D03*
X190700000Y-139700000D03*
X190700000Y-142140000D03*
%TD*%
D10*
%TO.C,H3*%
X187960000Y-88100000D03*
%TD*%
D14*
%TO.C,J5*%
X232410000Y-120650000D03*
D15*
X232410000Y-118150000D03*
X232410000Y-115650000D03*
X232410000Y-113150000D03*
%TD*%
D16*
%TO.C,C12*%
X183300000Y-125615000D03*
X183300000Y-123540000D03*
%TD*%
%TO.C,C16*%
X194455229Y-122420091D03*
X194455229Y-120345091D03*
%TD*%
%TO.C,C17*%
X192430000Y-122415504D03*
X192430000Y-120340504D03*
%TD*%
D17*
%TO.C,R10*%
X202930000Y-114935000D03*
X202930000Y-113110000D03*
%TD*%
D18*
%TO.C,C13*%
X207185535Y-122006028D03*
X205110535Y-122006028D03*
%TD*%
D19*
%TO.C,C10*%
X198392500Y-116610000D03*
X200467500Y-116610000D03*
%TD*%
D20*
%TO.C,R11*%
X221540000Y-127480000D03*
X223365000Y-127480000D03*
%TD*%
D19*
%TO.C,C20*%
X221465000Y-130480000D03*
X223540000Y-130480000D03*
%TD*%
D16*
%TO.C,C11*%
X185386554Y-125636352D03*
X185386554Y-123561352D03*
%TD*%
D18*
%TO.C,C15*%
X206545000Y-118110000D03*
X204470000Y-118110000D03*
%TD*%
D21*
%TO.C,D1*%
X194500000Y-99120900D03*
X194500000Y-94879100D03*
%TD*%
D18*
%TO.C,C14*%
X201505000Y-122110000D03*
X199430000Y-122110000D03*
%TD*%
D22*
%TO.C,R5*%
X188430000Y-120610000D03*
X190430000Y-120610000D03*
%TD*%
%TO.C,R4*%
X188430000Y-122610000D03*
X190430000Y-122610000D03*
%TD*%
M02*
