%TF.GenerationSoftware,KiCad,Pcbnew,8.0.5*%
%TF.CreationDate,2024-10-17T13:29:13-04:00*%
%TF.ProjectId,PCB,5043422e-6b69-4636-9164-5f7063625858,rev?*%
%TF.SameCoordinates,Original*%
%TF.FileFunction,Drillmap*%
%TF.FilePolarity,Positive*%
%FSLAX45Y45*%
G04 Gerber Fmt 4.5, Leading zero omitted, Abs format (unit mm)*
G04 Created by KiCad (PCBNEW 8.0.5) date 2024-10-17 13:29:13*
%MOMM*%
%LPD*%
G01*
G04 APERTURE LIST*
%ADD10C,0.200000*%
%ADD11C,0.100000*%
%ADD12C,0.110000*%
%ADD13C,0.150000*%
G04 APERTURE END LIST*
D10*
X17145000Y-8382000D02*
X23622000Y-8382000D01*
X23622000Y-14478000D01*
X17145000Y-14478000D01*
X17145000Y-8382000D01*
D11*
X17230000Y-10004180D02*
X17270000Y-10044180D01*
X17270000Y-10004180D02*
X17230000Y-10044180D01*
X17230000Y-10204180D02*
X17270000Y-10244180D01*
X17270000Y-10204180D02*
X17230000Y-10244180D01*
X17230000Y-10304180D02*
X17270000Y-10344180D01*
X17270000Y-10304180D02*
X17230000Y-10344180D01*
X17230000Y-10404180D02*
X17270000Y-10444180D01*
X17270000Y-10404180D02*
X17230000Y-10444180D01*
X17230000Y-10504180D02*
X17270000Y-10544180D01*
X17270000Y-10504180D02*
X17230000Y-10544180D01*
X17230000Y-10604180D02*
X17270000Y-10644180D01*
X17270000Y-10604180D02*
X17230000Y-10644180D01*
X17887000Y-11283000D02*
X17927000Y-11323000D01*
X17927000Y-11283000D02*
X17887000Y-11323000D01*
X17980000Y-10004180D02*
X18020000Y-10044180D01*
X18020000Y-10004180D02*
X17980000Y-10044180D01*
X18081000Y-12008000D02*
X18121000Y-12048000D01*
X18121000Y-12008000D02*
X18081000Y-12048000D01*
X18110000Y-12334000D02*
X18150000Y-12374000D01*
X18150000Y-12334000D02*
X18110000Y-12374000D01*
X18110000Y-12534000D02*
X18150000Y-12574000D01*
X18150000Y-12534000D02*
X18110000Y-12574000D01*
X18229000Y-10041000D02*
X18269000Y-10081000D01*
X18269000Y-10041000D02*
X18229000Y-10081000D01*
X18330000Y-10304180D02*
X18370000Y-10344180D01*
X18370000Y-10304180D02*
X18330000Y-10344180D01*
X18430000Y-9704180D02*
X18470000Y-9744180D01*
X18470000Y-9704180D02*
X18430000Y-9744180D01*
X18530000Y-9999000D02*
X18570000Y-10039000D01*
X18570000Y-9999000D02*
X18530000Y-10039000D01*
X18580000Y-12130000D02*
X18620000Y-12170000D01*
X18620000Y-12130000D02*
X18580000Y-12170000D01*
X18580000Y-12730000D02*
X18620000Y-12770000D01*
X18620000Y-12730000D02*
X18580000Y-12770000D01*
X18630000Y-9704180D02*
X18670000Y-9744180D01*
X18670000Y-9704180D02*
X18630000Y-9744180D01*
X18630000Y-10404180D02*
X18670000Y-10444180D01*
X18670000Y-10404180D02*
X18630000Y-10444180D01*
X18691048Y-12544304D02*
X18731048Y-12584304D01*
X18731048Y-12544304D02*
X18691048Y-12584304D01*
X18705405Y-10604180D02*
X18745405Y-10644180D01*
X18745405Y-10604180D02*
X18705405Y-10644180D01*
X18730000Y-9854180D02*
X18770000Y-9894180D01*
X18770000Y-9854180D02*
X18730000Y-9894180D01*
X18781000Y-10064000D02*
X18821000Y-10104000D01*
X18821000Y-10064000D02*
X18781000Y-10104000D01*
X18830000Y-9854180D02*
X18870000Y-9894180D01*
X18870000Y-9854180D02*
X18830000Y-9894180D01*
X19030000Y-10904180D02*
X19070000Y-10944180D01*
X19070000Y-10904180D02*
X19030000Y-10944180D01*
X19030000Y-12426000D02*
X19070000Y-12466000D01*
X19070000Y-12426000D02*
X19030000Y-12466000D01*
X19130000Y-10904180D02*
X19170000Y-10944180D01*
X19170000Y-10904180D02*
X19130000Y-10944180D01*
X19230000Y-10904180D02*
X19270000Y-10944180D01*
X19270000Y-10904180D02*
X19230000Y-10944180D01*
X19330000Y-10904180D02*
X19370000Y-10944180D01*
X19370000Y-10904180D02*
X19330000Y-10944180D01*
X19380000Y-10304180D02*
X19420000Y-10344180D01*
X19420000Y-10304180D02*
X19380000Y-10344180D01*
X19430000Y-9304180D02*
X19470000Y-9344180D01*
X19470000Y-9304180D02*
X19430000Y-9344180D01*
X19530000Y-12380000D02*
X19570000Y-12420000D01*
X19570000Y-12380000D02*
X19530000Y-12420000D01*
X19573000Y-12041000D02*
X19613000Y-12081000D01*
X19613000Y-12041000D02*
X19573000Y-12081000D01*
X19573000Y-12191000D02*
X19613000Y-12231000D01*
X19613000Y-12191000D02*
X19573000Y-12231000D01*
X19680000Y-12480000D02*
X19720000Y-12520000D01*
X19720000Y-12480000D02*
X19680000Y-12520000D01*
X19763337Y-11150059D02*
X19803337Y-11190059D01*
X19803337Y-11150059D02*
X19763337Y-11190059D01*
X19871735Y-11489735D02*
X19911735Y-11529735D01*
X19911735Y-11489735D02*
X19871735Y-11529735D01*
X19879000Y-9774000D02*
X19919000Y-9814000D01*
X19919000Y-9774000D02*
X19879000Y-9814000D01*
X19880000Y-12730000D02*
X19920000Y-12770000D01*
X19920000Y-12730000D02*
X19880000Y-12770000D01*
X19882846Y-11045207D02*
X19922846Y-11085207D01*
X19922846Y-11045207D02*
X19882846Y-11085207D01*
X19923000Y-11941000D02*
X19963000Y-11981000D01*
X19963000Y-11941000D02*
X19923000Y-11981000D01*
X19923765Y-12317376D02*
X19963765Y-12357376D01*
X19963765Y-12317376D02*
X19923765Y-12357376D01*
X19973000Y-11491000D02*
X20013000Y-11531000D01*
X20013000Y-11491000D02*
X19973000Y-11531000D01*
X20071823Y-12323706D02*
X20111823Y-12363706D01*
X20111823Y-12323706D02*
X20071823Y-12363706D01*
X20123000Y-11130000D02*
X20163000Y-11170000D01*
X20163000Y-11130000D02*
X20123000Y-11170000D01*
X20173000Y-11791000D02*
X20213000Y-11831000D01*
X20213000Y-11791000D02*
X20173000Y-11831000D01*
X20173000Y-12680000D02*
X20213000Y-12720000D01*
X20213000Y-12680000D02*
X20173000Y-12720000D01*
X20242500Y-11017021D02*
X20282500Y-11057021D01*
X20282500Y-11017021D02*
X20242500Y-11057021D01*
X20323319Y-12656681D02*
X20363319Y-12696681D01*
X20363319Y-12656681D02*
X20323319Y-12696681D01*
X20351862Y-11127861D02*
X20391862Y-11167861D01*
X20391862Y-11127861D02*
X20351862Y-11167861D01*
X20379000Y-10324000D02*
X20419000Y-10364000D01*
X20419000Y-10324000D02*
X20379000Y-10364000D01*
X20400109Y-12788230D02*
X20440109Y-12828230D01*
X20440109Y-12788230D02*
X20400109Y-12828230D01*
X20466862Y-10982070D02*
X20506862Y-11022070D01*
X20506862Y-10982070D02*
X20466862Y-11022070D01*
X20529000Y-10524000D02*
X20569000Y-10564000D01*
X20569000Y-10524000D02*
X20529000Y-10564000D01*
X20530000Y-12780000D02*
X20570000Y-12820000D01*
X20570000Y-12780000D02*
X20530000Y-12820000D01*
X20564703Y-12331777D02*
X20604703Y-12371777D01*
X20604703Y-12331777D02*
X20564703Y-12371777D01*
X20630000Y-12730000D02*
X20670000Y-12770000D01*
X20670000Y-12730000D02*
X20630000Y-12770000D01*
X20672397Y-12325087D02*
X20712397Y-12365087D01*
X20712397Y-12325087D02*
X20672397Y-12365087D01*
X20678821Y-10991090D02*
X20718821Y-11031090D01*
X20718821Y-10991090D02*
X20678821Y-11031090D01*
X20711287Y-11506713D02*
X20751287Y-11546713D01*
X20751287Y-11506713D02*
X20711287Y-11546713D01*
X20730000Y-12680000D02*
X20770000Y-12720000D01*
X20770000Y-12680000D02*
X20730000Y-12720000D01*
X21059701Y-12050299D02*
X21099701Y-12090299D01*
X21099701Y-12050299D02*
X21059701Y-12090299D01*
X21068392Y-11709662D02*
X21108392Y-11749662D01*
X21108392Y-11709662D02*
X21068392Y-11749662D01*
X21068392Y-11709662D02*
X21108392Y-11749662D01*
X21108392Y-11709662D02*
X21068392Y-11749662D01*
X21080000Y-11930000D02*
X21120000Y-11970000D01*
X21120000Y-11930000D02*
X21080000Y-11970000D01*
X21179000Y-10524000D02*
X21219000Y-10564000D01*
X21219000Y-10524000D02*
X21179000Y-10564000D01*
X21189000Y-11268500D02*
X21229000Y-11308500D01*
X21229000Y-11268500D02*
X21189000Y-11308500D01*
X21189000Y-12553000D02*
X21229000Y-12593000D01*
X21229000Y-12553000D02*
X21189000Y-12593000D01*
X21279000Y-9824000D02*
X21319000Y-9864000D01*
X21319000Y-9824000D02*
X21279000Y-9864000D01*
X21316000Y-11784311D02*
X21356000Y-11824311D01*
X21356000Y-11784311D02*
X21316000Y-11824311D01*
X21316000Y-11918000D02*
X21356000Y-11958000D01*
X21356000Y-11918000D02*
X21316000Y-11958000D01*
X21505785Y-11456638D02*
X21545785Y-11496638D01*
X21545785Y-11456638D02*
X21505785Y-11496638D01*
X21570000Y-8997000D02*
X21610000Y-9037000D01*
X21610000Y-8997000D02*
X21570000Y-9037000D01*
X21570000Y-9378000D02*
X21610000Y-9418000D01*
X21610000Y-9378000D02*
X21570000Y-9418000D01*
X21570000Y-9886000D02*
X21610000Y-9926000D01*
X21610000Y-9886000D02*
X21570000Y-9926000D01*
X21602536Y-11549747D02*
X21642536Y-11589747D01*
X21642536Y-11549747D02*
X21602536Y-11589747D01*
X21824000Y-8489000D02*
X21864000Y-8529000D01*
X21864000Y-8489000D02*
X21824000Y-8529000D01*
X21824000Y-10648000D02*
X21864000Y-10688000D01*
X21864000Y-10648000D02*
X21824000Y-10688000D01*
X21951000Y-9251000D02*
X21991000Y-9291000D01*
X21991000Y-9251000D02*
X21951000Y-9291000D01*
X21951000Y-9632000D02*
X21991000Y-9672000D01*
X21991000Y-9632000D02*
X21951000Y-9672000D01*
X21951000Y-9886000D02*
X21991000Y-9926000D01*
X21991000Y-9886000D02*
X21951000Y-9926000D01*
X21951000Y-10140000D02*
X21991000Y-10180000D01*
X21991000Y-10140000D02*
X21951000Y-10180000D01*
X22078000Y-9124000D02*
X22118000Y-9164000D01*
X22118000Y-9124000D02*
X22078000Y-9164000D01*
X22078000Y-9378000D02*
X22118000Y-9418000D01*
X22118000Y-9378000D02*
X22078000Y-9418000D01*
X22205000Y-8489000D02*
X22245000Y-8529000D01*
X22245000Y-8489000D02*
X22205000Y-8529000D01*
X22205000Y-9632000D02*
X22245000Y-9672000D01*
X22245000Y-9632000D02*
X22205000Y-9672000D01*
X22205000Y-9886000D02*
X22245000Y-9926000D01*
X22245000Y-9886000D02*
X22205000Y-9926000D01*
X22205000Y-10140000D02*
X22245000Y-10180000D01*
X22245000Y-10140000D02*
X22205000Y-10180000D01*
X22332000Y-9251000D02*
X22372000Y-9291000D01*
X22372000Y-9251000D02*
X22332000Y-9291000D01*
X22459000Y-9124000D02*
X22499000Y-9164000D01*
X22499000Y-9124000D02*
X22459000Y-9164000D01*
X22459000Y-10013000D02*
X22499000Y-10053000D01*
X22499000Y-10013000D02*
X22459000Y-10053000D01*
X22586000Y-8489000D02*
X22626000Y-8529000D01*
X22626000Y-8489000D02*
X22586000Y-8529000D01*
X22586000Y-9251000D02*
X22626000Y-9291000D01*
X22626000Y-9251000D02*
X22586000Y-9291000D01*
X22586000Y-10140000D02*
X22626000Y-10180000D01*
X22626000Y-10140000D02*
X22586000Y-10180000D01*
X22713000Y-9124000D02*
X22753000Y-9164000D01*
X22753000Y-9124000D02*
X22713000Y-9164000D01*
X22713000Y-10013000D02*
X22753000Y-10053000D01*
X22753000Y-10013000D02*
X22713000Y-10053000D01*
X22840000Y-9378000D02*
X22880000Y-9418000D01*
X22880000Y-9378000D02*
X22840000Y-9418000D01*
X22840000Y-9759000D02*
X22880000Y-9799000D01*
X22880000Y-9759000D02*
X22840000Y-9799000D01*
X22967000Y-8489000D02*
X23007000Y-8529000D01*
X23007000Y-8489000D02*
X22967000Y-8529000D01*
X22967000Y-9251000D02*
X23007000Y-9291000D01*
X23007000Y-9251000D02*
X22967000Y-9291000D01*
X22967000Y-9505000D02*
X23007000Y-9545000D01*
X23007000Y-9505000D02*
X22967000Y-9545000D01*
X22967000Y-9886000D02*
X23007000Y-9926000D01*
X23007000Y-9886000D02*
X22967000Y-9926000D01*
X22967000Y-10140000D02*
X23007000Y-10180000D01*
X23007000Y-10140000D02*
X22967000Y-10180000D01*
X23094000Y-9124000D02*
X23134000Y-9164000D01*
X23134000Y-9124000D02*
X23094000Y-9164000D01*
X23094000Y-9378000D02*
X23134000Y-9418000D01*
X23134000Y-9378000D02*
X23094000Y-9418000D01*
X23094000Y-9759000D02*
X23134000Y-9799000D01*
X23134000Y-9759000D02*
X23094000Y-9799000D01*
X23094000Y-10013000D02*
X23134000Y-10053000D01*
X23134000Y-10013000D02*
X23094000Y-10053000D01*
X23094000Y-10648000D02*
X23134000Y-10688000D01*
X23134000Y-10648000D02*
X23094000Y-10688000D01*
X23221000Y-9124000D02*
X23261000Y-9164000D01*
X23261000Y-9124000D02*
X23221000Y-9164000D01*
X23221000Y-9378000D02*
X23261000Y-9418000D01*
X23261000Y-9378000D02*
X23221000Y-9418000D01*
X23221000Y-9632000D02*
X23261000Y-9672000D01*
X23261000Y-9632000D02*
X23221000Y-9672000D01*
X23221000Y-10140000D02*
X23261000Y-10180000D01*
X23261000Y-10140000D02*
X23221000Y-10180000D01*
X23221000Y-10648000D02*
X23261000Y-10688000D01*
X23261000Y-10648000D02*
X23221000Y-10688000D01*
X23348000Y-8489000D02*
X23388000Y-8529000D01*
X23388000Y-8489000D02*
X23348000Y-8529000D01*
X23348000Y-10775000D02*
X23388000Y-10815000D01*
X23388000Y-10775000D02*
X23348000Y-10815000D01*
X19102000Y-12954000D02*
G75*
G02*
X19038000Y-12954000I-32000J0D01*
G01*
X19038000Y-12954000D02*
G75*
G02*
X19102000Y-12954000I32000J0D01*
G01*
X19102000Y-13208000D02*
G75*
G02*
X19038000Y-13208000I-32000J0D01*
G01*
X19038000Y-13208000D02*
G75*
G02*
X19102000Y-13208000I32000J0D01*
G01*
X19102000Y-13462000D02*
G75*
G02*
X19038000Y-13462000I-32000J0D01*
G01*
X19038000Y-13462000D02*
G75*
G02*
X19102000Y-13462000I32000J0D01*
G01*
X19102000Y-13716000D02*
G75*
G02*
X19038000Y-13716000I-32000J0D01*
G01*
X19038000Y-13716000D02*
G75*
G02*
X19102000Y-13716000I32000J0D01*
G01*
X19102000Y-13970000D02*
G75*
G02*
X19038000Y-13970000I-32000J0D01*
G01*
X19038000Y-13970000D02*
G75*
G02*
X19102000Y-13970000I32000J0D01*
G01*
X19102000Y-14214000D02*
G75*
G02*
X19038000Y-14214000I-32000J0D01*
G01*
X19038000Y-14214000D02*
G75*
G02*
X19102000Y-14214000I32000J0D01*
G01*
X23241000Y-11267500D02*
X23241000Y-11362500D01*
X23193500Y-11315000D02*
X23288500Y-11315000D01*
X23241000Y-11517500D02*
X23241000Y-11612500D01*
X23193500Y-11565000D02*
X23288500Y-11565000D01*
X23241000Y-11767500D02*
X23241000Y-11862500D01*
X23193500Y-11815000D02*
X23288500Y-11815000D01*
X23241000Y-12017500D02*
X23241000Y-12112500D01*
X23193500Y-12065000D02*
X23288500Y-12065000D01*
D12*
X22067891Y-12611891D02*
X22067891Y-12534109D01*
X21990109Y-12534109D01*
X21990109Y-12611891D01*
X22067891Y-12611891D01*
X22067891Y-13261891D02*
X22067891Y-13184109D01*
X21990109Y-13184109D01*
X21990109Y-13261891D01*
X22067891Y-13261891D01*
X22517891Y-12611891D02*
X22517891Y-12534109D01*
X22440109Y-12534109D01*
X22440109Y-12611891D01*
X22517891Y-12611891D01*
X22517891Y-13261891D02*
X22517891Y-13184109D01*
X22440109Y-13184109D01*
X22440109Y-13261891D01*
X22517891Y-13261891D01*
D13*
X20448000Y-10162000D02*
X20523000Y-10087000D01*
X20448000Y-10012000D01*
X20373000Y-10087000D01*
X20448000Y-10162000D01*
D10*
X17395777Y-14799484D02*
X17395777Y-14599484D01*
X17395777Y-14599484D02*
X17443396Y-14599484D01*
X17443396Y-14599484D02*
X17471967Y-14609008D01*
X17471967Y-14609008D02*
X17491015Y-14628055D01*
X17491015Y-14628055D02*
X17500539Y-14647103D01*
X17500539Y-14647103D02*
X17510063Y-14685198D01*
X17510063Y-14685198D02*
X17510063Y-14713769D01*
X17510063Y-14713769D02*
X17500539Y-14751865D01*
X17500539Y-14751865D02*
X17491015Y-14770912D01*
X17491015Y-14770912D02*
X17471967Y-14789960D01*
X17471967Y-14789960D02*
X17443396Y-14799484D01*
X17443396Y-14799484D02*
X17395777Y-14799484D01*
X17595777Y-14799484D02*
X17595777Y-14666150D01*
X17595777Y-14704246D02*
X17605301Y-14685198D01*
X17605301Y-14685198D02*
X17614824Y-14675674D01*
X17614824Y-14675674D02*
X17633872Y-14666150D01*
X17633872Y-14666150D02*
X17652920Y-14666150D01*
X17719586Y-14799484D02*
X17719586Y-14666150D01*
X17719586Y-14599484D02*
X17710063Y-14609008D01*
X17710063Y-14609008D02*
X17719586Y-14618531D01*
X17719586Y-14618531D02*
X17729110Y-14609008D01*
X17729110Y-14609008D02*
X17719586Y-14599484D01*
X17719586Y-14599484D02*
X17719586Y-14618531D01*
X17843396Y-14799484D02*
X17824348Y-14789960D01*
X17824348Y-14789960D02*
X17814824Y-14770912D01*
X17814824Y-14770912D02*
X17814824Y-14599484D01*
X17948158Y-14799484D02*
X17929110Y-14789960D01*
X17929110Y-14789960D02*
X17919586Y-14770912D01*
X17919586Y-14770912D02*
X17919586Y-14599484D01*
X18176729Y-14799484D02*
X18176729Y-14599484D01*
X18176729Y-14599484D02*
X18243396Y-14742341D01*
X18243396Y-14742341D02*
X18310063Y-14599484D01*
X18310063Y-14599484D02*
X18310063Y-14799484D01*
X18491015Y-14799484D02*
X18491015Y-14694722D01*
X18491015Y-14694722D02*
X18481491Y-14675674D01*
X18481491Y-14675674D02*
X18462444Y-14666150D01*
X18462444Y-14666150D02*
X18424348Y-14666150D01*
X18424348Y-14666150D02*
X18405301Y-14675674D01*
X18491015Y-14789960D02*
X18471967Y-14799484D01*
X18471967Y-14799484D02*
X18424348Y-14799484D01*
X18424348Y-14799484D02*
X18405301Y-14789960D01*
X18405301Y-14789960D02*
X18395777Y-14770912D01*
X18395777Y-14770912D02*
X18395777Y-14751865D01*
X18395777Y-14751865D02*
X18405301Y-14732817D01*
X18405301Y-14732817D02*
X18424348Y-14723293D01*
X18424348Y-14723293D02*
X18471967Y-14723293D01*
X18471967Y-14723293D02*
X18491015Y-14713769D01*
X18586253Y-14666150D02*
X18586253Y-14866150D01*
X18586253Y-14675674D02*
X18605301Y-14666150D01*
X18605301Y-14666150D02*
X18643396Y-14666150D01*
X18643396Y-14666150D02*
X18662444Y-14675674D01*
X18662444Y-14675674D02*
X18671967Y-14685198D01*
X18671967Y-14685198D02*
X18681491Y-14704246D01*
X18681491Y-14704246D02*
X18681491Y-14761388D01*
X18681491Y-14761388D02*
X18671967Y-14780436D01*
X18671967Y-14780436D02*
X18662444Y-14789960D01*
X18662444Y-14789960D02*
X18643396Y-14799484D01*
X18643396Y-14799484D02*
X18605301Y-14799484D01*
X18605301Y-14799484D02*
X18586253Y-14789960D01*
X18767205Y-14780436D02*
X18776729Y-14789960D01*
X18776729Y-14789960D02*
X18767205Y-14799484D01*
X18767205Y-14799484D02*
X18757682Y-14789960D01*
X18757682Y-14789960D02*
X18767205Y-14780436D01*
X18767205Y-14780436D02*
X18767205Y-14799484D01*
X18767205Y-14675674D02*
X18776729Y-14685198D01*
X18776729Y-14685198D02*
X18767205Y-14694722D01*
X18767205Y-14694722D02*
X18757682Y-14685198D01*
X18757682Y-14685198D02*
X18767205Y-14675674D01*
X18767205Y-14675674D02*
X18767205Y-14694722D01*
D11*
X17095000Y-15108000D02*
X17135000Y-15148000D01*
X17135000Y-15108000D02*
X17095000Y-15148000D01*
D10*
X17433872Y-15019484D02*
X17452920Y-15019484D01*
X17452920Y-15019484D02*
X17471967Y-15029008D01*
X17471967Y-15029008D02*
X17481491Y-15038531D01*
X17481491Y-15038531D02*
X17491015Y-15057579D01*
X17491015Y-15057579D02*
X17500539Y-15095674D01*
X17500539Y-15095674D02*
X17500539Y-15143293D01*
X17500539Y-15143293D02*
X17491015Y-15181388D01*
X17491015Y-15181388D02*
X17481491Y-15200436D01*
X17481491Y-15200436D02*
X17471967Y-15209960D01*
X17471967Y-15209960D02*
X17452920Y-15219484D01*
X17452920Y-15219484D02*
X17433872Y-15219484D01*
X17433872Y-15219484D02*
X17414824Y-15209960D01*
X17414824Y-15209960D02*
X17405301Y-15200436D01*
X17405301Y-15200436D02*
X17395777Y-15181388D01*
X17395777Y-15181388D02*
X17386253Y-15143293D01*
X17386253Y-15143293D02*
X17386253Y-15095674D01*
X17386253Y-15095674D02*
X17395777Y-15057579D01*
X17395777Y-15057579D02*
X17405301Y-15038531D01*
X17405301Y-15038531D02*
X17414824Y-15029008D01*
X17414824Y-15029008D02*
X17433872Y-15019484D01*
X17586253Y-15200436D02*
X17595777Y-15209960D01*
X17595777Y-15209960D02*
X17586253Y-15219484D01*
X17586253Y-15219484D02*
X17576729Y-15209960D01*
X17576729Y-15209960D02*
X17586253Y-15200436D01*
X17586253Y-15200436D02*
X17586253Y-15219484D01*
X17767205Y-15086150D02*
X17767205Y-15219484D01*
X17719586Y-15009960D02*
X17671967Y-15152817D01*
X17671967Y-15152817D02*
X17795777Y-15152817D01*
X17910063Y-15019484D02*
X17929110Y-15019484D01*
X17929110Y-15019484D02*
X17948158Y-15029008D01*
X17948158Y-15029008D02*
X17957682Y-15038531D01*
X17957682Y-15038531D02*
X17967205Y-15057579D01*
X17967205Y-15057579D02*
X17976729Y-15095674D01*
X17976729Y-15095674D02*
X17976729Y-15143293D01*
X17976729Y-15143293D02*
X17967205Y-15181388D01*
X17967205Y-15181388D02*
X17957682Y-15200436D01*
X17957682Y-15200436D02*
X17948158Y-15209960D01*
X17948158Y-15209960D02*
X17929110Y-15219484D01*
X17929110Y-15219484D02*
X17910063Y-15219484D01*
X17910063Y-15219484D02*
X17891015Y-15209960D01*
X17891015Y-15209960D02*
X17881491Y-15200436D01*
X17881491Y-15200436D02*
X17871967Y-15181388D01*
X17871967Y-15181388D02*
X17862444Y-15143293D01*
X17862444Y-15143293D02*
X17862444Y-15095674D01*
X17862444Y-15095674D02*
X17871967Y-15057579D01*
X17871967Y-15057579D02*
X17881491Y-15038531D01*
X17881491Y-15038531D02*
X17891015Y-15029008D01*
X17891015Y-15029008D02*
X17910063Y-15019484D01*
X18100539Y-15019484D02*
X18119586Y-15019484D01*
X18119586Y-15019484D02*
X18138634Y-15029008D01*
X18138634Y-15029008D02*
X18148158Y-15038531D01*
X18148158Y-15038531D02*
X18157682Y-15057579D01*
X18157682Y-15057579D02*
X18167205Y-15095674D01*
X18167205Y-15095674D02*
X18167205Y-15143293D01*
X18167205Y-15143293D02*
X18157682Y-15181388D01*
X18157682Y-15181388D02*
X18148158Y-15200436D01*
X18148158Y-15200436D02*
X18138634Y-15209960D01*
X18138634Y-15209960D02*
X18119586Y-15219484D01*
X18119586Y-15219484D02*
X18100539Y-15219484D01*
X18100539Y-15219484D02*
X18081491Y-15209960D01*
X18081491Y-15209960D02*
X18071967Y-15200436D01*
X18071967Y-15200436D02*
X18062444Y-15181388D01*
X18062444Y-15181388D02*
X18052920Y-15143293D01*
X18052920Y-15143293D02*
X18052920Y-15095674D01*
X18052920Y-15095674D02*
X18062444Y-15057579D01*
X18062444Y-15057579D02*
X18071967Y-15038531D01*
X18071967Y-15038531D02*
X18081491Y-15029008D01*
X18081491Y-15029008D02*
X18100539Y-15019484D01*
X18252920Y-15219484D02*
X18252920Y-15086150D01*
X18252920Y-15105198D02*
X18262444Y-15095674D01*
X18262444Y-15095674D02*
X18281491Y-15086150D01*
X18281491Y-15086150D02*
X18310063Y-15086150D01*
X18310063Y-15086150D02*
X18329110Y-15095674D01*
X18329110Y-15095674D02*
X18338634Y-15114722D01*
X18338634Y-15114722D02*
X18338634Y-15219484D01*
X18338634Y-15114722D02*
X18348158Y-15095674D01*
X18348158Y-15095674D02*
X18367205Y-15086150D01*
X18367205Y-15086150D02*
X18395777Y-15086150D01*
X18395777Y-15086150D02*
X18414825Y-15095674D01*
X18414825Y-15095674D02*
X18424348Y-15114722D01*
X18424348Y-15114722D02*
X18424348Y-15219484D01*
X18519586Y-15219484D02*
X18519586Y-15086150D01*
X18519586Y-15105198D02*
X18529110Y-15095674D01*
X18529110Y-15095674D02*
X18548158Y-15086150D01*
X18548158Y-15086150D02*
X18576729Y-15086150D01*
X18576729Y-15086150D02*
X18595777Y-15095674D01*
X18595777Y-15095674D02*
X18605301Y-15114722D01*
X18605301Y-15114722D02*
X18605301Y-15219484D01*
X18605301Y-15114722D02*
X18614825Y-15095674D01*
X18614825Y-15095674D02*
X18633872Y-15086150D01*
X18633872Y-15086150D02*
X18662444Y-15086150D01*
X18662444Y-15086150D02*
X18681491Y-15095674D01*
X18681491Y-15095674D02*
X18691015Y-15114722D01*
X18691015Y-15114722D02*
X18691015Y-15219484D01*
X19081491Y-15009960D02*
X18910063Y-15267103D01*
X19338634Y-15019484D02*
X19357682Y-15019484D01*
X19357682Y-15019484D02*
X19376729Y-15029008D01*
X19376729Y-15029008D02*
X19386253Y-15038531D01*
X19386253Y-15038531D02*
X19395777Y-15057579D01*
X19395777Y-15057579D02*
X19405301Y-15095674D01*
X19405301Y-15095674D02*
X19405301Y-15143293D01*
X19405301Y-15143293D02*
X19395777Y-15181388D01*
X19395777Y-15181388D02*
X19386253Y-15200436D01*
X19386253Y-15200436D02*
X19376729Y-15209960D01*
X19376729Y-15209960D02*
X19357682Y-15219484D01*
X19357682Y-15219484D02*
X19338634Y-15219484D01*
X19338634Y-15219484D02*
X19319587Y-15209960D01*
X19319587Y-15209960D02*
X19310063Y-15200436D01*
X19310063Y-15200436D02*
X19300539Y-15181388D01*
X19300539Y-15181388D02*
X19291015Y-15143293D01*
X19291015Y-15143293D02*
X19291015Y-15095674D01*
X19291015Y-15095674D02*
X19300539Y-15057579D01*
X19300539Y-15057579D02*
X19310063Y-15038531D01*
X19310063Y-15038531D02*
X19319587Y-15029008D01*
X19319587Y-15029008D02*
X19338634Y-15019484D01*
X19491015Y-15200436D02*
X19500539Y-15209960D01*
X19500539Y-15209960D02*
X19491015Y-15219484D01*
X19491015Y-15219484D02*
X19481491Y-15209960D01*
X19481491Y-15209960D02*
X19491015Y-15200436D01*
X19491015Y-15200436D02*
X19491015Y-15219484D01*
X19624348Y-15019484D02*
X19643396Y-15019484D01*
X19643396Y-15019484D02*
X19662444Y-15029008D01*
X19662444Y-15029008D02*
X19671968Y-15038531D01*
X19671968Y-15038531D02*
X19681491Y-15057579D01*
X19681491Y-15057579D02*
X19691015Y-15095674D01*
X19691015Y-15095674D02*
X19691015Y-15143293D01*
X19691015Y-15143293D02*
X19681491Y-15181388D01*
X19681491Y-15181388D02*
X19671968Y-15200436D01*
X19671968Y-15200436D02*
X19662444Y-15209960D01*
X19662444Y-15209960D02*
X19643396Y-15219484D01*
X19643396Y-15219484D02*
X19624348Y-15219484D01*
X19624348Y-15219484D02*
X19605301Y-15209960D01*
X19605301Y-15209960D02*
X19595777Y-15200436D01*
X19595777Y-15200436D02*
X19586253Y-15181388D01*
X19586253Y-15181388D02*
X19576729Y-15143293D01*
X19576729Y-15143293D02*
X19576729Y-15095674D01*
X19576729Y-15095674D02*
X19586253Y-15057579D01*
X19586253Y-15057579D02*
X19595777Y-15038531D01*
X19595777Y-15038531D02*
X19605301Y-15029008D01*
X19605301Y-15029008D02*
X19624348Y-15019484D01*
X19881491Y-15219484D02*
X19767206Y-15219484D01*
X19824348Y-15219484D02*
X19824348Y-15019484D01*
X19824348Y-15019484D02*
X19805301Y-15048055D01*
X19805301Y-15048055D02*
X19786253Y-15067103D01*
X19786253Y-15067103D02*
X19767206Y-15076627D01*
X20062444Y-15019484D02*
X19967206Y-15019484D01*
X19967206Y-15019484D02*
X19957682Y-15114722D01*
X19957682Y-15114722D02*
X19967206Y-15105198D01*
X19967206Y-15105198D02*
X19986253Y-15095674D01*
X19986253Y-15095674D02*
X20033872Y-15095674D01*
X20033872Y-15095674D02*
X20052920Y-15105198D01*
X20052920Y-15105198D02*
X20062444Y-15114722D01*
X20062444Y-15114722D02*
X20071968Y-15133769D01*
X20071968Y-15133769D02*
X20071968Y-15181388D01*
X20071968Y-15181388D02*
X20062444Y-15200436D01*
X20062444Y-15200436D02*
X20052920Y-15209960D01*
X20052920Y-15209960D02*
X20033872Y-15219484D01*
X20033872Y-15219484D02*
X19986253Y-15219484D01*
X19986253Y-15219484D02*
X19967206Y-15209960D01*
X19967206Y-15209960D02*
X19957682Y-15200436D01*
X20138634Y-15019484D02*
X20271968Y-15019484D01*
X20271968Y-15019484D02*
X20186253Y-15219484D01*
X20338634Y-15019484D02*
X20338634Y-15057579D01*
X20414825Y-15019484D02*
X20414825Y-15057579D01*
X20710063Y-15295674D02*
X20700539Y-15286150D01*
X20700539Y-15286150D02*
X20681491Y-15257579D01*
X20681491Y-15257579D02*
X20671968Y-15238531D01*
X20671968Y-15238531D02*
X20662444Y-15209960D01*
X20662444Y-15209960D02*
X20652920Y-15162341D01*
X20652920Y-15162341D02*
X20652920Y-15124246D01*
X20652920Y-15124246D02*
X20662444Y-15076627D01*
X20662444Y-15076627D02*
X20671968Y-15048055D01*
X20671968Y-15048055D02*
X20681491Y-15029008D01*
X20681491Y-15029008D02*
X20700539Y-15000436D01*
X20700539Y-15000436D02*
X20710063Y-14990912D01*
X20891015Y-15219484D02*
X20776730Y-15219484D01*
X20833872Y-15219484D02*
X20833872Y-15019484D01*
X20833872Y-15019484D02*
X20814825Y-15048055D01*
X20814825Y-15048055D02*
X20795777Y-15067103D01*
X20795777Y-15067103D02*
X20776730Y-15076627D01*
X21081491Y-15219484D02*
X20967206Y-15219484D01*
X21024349Y-15219484D02*
X21024349Y-15019484D01*
X21024349Y-15019484D02*
X21005301Y-15048055D01*
X21005301Y-15048055D02*
X20986253Y-15067103D01*
X20986253Y-15067103D02*
X20967206Y-15076627D01*
X21262444Y-15019484D02*
X21167206Y-15019484D01*
X21167206Y-15019484D02*
X21157682Y-15114722D01*
X21157682Y-15114722D02*
X21167206Y-15105198D01*
X21167206Y-15105198D02*
X21186253Y-15095674D01*
X21186253Y-15095674D02*
X21233872Y-15095674D01*
X21233872Y-15095674D02*
X21252920Y-15105198D01*
X21252920Y-15105198D02*
X21262444Y-15114722D01*
X21262444Y-15114722D02*
X21271968Y-15133769D01*
X21271968Y-15133769D02*
X21271968Y-15181388D01*
X21271968Y-15181388D02*
X21262444Y-15200436D01*
X21262444Y-15200436D02*
X21252920Y-15209960D01*
X21252920Y-15209960D02*
X21233872Y-15219484D01*
X21233872Y-15219484D02*
X21186253Y-15219484D01*
X21186253Y-15219484D02*
X21167206Y-15209960D01*
X21167206Y-15209960D02*
X21157682Y-15200436D01*
X21510063Y-15219484D02*
X21510063Y-15019484D01*
X21595777Y-15219484D02*
X21595777Y-15114722D01*
X21595777Y-15114722D02*
X21586253Y-15095674D01*
X21586253Y-15095674D02*
X21567206Y-15086150D01*
X21567206Y-15086150D02*
X21538634Y-15086150D01*
X21538634Y-15086150D02*
X21519587Y-15095674D01*
X21519587Y-15095674D02*
X21510063Y-15105198D01*
X21719587Y-15219484D02*
X21700539Y-15209960D01*
X21700539Y-15209960D02*
X21691015Y-15200436D01*
X21691015Y-15200436D02*
X21681492Y-15181388D01*
X21681492Y-15181388D02*
X21681492Y-15124246D01*
X21681492Y-15124246D02*
X21691015Y-15105198D01*
X21691015Y-15105198D02*
X21700539Y-15095674D01*
X21700539Y-15095674D02*
X21719587Y-15086150D01*
X21719587Y-15086150D02*
X21748158Y-15086150D01*
X21748158Y-15086150D02*
X21767206Y-15095674D01*
X21767206Y-15095674D02*
X21776730Y-15105198D01*
X21776730Y-15105198D02*
X21786253Y-15124246D01*
X21786253Y-15124246D02*
X21786253Y-15181388D01*
X21786253Y-15181388D02*
X21776730Y-15200436D01*
X21776730Y-15200436D02*
X21767206Y-15209960D01*
X21767206Y-15209960D02*
X21748158Y-15219484D01*
X21748158Y-15219484D02*
X21719587Y-15219484D01*
X21900539Y-15219484D02*
X21881492Y-15209960D01*
X21881492Y-15209960D02*
X21871968Y-15190912D01*
X21871968Y-15190912D02*
X21871968Y-15019484D01*
X22052920Y-15209960D02*
X22033873Y-15219484D01*
X22033873Y-15219484D02*
X21995777Y-15219484D01*
X21995777Y-15219484D02*
X21976730Y-15209960D01*
X21976730Y-15209960D02*
X21967206Y-15190912D01*
X21967206Y-15190912D02*
X21967206Y-15114722D01*
X21967206Y-15114722D02*
X21976730Y-15095674D01*
X21976730Y-15095674D02*
X21995777Y-15086150D01*
X21995777Y-15086150D02*
X22033873Y-15086150D01*
X22033873Y-15086150D02*
X22052920Y-15095674D01*
X22052920Y-15095674D02*
X22062444Y-15114722D01*
X22062444Y-15114722D02*
X22062444Y-15133769D01*
X22062444Y-15133769D02*
X21967206Y-15152817D01*
X22138634Y-15209960D02*
X22157682Y-15219484D01*
X22157682Y-15219484D02*
X22195777Y-15219484D01*
X22195777Y-15219484D02*
X22214825Y-15209960D01*
X22214825Y-15209960D02*
X22224349Y-15190912D01*
X22224349Y-15190912D02*
X22224349Y-15181388D01*
X22224349Y-15181388D02*
X22214825Y-15162341D01*
X22214825Y-15162341D02*
X22195777Y-15152817D01*
X22195777Y-15152817D02*
X22167206Y-15152817D01*
X22167206Y-15152817D02*
X22148158Y-15143293D01*
X22148158Y-15143293D02*
X22138634Y-15124246D01*
X22138634Y-15124246D02*
X22138634Y-15114722D01*
X22138634Y-15114722D02*
X22148158Y-15095674D01*
X22148158Y-15095674D02*
X22167206Y-15086150D01*
X22167206Y-15086150D02*
X22195777Y-15086150D01*
X22195777Y-15086150D02*
X22214825Y-15095674D01*
X22291015Y-15295674D02*
X22300539Y-15286150D01*
X22300539Y-15286150D02*
X22319587Y-15257579D01*
X22319587Y-15257579D02*
X22329111Y-15238531D01*
X22329111Y-15238531D02*
X22338634Y-15209960D01*
X22338634Y-15209960D02*
X22348158Y-15162341D01*
X22348158Y-15162341D02*
X22348158Y-15124246D01*
X22348158Y-15124246D02*
X22338634Y-15076627D01*
X22338634Y-15076627D02*
X22329111Y-15048055D01*
X22329111Y-15048055D02*
X22319587Y-15029008D01*
X22319587Y-15029008D02*
X22300539Y-15000436D01*
X22300539Y-15000436D02*
X22291015Y-14990912D01*
D11*
X17135000Y-15392000D02*
G75*
G02*
X17071000Y-15392000I-32000J0D01*
G01*
X17071000Y-15392000D02*
G75*
G02*
X17135000Y-15392000I32000J0D01*
G01*
D10*
X17433872Y-15283484D02*
X17452920Y-15283484D01*
X17452920Y-15283484D02*
X17471967Y-15293008D01*
X17471967Y-15293008D02*
X17481491Y-15302531D01*
X17481491Y-15302531D02*
X17491015Y-15321579D01*
X17491015Y-15321579D02*
X17500539Y-15359674D01*
X17500539Y-15359674D02*
X17500539Y-15407293D01*
X17500539Y-15407293D02*
X17491015Y-15445388D01*
X17491015Y-15445388D02*
X17481491Y-15464436D01*
X17481491Y-15464436D02*
X17471967Y-15473960D01*
X17471967Y-15473960D02*
X17452920Y-15483484D01*
X17452920Y-15483484D02*
X17433872Y-15483484D01*
X17433872Y-15483484D02*
X17414824Y-15473960D01*
X17414824Y-15473960D02*
X17405301Y-15464436D01*
X17405301Y-15464436D02*
X17395777Y-15445388D01*
X17395777Y-15445388D02*
X17386253Y-15407293D01*
X17386253Y-15407293D02*
X17386253Y-15359674D01*
X17386253Y-15359674D02*
X17395777Y-15321579D01*
X17395777Y-15321579D02*
X17405301Y-15302531D01*
X17405301Y-15302531D02*
X17414824Y-15293008D01*
X17414824Y-15293008D02*
X17433872Y-15283484D01*
X17586253Y-15464436D02*
X17595777Y-15473960D01*
X17595777Y-15473960D02*
X17586253Y-15483484D01*
X17586253Y-15483484D02*
X17576729Y-15473960D01*
X17576729Y-15473960D02*
X17586253Y-15464436D01*
X17586253Y-15464436D02*
X17586253Y-15483484D01*
X17767205Y-15283484D02*
X17729110Y-15283484D01*
X17729110Y-15283484D02*
X17710063Y-15293008D01*
X17710063Y-15293008D02*
X17700539Y-15302531D01*
X17700539Y-15302531D02*
X17681491Y-15331103D01*
X17681491Y-15331103D02*
X17671967Y-15369198D01*
X17671967Y-15369198D02*
X17671967Y-15445388D01*
X17671967Y-15445388D02*
X17681491Y-15464436D01*
X17681491Y-15464436D02*
X17691015Y-15473960D01*
X17691015Y-15473960D02*
X17710063Y-15483484D01*
X17710063Y-15483484D02*
X17748158Y-15483484D01*
X17748158Y-15483484D02*
X17767205Y-15473960D01*
X17767205Y-15473960D02*
X17776729Y-15464436D01*
X17776729Y-15464436D02*
X17786253Y-15445388D01*
X17786253Y-15445388D02*
X17786253Y-15397769D01*
X17786253Y-15397769D02*
X17776729Y-15378722D01*
X17776729Y-15378722D02*
X17767205Y-15369198D01*
X17767205Y-15369198D02*
X17748158Y-15359674D01*
X17748158Y-15359674D02*
X17710063Y-15359674D01*
X17710063Y-15359674D02*
X17691015Y-15369198D01*
X17691015Y-15369198D02*
X17681491Y-15378722D01*
X17681491Y-15378722D02*
X17671967Y-15397769D01*
X17957682Y-15350150D02*
X17957682Y-15483484D01*
X17910063Y-15273960D02*
X17862444Y-15416817D01*
X17862444Y-15416817D02*
X17986253Y-15416817D01*
X18100539Y-15283484D02*
X18119586Y-15283484D01*
X18119586Y-15283484D02*
X18138634Y-15293008D01*
X18138634Y-15293008D02*
X18148158Y-15302531D01*
X18148158Y-15302531D02*
X18157682Y-15321579D01*
X18157682Y-15321579D02*
X18167205Y-15359674D01*
X18167205Y-15359674D02*
X18167205Y-15407293D01*
X18167205Y-15407293D02*
X18157682Y-15445388D01*
X18157682Y-15445388D02*
X18148158Y-15464436D01*
X18148158Y-15464436D02*
X18138634Y-15473960D01*
X18138634Y-15473960D02*
X18119586Y-15483484D01*
X18119586Y-15483484D02*
X18100539Y-15483484D01*
X18100539Y-15483484D02*
X18081491Y-15473960D01*
X18081491Y-15473960D02*
X18071967Y-15464436D01*
X18071967Y-15464436D02*
X18062444Y-15445388D01*
X18062444Y-15445388D02*
X18052920Y-15407293D01*
X18052920Y-15407293D02*
X18052920Y-15359674D01*
X18052920Y-15359674D02*
X18062444Y-15321579D01*
X18062444Y-15321579D02*
X18071967Y-15302531D01*
X18071967Y-15302531D02*
X18081491Y-15293008D01*
X18081491Y-15293008D02*
X18100539Y-15283484D01*
X18252920Y-15483484D02*
X18252920Y-15350150D01*
X18252920Y-15369198D02*
X18262444Y-15359674D01*
X18262444Y-15359674D02*
X18281491Y-15350150D01*
X18281491Y-15350150D02*
X18310063Y-15350150D01*
X18310063Y-15350150D02*
X18329110Y-15359674D01*
X18329110Y-15359674D02*
X18338634Y-15378722D01*
X18338634Y-15378722D02*
X18338634Y-15483484D01*
X18338634Y-15378722D02*
X18348158Y-15359674D01*
X18348158Y-15359674D02*
X18367205Y-15350150D01*
X18367205Y-15350150D02*
X18395777Y-15350150D01*
X18395777Y-15350150D02*
X18414825Y-15359674D01*
X18414825Y-15359674D02*
X18424348Y-15378722D01*
X18424348Y-15378722D02*
X18424348Y-15483484D01*
X18519586Y-15483484D02*
X18519586Y-15350150D01*
X18519586Y-15369198D02*
X18529110Y-15359674D01*
X18529110Y-15359674D02*
X18548158Y-15350150D01*
X18548158Y-15350150D02*
X18576729Y-15350150D01*
X18576729Y-15350150D02*
X18595777Y-15359674D01*
X18595777Y-15359674D02*
X18605301Y-15378722D01*
X18605301Y-15378722D02*
X18605301Y-15483484D01*
X18605301Y-15378722D02*
X18614825Y-15359674D01*
X18614825Y-15359674D02*
X18633872Y-15350150D01*
X18633872Y-15350150D02*
X18662444Y-15350150D01*
X18662444Y-15350150D02*
X18681491Y-15359674D01*
X18681491Y-15359674D02*
X18691015Y-15378722D01*
X18691015Y-15378722D02*
X18691015Y-15483484D01*
X19081491Y-15273960D02*
X18910063Y-15531103D01*
X19338634Y-15283484D02*
X19357682Y-15283484D01*
X19357682Y-15283484D02*
X19376729Y-15293008D01*
X19376729Y-15293008D02*
X19386253Y-15302531D01*
X19386253Y-15302531D02*
X19395777Y-15321579D01*
X19395777Y-15321579D02*
X19405301Y-15359674D01*
X19405301Y-15359674D02*
X19405301Y-15407293D01*
X19405301Y-15407293D02*
X19395777Y-15445388D01*
X19395777Y-15445388D02*
X19386253Y-15464436D01*
X19386253Y-15464436D02*
X19376729Y-15473960D01*
X19376729Y-15473960D02*
X19357682Y-15483484D01*
X19357682Y-15483484D02*
X19338634Y-15483484D01*
X19338634Y-15483484D02*
X19319587Y-15473960D01*
X19319587Y-15473960D02*
X19310063Y-15464436D01*
X19310063Y-15464436D02*
X19300539Y-15445388D01*
X19300539Y-15445388D02*
X19291015Y-15407293D01*
X19291015Y-15407293D02*
X19291015Y-15359674D01*
X19291015Y-15359674D02*
X19300539Y-15321579D01*
X19300539Y-15321579D02*
X19310063Y-15302531D01*
X19310063Y-15302531D02*
X19319587Y-15293008D01*
X19319587Y-15293008D02*
X19338634Y-15283484D01*
X19491015Y-15464436D02*
X19500539Y-15473960D01*
X19500539Y-15473960D02*
X19491015Y-15483484D01*
X19491015Y-15483484D02*
X19481491Y-15473960D01*
X19481491Y-15473960D02*
X19491015Y-15464436D01*
X19491015Y-15464436D02*
X19491015Y-15483484D01*
X19624348Y-15283484D02*
X19643396Y-15283484D01*
X19643396Y-15283484D02*
X19662444Y-15293008D01*
X19662444Y-15293008D02*
X19671968Y-15302531D01*
X19671968Y-15302531D02*
X19681491Y-15321579D01*
X19681491Y-15321579D02*
X19691015Y-15359674D01*
X19691015Y-15359674D02*
X19691015Y-15407293D01*
X19691015Y-15407293D02*
X19681491Y-15445388D01*
X19681491Y-15445388D02*
X19671968Y-15464436D01*
X19671968Y-15464436D02*
X19662444Y-15473960D01*
X19662444Y-15473960D02*
X19643396Y-15483484D01*
X19643396Y-15483484D02*
X19624348Y-15483484D01*
X19624348Y-15483484D02*
X19605301Y-15473960D01*
X19605301Y-15473960D02*
X19595777Y-15464436D01*
X19595777Y-15464436D02*
X19586253Y-15445388D01*
X19586253Y-15445388D02*
X19576729Y-15407293D01*
X19576729Y-15407293D02*
X19576729Y-15359674D01*
X19576729Y-15359674D02*
X19586253Y-15321579D01*
X19586253Y-15321579D02*
X19595777Y-15302531D01*
X19595777Y-15302531D02*
X19605301Y-15293008D01*
X19605301Y-15293008D02*
X19624348Y-15283484D01*
X19767206Y-15302531D02*
X19776729Y-15293008D01*
X19776729Y-15293008D02*
X19795777Y-15283484D01*
X19795777Y-15283484D02*
X19843396Y-15283484D01*
X19843396Y-15283484D02*
X19862444Y-15293008D01*
X19862444Y-15293008D02*
X19871968Y-15302531D01*
X19871968Y-15302531D02*
X19881491Y-15321579D01*
X19881491Y-15321579D02*
X19881491Y-15340627D01*
X19881491Y-15340627D02*
X19871968Y-15369198D01*
X19871968Y-15369198D02*
X19757682Y-15483484D01*
X19757682Y-15483484D02*
X19881491Y-15483484D01*
X20062444Y-15283484D02*
X19967206Y-15283484D01*
X19967206Y-15283484D02*
X19957682Y-15378722D01*
X19957682Y-15378722D02*
X19967206Y-15369198D01*
X19967206Y-15369198D02*
X19986253Y-15359674D01*
X19986253Y-15359674D02*
X20033872Y-15359674D01*
X20033872Y-15359674D02*
X20052920Y-15369198D01*
X20052920Y-15369198D02*
X20062444Y-15378722D01*
X20062444Y-15378722D02*
X20071968Y-15397769D01*
X20071968Y-15397769D02*
X20071968Y-15445388D01*
X20071968Y-15445388D02*
X20062444Y-15464436D01*
X20062444Y-15464436D02*
X20052920Y-15473960D01*
X20052920Y-15473960D02*
X20033872Y-15483484D01*
X20033872Y-15483484D02*
X19986253Y-15483484D01*
X19986253Y-15483484D02*
X19967206Y-15473960D01*
X19967206Y-15473960D02*
X19957682Y-15464436D01*
X20148158Y-15302531D02*
X20157682Y-15293008D01*
X20157682Y-15293008D02*
X20176729Y-15283484D01*
X20176729Y-15283484D02*
X20224349Y-15283484D01*
X20224349Y-15283484D02*
X20243396Y-15293008D01*
X20243396Y-15293008D02*
X20252920Y-15302531D01*
X20252920Y-15302531D02*
X20262444Y-15321579D01*
X20262444Y-15321579D02*
X20262444Y-15340627D01*
X20262444Y-15340627D02*
X20252920Y-15369198D01*
X20252920Y-15369198D02*
X20138634Y-15483484D01*
X20138634Y-15483484D02*
X20262444Y-15483484D01*
X20338634Y-15283484D02*
X20338634Y-15321579D01*
X20414825Y-15283484D02*
X20414825Y-15321579D01*
X20710063Y-15559674D02*
X20700539Y-15550150D01*
X20700539Y-15550150D02*
X20681491Y-15521579D01*
X20681491Y-15521579D02*
X20671968Y-15502531D01*
X20671968Y-15502531D02*
X20662444Y-15473960D01*
X20662444Y-15473960D02*
X20652920Y-15426341D01*
X20652920Y-15426341D02*
X20652920Y-15388246D01*
X20652920Y-15388246D02*
X20662444Y-15340627D01*
X20662444Y-15340627D02*
X20671968Y-15312055D01*
X20671968Y-15312055D02*
X20681491Y-15293008D01*
X20681491Y-15293008D02*
X20700539Y-15264436D01*
X20700539Y-15264436D02*
X20710063Y-15254912D01*
X20871968Y-15283484D02*
X20833872Y-15283484D01*
X20833872Y-15283484D02*
X20814825Y-15293008D01*
X20814825Y-15293008D02*
X20805301Y-15302531D01*
X20805301Y-15302531D02*
X20786253Y-15331103D01*
X20786253Y-15331103D02*
X20776730Y-15369198D01*
X20776730Y-15369198D02*
X20776730Y-15445388D01*
X20776730Y-15445388D02*
X20786253Y-15464436D01*
X20786253Y-15464436D02*
X20795777Y-15473960D01*
X20795777Y-15473960D02*
X20814825Y-15483484D01*
X20814825Y-15483484D02*
X20852920Y-15483484D01*
X20852920Y-15483484D02*
X20871968Y-15473960D01*
X20871968Y-15473960D02*
X20881491Y-15464436D01*
X20881491Y-15464436D02*
X20891015Y-15445388D01*
X20891015Y-15445388D02*
X20891015Y-15397769D01*
X20891015Y-15397769D02*
X20881491Y-15378722D01*
X20881491Y-15378722D02*
X20871968Y-15369198D01*
X20871968Y-15369198D02*
X20852920Y-15359674D01*
X20852920Y-15359674D02*
X20814825Y-15359674D01*
X20814825Y-15359674D02*
X20795777Y-15369198D01*
X20795777Y-15369198D02*
X20786253Y-15378722D01*
X20786253Y-15378722D02*
X20776730Y-15397769D01*
X21129111Y-15483484D02*
X21129111Y-15283484D01*
X21214825Y-15483484D02*
X21214825Y-15378722D01*
X21214825Y-15378722D02*
X21205301Y-15359674D01*
X21205301Y-15359674D02*
X21186253Y-15350150D01*
X21186253Y-15350150D02*
X21157682Y-15350150D01*
X21157682Y-15350150D02*
X21138634Y-15359674D01*
X21138634Y-15359674D02*
X21129111Y-15369198D01*
X21338634Y-15483484D02*
X21319587Y-15473960D01*
X21319587Y-15473960D02*
X21310063Y-15464436D01*
X21310063Y-15464436D02*
X21300539Y-15445388D01*
X21300539Y-15445388D02*
X21300539Y-15388246D01*
X21300539Y-15388246D02*
X21310063Y-15369198D01*
X21310063Y-15369198D02*
X21319587Y-15359674D01*
X21319587Y-15359674D02*
X21338634Y-15350150D01*
X21338634Y-15350150D02*
X21367206Y-15350150D01*
X21367206Y-15350150D02*
X21386253Y-15359674D01*
X21386253Y-15359674D02*
X21395777Y-15369198D01*
X21395777Y-15369198D02*
X21405301Y-15388246D01*
X21405301Y-15388246D02*
X21405301Y-15445388D01*
X21405301Y-15445388D02*
X21395777Y-15464436D01*
X21395777Y-15464436D02*
X21386253Y-15473960D01*
X21386253Y-15473960D02*
X21367206Y-15483484D01*
X21367206Y-15483484D02*
X21338634Y-15483484D01*
X21519587Y-15483484D02*
X21500539Y-15473960D01*
X21500539Y-15473960D02*
X21491015Y-15454912D01*
X21491015Y-15454912D02*
X21491015Y-15283484D01*
X21671968Y-15473960D02*
X21652920Y-15483484D01*
X21652920Y-15483484D02*
X21614825Y-15483484D01*
X21614825Y-15483484D02*
X21595777Y-15473960D01*
X21595777Y-15473960D02*
X21586253Y-15454912D01*
X21586253Y-15454912D02*
X21586253Y-15378722D01*
X21586253Y-15378722D02*
X21595777Y-15359674D01*
X21595777Y-15359674D02*
X21614825Y-15350150D01*
X21614825Y-15350150D02*
X21652920Y-15350150D01*
X21652920Y-15350150D02*
X21671968Y-15359674D01*
X21671968Y-15359674D02*
X21681492Y-15378722D01*
X21681492Y-15378722D02*
X21681492Y-15397769D01*
X21681492Y-15397769D02*
X21586253Y-15416817D01*
X21757682Y-15473960D02*
X21776730Y-15483484D01*
X21776730Y-15483484D02*
X21814825Y-15483484D01*
X21814825Y-15483484D02*
X21833873Y-15473960D01*
X21833873Y-15473960D02*
X21843396Y-15454912D01*
X21843396Y-15454912D02*
X21843396Y-15445388D01*
X21843396Y-15445388D02*
X21833873Y-15426341D01*
X21833873Y-15426341D02*
X21814825Y-15416817D01*
X21814825Y-15416817D02*
X21786253Y-15416817D01*
X21786253Y-15416817D02*
X21767206Y-15407293D01*
X21767206Y-15407293D02*
X21757682Y-15388246D01*
X21757682Y-15388246D02*
X21757682Y-15378722D01*
X21757682Y-15378722D02*
X21767206Y-15359674D01*
X21767206Y-15359674D02*
X21786253Y-15350150D01*
X21786253Y-15350150D02*
X21814825Y-15350150D01*
X21814825Y-15350150D02*
X21833873Y-15359674D01*
X21910063Y-15559674D02*
X21919587Y-15550150D01*
X21919587Y-15550150D02*
X21938634Y-15521579D01*
X21938634Y-15521579D02*
X21948158Y-15502531D01*
X21948158Y-15502531D02*
X21957682Y-15473960D01*
X21957682Y-15473960D02*
X21967206Y-15426341D01*
X21967206Y-15426341D02*
X21967206Y-15388246D01*
X21967206Y-15388246D02*
X21957682Y-15340627D01*
X21957682Y-15340627D02*
X21948158Y-15312055D01*
X21948158Y-15312055D02*
X21938634Y-15293008D01*
X21938634Y-15293008D02*
X21919587Y-15264436D01*
X21919587Y-15264436D02*
X21910063Y-15254912D01*
D11*
X17087500Y-15608500D02*
X17087500Y-15703500D01*
X17040000Y-15656000D02*
X17135000Y-15656000D01*
D10*
X17433872Y-15547484D02*
X17452920Y-15547484D01*
X17452920Y-15547484D02*
X17471967Y-15557008D01*
X17471967Y-15557008D02*
X17481491Y-15566531D01*
X17481491Y-15566531D02*
X17491015Y-15585579D01*
X17491015Y-15585579D02*
X17500539Y-15623674D01*
X17500539Y-15623674D02*
X17500539Y-15671293D01*
X17500539Y-15671293D02*
X17491015Y-15709388D01*
X17491015Y-15709388D02*
X17481491Y-15728436D01*
X17481491Y-15728436D02*
X17471967Y-15737960D01*
X17471967Y-15737960D02*
X17452920Y-15747484D01*
X17452920Y-15747484D02*
X17433872Y-15747484D01*
X17433872Y-15747484D02*
X17414824Y-15737960D01*
X17414824Y-15737960D02*
X17405301Y-15728436D01*
X17405301Y-15728436D02*
X17395777Y-15709388D01*
X17395777Y-15709388D02*
X17386253Y-15671293D01*
X17386253Y-15671293D02*
X17386253Y-15623674D01*
X17386253Y-15623674D02*
X17395777Y-15585579D01*
X17395777Y-15585579D02*
X17405301Y-15566531D01*
X17405301Y-15566531D02*
X17414824Y-15557008D01*
X17414824Y-15557008D02*
X17433872Y-15547484D01*
X17586253Y-15728436D02*
X17595777Y-15737960D01*
X17595777Y-15737960D02*
X17586253Y-15747484D01*
X17586253Y-15747484D02*
X17576729Y-15737960D01*
X17576729Y-15737960D02*
X17586253Y-15728436D01*
X17586253Y-15728436D02*
X17586253Y-15747484D01*
X17691015Y-15747484D02*
X17729110Y-15747484D01*
X17729110Y-15747484D02*
X17748158Y-15737960D01*
X17748158Y-15737960D02*
X17757682Y-15728436D01*
X17757682Y-15728436D02*
X17776729Y-15699865D01*
X17776729Y-15699865D02*
X17786253Y-15661769D01*
X17786253Y-15661769D02*
X17786253Y-15585579D01*
X17786253Y-15585579D02*
X17776729Y-15566531D01*
X17776729Y-15566531D02*
X17767205Y-15557008D01*
X17767205Y-15557008D02*
X17748158Y-15547484D01*
X17748158Y-15547484D02*
X17710063Y-15547484D01*
X17710063Y-15547484D02*
X17691015Y-15557008D01*
X17691015Y-15557008D02*
X17681491Y-15566531D01*
X17681491Y-15566531D02*
X17671967Y-15585579D01*
X17671967Y-15585579D02*
X17671967Y-15633198D01*
X17671967Y-15633198D02*
X17681491Y-15652246D01*
X17681491Y-15652246D02*
X17691015Y-15661769D01*
X17691015Y-15661769D02*
X17710063Y-15671293D01*
X17710063Y-15671293D02*
X17748158Y-15671293D01*
X17748158Y-15671293D02*
X17767205Y-15661769D01*
X17767205Y-15661769D02*
X17776729Y-15652246D01*
X17776729Y-15652246D02*
X17786253Y-15633198D01*
X17967205Y-15547484D02*
X17871967Y-15547484D01*
X17871967Y-15547484D02*
X17862444Y-15642722D01*
X17862444Y-15642722D02*
X17871967Y-15633198D01*
X17871967Y-15633198D02*
X17891015Y-15623674D01*
X17891015Y-15623674D02*
X17938634Y-15623674D01*
X17938634Y-15623674D02*
X17957682Y-15633198D01*
X17957682Y-15633198D02*
X17967205Y-15642722D01*
X17967205Y-15642722D02*
X17976729Y-15661769D01*
X17976729Y-15661769D02*
X17976729Y-15709388D01*
X17976729Y-15709388D02*
X17967205Y-15728436D01*
X17967205Y-15728436D02*
X17957682Y-15737960D01*
X17957682Y-15737960D02*
X17938634Y-15747484D01*
X17938634Y-15747484D02*
X17891015Y-15747484D01*
X17891015Y-15747484D02*
X17871967Y-15737960D01*
X17871967Y-15737960D02*
X17862444Y-15728436D01*
X18100539Y-15547484D02*
X18119586Y-15547484D01*
X18119586Y-15547484D02*
X18138634Y-15557008D01*
X18138634Y-15557008D02*
X18148158Y-15566531D01*
X18148158Y-15566531D02*
X18157682Y-15585579D01*
X18157682Y-15585579D02*
X18167205Y-15623674D01*
X18167205Y-15623674D02*
X18167205Y-15671293D01*
X18167205Y-15671293D02*
X18157682Y-15709388D01*
X18157682Y-15709388D02*
X18148158Y-15728436D01*
X18148158Y-15728436D02*
X18138634Y-15737960D01*
X18138634Y-15737960D02*
X18119586Y-15747484D01*
X18119586Y-15747484D02*
X18100539Y-15747484D01*
X18100539Y-15747484D02*
X18081491Y-15737960D01*
X18081491Y-15737960D02*
X18071967Y-15728436D01*
X18071967Y-15728436D02*
X18062444Y-15709388D01*
X18062444Y-15709388D02*
X18052920Y-15671293D01*
X18052920Y-15671293D02*
X18052920Y-15623674D01*
X18052920Y-15623674D02*
X18062444Y-15585579D01*
X18062444Y-15585579D02*
X18071967Y-15566531D01*
X18071967Y-15566531D02*
X18081491Y-15557008D01*
X18081491Y-15557008D02*
X18100539Y-15547484D01*
X18252920Y-15747484D02*
X18252920Y-15614150D01*
X18252920Y-15633198D02*
X18262444Y-15623674D01*
X18262444Y-15623674D02*
X18281491Y-15614150D01*
X18281491Y-15614150D02*
X18310063Y-15614150D01*
X18310063Y-15614150D02*
X18329110Y-15623674D01*
X18329110Y-15623674D02*
X18338634Y-15642722D01*
X18338634Y-15642722D02*
X18338634Y-15747484D01*
X18338634Y-15642722D02*
X18348158Y-15623674D01*
X18348158Y-15623674D02*
X18367205Y-15614150D01*
X18367205Y-15614150D02*
X18395777Y-15614150D01*
X18395777Y-15614150D02*
X18414825Y-15623674D01*
X18414825Y-15623674D02*
X18424348Y-15642722D01*
X18424348Y-15642722D02*
X18424348Y-15747484D01*
X18519586Y-15747484D02*
X18519586Y-15614150D01*
X18519586Y-15633198D02*
X18529110Y-15623674D01*
X18529110Y-15623674D02*
X18548158Y-15614150D01*
X18548158Y-15614150D02*
X18576729Y-15614150D01*
X18576729Y-15614150D02*
X18595777Y-15623674D01*
X18595777Y-15623674D02*
X18605301Y-15642722D01*
X18605301Y-15642722D02*
X18605301Y-15747484D01*
X18605301Y-15642722D02*
X18614825Y-15623674D01*
X18614825Y-15623674D02*
X18633872Y-15614150D01*
X18633872Y-15614150D02*
X18662444Y-15614150D01*
X18662444Y-15614150D02*
X18681491Y-15623674D01*
X18681491Y-15623674D02*
X18691015Y-15642722D01*
X18691015Y-15642722D02*
X18691015Y-15747484D01*
X19081491Y-15537960D02*
X18910063Y-15795103D01*
X19338634Y-15547484D02*
X19357682Y-15547484D01*
X19357682Y-15547484D02*
X19376729Y-15557008D01*
X19376729Y-15557008D02*
X19386253Y-15566531D01*
X19386253Y-15566531D02*
X19395777Y-15585579D01*
X19395777Y-15585579D02*
X19405301Y-15623674D01*
X19405301Y-15623674D02*
X19405301Y-15671293D01*
X19405301Y-15671293D02*
X19395777Y-15709388D01*
X19395777Y-15709388D02*
X19386253Y-15728436D01*
X19386253Y-15728436D02*
X19376729Y-15737960D01*
X19376729Y-15737960D02*
X19357682Y-15747484D01*
X19357682Y-15747484D02*
X19338634Y-15747484D01*
X19338634Y-15747484D02*
X19319587Y-15737960D01*
X19319587Y-15737960D02*
X19310063Y-15728436D01*
X19310063Y-15728436D02*
X19300539Y-15709388D01*
X19300539Y-15709388D02*
X19291015Y-15671293D01*
X19291015Y-15671293D02*
X19291015Y-15623674D01*
X19291015Y-15623674D02*
X19300539Y-15585579D01*
X19300539Y-15585579D02*
X19310063Y-15566531D01*
X19310063Y-15566531D02*
X19319587Y-15557008D01*
X19319587Y-15557008D02*
X19338634Y-15547484D01*
X19491015Y-15728436D02*
X19500539Y-15737960D01*
X19500539Y-15737960D02*
X19491015Y-15747484D01*
X19491015Y-15747484D02*
X19481491Y-15737960D01*
X19481491Y-15737960D02*
X19491015Y-15728436D01*
X19491015Y-15728436D02*
X19491015Y-15747484D01*
X19624348Y-15547484D02*
X19643396Y-15547484D01*
X19643396Y-15547484D02*
X19662444Y-15557008D01*
X19662444Y-15557008D02*
X19671968Y-15566531D01*
X19671968Y-15566531D02*
X19681491Y-15585579D01*
X19681491Y-15585579D02*
X19691015Y-15623674D01*
X19691015Y-15623674D02*
X19691015Y-15671293D01*
X19691015Y-15671293D02*
X19681491Y-15709388D01*
X19681491Y-15709388D02*
X19671968Y-15728436D01*
X19671968Y-15728436D02*
X19662444Y-15737960D01*
X19662444Y-15737960D02*
X19643396Y-15747484D01*
X19643396Y-15747484D02*
X19624348Y-15747484D01*
X19624348Y-15747484D02*
X19605301Y-15737960D01*
X19605301Y-15737960D02*
X19595777Y-15728436D01*
X19595777Y-15728436D02*
X19586253Y-15709388D01*
X19586253Y-15709388D02*
X19576729Y-15671293D01*
X19576729Y-15671293D02*
X19576729Y-15623674D01*
X19576729Y-15623674D02*
X19586253Y-15585579D01*
X19586253Y-15585579D02*
X19595777Y-15566531D01*
X19595777Y-15566531D02*
X19605301Y-15557008D01*
X19605301Y-15557008D02*
X19624348Y-15547484D01*
X19757682Y-15547484D02*
X19881491Y-15547484D01*
X19881491Y-15547484D02*
X19814825Y-15623674D01*
X19814825Y-15623674D02*
X19843396Y-15623674D01*
X19843396Y-15623674D02*
X19862444Y-15633198D01*
X19862444Y-15633198D02*
X19871968Y-15642722D01*
X19871968Y-15642722D02*
X19881491Y-15661769D01*
X19881491Y-15661769D02*
X19881491Y-15709388D01*
X19881491Y-15709388D02*
X19871968Y-15728436D01*
X19871968Y-15728436D02*
X19862444Y-15737960D01*
X19862444Y-15737960D02*
X19843396Y-15747484D01*
X19843396Y-15747484D02*
X19786253Y-15747484D01*
X19786253Y-15747484D02*
X19767206Y-15737960D01*
X19767206Y-15737960D02*
X19757682Y-15728436D01*
X19948158Y-15547484D02*
X20081491Y-15547484D01*
X20081491Y-15547484D02*
X19995777Y-15747484D01*
X20243396Y-15614150D02*
X20243396Y-15747484D01*
X20195777Y-15537960D02*
X20148158Y-15680817D01*
X20148158Y-15680817D02*
X20271968Y-15680817D01*
X20338634Y-15547484D02*
X20338634Y-15585579D01*
X20414825Y-15547484D02*
X20414825Y-15585579D01*
X20710063Y-15823674D02*
X20700539Y-15814150D01*
X20700539Y-15814150D02*
X20681491Y-15785579D01*
X20681491Y-15785579D02*
X20671968Y-15766531D01*
X20671968Y-15766531D02*
X20662444Y-15737960D01*
X20662444Y-15737960D02*
X20652920Y-15690341D01*
X20652920Y-15690341D02*
X20652920Y-15652246D01*
X20652920Y-15652246D02*
X20662444Y-15604627D01*
X20662444Y-15604627D02*
X20671968Y-15576055D01*
X20671968Y-15576055D02*
X20681491Y-15557008D01*
X20681491Y-15557008D02*
X20700539Y-15528436D01*
X20700539Y-15528436D02*
X20710063Y-15518912D01*
X20871968Y-15614150D02*
X20871968Y-15747484D01*
X20824349Y-15537960D02*
X20776730Y-15680817D01*
X20776730Y-15680817D02*
X20900539Y-15680817D01*
X21129111Y-15747484D02*
X21129111Y-15547484D01*
X21214825Y-15747484D02*
X21214825Y-15642722D01*
X21214825Y-15642722D02*
X21205301Y-15623674D01*
X21205301Y-15623674D02*
X21186253Y-15614150D01*
X21186253Y-15614150D02*
X21157682Y-15614150D01*
X21157682Y-15614150D02*
X21138634Y-15623674D01*
X21138634Y-15623674D02*
X21129111Y-15633198D01*
X21338634Y-15747484D02*
X21319587Y-15737960D01*
X21319587Y-15737960D02*
X21310063Y-15728436D01*
X21310063Y-15728436D02*
X21300539Y-15709388D01*
X21300539Y-15709388D02*
X21300539Y-15652246D01*
X21300539Y-15652246D02*
X21310063Y-15633198D01*
X21310063Y-15633198D02*
X21319587Y-15623674D01*
X21319587Y-15623674D02*
X21338634Y-15614150D01*
X21338634Y-15614150D02*
X21367206Y-15614150D01*
X21367206Y-15614150D02*
X21386253Y-15623674D01*
X21386253Y-15623674D02*
X21395777Y-15633198D01*
X21395777Y-15633198D02*
X21405301Y-15652246D01*
X21405301Y-15652246D02*
X21405301Y-15709388D01*
X21405301Y-15709388D02*
X21395777Y-15728436D01*
X21395777Y-15728436D02*
X21386253Y-15737960D01*
X21386253Y-15737960D02*
X21367206Y-15747484D01*
X21367206Y-15747484D02*
X21338634Y-15747484D01*
X21519587Y-15747484D02*
X21500539Y-15737960D01*
X21500539Y-15737960D02*
X21491015Y-15718912D01*
X21491015Y-15718912D02*
X21491015Y-15547484D01*
X21671968Y-15737960D02*
X21652920Y-15747484D01*
X21652920Y-15747484D02*
X21614825Y-15747484D01*
X21614825Y-15747484D02*
X21595777Y-15737960D01*
X21595777Y-15737960D02*
X21586253Y-15718912D01*
X21586253Y-15718912D02*
X21586253Y-15642722D01*
X21586253Y-15642722D02*
X21595777Y-15623674D01*
X21595777Y-15623674D02*
X21614825Y-15614150D01*
X21614825Y-15614150D02*
X21652920Y-15614150D01*
X21652920Y-15614150D02*
X21671968Y-15623674D01*
X21671968Y-15623674D02*
X21681492Y-15642722D01*
X21681492Y-15642722D02*
X21681492Y-15661769D01*
X21681492Y-15661769D02*
X21586253Y-15680817D01*
X21757682Y-15737960D02*
X21776730Y-15747484D01*
X21776730Y-15747484D02*
X21814825Y-15747484D01*
X21814825Y-15747484D02*
X21833873Y-15737960D01*
X21833873Y-15737960D02*
X21843396Y-15718912D01*
X21843396Y-15718912D02*
X21843396Y-15709388D01*
X21843396Y-15709388D02*
X21833873Y-15690341D01*
X21833873Y-15690341D02*
X21814825Y-15680817D01*
X21814825Y-15680817D02*
X21786253Y-15680817D01*
X21786253Y-15680817D02*
X21767206Y-15671293D01*
X21767206Y-15671293D02*
X21757682Y-15652246D01*
X21757682Y-15652246D02*
X21757682Y-15642722D01*
X21757682Y-15642722D02*
X21767206Y-15623674D01*
X21767206Y-15623674D02*
X21786253Y-15614150D01*
X21786253Y-15614150D02*
X21814825Y-15614150D01*
X21814825Y-15614150D02*
X21833873Y-15623674D01*
X21910063Y-15823674D02*
X21919587Y-15814150D01*
X21919587Y-15814150D02*
X21938634Y-15785579D01*
X21938634Y-15785579D02*
X21948158Y-15766531D01*
X21948158Y-15766531D02*
X21957682Y-15737960D01*
X21957682Y-15737960D02*
X21967206Y-15690341D01*
X21967206Y-15690341D02*
X21967206Y-15652246D01*
X21967206Y-15652246D02*
X21957682Y-15604627D01*
X21957682Y-15604627D02*
X21948158Y-15576055D01*
X21948158Y-15576055D02*
X21938634Y-15557008D01*
X21938634Y-15557008D02*
X21919587Y-15528436D01*
X21919587Y-15528436D02*
X21910063Y-15518912D01*
D12*
X17118891Y-15958891D02*
X17118891Y-15881109D01*
X17041109Y-15881109D01*
X17041109Y-15958891D01*
X17118891Y-15958891D01*
D10*
X17500539Y-16011484D02*
X17386253Y-16011484D01*
X17443396Y-16011484D02*
X17443396Y-15811484D01*
X17443396Y-15811484D02*
X17424348Y-15840055D01*
X17424348Y-15840055D02*
X17405301Y-15859103D01*
X17405301Y-15859103D02*
X17386253Y-15868627D01*
X17586253Y-15992436D02*
X17595777Y-16001960D01*
X17595777Y-16001960D02*
X17586253Y-16011484D01*
X17586253Y-16011484D02*
X17576729Y-16001960D01*
X17576729Y-16001960D02*
X17586253Y-15992436D01*
X17586253Y-15992436D02*
X17586253Y-16011484D01*
X17786253Y-16011484D02*
X17671967Y-16011484D01*
X17729110Y-16011484D02*
X17729110Y-15811484D01*
X17729110Y-15811484D02*
X17710063Y-15840055D01*
X17710063Y-15840055D02*
X17691015Y-15859103D01*
X17691015Y-15859103D02*
X17671967Y-15868627D01*
X17910063Y-15811484D02*
X17929110Y-15811484D01*
X17929110Y-15811484D02*
X17948158Y-15821008D01*
X17948158Y-15821008D02*
X17957682Y-15830531D01*
X17957682Y-15830531D02*
X17967205Y-15849579D01*
X17967205Y-15849579D02*
X17976729Y-15887674D01*
X17976729Y-15887674D02*
X17976729Y-15935293D01*
X17976729Y-15935293D02*
X17967205Y-15973388D01*
X17967205Y-15973388D02*
X17957682Y-15992436D01*
X17957682Y-15992436D02*
X17948158Y-16001960D01*
X17948158Y-16001960D02*
X17929110Y-16011484D01*
X17929110Y-16011484D02*
X17910063Y-16011484D01*
X17910063Y-16011484D02*
X17891015Y-16001960D01*
X17891015Y-16001960D02*
X17881491Y-15992436D01*
X17881491Y-15992436D02*
X17871967Y-15973388D01*
X17871967Y-15973388D02*
X17862444Y-15935293D01*
X17862444Y-15935293D02*
X17862444Y-15887674D01*
X17862444Y-15887674D02*
X17871967Y-15849579D01*
X17871967Y-15849579D02*
X17881491Y-15830531D01*
X17881491Y-15830531D02*
X17891015Y-15821008D01*
X17891015Y-15821008D02*
X17910063Y-15811484D01*
X18100539Y-15811484D02*
X18119586Y-15811484D01*
X18119586Y-15811484D02*
X18138634Y-15821008D01*
X18138634Y-15821008D02*
X18148158Y-15830531D01*
X18148158Y-15830531D02*
X18157682Y-15849579D01*
X18157682Y-15849579D02*
X18167205Y-15887674D01*
X18167205Y-15887674D02*
X18167205Y-15935293D01*
X18167205Y-15935293D02*
X18157682Y-15973388D01*
X18157682Y-15973388D02*
X18148158Y-15992436D01*
X18148158Y-15992436D02*
X18138634Y-16001960D01*
X18138634Y-16001960D02*
X18119586Y-16011484D01*
X18119586Y-16011484D02*
X18100539Y-16011484D01*
X18100539Y-16011484D02*
X18081491Y-16001960D01*
X18081491Y-16001960D02*
X18071967Y-15992436D01*
X18071967Y-15992436D02*
X18062444Y-15973388D01*
X18062444Y-15973388D02*
X18052920Y-15935293D01*
X18052920Y-15935293D02*
X18052920Y-15887674D01*
X18052920Y-15887674D02*
X18062444Y-15849579D01*
X18062444Y-15849579D02*
X18071967Y-15830531D01*
X18071967Y-15830531D02*
X18081491Y-15821008D01*
X18081491Y-15821008D02*
X18100539Y-15811484D01*
X18252920Y-16011484D02*
X18252920Y-15878150D01*
X18252920Y-15897198D02*
X18262444Y-15887674D01*
X18262444Y-15887674D02*
X18281491Y-15878150D01*
X18281491Y-15878150D02*
X18310063Y-15878150D01*
X18310063Y-15878150D02*
X18329110Y-15887674D01*
X18329110Y-15887674D02*
X18338634Y-15906722D01*
X18338634Y-15906722D02*
X18338634Y-16011484D01*
X18338634Y-15906722D02*
X18348158Y-15887674D01*
X18348158Y-15887674D02*
X18367205Y-15878150D01*
X18367205Y-15878150D02*
X18395777Y-15878150D01*
X18395777Y-15878150D02*
X18414825Y-15887674D01*
X18414825Y-15887674D02*
X18424348Y-15906722D01*
X18424348Y-15906722D02*
X18424348Y-16011484D01*
X18519586Y-16011484D02*
X18519586Y-15878150D01*
X18519586Y-15897198D02*
X18529110Y-15887674D01*
X18529110Y-15887674D02*
X18548158Y-15878150D01*
X18548158Y-15878150D02*
X18576729Y-15878150D01*
X18576729Y-15878150D02*
X18595777Y-15887674D01*
X18595777Y-15887674D02*
X18605301Y-15906722D01*
X18605301Y-15906722D02*
X18605301Y-16011484D01*
X18605301Y-15906722D02*
X18614825Y-15887674D01*
X18614825Y-15887674D02*
X18633872Y-15878150D01*
X18633872Y-15878150D02*
X18662444Y-15878150D01*
X18662444Y-15878150D02*
X18681491Y-15887674D01*
X18681491Y-15887674D02*
X18691015Y-15906722D01*
X18691015Y-15906722D02*
X18691015Y-16011484D01*
X19081491Y-15801960D02*
X18910063Y-16059103D01*
X19338634Y-15811484D02*
X19357682Y-15811484D01*
X19357682Y-15811484D02*
X19376729Y-15821008D01*
X19376729Y-15821008D02*
X19386253Y-15830531D01*
X19386253Y-15830531D02*
X19395777Y-15849579D01*
X19395777Y-15849579D02*
X19405301Y-15887674D01*
X19405301Y-15887674D02*
X19405301Y-15935293D01*
X19405301Y-15935293D02*
X19395777Y-15973388D01*
X19395777Y-15973388D02*
X19386253Y-15992436D01*
X19386253Y-15992436D02*
X19376729Y-16001960D01*
X19376729Y-16001960D02*
X19357682Y-16011484D01*
X19357682Y-16011484D02*
X19338634Y-16011484D01*
X19338634Y-16011484D02*
X19319587Y-16001960D01*
X19319587Y-16001960D02*
X19310063Y-15992436D01*
X19310063Y-15992436D02*
X19300539Y-15973388D01*
X19300539Y-15973388D02*
X19291015Y-15935293D01*
X19291015Y-15935293D02*
X19291015Y-15887674D01*
X19291015Y-15887674D02*
X19300539Y-15849579D01*
X19300539Y-15849579D02*
X19310063Y-15830531D01*
X19310063Y-15830531D02*
X19319587Y-15821008D01*
X19319587Y-15821008D02*
X19338634Y-15811484D01*
X19491015Y-15992436D02*
X19500539Y-16001960D01*
X19500539Y-16001960D02*
X19491015Y-16011484D01*
X19491015Y-16011484D02*
X19481491Y-16001960D01*
X19481491Y-16001960D02*
X19491015Y-15992436D01*
X19491015Y-15992436D02*
X19491015Y-16011484D01*
X19624348Y-15811484D02*
X19643396Y-15811484D01*
X19643396Y-15811484D02*
X19662444Y-15821008D01*
X19662444Y-15821008D02*
X19671968Y-15830531D01*
X19671968Y-15830531D02*
X19681491Y-15849579D01*
X19681491Y-15849579D02*
X19691015Y-15887674D01*
X19691015Y-15887674D02*
X19691015Y-15935293D01*
X19691015Y-15935293D02*
X19681491Y-15973388D01*
X19681491Y-15973388D02*
X19671968Y-15992436D01*
X19671968Y-15992436D02*
X19662444Y-16001960D01*
X19662444Y-16001960D02*
X19643396Y-16011484D01*
X19643396Y-16011484D02*
X19624348Y-16011484D01*
X19624348Y-16011484D02*
X19605301Y-16001960D01*
X19605301Y-16001960D02*
X19595777Y-15992436D01*
X19595777Y-15992436D02*
X19586253Y-15973388D01*
X19586253Y-15973388D02*
X19576729Y-15935293D01*
X19576729Y-15935293D02*
X19576729Y-15887674D01*
X19576729Y-15887674D02*
X19586253Y-15849579D01*
X19586253Y-15849579D02*
X19595777Y-15830531D01*
X19595777Y-15830531D02*
X19605301Y-15821008D01*
X19605301Y-15821008D02*
X19624348Y-15811484D01*
X19862444Y-15878150D02*
X19862444Y-16011484D01*
X19814825Y-15801960D02*
X19767206Y-15944817D01*
X19767206Y-15944817D02*
X19891015Y-15944817D01*
X19948158Y-15811484D02*
X20071968Y-15811484D01*
X20071968Y-15811484D02*
X20005301Y-15887674D01*
X20005301Y-15887674D02*
X20033872Y-15887674D01*
X20033872Y-15887674D02*
X20052920Y-15897198D01*
X20052920Y-15897198D02*
X20062444Y-15906722D01*
X20062444Y-15906722D02*
X20071968Y-15925769D01*
X20071968Y-15925769D02*
X20071968Y-15973388D01*
X20071968Y-15973388D02*
X20062444Y-15992436D01*
X20062444Y-15992436D02*
X20052920Y-16001960D01*
X20052920Y-16001960D02*
X20033872Y-16011484D01*
X20033872Y-16011484D02*
X19976729Y-16011484D01*
X19976729Y-16011484D02*
X19957682Y-16001960D01*
X19957682Y-16001960D02*
X19948158Y-15992436D01*
X20138634Y-15811484D02*
X20262444Y-15811484D01*
X20262444Y-15811484D02*
X20195777Y-15887674D01*
X20195777Y-15887674D02*
X20224349Y-15887674D01*
X20224349Y-15887674D02*
X20243396Y-15897198D01*
X20243396Y-15897198D02*
X20252920Y-15906722D01*
X20252920Y-15906722D02*
X20262444Y-15925769D01*
X20262444Y-15925769D02*
X20262444Y-15973388D01*
X20262444Y-15973388D02*
X20252920Y-15992436D01*
X20252920Y-15992436D02*
X20243396Y-16001960D01*
X20243396Y-16001960D02*
X20224349Y-16011484D01*
X20224349Y-16011484D02*
X20167206Y-16011484D01*
X20167206Y-16011484D02*
X20148158Y-16001960D01*
X20148158Y-16001960D02*
X20138634Y-15992436D01*
X20338634Y-15811484D02*
X20338634Y-15849579D01*
X20414825Y-15811484D02*
X20414825Y-15849579D01*
X20710063Y-16087674D02*
X20700539Y-16078150D01*
X20700539Y-16078150D02*
X20681491Y-16049579D01*
X20681491Y-16049579D02*
X20671968Y-16030531D01*
X20671968Y-16030531D02*
X20662444Y-16001960D01*
X20662444Y-16001960D02*
X20652920Y-15954341D01*
X20652920Y-15954341D02*
X20652920Y-15916246D01*
X20652920Y-15916246D02*
X20662444Y-15868627D01*
X20662444Y-15868627D02*
X20671968Y-15840055D01*
X20671968Y-15840055D02*
X20681491Y-15821008D01*
X20681491Y-15821008D02*
X20700539Y-15792436D01*
X20700539Y-15792436D02*
X20710063Y-15782912D01*
X20871968Y-15878150D02*
X20871968Y-16011484D01*
X20824349Y-15801960D02*
X20776730Y-15944817D01*
X20776730Y-15944817D02*
X20900539Y-15944817D01*
X21129111Y-16011484D02*
X21129111Y-15811484D01*
X21214825Y-16011484D02*
X21214825Y-15906722D01*
X21214825Y-15906722D02*
X21205301Y-15887674D01*
X21205301Y-15887674D02*
X21186253Y-15878150D01*
X21186253Y-15878150D02*
X21157682Y-15878150D01*
X21157682Y-15878150D02*
X21138634Y-15887674D01*
X21138634Y-15887674D02*
X21129111Y-15897198D01*
X21338634Y-16011484D02*
X21319587Y-16001960D01*
X21319587Y-16001960D02*
X21310063Y-15992436D01*
X21310063Y-15992436D02*
X21300539Y-15973388D01*
X21300539Y-15973388D02*
X21300539Y-15916246D01*
X21300539Y-15916246D02*
X21310063Y-15897198D01*
X21310063Y-15897198D02*
X21319587Y-15887674D01*
X21319587Y-15887674D02*
X21338634Y-15878150D01*
X21338634Y-15878150D02*
X21367206Y-15878150D01*
X21367206Y-15878150D02*
X21386253Y-15887674D01*
X21386253Y-15887674D02*
X21395777Y-15897198D01*
X21395777Y-15897198D02*
X21405301Y-15916246D01*
X21405301Y-15916246D02*
X21405301Y-15973388D01*
X21405301Y-15973388D02*
X21395777Y-15992436D01*
X21395777Y-15992436D02*
X21386253Y-16001960D01*
X21386253Y-16001960D02*
X21367206Y-16011484D01*
X21367206Y-16011484D02*
X21338634Y-16011484D01*
X21519587Y-16011484D02*
X21500539Y-16001960D01*
X21500539Y-16001960D02*
X21491015Y-15982912D01*
X21491015Y-15982912D02*
X21491015Y-15811484D01*
X21671968Y-16001960D02*
X21652920Y-16011484D01*
X21652920Y-16011484D02*
X21614825Y-16011484D01*
X21614825Y-16011484D02*
X21595777Y-16001960D01*
X21595777Y-16001960D02*
X21586253Y-15982912D01*
X21586253Y-15982912D02*
X21586253Y-15906722D01*
X21586253Y-15906722D02*
X21595777Y-15887674D01*
X21595777Y-15887674D02*
X21614825Y-15878150D01*
X21614825Y-15878150D02*
X21652920Y-15878150D01*
X21652920Y-15878150D02*
X21671968Y-15887674D01*
X21671968Y-15887674D02*
X21681492Y-15906722D01*
X21681492Y-15906722D02*
X21681492Y-15925769D01*
X21681492Y-15925769D02*
X21586253Y-15944817D01*
X21757682Y-16001960D02*
X21776730Y-16011484D01*
X21776730Y-16011484D02*
X21814825Y-16011484D01*
X21814825Y-16011484D02*
X21833873Y-16001960D01*
X21833873Y-16001960D02*
X21843396Y-15982912D01*
X21843396Y-15982912D02*
X21843396Y-15973388D01*
X21843396Y-15973388D02*
X21833873Y-15954341D01*
X21833873Y-15954341D02*
X21814825Y-15944817D01*
X21814825Y-15944817D02*
X21786253Y-15944817D01*
X21786253Y-15944817D02*
X21767206Y-15935293D01*
X21767206Y-15935293D02*
X21757682Y-15916246D01*
X21757682Y-15916246D02*
X21757682Y-15906722D01*
X21757682Y-15906722D02*
X21767206Y-15887674D01*
X21767206Y-15887674D02*
X21786253Y-15878150D01*
X21786253Y-15878150D02*
X21814825Y-15878150D01*
X21814825Y-15878150D02*
X21833873Y-15887674D01*
X21910063Y-16087674D02*
X21919587Y-16078150D01*
X21919587Y-16078150D02*
X21938634Y-16049579D01*
X21938634Y-16049579D02*
X21948158Y-16030531D01*
X21948158Y-16030531D02*
X21957682Y-16001960D01*
X21957682Y-16001960D02*
X21967206Y-15954341D01*
X21967206Y-15954341D02*
X21967206Y-15916246D01*
X21967206Y-15916246D02*
X21957682Y-15868627D01*
X21957682Y-15868627D02*
X21948158Y-15840055D01*
X21948158Y-15840055D02*
X21938634Y-15821008D01*
X21938634Y-15821008D02*
X21919587Y-15792436D01*
X21919587Y-15792436D02*
X21910063Y-15782912D01*
D13*
X17060000Y-16259000D02*
X17135000Y-16184000D01*
X17060000Y-16109000D01*
X16985000Y-16184000D01*
X17060000Y-16259000D01*
D10*
X17500539Y-16275484D02*
X17386253Y-16275484D01*
X17443396Y-16275484D02*
X17443396Y-16075484D01*
X17443396Y-16075484D02*
X17424348Y-16104055D01*
X17424348Y-16104055D02*
X17405301Y-16123103D01*
X17405301Y-16123103D02*
X17386253Y-16132627D01*
X17586253Y-16256436D02*
X17595777Y-16265960D01*
X17595777Y-16265960D02*
X17586253Y-16275484D01*
X17586253Y-16275484D02*
X17576729Y-16265960D01*
X17576729Y-16265960D02*
X17586253Y-16256436D01*
X17586253Y-16256436D02*
X17586253Y-16275484D01*
X17776729Y-16075484D02*
X17681491Y-16075484D01*
X17681491Y-16075484D02*
X17671967Y-16170722D01*
X17671967Y-16170722D02*
X17681491Y-16161198D01*
X17681491Y-16161198D02*
X17700539Y-16151674D01*
X17700539Y-16151674D02*
X17748158Y-16151674D01*
X17748158Y-16151674D02*
X17767205Y-16161198D01*
X17767205Y-16161198D02*
X17776729Y-16170722D01*
X17776729Y-16170722D02*
X17786253Y-16189769D01*
X17786253Y-16189769D02*
X17786253Y-16237388D01*
X17786253Y-16237388D02*
X17776729Y-16256436D01*
X17776729Y-16256436D02*
X17767205Y-16265960D01*
X17767205Y-16265960D02*
X17748158Y-16275484D01*
X17748158Y-16275484D02*
X17700539Y-16275484D01*
X17700539Y-16275484D02*
X17681491Y-16265960D01*
X17681491Y-16265960D02*
X17671967Y-16256436D01*
X17910063Y-16075484D02*
X17929110Y-16075484D01*
X17929110Y-16075484D02*
X17948158Y-16085008D01*
X17948158Y-16085008D02*
X17957682Y-16094531D01*
X17957682Y-16094531D02*
X17967205Y-16113579D01*
X17967205Y-16113579D02*
X17976729Y-16151674D01*
X17976729Y-16151674D02*
X17976729Y-16199293D01*
X17976729Y-16199293D02*
X17967205Y-16237388D01*
X17967205Y-16237388D02*
X17957682Y-16256436D01*
X17957682Y-16256436D02*
X17948158Y-16265960D01*
X17948158Y-16265960D02*
X17929110Y-16275484D01*
X17929110Y-16275484D02*
X17910063Y-16275484D01*
X17910063Y-16275484D02*
X17891015Y-16265960D01*
X17891015Y-16265960D02*
X17881491Y-16256436D01*
X17881491Y-16256436D02*
X17871967Y-16237388D01*
X17871967Y-16237388D02*
X17862444Y-16199293D01*
X17862444Y-16199293D02*
X17862444Y-16151674D01*
X17862444Y-16151674D02*
X17871967Y-16113579D01*
X17871967Y-16113579D02*
X17881491Y-16094531D01*
X17881491Y-16094531D02*
X17891015Y-16085008D01*
X17891015Y-16085008D02*
X17910063Y-16075484D01*
X18100539Y-16075484D02*
X18119586Y-16075484D01*
X18119586Y-16075484D02*
X18138634Y-16085008D01*
X18138634Y-16085008D02*
X18148158Y-16094531D01*
X18148158Y-16094531D02*
X18157682Y-16113579D01*
X18157682Y-16113579D02*
X18167205Y-16151674D01*
X18167205Y-16151674D02*
X18167205Y-16199293D01*
X18167205Y-16199293D02*
X18157682Y-16237388D01*
X18157682Y-16237388D02*
X18148158Y-16256436D01*
X18148158Y-16256436D02*
X18138634Y-16265960D01*
X18138634Y-16265960D02*
X18119586Y-16275484D01*
X18119586Y-16275484D02*
X18100539Y-16275484D01*
X18100539Y-16275484D02*
X18081491Y-16265960D01*
X18081491Y-16265960D02*
X18071967Y-16256436D01*
X18071967Y-16256436D02*
X18062444Y-16237388D01*
X18062444Y-16237388D02*
X18052920Y-16199293D01*
X18052920Y-16199293D02*
X18052920Y-16151674D01*
X18052920Y-16151674D02*
X18062444Y-16113579D01*
X18062444Y-16113579D02*
X18071967Y-16094531D01*
X18071967Y-16094531D02*
X18081491Y-16085008D01*
X18081491Y-16085008D02*
X18100539Y-16075484D01*
X18252920Y-16275484D02*
X18252920Y-16142150D01*
X18252920Y-16161198D02*
X18262444Y-16151674D01*
X18262444Y-16151674D02*
X18281491Y-16142150D01*
X18281491Y-16142150D02*
X18310063Y-16142150D01*
X18310063Y-16142150D02*
X18329110Y-16151674D01*
X18329110Y-16151674D02*
X18338634Y-16170722D01*
X18338634Y-16170722D02*
X18338634Y-16275484D01*
X18338634Y-16170722D02*
X18348158Y-16151674D01*
X18348158Y-16151674D02*
X18367205Y-16142150D01*
X18367205Y-16142150D02*
X18395777Y-16142150D01*
X18395777Y-16142150D02*
X18414825Y-16151674D01*
X18414825Y-16151674D02*
X18424348Y-16170722D01*
X18424348Y-16170722D02*
X18424348Y-16275484D01*
X18519586Y-16275484D02*
X18519586Y-16142150D01*
X18519586Y-16161198D02*
X18529110Y-16151674D01*
X18529110Y-16151674D02*
X18548158Y-16142150D01*
X18548158Y-16142150D02*
X18576729Y-16142150D01*
X18576729Y-16142150D02*
X18595777Y-16151674D01*
X18595777Y-16151674D02*
X18605301Y-16170722D01*
X18605301Y-16170722D02*
X18605301Y-16275484D01*
X18605301Y-16170722D02*
X18614825Y-16151674D01*
X18614825Y-16151674D02*
X18633872Y-16142150D01*
X18633872Y-16142150D02*
X18662444Y-16142150D01*
X18662444Y-16142150D02*
X18681491Y-16151674D01*
X18681491Y-16151674D02*
X18691015Y-16170722D01*
X18691015Y-16170722D02*
X18691015Y-16275484D01*
X19081491Y-16065960D02*
X18910063Y-16323103D01*
X19338634Y-16075484D02*
X19357682Y-16075484D01*
X19357682Y-16075484D02*
X19376729Y-16085008D01*
X19376729Y-16085008D02*
X19386253Y-16094531D01*
X19386253Y-16094531D02*
X19395777Y-16113579D01*
X19395777Y-16113579D02*
X19405301Y-16151674D01*
X19405301Y-16151674D02*
X19405301Y-16199293D01*
X19405301Y-16199293D02*
X19395777Y-16237388D01*
X19395777Y-16237388D02*
X19386253Y-16256436D01*
X19386253Y-16256436D02*
X19376729Y-16265960D01*
X19376729Y-16265960D02*
X19357682Y-16275484D01*
X19357682Y-16275484D02*
X19338634Y-16275484D01*
X19338634Y-16275484D02*
X19319587Y-16265960D01*
X19319587Y-16265960D02*
X19310063Y-16256436D01*
X19310063Y-16256436D02*
X19300539Y-16237388D01*
X19300539Y-16237388D02*
X19291015Y-16199293D01*
X19291015Y-16199293D02*
X19291015Y-16151674D01*
X19291015Y-16151674D02*
X19300539Y-16113579D01*
X19300539Y-16113579D02*
X19310063Y-16094531D01*
X19310063Y-16094531D02*
X19319587Y-16085008D01*
X19319587Y-16085008D02*
X19338634Y-16075484D01*
X19491015Y-16256436D02*
X19500539Y-16265960D01*
X19500539Y-16265960D02*
X19491015Y-16275484D01*
X19491015Y-16275484D02*
X19481491Y-16265960D01*
X19481491Y-16265960D02*
X19491015Y-16256436D01*
X19491015Y-16256436D02*
X19491015Y-16275484D01*
X19624348Y-16075484D02*
X19643396Y-16075484D01*
X19643396Y-16075484D02*
X19662444Y-16085008D01*
X19662444Y-16085008D02*
X19671968Y-16094531D01*
X19671968Y-16094531D02*
X19681491Y-16113579D01*
X19681491Y-16113579D02*
X19691015Y-16151674D01*
X19691015Y-16151674D02*
X19691015Y-16199293D01*
X19691015Y-16199293D02*
X19681491Y-16237388D01*
X19681491Y-16237388D02*
X19671968Y-16256436D01*
X19671968Y-16256436D02*
X19662444Y-16265960D01*
X19662444Y-16265960D02*
X19643396Y-16275484D01*
X19643396Y-16275484D02*
X19624348Y-16275484D01*
X19624348Y-16275484D02*
X19605301Y-16265960D01*
X19605301Y-16265960D02*
X19595777Y-16256436D01*
X19595777Y-16256436D02*
X19586253Y-16237388D01*
X19586253Y-16237388D02*
X19576729Y-16199293D01*
X19576729Y-16199293D02*
X19576729Y-16151674D01*
X19576729Y-16151674D02*
X19586253Y-16113579D01*
X19586253Y-16113579D02*
X19595777Y-16094531D01*
X19595777Y-16094531D02*
X19605301Y-16085008D01*
X19605301Y-16085008D02*
X19624348Y-16075484D01*
X19871968Y-16075484D02*
X19776729Y-16075484D01*
X19776729Y-16075484D02*
X19767206Y-16170722D01*
X19767206Y-16170722D02*
X19776729Y-16161198D01*
X19776729Y-16161198D02*
X19795777Y-16151674D01*
X19795777Y-16151674D02*
X19843396Y-16151674D01*
X19843396Y-16151674D02*
X19862444Y-16161198D01*
X19862444Y-16161198D02*
X19871968Y-16170722D01*
X19871968Y-16170722D02*
X19881491Y-16189769D01*
X19881491Y-16189769D02*
X19881491Y-16237388D01*
X19881491Y-16237388D02*
X19871968Y-16256436D01*
X19871968Y-16256436D02*
X19862444Y-16265960D01*
X19862444Y-16265960D02*
X19843396Y-16275484D01*
X19843396Y-16275484D02*
X19795777Y-16275484D01*
X19795777Y-16275484D02*
X19776729Y-16265960D01*
X19776729Y-16265960D02*
X19767206Y-16256436D01*
X19976729Y-16275484D02*
X20014825Y-16275484D01*
X20014825Y-16275484D02*
X20033872Y-16265960D01*
X20033872Y-16265960D02*
X20043396Y-16256436D01*
X20043396Y-16256436D02*
X20062444Y-16227865D01*
X20062444Y-16227865D02*
X20071968Y-16189769D01*
X20071968Y-16189769D02*
X20071968Y-16113579D01*
X20071968Y-16113579D02*
X20062444Y-16094531D01*
X20062444Y-16094531D02*
X20052920Y-16085008D01*
X20052920Y-16085008D02*
X20033872Y-16075484D01*
X20033872Y-16075484D02*
X19995777Y-16075484D01*
X19995777Y-16075484D02*
X19976729Y-16085008D01*
X19976729Y-16085008D02*
X19967206Y-16094531D01*
X19967206Y-16094531D02*
X19957682Y-16113579D01*
X19957682Y-16113579D02*
X19957682Y-16161198D01*
X19957682Y-16161198D02*
X19967206Y-16180246D01*
X19967206Y-16180246D02*
X19976729Y-16189769D01*
X19976729Y-16189769D02*
X19995777Y-16199293D01*
X19995777Y-16199293D02*
X20033872Y-16199293D01*
X20033872Y-16199293D02*
X20052920Y-16189769D01*
X20052920Y-16189769D02*
X20062444Y-16180246D01*
X20062444Y-16180246D02*
X20071968Y-16161198D01*
X20262444Y-16275484D02*
X20148158Y-16275484D01*
X20205301Y-16275484D02*
X20205301Y-16075484D01*
X20205301Y-16075484D02*
X20186253Y-16104055D01*
X20186253Y-16104055D02*
X20167206Y-16123103D01*
X20167206Y-16123103D02*
X20148158Y-16132627D01*
X20338634Y-16075484D02*
X20338634Y-16113579D01*
X20414825Y-16075484D02*
X20414825Y-16113579D01*
X20710063Y-16351674D02*
X20700539Y-16342150D01*
X20700539Y-16342150D02*
X20681491Y-16313579D01*
X20681491Y-16313579D02*
X20671968Y-16294531D01*
X20671968Y-16294531D02*
X20662444Y-16265960D01*
X20662444Y-16265960D02*
X20652920Y-16218341D01*
X20652920Y-16218341D02*
X20652920Y-16180246D01*
X20652920Y-16180246D02*
X20662444Y-16132627D01*
X20662444Y-16132627D02*
X20671968Y-16104055D01*
X20671968Y-16104055D02*
X20681491Y-16085008D01*
X20681491Y-16085008D02*
X20700539Y-16056436D01*
X20700539Y-16056436D02*
X20710063Y-16046912D01*
X20891015Y-16275484D02*
X20776730Y-16275484D01*
X20833872Y-16275484D02*
X20833872Y-16075484D01*
X20833872Y-16075484D02*
X20814825Y-16104055D01*
X20814825Y-16104055D02*
X20795777Y-16123103D01*
X20795777Y-16123103D02*
X20776730Y-16132627D01*
X21129111Y-16275484D02*
X21129111Y-16075484D01*
X21214825Y-16275484D02*
X21214825Y-16170722D01*
X21214825Y-16170722D02*
X21205301Y-16151674D01*
X21205301Y-16151674D02*
X21186253Y-16142150D01*
X21186253Y-16142150D02*
X21157682Y-16142150D01*
X21157682Y-16142150D02*
X21138634Y-16151674D01*
X21138634Y-16151674D02*
X21129111Y-16161198D01*
X21338634Y-16275484D02*
X21319587Y-16265960D01*
X21319587Y-16265960D02*
X21310063Y-16256436D01*
X21310063Y-16256436D02*
X21300539Y-16237388D01*
X21300539Y-16237388D02*
X21300539Y-16180246D01*
X21300539Y-16180246D02*
X21310063Y-16161198D01*
X21310063Y-16161198D02*
X21319587Y-16151674D01*
X21319587Y-16151674D02*
X21338634Y-16142150D01*
X21338634Y-16142150D02*
X21367206Y-16142150D01*
X21367206Y-16142150D02*
X21386253Y-16151674D01*
X21386253Y-16151674D02*
X21395777Y-16161198D01*
X21395777Y-16161198D02*
X21405301Y-16180246D01*
X21405301Y-16180246D02*
X21405301Y-16237388D01*
X21405301Y-16237388D02*
X21395777Y-16256436D01*
X21395777Y-16256436D02*
X21386253Y-16265960D01*
X21386253Y-16265960D02*
X21367206Y-16275484D01*
X21367206Y-16275484D02*
X21338634Y-16275484D01*
X21519587Y-16275484D02*
X21500539Y-16265960D01*
X21500539Y-16265960D02*
X21491015Y-16246912D01*
X21491015Y-16246912D02*
X21491015Y-16075484D01*
X21671968Y-16265960D02*
X21652920Y-16275484D01*
X21652920Y-16275484D02*
X21614825Y-16275484D01*
X21614825Y-16275484D02*
X21595777Y-16265960D01*
X21595777Y-16265960D02*
X21586253Y-16246912D01*
X21586253Y-16246912D02*
X21586253Y-16170722D01*
X21586253Y-16170722D02*
X21595777Y-16151674D01*
X21595777Y-16151674D02*
X21614825Y-16142150D01*
X21614825Y-16142150D02*
X21652920Y-16142150D01*
X21652920Y-16142150D02*
X21671968Y-16151674D01*
X21671968Y-16151674D02*
X21681492Y-16170722D01*
X21681492Y-16170722D02*
X21681492Y-16189769D01*
X21681492Y-16189769D02*
X21586253Y-16208817D01*
X21748158Y-16351674D02*
X21757682Y-16342150D01*
X21757682Y-16342150D02*
X21776730Y-16313579D01*
X21776730Y-16313579D02*
X21786253Y-16294531D01*
X21786253Y-16294531D02*
X21795777Y-16265960D01*
X21795777Y-16265960D02*
X21805301Y-16218341D01*
X21805301Y-16218341D02*
X21805301Y-16180246D01*
X21805301Y-16180246D02*
X21795777Y-16132627D01*
X21795777Y-16132627D02*
X21786253Y-16104055D01*
X21786253Y-16104055D02*
X21776730Y-16085008D01*
X21776730Y-16085008D02*
X21757682Y-16056436D01*
X21757682Y-16056436D02*
X21748158Y-16046912D01*
M02*
