M48
; DRILL file {KiCad 8.0.5} date 2024-10-17T13:37:41-0400
; FORMAT={-:-/ absolute / inch / decimal}
; #@! TF.CreationDate,2024-10-17T13:37:41-04:00
; #@! TF.GenerationSoftware,Kicad,Pcbnew,8.0.5
; #@! TF.FileFunction,Plated,1,2,PTH
FMAT,2
INCH
; #@! TA.AperFunction,Plated,PTH,ViaDrill
T1C0.0157
; #@! TA.AperFunction,Plated,PTH,ComponentDrill
T2C0.0252
; #@! TA.AperFunction,Plated,PTH,ComponentDrill
T3C0.0374
; #@! TA.AperFunction,Plated,PTH,ComponentDrill
T4C0.0433
; #@! TA.AperFunction,Plated,PTH,ViaDrill
T5C0.0591
%
G90
G05
T1
X6.7913Y-3.9465
X6.7913Y-4.0253
X6.7913Y-4.0646
X6.7913Y-4.104
X6.7913Y-4.1434
X6.7913Y-4.1827
X7.05Y-4.45
X7.0866Y-3.9465
X7.1264Y-4.7354
X7.1378Y-4.8638
X7.1378Y-4.9425
X7.1846Y-3.961
X7.2244Y-4.0646
X7.2638Y-3.8284
X7.3031Y-3.9445
X7.3228Y-4.7835
X7.3228Y-5.0197
X7.3425Y-3.8284
X7.3425Y-4.104
X7.3666Y-4.9466
X7.3722Y-4.1827
X7.3819Y-3.8875
X7.402Y-3.9701
X7.4213Y-3.8875
X7.5Y-4.3009
X7.5Y-4.9
X7.5394Y-4.3009
X7.5787Y-4.3009
X7.6181Y-4.3009
X7.6378Y-4.0646
X7.6575Y-3.6709
X7.6969Y-4.8819
X7.7138Y-4.7484
X7.7138Y-4.8075
X7.7559Y-4.9213
X7.7887Y-4.3977
X7.8314Y-4.5314
X7.8343Y-3.8559
X7.8346Y-5.0197
X7.8358Y-4.3564
X7.8516Y-4.7091
X7.8519Y-4.8572
X7.8713Y-4.5319
X7.9102Y-4.8597
X7.9303Y-4.3898
X7.95Y-4.65
X7.95Y-5.0
X7.9774Y-4.3453
X8.0092Y-4.9908
X8.0204Y-4.3889
X8.0311Y-4.0724
X8.0394Y-5.0426
X8.0657Y-4.3315
X8.0902Y-4.1512
X8.0906Y-5.0394
X8.1042Y-4.8629
X8.1299Y-5.0197
X8.1466Y-4.8603
X8.1491Y-4.3351
X8.1619Y-4.5381
X8.1693Y-5.0
X8.2991Y-4.7521
X8.3025Y-4.618
X8.3025Y-4.618
X8.3071Y-4.7047
X8.3461Y-4.1512
X8.35Y-4.4443
X8.35Y-4.95
X8.3854Y-3.8756
X8.4Y-4.6474
X8.4Y-4.7
X8.4747Y-4.5184
X8.5Y-3.55
X8.5Y-3.7
X8.5Y-3.9
X8.5128Y-4.555
X8.6Y-3.35
X8.6Y-4.2
X8.65Y-3.65
X8.65Y-3.8
X8.65Y-3.9
X8.65Y-4.0
X8.7Y-3.6
X8.7Y-3.7
X8.75Y-3.35
X8.75Y-3.8
X8.75Y-3.9
X8.75Y-4.0
X8.8Y-3.65
X8.85Y-3.6
X8.85Y-3.95
X8.9Y-3.35
X8.9Y-3.65
X8.9Y-4.0
X8.95Y-3.6
X8.95Y-3.95
X9.0Y-3.7
X9.0Y-3.85
X9.05Y-3.35
X9.05Y-3.65
X9.05Y-3.75
X9.05Y-3.9
X9.05Y-4.0
X9.1Y-3.6
X9.1Y-3.7
X9.1Y-3.85
X9.1Y-3.95
X9.1Y-4.2
X9.15Y-3.6
X9.15Y-3.7
X9.15Y-3.8
X9.15Y-4.0
X9.15Y-4.2
X9.2Y-3.35
X9.2Y-4.25
T2
X7.5079Y-5.1
X7.5079Y-5.2
X7.5079Y-5.3
X7.5079Y-5.4
X7.5079Y-5.5
X7.5079Y-5.5961
T3
X9.15Y-4.4547
X9.15Y-4.5531
X9.15Y-4.6516
X9.15Y-4.75
T4
X8.6728Y-4.95
X8.6728Y-5.2059
X8.85Y-4.95
X8.85Y-5.2059
T5
X8.0504Y-3.9713
M30
