%TF.GenerationSoftware,KiCad,Pcbnew,8.0.5*%
%TF.CreationDate,2024-10-17T13:29:10-04:00*%
%TF.ProjectId,PCB,5043422e-6b69-4636-9164-5f7063625858,rev?*%
%TF.SameCoordinates,Original*%
%TF.FileFunction,Copper,L2,Bot*%
%TF.FilePolarity,Positive*%
%FSLAX46Y46*%
G04 Gerber Fmt 4.6, Leading zero omitted, Abs format (unit mm)*
G04 Created by KiCad (PCBNEW 8.0.5) date 2024-10-17 13:29:10*
%MOMM*%
%LPD*%
G01*
G04 APERTURE LIST*
G04 Aperture macros list*
%AMRoundRect*
0 Rectangle with rounded corners*
0 $1 Rounding radius*
0 $2 $3 $4 $5 $6 $7 $8 $9 X,Y pos of 4 corners*
0 Add a 4 corners polygon primitive as box body*
4,1,4,$2,$3,$4,$5,$6,$7,$8,$9,$2,$3,0*
0 Add four circle primitives for the rounded corners*
1,1,$1+$1,$2,$3*
1,1,$1+$1,$4,$5*
1,1,$1+$1,$6,$7*
1,1,$1+$1,$8,$9*
0 Add four rect primitives between the rounded corners*
20,1,$1+$1,$2,$3,$4,$5,0*
20,1,$1+$1,$4,$5,$6,$7,0*
20,1,$1+$1,$6,$7,$8,$9,0*
20,1,$1+$1,$8,$9,$2,$3,0*%
G04 Aperture macros list end*
%TA.AperFunction,ComponentPad*%
%ADD10C,2.000000*%
%TD*%
%TA.AperFunction,ComponentPad*%
%ADD11C,1.000000*%
%TD*%
%TA.AperFunction,ComponentPad*%
%ADD12RoundRect,0.250000X0.725000X-0.600000X0.725000X0.600000X-0.725000X0.600000X-0.725000X-0.600000X0*%
%TD*%
%TA.AperFunction,ComponentPad*%
%ADD13O,1.950000X1.700000*%
%TD*%
%TA.AperFunction,SMDPad,CuDef*%
%ADD14RoundRect,0.250000X0.475000X-0.337500X0.475000X0.337500X-0.475000X0.337500X-0.475000X-0.337500X0*%
%TD*%
%TA.AperFunction,SMDPad,CuDef*%
%ADD15RoundRect,0.250000X0.450000X-0.262500X0.450000X0.262500X-0.450000X0.262500X-0.450000X-0.262500X0*%
%TD*%
%TA.AperFunction,SMDPad,CuDef*%
%ADD16RoundRect,0.250000X0.337500X0.475000X-0.337500X0.475000X-0.337500X-0.475000X0.337500X-0.475000X0*%
%TD*%
%TA.AperFunction,SMDPad,CuDef*%
%ADD17RoundRect,0.250000X-0.337500X-0.475000X0.337500X-0.475000X0.337500X0.475000X-0.337500X0.475000X0*%
%TD*%
%TA.AperFunction,SMDPad,CuDef*%
%ADD18RoundRect,0.250000X-0.262500X-0.450000X0.262500X-0.450000X0.262500X0.450000X-0.262500X0.450000X0*%
%TD*%
%TA.AperFunction,SMDPad,CuDef*%
%ADD19R,1.854200X1.066800*%
%TD*%
%TA.AperFunction,SMDPad,CuDef*%
%ADD20RoundRect,0.250000X-0.350000X-0.450000X0.350000X-0.450000X0.350000X0.450000X-0.350000X0.450000X0*%
%TD*%
%TA.AperFunction,ViaPad*%
%ADD21C,0.800000*%
%TD*%
%TA.AperFunction,ViaPad*%
%ADD22C,1.700000*%
%TD*%
%TA.AperFunction,Conductor*%
%ADD23C,0.250000*%
%TD*%
%TA.AperFunction,Conductor*%
%ADD24C,0.254000*%
%TD*%
G04 APERTURE END LIST*
D10*
%TO.P,SW1,1,1*%
%TO.N,GND*%
X224790000Y-125730000D03*
X224790000Y-132230000D03*
%TO.P,SW1,2,2*%
%TO.N,/RST*%
X220290000Y-125730000D03*
X220290000Y-132230000D03*
%TD*%
D11*
%TO.P,U3,1,VDD*%
%TO.N,+3.3V*%
X190700000Y-129540000D03*
%TO.P,U3,2,NRST*%
X190700000Y-132080000D03*
%TO.P,U3,3,RXD*%
%TO.N,/LoRa RX*%
X190700000Y-134620000D03*
%TO.P,U3,4,TXD*%
%TO.N,/LoRa TX*%
X190700000Y-137160000D03*
%TO.P,U3,5,NC*%
%TO.N,unconnected-(U3-NC-Pad5)*%
X190700000Y-139700000D03*
%TO.P,U3,6,GND*%
%TO.N,GND*%
X190700000Y-142140000D03*
%TD*%
D12*
%TO.P,J5,1,Pin_1*%
%TO.N,GND*%
X232410000Y-120650000D03*
D13*
%TO.P,J5,2,Pin_2*%
%TO.N,/SWCLK*%
X232410000Y-118150000D03*
%TO.P,J5,3,Pin_3*%
%TO.N,/SWDIO*%
X232410000Y-115650000D03*
%TO.P,J5,4,Pin_4*%
%TO.N,/RST*%
X232410000Y-113150000D03*
%TD*%
D14*
%TO.P,C12,1*%
%TO.N,+5V*%
X183300000Y-125615000D03*
%TO.P,C12,2*%
%TO.N,GND*%
X183300000Y-123540000D03*
%TD*%
%TO.P,C16,1*%
%TO.N,/3.3VA*%
X194455229Y-122420091D03*
%TO.P,C16,2*%
%TO.N,/GNDA*%
X194455229Y-120345091D03*
%TD*%
%TO.P,C17,1*%
%TO.N,/3.3VA*%
X192430000Y-122415504D03*
%TO.P,C17,2*%
%TO.N,/GNDA*%
X192430000Y-120340504D03*
%TD*%
D15*
%TO.P,R10,1*%
%TO.N,GND*%
X202930000Y-114935000D03*
%TO.P,R10,2*%
%TO.N,/BOOT*%
X202930000Y-113110000D03*
%TD*%
D16*
%TO.P,C13,1*%
%TO.N,+3.3V*%
X207185535Y-122006028D03*
%TO.P,C13,2*%
%TO.N,GND*%
X205110535Y-122006028D03*
%TD*%
D17*
%TO.P,C10,1*%
%TO.N,+3.3V*%
X198392500Y-116610000D03*
%TO.P,C10,2*%
%TO.N,GND*%
X200467500Y-116610000D03*
%TD*%
D18*
%TO.P,R11,1*%
%TO.N,/RST*%
X221540000Y-127480000D03*
%TO.P,R11,2*%
%TO.N,+3.3V*%
X223365000Y-127480000D03*
%TD*%
D17*
%TO.P,C20,1*%
%TO.N,/RST*%
X221465000Y-130480000D03*
%TO.P,C20,2*%
%TO.N,GND*%
X223540000Y-130480000D03*
%TD*%
D14*
%TO.P,C11,1*%
%TO.N,/DAC OUT*%
X185386554Y-125636352D03*
%TO.P,C11,2*%
%TO.N,/Amp In*%
X185386554Y-123561352D03*
%TD*%
D16*
%TO.P,C15,1*%
%TO.N,+3.3V*%
X206545000Y-118110000D03*
%TO.P,C15,2*%
%TO.N,GND*%
X204470000Y-118110000D03*
%TD*%
D19*
%TO.P,D1,1,K*%
%TO.N,/Bat +*%
X194500000Y-99120900D03*
%TO.P,D1,2,A*%
%TO.N,/Batteries*%
X194500000Y-94879100D03*
%TD*%
D16*
%TO.P,C14,1*%
%TO.N,+3.3V*%
X201505000Y-122110000D03*
%TO.P,C14,2*%
%TO.N,GND*%
X199430000Y-122110000D03*
%TD*%
D20*
%TO.P,R5,1,1*%
%TO.N,GND*%
X188430000Y-120610000D03*
%TO.P,R5,2,2*%
%TO.N,/GNDA*%
X190430000Y-120610000D03*
%TD*%
%TO.P,R4,1,1*%
%TO.N,+3.3V*%
X188430000Y-122610000D03*
%TO.P,R4,2,2*%
%TO.N,/3.3VA*%
X190430000Y-122610000D03*
%TD*%
D21*
%TO.N,/Batteries*%
X194500000Y-93241800D03*
%TO.N,GND*%
X220980000Y-93980000D03*
X181300000Y-123540000D03*
D22*
X204479998Y-100870003D03*
D21*
X172500000Y-105241800D03*
X219710000Y-92710000D03*
X172500000Y-100241800D03*
X222250000Y-85090000D03*
X231140000Y-91440000D03*
X218440000Y-85090000D03*
X227330000Y-100330000D03*
X229870000Y-95250000D03*
X182490000Y-100610000D03*
X229870000Y-101600000D03*
X205847025Y-123517766D03*
X232410000Y-101600000D03*
X185500000Y-100190000D03*
X231140000Y-93980000D03*
X231140000Y-100330000D03*
X219710000Y-99060000D03*
X188010000Y-100840000D03*
X215900000Y-93980000D03*
X222250000Y-96520000D03*
X229870000Y-99060000D03*
X231140000Y-97790000D03*
X232410000Y-93980000D03*
X227330000Y-91440000D03*
X218440000Y-106680000D03*
X199437645Y-123373761D03*
X223520000Y-92710000D03*
X229870000Y-92710000D03*
X228600000Y-97790000D03*
X190500000Y-109241800D03*
X172500000Y-103241800D03*
X229870000Y-85090000D03*
X219710000Y-101600000D03*
X215900000Y-99060000D03*
X172500000Y-106241800D03*
X199430000Y-119610000D03*
X186500000Y-97241800D03*
X199930000Y-115110000D03*
X222250000Y-101600000D03*
X232410000Y-91440000D03*
X226060000Y-85090000D03*
X228600000Y-93980000D03*
X215900000Y-90170000D03*
X219710000Y-96520000D03*
X233680000Y-107950000D03*
X172500000Y-104241800D03*
X224790000Y-100330000D03*
X233680000Y-85090000D03*
X226060000Y-92710000D03*
X201930000Y-118110000D03*
X192500000Y-109241800D03*
X172500000Y-102241800D03*
X222250000Y-99060000D03*
X224790000Y-91440000D03*
X226060000Y-101600000D03*
X191500000Y-109241800D03*
X193500000Y-109241800D03*
X232410000Y-96520000D03*
X220980000Y-91440000D03*
%TO.N,/3.3VA*%
X195930000Y-122110000D03*
%TO.N,+3.3V*%
X207312870Y-115267130D03*
X205490000Y-105440000D03*
X206923971Y-123450875D03*
X212990000Y-98440000D03*
X198917347Y-115097347D03*
X200918226Y-123437064D03*
X212090000Y-125730000D03*
X190500000Y-124460000D03*
X212090000Y-112885000D03*
X211990000Y-105440003D03*
%TO.N,/GNDA*%
X195930000Y-120610000D03*
%TO.N,+5V*%
X179070000Y-113030000D03*
X194000000Y-103241800D03*
X187254051Y-106241800D03*
X180000000Y-100241800D03*
X181300000Y-125540000D03*
%TO.N,/DAC OUT*%
X187110483Y-125643041D03*
%TO.N,/BOOT*%
X201430000Y-111500000D03*
%TO.N,/Bat +*%
X198990000Y-97940000D03*
X186500000Y-104241800D03*
X203990000Y-103440000D03*
%TO.N,/SWDIO*%
X216225358Y-115697475D03*
%TO.N,/SWCLK*%
X215257845Y-114766377D03*
%TO.N,/LoRa TX*%
X203433189Y-126766811D03*
%TO.N,/GPS TX*%
X231140000Y-106680000D03*
X213360000Y-118043108D03*
%TO.N,/LoRa RX*%
X201930000Y-127000000D03*
%TO.N,/GPS RX*%
X232410000Y-106680000D03*
X213360000Y-119380000D03*
%TO.N,/Gain 1*%
X186000000Y-121500000D03*
%TO.N,/FB Boost*%
X184500000Y-97241800D03*
%TO.N,/SW Boost*%
X187500000Y-98741800D03*
X188500000Y-98741800D03*
%TO.N,/EN Boost*%
X183500000Y-103241800D03*
%TO.N,/Gain 2*%
X186000000Y-127500000D03*
%TO.N,/TIM 4 CH 4*%
X197833369Y-111700592D03*
%TO.N,/TIM 4 CH 2*%
X202625003Y-110370209D03*
%TO.N,/TIM 4 CH 1*%
X203718623Y-111478613D03*
%TO.N,/TIM 4 CH 3*%
X199028459Y-110652070D03*
%TO.N,/UART TX*%
X206988209Y-110110897D03*
%TO.N,/UART RX*%
X204868616Y-110020702D03*
%TO.N,/PC8*%
X211000000Y-119500000D03*
%TO.N,/PC7*%
X210797014Y-120702986D03*
%TO.N,/USART 3 RX*%
X207500000Y-127000000D03*
%TO.N,/USART 3 TX*%
X206500000Y-127500000D03*
%TO.N,/USART 2 TX*%
X195500000Y-124000000D03*
%TO.N,/USART 2 RX*%
X197000000Y-125000000D03*
%TO.N,/DAC 2*%
X199000000Y-127500000D03*
%TO.N,/PB1*%
X204201090Y-128082300D03*
%TO.N,/PB2*%
X205500000Y-128000000D03*
%TO.N,/PA 11*%
X210883920Y-117296618D03*
X210883920Y-117296618D03*
%TO.N,/Amp In*%
X181010000Y-120280000D03*
%TD*%
D23*
%TO.N,/Batteries*%
X194500000Y-94741800D02*
X194500000Y-93241800D01*
%TO.N,GND*%
X199430000Y-122110000D02*
X199430000Y-119610000D01*
X223540000Y-130980000D02*
X224790000Y-132230000D01*
X199930000Y-116072500D02*
X200467500Y-116610000D01*
X205847025Y-123517766D02*
X205847025Y-122742518D01*
X188430000Y-120610000D02*
X188430000Y-110960000D01*
X188430000Y-110960000D02*
X188430000Y-110070000D01*
X183300000Y-123540000D02*
X181300000Y-123540000D01*
X202930000Y-114935000D02*
X202142500Y-114935000D01*
X223540000Y-130480000D02*
X223540000Y-130980000D01*
X188430000Y-110070000D02*
X188500000Y-110000000D01*
X199437645Y-123373761D02*
X199437645Y-122420053D01*
X199437645Y-122420053D02*
X199189747Y-122172155D01*
X200467500Y-116610000D02*
X200467500Y-116647500D01*
X205847025Y-122742518D02*
X205110535Y-122006028D01*
X200467500Y-116647500D02*
X201930000Y-118110000D01*
X199930000Y-115110000D02*
X199930000Y-116072500D01*
X202142500Y-114935000D02*
X200467500Y-116610000D01*
%TO.N,/3.3VA*%
X194455229Y-122420091D02*
X195619909Y-122420091D01*
X192235504Y-122610000D02*
X192430000Y-122415504D01*
X190430000Y-122610000D02*
X192235504Y-122610000D01*
X192434587Y-122420091D02*
X192430000Y-122415504D01*
X195619909Y-122420091D02*
X195930000Y-122110000D01*
X194455229Y-122420091D02*
X192434587Y-122420091D01*
%TO.N,+3.3V*%
X223365000Y-126780000D02*
X219775000Y-123190000D01*
X200918226Y-123437064D02*
X201505000Y-122850290D01*
X212090000Y-112885000D02*
X212090000Y-115570000D01*
X212090000Y-115570000D02*
X207615740Y-115570000D01*
X223365000Y-127480000D02*
X223365000Y-126780000D01*
X189330000Y-125630000D02*
X190500000Y-124460000D01*
X200430000Y-120610000D02*
X201430000Y-120610000D01*
X188921239Y-126038761D02*
X188921239Y-127761239D01*
X188430000Y-122610000D02*
X188430000Y-124730000D01*
X212990000Y-104440000D02*
X212990000Y-98440000D01*
X207312870Y-115267130D02*
X206545000Y-116035000D01*
X201505000Y-120685000D02*
X201430000Y-120610000D01*
X200430000Y-118647500D02*
X200430000Y-120610000D01*
X206545000Y-116035000D02*
X206545000Y-118110000D01*
X207615740Y-115570000D02*
X207312870Y-115267130D01*
X198392500Y-116610000D02*
X200430000Y-118647500D01*
X206923971Y-122267592D02*
X207185535Y-122006028D01*
X205789507Y-120610000D02*
X206545000Y-119854507D01*
X201505000Y-122110000D02*
X201505000Y-120685000D01*
X211990000Y-105440000D02*
X212990000Y-104440000D01*
X214630000Y-123190000D02*
X212090000Y-123190000D01*
X205490000Y-105440000D02*
X211990000Y-105440000D01*
X188921239Y-127761239D02*
X190700000Y-129540000D01*
X198917347Y-115097347D02*
X198917347Y-116085153D01*
X206545000Y-119854507D02*
X206545000Y-118110000D01*
X212090000Y-115570000D02*
X212090000Y-125730000D01*
X219775000Y-123190000D02*
X214630000Y-123190000D01*
X206923971Y-123450875D02*
X206923971Y-122267592D01*
X201505000Y-122850290D02*
X201505000Y-122110000D01*
X198917347Y-116085153D02*
X198392500Y-116610000D01*
X201430000Y-120610000D02*
X205789507Y-120610000D01*
X205789507Y-120610000D02*
X207185535Y-122006028D01*
X189330000Y-125630000D02*
X188921239Y-126038761D01*
X188430000Y-124730000D02*
X189330000Y-125630000D01*
%TO.N,/GNDA*%
X195665091Y-120345091D02*
X195930000Y-120610000D01*
X192430000Y-120340504D02*
X194450642Y-120340504D01*
X194455229Y-120345091D02*
X195665091Y-120345091D01*
X190430000Y-120610000D02*
X192160504Y-120610000D01*
X194450642Y-120340504D02*
X194455229Y-120345091D01*
X192160504Y-120610000D02*
X192430000Y-120340504D01*
%TO.N,+5V*%
X179070000Y-113030000D02*
X179070000Y-123310000D01*
D24*
X180000000Y-103241800D02*
X182310000Y-105551800D01*
X188310000Y-106241800D02*
X192500000Y-106241800D01*
D23*
X181375000Y-125615000D02*
X181300000Y-125540000D01*
D24*
X194000000Y-104741800D02*
X194000000Y-103241800D01*
D23*
X188309078Y-106242722D02*
X188310000Y-106241800D01*
D24*
X180000000Y-102241800D02*
X180000000Y-103241800D01*
X180000000Y-100241800D02*
X180000000Y-102241800D01*
D23*
X179070000Y-123310000D02*
X181300000Y-125540000D01*
D24*
X192500000Y-106241800D02*
X194000000Y-104741800D01*
X182310000Y-105551800D02*
X183000000Y-106241800D01*
X183000000Y-106241800D02*
X187254051Y-106241800D01*
X187254051Y-106241800D02*
X188310000Y-106241800D01*
D23*
X183300000Y-125615000D02*
X181375000Y-125615000D01*
%TO.N,/DAC OUT*%
X187103794Y-125636352D02*
X187110483Y-125643041D01*
X185386554Y-125636352D02*
X187103794Y-125636352D01*
%TO.N,/BOOT*%
X201430000Y-111610000D02*
X202930000Y-113110000D01*
X201430000Y-111500000D02*
X201430000Y-111610000D01*
%TO.N,/Bat +*%
X202004070Y-103440272D02*
X202003798Y-103440000D01*
X198990000Y-97940000D02*
X198990000Y-99060000D01*
X202003798Y-103440000D02*
X203990000Y-103440000D01*
X191758200Y-98983600D02*
X194500000Y-98983600D01*
X198929100Y-99120900D02*
X198990000Y-99060000D01*
X198990000Y-102440000D02*
X199990000Y-103440000D01*
X194500000Y-99120900D02*
X198929100Y-99120900D01*
X199990000Y-103440000D02*
X202003798Y-103440000D01*
X186500000Y-104241800D02*
X191758200Y-98983600D01*
X198990000Y-99060000D02*
X198990000Y-102440000D01*
%TO.N,/RST*%
X220980000Y-125730000D02*
X221540000Y-126290000D01*
X221540000Y-130405000D02*
X221465000Y-130480000D01*
X221465000Y-131055000D02*
X220290000Y-132230000D01*
X221540000Y-127480000D02*
X221540000Y-130405000D01*
X220290000Y-125730000D02*
X220980000Y-125730000D01*
X221540000Y-126290000D02*
X221540000Y-127480000D01*
X221465000Y-130480000D02*
X221465000Y-131055000D01*
%TO.N,/SWDIO*%
X232410000Y-115650000D02*
X216272833Y-115650000D01*
X216272833Y-115650000D02*
X216225358Y-115697475D01*
%TO.N,/SWCLK*%
X215257845Y-117294859D02*
X215257845Y-114766377D01*
X215257845Y-114766377D02*
X215251156Y-114759688D01*
X232410000Y-118150000D02*
X216112986Y-118150000D01*
X216112986Y-118150000D02*
X215257845Y-117294859D01*
%TO.N,/LoRa TX*%
X195780000Y-137160000D02*
X190700000Y-137160000D01*
X203433189Y-126766811D02*
X203433189Y-129506811D01*
X203433189Y-129506811D02*
X195780000Y-137160000D01*
%TO.N,/GPS TX*%
X229420000Y-108400000D02*
X231140000Y-106680000D01*
X214160000Y-113500000D02*
X229420000Y-113500000D01*
X213360000Y-118043108D02*
X213360000Y-114300000D01*
X229420000Y-113500000D02*
X229420000Y-108400000D01*
X213360000Y-114300000D02*
X214160000Y-113500000D01*
%TO.N,/LoRa RX*%
X201930000Y-128470000D02*
X195780000Y-134620000D01*
X201930000Y-127000000D02*
X201930000Y-128470000D01*
X195780000Y-134620000D02*
X190700000Y-134620000D01*
%TO.N,/GPS RX*%
X229870000Y-114000000D02*
X229870000Y-109220000D01*
X214085000Y-118915000D02*
X214085000Y-114845000D01*
X214930000Y-114000000D02*
X229870000Y-114000000D01*
X213360000Y-119380000D02*
X213620000Y-119380000D01*
X213620000Y-119380000D02*
X214085000Y-118915000D01*
X229870000Y-109220000D02*
X232410000Y-106680000D01*
X214085000Y-114845000D02*
X214930000Y-114000000D01*
%TO.N,/Amp In*%
X182105202Y-120280000D02*
X181010000Y-120280000D01*
X185386554Y-123561352D02*
X182105202Y-120280000D01*
X185386554Y-123561352D02*
X185478648Y-123561352D01*
X185365202Y-123540000D02*
X185386554Y-123561352D01*
%TD*%
%TA.AperFunction,Conductor*%
%TO.N,GND*%
G36*
X236162121Y-83840002D02*
G01*
X236208614Y-83893658D01*
X236220000Y-83946000D01*
X236220000Y-124774863D01*
X236199998Y-124842984D01*
X236146342Y-124889477D01*
X236094867Y-124900860D01*
X228950000Y-124949999D01*
X228949999Y-124950000D01*
X228999370Y-134873373D01*
X228979708Y-134941593D01*
X228926284Y-134988352D01*
X228873372Y-135000000D01*
X213500000Y-135000000D01*
X213480417Y-144654256D01*
X213460277Y-144722336D01*
X213406527Y-144768720D01*
X213354417Y-144780000D01*
X171576000Y-144780000D01*
X171507879Y-144759998D01*
X171461386Y-144706342D01*
X171450000Y-144654000D01*
X171450000Y-143002075D01*
X190191476Y-143002075D01*
X190315467Y-143068350D01*
X190503972Y-143125532D01*
X190699997Y-143144839D01*
X190700003Y-143144839D01*
X190896027Y-143125532D01*
X191084532Y-143068350D01*
X191208523Y-143002075D01*
X190700001Y-142493553D01*
X190700000Y-142493553D01*
X190191476Y-143002075D01*
X171450000Y-143002075D01*
X171450000Y-142500000D01*
X182500000Y-142500000D01*
X188000000Y-142500000D01*
X188000000Y-142139997D01*
X189695161Y-142139997D01*
X189695161Y-142140002D01*
X189714467Y-142336027D01*
X189771650Y-142524535D01*
X189837922Y-142648522D01*
X190346446Y-142139999D01*
X190304318Y-142097871D01*
X190380000Y-142097871D01*
X190380000Y-142182129D01*
X190401808Y-142263515D01*
X190443936Y-142336484D01*
X190503516Y-142396064D01*
X190576485Y-142438192D01*
X190657871Y-142460000D01*
X190742129Y-142460000D01*
X190823515Y-142438192D01*
X190896484Y-142396064D01*
X190956064Y-142336484D01*
X190998192Y-142263515D01*
X191020000Y-142182129D01*
X191020000Y-142139999D01*
X191053553Y-142139999D01*
X191053553Y-142140001D01*
X191562075Y-142648523D01*
X191628350Y-142524532D01*
X191685532Y-142336027D01*
X191704839Y-142140002D01*
X191704839Y-142139997D01*
X191685532Y-141943972D01*
X191628350Y-141755467D01*
X191562075Y-141631476D01*
X191053553Y-142139999D01*
X191020000Y-142139999D01*
X191020000Y-142097871D01*
X190998192Y-142016485D01*
X190956064Y-141943516D01*
X190896484Y-141883936D01*
X190823515Y-141841808D01*
X190742129Y-141820000D01*
X190657871Y-141820000D01*
X190576485Y-141841808D01*
X190503516Y-141883936D01*
X190443936Y-141943516D01*
X190401808Y-142016485D01*
X190380000Y-142097871D01*
X190304318Y-142097871D01*
X189837922Y-141631476D01*
X189771650Y-141755464D01*
X189714467Y-141943972D01*
X189695161Y-142139997D01*
X188000000Y-142139997D01*
X188000000Y-141277922D01*
X190191476Y-141277922D01*
X190699999Y-141786446D01*
X191208522Y-141277922D01*
X191208523Y-141277922D01*
X191084535Y-141211650D01*
X190896027Y-141154467D01*
X190700003Y-141135161D01*
X190699997Y-141135161D01*
X190503972Y-141154467D01*
X190315464Y-141211650D01*
X190191476Y-141277922D01*
X188000000Y-141277922D01*
X188000000Y-139699996D01*
X189694659Y-139699996D01*
X189694659Y-139700003D01*
X189713974Y-139896124D01*
X189713974Y-139896126D01*
X189771186Y-140084728D01*
X189864090Y-140258538D01*
X189989117Y-140410883D01*
X190141462Y-140535910D01*
X190315273Y-140628814D01*
X190503868Y-140686024D01*
X190503872Y-140686024D01*
X190503874Y-140686025D01*
X190699997Y-140705341D01*
X190700000Y-140705341D01*
X190700003Y-140705341D01*
X190896124Y-140686025D01*
X190896126Y-140686025D01*
X190896127Y-140686024D01*
X190896132Y-140686024D01*
X191084727Y-140628814D01*
X191258538Y-140535910D01*
X191410883Y-140410883D01*
X191535910Y-140258538D01*
X191628814Y-140084727D01*
X191686024Y-139896132D01*
X191705341Y-139700000D01*
X191686025Y-139503875D01*
X191686025Y-139503873D01*
X191686024Y-139503870D01*
X191686024Y-139503868D01*
X191628814Y-139315273D01*
X191535910Y-139141462D01*
X191410883Y-138989117D01*
X191258538Y-138864090D01*
X191084728Y-138771186D01*
X190896125Y-138713974D01*
X190700003Y-138694659D01*
X190699997Y-138694659D01*
X190503875Y-138713974D01*
X190503873Y-138713974D01*
X190315271Y-138771186D01*
X190141461Y-138864090D01*
X189989117Y-138989117D01*
X189864090Y-139141461D01*
X189771186Y-139315271D01*
X189713974Y-139503873D01*
X189713974Y-139503875D01*
X189694659Y-139699996D01*
X188000000Y-139699996D01*
X188000000Y-137000000D01*
X182500000Y-137000000D01*
X182500000Y-142500000D01*
X171450000Y-142500000D01*
X171450000Y-134619996D01*
X189694659Y-134619996D01*
X189694659Y-134620003D01*
X189713974Y-134816124D01*
X189713974Y-134816126D01*
X189771186Y-135004728D01*
X189843536Y-135140084D01*
X189864090Y-135178538D01*
X189989117Y-135330883D01*
X190141462Y-135455910D01*
X190315273Y-135548814D01*
X190503868Y-135606024D01*
X190503872Y-135606024D01*
X190503874Y-135606025D01*
X190699997Y-135625341D01*
X190700000Y-135625341D01*
X190700003Y-135625341D01*
X190896124Y-135606025D01*
X190896126Y-135606025D01*
X190896127Y-135606024D01*
X190896132Y-135606024D01*
X191084727Y-135548814D01*
X191258538Y-135455910D01*
X191410883Y-135330883D01*
X191443150Y-135291565D01*
X191501826Y-135251597D01*
X191540548Y-135245500D01*
X195841602Y-135245500D01*
X195841607Y-135245500D01*
X195902029Y-135233481D01*
X195962452Y-135221463D01*
X195995785Y-135207654D01*
X195995791Y-135207654D01*
X195995791Y-135207653D01*
X196033738Y-135191935D01*
X196076286Y-135174312D01*
X196127509Y-135140084D01*
X196178733Y-135105858D01*
X196265858Y-135018733D01*
X196276225Y-135008366D01*
X196276232Y-135008356D01*
X202415857Y-128868734D01*
X202417383Y-128866451D01*
X202484311Y-128766286D01*
X202531463Y-128652452D01*
X202545728Y-128580734D01*
X202555500Y-128531607D01*
X202555500Y-128408394D01*
X202555500Y-127699454D01*
X202575502Y-127631333D01*
X202587842Y-127615167D01*
X202588035Y-127614953D01*
X202648472Y-127577701D01*
X202719456Y-127579037D01*
X202778449Y-127618538D01*
X202806722Y-127683662D01*
X202807689Y-127699244D01*
X202807689Y-129195530D01*
X202787687Y-129263651D01*
X202770784Y-129284625D01*
X195557815Y-136497595D01*
X195495503Y-136531621D01*
X195468720Y-136534500D01*
X191540548Y-136534500D01*
X191472427Y-136514498D01*
X191443151Y-136488436D01*
X191410883Y-136449117D01*
X191410880Y-136449114D01*
X191258538Y-136324090D01*
X191084728Y-136231186D01*
X190896125Y-136173974D01*
X190700003Y-136154659D01*
X190699997Y-136154659D01*
X190503875Y-136173974D01*
X190503873Y-136173974D01*
X190315271Y-136231186D01*
X190141461Y-136324090D01*
X189989117Y-136449117D01*
X189864090Y-136601461D01*
X189771186Y-136775271D01*
X189713974Y-136963873D01*
X189713974Y-136963875D01*
X189694659Y-137159996D01*
X189694659Y-137160003D01*
X189713974Y-137356124D01*
X189713974Y-137356126D01*
X189771186Y-137544728D01*
X189843536Y-137680084D01*
X189864090Y-137718538D01*
X189989117Y-137870883D01*
X190141462Y-137995910D01*
X190315273Y-138088814D01*
X190503868Y-138146024D01*
X190503872Y-138146024D01*
X190503874Y-138146025D01*
X190699997Y-138165341D01*
X190700000Y-138165341D01*
X190700003Y-138165341D01*
X190896124Y-138146025D01*
X190896126Y-138146025D01*
X190896127Y-138146024D01*
X190896132Y-138146024D01*
X191084727Y-138088814D01*
X191258538Y-137995910D01*
X191410883Y-137870883D01*
X191443150Y-137831565D01*
X191501826Y-137791597D01*
X191540548Y-137785500D01*
X195841602Y-137785500D01*
X195841607Y-137785500D01*
X195902029Y-137773481D01*
X195962452Y-137761463D01*
X195995785Y-137747654D01*
X195995791Y-137747654D01*
X195995791Y-137747653D01*
X196033738Y-137731935D01*
X196076286Y-137714312D01*
X196127509Y-137680084D01*
X196178733Y-137645858D01*
X196265858Y-137558733D01*
X196276225Y-137548366D01*
X196276232Y-137548356D01*
X203919047Y-129905544D01*
X203987501Y-129803096D01*
X204034652Y-129689262D01*
X204058690Y-129568417D01*
X204058690Y-129445204D01*
X204058690Y-129440012D01*
X204058689Y-129439986D01*
X204058689Y-129108800D01*
X204078691Y-129040679D01*
X204132347Y-128994186D01*
X204184689Y-128982800D01*
X204295736Y-128982800D01*
X204480893Y-128943444D01*
X204653820Y-128866451D01*
X204653820Y-128866450D01*
X204653822Y-128866450D01*
X204653822Y-128866449D01*
X204806961Y-128755188D01*
X204810315Y-128751461D01*
X204870755Y-128714222D01*
X204941739Y-128715569D01*
X204978014Y-128733834D01*
X205047267Y-128784149D01*
X205047267Y-128784150D01*
X205094612Y-128805229D01*
X205220197Y-128861144D01*
X205405354Y-128900500D01*
X205594646Y-128900500D01*
X205779803Y-128861144D01*
X205952730Y-128784151D01*
X205952730Y-128784150D01*
X205952732Y-128784150D01*
X205952732Y-128784149D01*
X206105871Y-128672888D01*
X206112404Y-128665633D01*
X206232533Y-128532216D01*
X206232535Y-128532213D01*
X206273384Y-128461459D01*
X206324766Y-128412465D01*
X206394479Y-128399027D01*
X206401276Y-128400071D01*
X206405354Y-128400500D01*
X206594646Y-128400500D01*
X206779803Y-128361144D01*
X206952730Y-128284151D01*
X206952730Y-128284150D01*
X206952732Y-128284150D01*
X206952732Y-128284149D01*
X207105871Y-128172888D01*
X207232533Y-128032216D01*
X207273384Y-127961458D01*
X207324766Y-127912465D01*
X207394479Y-127899027D01*
X207401276Y-127900071D01*
X207405354Y-127900500D01*
X207594646Y-127900500D01*
X207779803Y-127861144D01*
X207952730Y-127784151D01*
X207952730Y-127784150D01*
X207952732Y-127784150D01*
X207952732Y-127784149D01*
X208105871Y-127672888D01*
X208143288Y-127631333D01*
X208232533Y-127532216D01*
X208232534Y-127532214D01*
X208251133Y-127500000D01*
X208327179Y-127368284D01*
X208385674Y-127188256D01*
X208405460Y-127000000D01*
X208385674Y-126811744D01*
X208381211Y-126798008D01*
X208327181Y-126631721D01*
X208327177Y-126631713D01*
X208296486Y-126578555D01*
X208277236Y-126545212D01*
X208232534Y-126467785D01*
X208232533Y-126467783D01*
X208105873Y-126327113D01*
X207952732Y-126215850D01*
X207952732Y-126215849D01*
X207827145Y-126159934D01*
X207779803Y-126138856D01*
X207779801Y-126138855D01*
X207779800Y-126138855D01*
X207594646Y-126099500D01*
X207405354Y-126099500D01*
X207220199Y-126138855D01*
X207047267Y-126215849D01*
X207047267Y-126215850D01*
X206894126Y-126327113D01*
X206767472Y-126467776D01*
X206767465Y-126467786D01*
X206726613Y-126538543D01*
X206675230Y-126587535D01*
X206605516Y-126600970D01*
X206598730Y-126599928D01*
X206594650Y-126599500D01*
X206594646Y-126599500D01*
X206405354Y-126599500D01*
X206220199Y-126638855D01*
X206047267Y-126715849D01*
X206047267Y-126715850D01*
X205894126Y-126827113D01*
X205767472Y-126967776D01*
X205767465Y-126967786D01*
X205726613Y-127038543D01*
X205675230Y-127087535D01*
X205605516Y-127100970D01*
X205598730Y-127099928D01*
X205594650Y-127099500D01*
X205594646Y-127099500D01*
X205405354Y-127099500D01*
X205220199Y-127138855D01*
X205047267Y-127215849D01*
X205047267Y-127215850D01*
X204894131Y-127327110D01*
X204894130Y-127327110D01*
X204890767Y-127330846D01*
X204830318Y-127368081D01*
X204759335Y-127366725D01*
X204723075Y-127348465D01*
X204653822Y-127298150D01*
X204653822Y-127298149D01*
X204528235Y-127242234D01*
X204480893Y-127221156D01*
X204480891Y-127221155D01*
X204480890Y-127221155D01*
X204385337Y-127200845D01*
X204322864Y-127167117D01*
X204288542Y-127104967D01*
X204291701Y-127038661D01*
X204291740Y-127038543D01*
X204318863Y-126955067D01*
X204338649Y-126766811D01*
X204318863Y-126578555D01*
X204313271Y-126561344D01*
X204260370Y-126398532D01*
X204260366Y-126398524D01*
X204260093Y-126398052D01*
X204197711Y-126290001D01*
X204165723Y-126234596D01*
X204165722Y-126234594D01*
X204039062Y-126093924D01*
X203885921Y-125982661D01*
X203885921Y-125982660D01*
X203718874Y-125908286D01*
X203712992Y-125905667D01*
X203712990Y-125905666D01*
X203712989Y-125905666D01*
X203527835Y-125866311D01*
X203338543Y-125866311D01*
X203153388Y-125905666D01*
X202980456Y-125982660D01*
X202980456Y-125982661D01*
X202827315Y-126093924D01*
X202700656Y-126234593D01*
X202684298Y-126262927D01*
X202632915Y-126311920D01*
X202563201Y-126325355D01*
X202501118Y-126301862D01*
X202382733Y-126215850D01*
X202382732Y-126215849D01*
X202257145Y-126159934D01*
X202209803Y-126138856D01*
X202209801Y-126138855D01*
X202209800Y-126138855D01*
X202024646Y-126099500D01*
X201835354Y-126099500D01*
X201650199Y-126138855D01*
X201477267Y-126215849D01*
X201477267Y-126215850D01*
X201324126Y-126327113D01*
X201197466Y-126467783D01*
X201197465Y-126467785D01*
X201102822Y-126631713D01*
X201102818Y-126631721D01*
X201044325Y-126811743D01*
X201024540Y-127000000D01*
X201044325Y-127188256D01*
X201102818Y-127368278D01*
X201102821Y-127368285D01*
X201149976Y-127449959D01*
X201197467Y-127532216D01*
X201271965Y-127614954D01*
X201272136Y-127615143D01*
X201302853Y-127679150D01*
X201304500Y-127699454D01*
X201304500Y-128158719D01*
X201284498Y-128226840D01*
X201267595Y-128247814D01*
X195557815Y-133957595D01*
X195495503Y-133991621D01*
X195468720Y-133994500D01*
X191540548Y-133994500D01*
X191472427Y-133974498D01*
X191443151Y-133948436D01*
X191410883Y-133909117D01*
X191410880Y-133909114D01*
X191258538Y-133784090D01*
X191084728Y-133691186D01*
X190896125Y-133633974D01*
X190700003Y-133614659D01*
X190699997Y-133614659D01*
X190503875Y-133633974D01*
X190503873Y-133633974D01*
X190315271Y-133691186D01*
X190141461Y-133784090D01*
X189989117Y-133909117D01*
X189864090Y-134061461D01*
X189771186Y-134235271D01*
X189713974Y-134423873D01*
X189713974Y-134423875D01*
X189694659Y-134619996D01*
X171450000Y-134619996D01*
X171450000Y-132079996D01*
X189694659Y-132079996D01*
X189694659Y-132080003D01*
X189713974Y-132276124D01*
X189713974Y-132276126D01*
X189771186Y-132464728D01*
X189834700Y-132583553D01*
X189864090Y-132638538D01*
X189989117Y-132790883D01*
X190141462Y-132915910D01*
X190315273Y-133008814D01*
X190503868Y-133066024D01*
X190503872Y-133066024D01*
X190503874Y-133066025D01*
X190699997Y-133085341D01*
X190700000Y-133085341D01*
X190700003Y-133085341D01*
X190896124Y-133066025D01*
X190896126Y-133066025D01*
X190896127Y-133066024D01*
X190896132Y-133066024D01*
X191084727Y-133008814D01*
X191258538Y-132915910D01*
X191410883Y-132790883D01*
X191535910Y-132638538D01*
X191628814Y-132464727D01*
X191686024Y-132276132D01*
X191686025Y-132276124D01*
X191705341Y-132080003D01*
X191705341Y-132079996D01*
X191686025Y-131883875D01*
X191686025Y-131883873D01*
X191686024Y-131883870D01*
X191686024Y-131883868D01*
X191628814Y-131695273D01*
X191535910Y-131521462D01*
X191410883Y-131369117D01*
X191258538Y-131244090D01*
X191084728Y-131151186D01*
X190896125Y-131093974D01*
X190700003Y-131074659D01*
X190699997Y-131074659D01*
X190503875Y-131093974D01*
X190503873Y-131093974D01*
X190315271Y-131151186D01*
X190141461Y-131244090D01*
X189989117Y-131369117D01*
X189864090Y-131521461D01*
X189771186Y-131695271D01*
X189713974Y-131883873D01*
X189713974Y-131883875D01*
X189694659Y-132079996D01*
X171450000Y-132079996D01*
X171450000Y-113030000D01*
X178164540Y-113030000D01*
X178184325Y-113218256D01*
X178242818Y-113398278D01*
X178242821Y-113398285D01*
X178282057Y-113466243D01*
X178337467Y-113562216D01*
X178357490Y-113584454D01*
X178412136Y-113645143D01*
X178442853Y-113709150D01*
X178444500Y-113729454D01*
X178444500Y-123371611D01*
X178453330Y-123416000D01*
X178468537Y-123492452D01*
X178473115Y-123503503D01*
X178482347Y-123525791D01*
X178482347Y-123525793D01*
X178515688Y-123606286D01*
X178533757Y-123633328D01*
X178533758Y-123633329D01*
X178584141Y-123708732D01*
X178584146Y-123708738D01*
X178675656Y-123800248D01*
X178675678Y-123800268D01*
X180360537Y-125485127D01*
X180394563Y-125547439D01*
X180396752Y-125561052D01*
X180414325Y-125728256D01*
X180472818Y-125908278D01*
X180472822Y-125908286D01*
X180567465Y-126072214D01*
X180567466Y-126072216D01*
X180694126Y-126212886D01*
X180847267Y-126324149D01*
X180847267Y-126324150D01*
X180894515Y-126345186D01*
X181020197Y-126401144D01*
X181205354Y-126440500D01*
X181394646Y-126440500D01*
X181579803Y-126401144D01*
X181752730Y-126324151D01*
X181834745Y-126264564D01*
X181901613Y-126240705D01*
X181908806Y-126240500D01*
X182050535Y-126240500D01*
X182118656Y-126260502D01*
X182157776Y-126300353D01*
X182232288Y-126421156D01*
X182232293Y-126421162D01*
X182356337Y-126545206D01*
X182356343Y-126545211D01*
X182356344Y-126545212D01*
X182410400Y-126578554D01*
X182505665Y-126637314D01*
X182672196Y-126692497D01*
X182672197Y-126692497D01*
X182672203Y-126692499D01*
X182774991Y-126703000D01*
X183825008Y-126702999D01*
X183825009Y-126702999D01*
X183927797Y-126692499D01*
X184094334Y-126637314D01*
X184105381Y-126630500D01*
X184243656Y-126545212D01*
X184243662Y-126545206D01*
X184249414Y-126540659D01*
X184250230Y-126541692D01*
X184305806Y-126511339D01*
X184376622Y-126516397D01*
X184421695Y-126545361D01*
X184442898Y-126566564D01*
X184462337Y-126578554D01*
X184592219Y-126658666D01*
X184758750Y-126713849D01*
X184758751Y-126713849D01*
X184758757Y-126713851D01*
X184861545Y-126724352D01*
X185203654Y-126724351D01*
X185271773Y-126744353D01*
X185318266Y-126798008D01*
X185328371Y-126868282D01*
X185298878Y-126932863D01*
X185297291Y-126934660D01*
X185267464Y-126967787D01*
X185172822Y-127131713D01*
X185172818Y-127131721D01*
X185114325Y-127311743D01*
X185094540Y-127500000D01*
X185114325Y-127688256D01*
X185172818Y-127868278D01*
X185172822Y-127868286D01*
X185267465Y-128032214D01*
X185267466Y-128032216D01*
X185394126Y-128172886D01*
X185547267Y-128284149D01*
X185547267Y-128284150D01*
X185594612Y-128305229D01*
X185720197Y-128361144D01*
X185905354Y-128400500D01*
X186094646Y-128400500D01*
X186279803Y-128361144D01*
X186452730Y-128284151D01*
X186452730Y-128284150D01*
X186452732Y-128284150D01*
X186452732Y-128284149D01*
X186605871Y-128172888D01*
X186732533Y-128032216D01*
X186827179Y-127868284D01*
X186885674Y-127688256D01*
X186905460Y-127500000D01*
X186885674Y-127311744D01*
X186856240Y-127221155D01*
X186827181Y-127131721D01*
X186827177Y-127131713D01*
X186813964Y-127108828D01*
X186745633Y-126990474D01*
X186732534Y-126967785D01*
X186732533Y-126967783D01*
X186605873Y-126827113D01*
X186452732Y-126715850D01*
X186452729Y-126715848D01*
X186432141Y-126706682D01*
X186378045Y-126660703D01*
X186357395Y-126592776D01*
X186376747Y-126524468D01*
X186394290Y-126502483D01*
X186454266Y-126442508D01*
X186454268Y-126442503D01*
X186458818Y-126436751D01*
X186460598Y-126438158D01*
X186505165Y-126398052D01*
X186575237Y-126386630D01*
X186633712Y-126409726D01*
X186657750Y-126427190D01*
X186657750Y-126427191D01*
X186692153Y-126442508D01*
X186830680Y-126504185D01*
X187015837Y-126543541D01*
X187205129Y-126543541D01*
X187390286Y-126504185D01*
X187563213Y-126427192D01*
X187563213Y-126427191D01*
X187563215Y-126427191D01*
X187563215Y-126427190D01*
X187716354Y-126315929D01*
X187756058Y-126271834D01*
X187843016Y-126175257D01*
X187843017Y-126175255D01*
X187937662Y-126011325D01*
X187996157Y-125831297D01*
X188015943Y-125643041D01*
X188001164Y-125502424D01*
X188013936Y-125432586D01*
X188062439Y-125380739D01*
X188131271Y-125363345D01*
X188198581Y-125385927D01*
X188215569Y-125400159D01*
X188370295Y-125554885D01*
X188404321Y-125617197D01*
X188399256Y-125688012D01*
X188385965Y-125713982D01*
X188366930Y-125742469D01*
X188366926Y-125742475D01*
X188337944Y-125812449D01*
X188337943Y-125812451D01*
X188319778Y-125856302D01*
X188319775Y-125856311D01*
X188295739Y-125977149D01*
X188295739Y-127822848D01*
X188319776Y-127943690D01*
X188319779Y-127943699D01*
X188366926Y-128057524D01*
X188383479Y-128082295D01*
X188383480Y-128082300D01*
X188383482Y-128082300D01*
X188435380Y-128159971D01*
X188435385Y-128159977D01*
X188526895Y-128251487D01*
X188526917Y-128251507D01*
X189663346Y-129387936D01*
X189697372Y-129450248D01*
X189699644Y-129489380D01*
X189694659Y-129539996D01*
X189694659Y-129540003D01*
X189713974Y-129736124D01*
X189713974Y-129736126D01*
X189771186Y-129924728D01*
X189787362Y-129954991D01*
X189864090Y-130098538D01*
X189989117Y-130250883D01*
X190141462Y-130375910D01*
X190315273Y-130468814D01*
X190503868Y-130526024D01*
X190503872Y-130526024D01*
X190503874Y-130526025D01*
X190699997Y-130545341D01*
X190700000Y-130545341D01*
X190700003Y-130545341D01*
X190896124Y-130526025D01*
X190896126Y-130526025D01*
X190896127Y-130526024D01*
X190896132Y-130526024D01*
X191084727Y-130468814D01*
X191258538Y-130375910D01*
X191410883Y-130250883D01*
X191535910Y-130098538D01*
X191628814Y-129924727D01*
X191686024Y-129736132D01*
X191690974Y-129685877D01*
X191705341Y-129540003D01*
X191705341Y-129539996D01*
X191686025Y-129343875D01*
X191686025Y-129343873D01*
X191686024Y-129343870D01*
X191686024Y-129343868D01*
X191628814Y-129155273D01*
X191535910Y-128981462D01*
X191410883Y-128829117D01*
X191258538Y-128704090D01*
X191084728Y-128611186D01*
X190896125Y-128553974D01*
X190700003Y-128534659D01*
X190699997Y-128534659D01*
X190649380Y-128539644D01*
X190579627Y-128526415D01*
X190547936Y-128503346D01*
X189583644Y-127539054D01*
X189562318Y-127500000D01*
X198094540Y-127500000D01*
X198114325Y-127688256D01*
X198172818Y-127868278D01*
X198172822Y-127868286D01*
X198267465Y-128032214D01*
X198267466Y-128032216D01*
X198394126Y-128172886D01*
X198547267Y-128284149D01*
X198547267Y-128284150D01*
X198594612Y-128305229D01*
X198720197Y-128361144D01*
X198905354Y-128400500D01*
X199094646Y-128400500D01*
X199279803Y-128361144D01*
X199452730Y-128284151D01*
X199452730Y-128284150D01*
X199452732Y-128284150D01*
X199452732Y-128284149D01*
X199605871Y-128172888D01*
X199732533Y-128032216D01*
X199827179Y-127868284D01*
X199885674Y-127688256D01*
X199905460Y-127500000D01*
X199885674Y-127311744D01*
X199856240Y-127221155D01*
X199827181Y-127131721D01*
X199827177Y-127131713D01*
X199813964Y-127108828D01*
X199745633Y-126990474D01*
X199732534Y-126967785D01*
X199732533Y-126967783D01*
X199605873Y-126827113D01*
X199452732Y-126715850D01*
X199452732Y-126715849D01*
X199324296Y-126658666D01*
X199279803Y-126638856D01*
X199279801Y-126638855D01*
X199279800Y-126638855D01*
X199094646Y-126599500D01*
X198905354Y-126599500D01*
X198720199Y-126638855D01*
X198547267Y-126715849D01*
X198547267Y-126715850D01*
X198394126Y-126827113D01*
X198267466Y-126967783D01*
X198267465Y-126967785D01*
X198172822Y-127131713D01*
X198172818Y-127131721D01*
X198114325Y-127311743D01*
X198094540Y-127500000D01*
X189562318Y-127500000D01*
X189549618Y-127476742D01*
X189546739Y-127449959D01*
X189546739Y-126350042D01*
X189566741Y-126281921D01*
X189583644Y-126260947D01*
X189692962Y-126151628D01*
X189815857Y-126028734D01*
X189815857Y-126028732D01*
X189823033Y-126021557D01*
X189823036Y-126021552D01*
X190447186Y-125397404D01*
X190509498Y-125363379D01*
X190536281Y-125360500D01*
X190594646Y-125360500D01*
X190779803Y-125321144D01*
X190952730Y-125244151D01*
X190952730Y-125244150D01*
X190952732Y-125244150D01*
X190952732Y-125244149D01*
X191105871Y-125132888D01*
X191232533Y-124992216D01*
X191327179Y-124828284D01*
X191333496Y-124808844D01*
X191385674Y-124648256D01*
X191388406Y-124622262D01*
X191405460Y-124460000D01*
X191385674Y-124271744D01*
X191385674Y-124271743D01*
X191327181Y-124091721D01*
X191327177Y-124091713D01*
X191317897Y-124075640D01*
X191274226Y-123999999D01*
X191232534Y-123927785D01*
X191232533Y-123927783D01*
X191180124Y-123869577D01*
X191149406Y-123805570D01*
X191158171Y-123735116D01*
X191203634Y-123680585D01*
X191207571Y-123678052D01*
X191248656Y-123652712D01*
X191372712Y-123528656D01*
X191419623Y-123452599D01*
X191472405Y-123405124D01*
X191542480Y-123393720D01*
X191593009Y-123411507D01*
X191635665Y-123437818D01*
X191802196Y-123493001D01*
X191802197Y-123493001D01*
X191802203Y-123493003D01*
X191904991Y-123503504D01*
X192955008Y-123503503D01*
X192955009Y-123503503D01*
X193057797Y-123493003D01*
X193224334Y-123437818D01*
X193227645Y-123435776D01*
X193372786Y-123346252D01*
X193441263Y-123327516D01*
X193504721Y-123347431D01*
X193505327Y-123346450D01*
X193511571Y-123350301D01*
X193511573Y-123350303D01*
X193546111Y-123371606D01*
X193660894Y-123442405D01*
X193827425Y-123497588D01*
X193827426Y-123497588D01*
X193827432Y-123497590D01*
X193930220Y-123508091D01*
X194539564Y-123508090D01*
X194607685Y-123528092D01*
X194654178Y-123581748D01*
X194664282Y-123652021D01*
X194659397Y-123673026D01*
X194614325Y-123811742D01*
X194594540Y-124000000D01*
X194614325Y-124188256D01*
X194672818Y-124368278D01*
X194672822Y-124368286D01*
X194767465Y-124532214D01*
X194767466Y-124532216D01*
X194894126Y-124672886D01*
X195047267Y-124784149D01*
X195047267Y-124784150D01*
X195064016Y-124791607D01*
X195220197Y-124861144D01*
X195405354Y-124900500D01*
X195594646Y-124900500D01*
X195779803Y-124861144D01*
X195925931Y-124796082D01*
X195996296Y-124786648D01*
X196060593Y-124816754D01*
X196098407Y-124876842D01*
X196102489Y-124924357D01*
X196095358Y-124992214D01*
X196094540Y-125000000D01*
X196095973Y-125013632D01*
X196114325Y-125188256D01*
X196172818Y-125368278D01*
X196172822Y-125368286D01*
X196267465Y-125532214D01*
X196267466Y-125532216D01*
X196394126Y-125672886D01*
X196547267Y-125784149D01*
X196547267Y-125784150D01*
X196588278Y-125802409D01*
X196720197Y-125861144D01*
X196905354Y-125900500D01*
X197094646Y-125900500D01*
X197279803Y-125861144D01*
X197452730Y-125784151D01*
X197452730Y-125784150D01*
X197452732Y-125784150D01*
X197452732Y-125784149D01*
X197605871Y-125672888D01*
X197632746Y-125643041D01*
X197732533Y-125532216D01*
X197732534Y-125532214D01*
X197749733Y-125502424D01*
X197827179Y-125368284D01*
X197829312Y-125361721D01*
X197885674Y-125188256D01*
X197891930Y-125128733D01*
X197905460Y-125000000D01*
X197885674Y-124811744D01*
X197884732Y-124808844D01*
X197827181Y-124631721D01*
X197827177Y-124631713D01*
X197821723Y-124622267D01*
X197766721Y-124527000D01*
X197732534Y-124467785D01*
X197732533Y-124467783D01*
X197605873Y-124327113D01*
X197452732Y-124215850D01*
X197452732Y-124215849D01*
X197327145Y-124159934D01*
X197279803Y-124138856D01*
X197279801Y-124138855D01*
X197279800Y-124138855D01*
X197094646Y-124099500D01*
X196905354Y-124099500D01*
X196720199Y-124138855D01*
X196574069Y-124203917D01*
X196503702Y-124213351D01*
X196439405Y-124183245D01*
X196401591Y-124123156D01*
X196397510Y-124075640D01*
X196400031Y-124051655D01*
X196405460Y-124000000D01*
X196385674Y-123811744D01*
X196385674Y-123811743D01*
X196327181Y-123631721D01*
X196327177Y-123631713D01*
X196232534Y-123467785D01*
X196232533Y-123467783D01*
X196105873Y-123327113D01*
X196105874Y-123327113D01*
X195979295Y-123235148D01*
X195935941Y-123178925D01*
X195929866Y-123108189D01*
X195962998Y-123045397D01*
X196024818Y-123010486D01*
X196027095Y-123009979D01*
X196209803Y-122971144D01*
X196382730Y-122894151D01*
X196382730Y-122894150D01*
X196382732Y-122894150D01*
X196382732Y-122894149D01*
X196535871Y-122782888D01*
X196552720Y-122764176D01*
X196662533Y-122642216D01*
X196662534Y-122642214D01*
X196666302Y-122635688D01*
X196666712Y-122634978D01*
X198342501Y-122634978D01*
X198352993Y-122737691D01*
X198408142Y-122904122D01*
X198500183Y-123053344D01*
X198500188Y-123053350D01*
X198624149Y-123177311D01*
X198624155Y-123177316D01*
X198773377Y-123269357D01*
X198939808Y-123324506D01*
X199042512Y-123334999D01*
X199180000Y-123334999D01*
X199180000Y-122360000D01*
X198342501Y-122360000D01*
X198342501Y-122634978D01*
X196666712Y-122634978D01*
X196757179Y-122478284D01*
X196815674Y-122298256D01*
X196835460Y-122110000D01*
X196815674Y-121921744D01*
X196815674Y-121921743D01*
X196757181Y-121741721D01*
X196757177Y-121741713D01*
X196743688Y-121718350D01*
X196681133Y-121610000D01*
X196666706Y-121585012D01*
X198342500Y-121585012D01*
X198342500Y-121860000D01*
X199180000Y-121860000D01*
X199180000Y-120885000D01*
X199042521Y-120885000D01*
X198939808Y-120895493D01*
X198773377Y-120950642D01*
X198624155Y-121042683D01*
X198624149Y-121042688D01*
X198500188Y-121166649D01*
X198500183Y-121166655D01*
X198408142Y-121315877D01*
X198352993Y-121482308D01*
X198342500Y-121585012D01*
X196666706Y-121585012D01*
X196662535Y-121577787D01*
X196662534Y-121577786D01*
X196662533Y-121577784D01*
X196542352Y-121444310D01*
X196511636Y-121380303D01*
X196520400Y-121309849D01*
X196542353Y-121275689D01*
X196546831Y-121270716D01*
X196662533Y-121142216D01*
X196757179Y-120978284D01*
X196766161Y-120950642D01*
X196815674Y-120798256D01*
X196826096Y-120699094D01*
X196835460Y-120610000D01*
X196815674Y-120421744D01*
X196787394Y-120334707D01*
X196757181Y-120241721D01*
X196757177Y-120241713D01*
X196756848Y-120241144D01*
X196670593Y-120091744D01*
X196662534Y-120077785D01*
X196662533Y-120077783D01*
X196535873Y-119937113D01*
X196382732Y-119825850D01*
X196382732Y-119825849D01*
X196257145Y-119769934D01*
X196209803Y-119748856D01*
X196209801Y-119748855D01*
X196209800Y-119748855D01*
X196024646Y-119709500D01*
X195835354Y-119709500D01*
X195835353Y-119709500D01*
X195783656Y-119720488D01*
X195732879Y-119720820D01*
X195726703Y-119719591D01*
X195726698Y-119719591D01*
X195726697Y-119719591D01*
X195704694Y-119719591D01*
X195636573Y-119699589D01*
X195597453Y-119659738D01*
X195522940Y-119538934D01*
X195522935Y-119538928D01*
X195398891Y-119414884D01*
X195398885Y-119414879D01*
X195249563Y-119322776D01*
X195083032Y-119267593D01*
X195083020Y-119267591D01*
X194980246Y-119257091D01*
X193930219Y-119257091D01*
X193827431Y-119267591D01*
X193660892Y-119322777D01*
X193512443Y-119414341D01*
X193443964Y-119433078D01*
X193380508Y-119413162D01*
X193379902Y-119414145D01*
X193373657Y-119410293D01*
X193373656Y-119410292D01*
X193323734Y-119379500D01*
X193224334Y-119318189D01*
X193057803Y-119263006D01*
X193057791Y-119263004D01*
X192955017Y-119252504D01*
X191904990Y-119252504D01*
X191802202Y-119263004D01*
X191635665Y-119318189D01*
X191486343Y-119410292D01*
X191369011Y-119527624D01*
X191306699Y-119561649D01*
X191235883Y-119556583D01*
X191213770Y-119545769D01*
X191099335Y-119475186D01*
X191099337Y-119475186D01*
X190932803Y-119420002D01*
X190932791Y-119420000D01*
X190830017Y-119409500D01*
X190029990Y-119409500D01*
X189927202Y-119420000D01*
X189760665Y-119475185D01*
X189611343Y-119567288D01*
X189518741Y-119659890D01*
X189456429Y-119693915D01*
X189385613Y-119688849D01*
X189340551Y-119659889D01*
X189248350Y-119567688D01*
X189248344Y-119567683D01*
X189099122Y-119475642D01*
X188932691Y-119420493D01*
X188829987Y-119410000D01*
X188680000Y-119410000D01*
X188680000Y-120734000D01*
X188659998Y-120802121D01*
X188606342Y-120848614D01*
X188554000Y-120860000D01*
X187330001Y-120860000D01*
X187330001Y-121109978D01*
X187340493Y-121212691D01*
X187395642Y-121379122D01*
X187487683Y-121528344D01*
X187490136Y-121531446D01*
X187491155Y-121533972D01*
X187491536Y-121534590D01*
X187491430Y-121534655D01*
X187516696Y-121597287D01*
X187503443Y-121667036D01*
X187490137Y-121687740D01*
X187487291Y-121691338D01*
X187395185Y-121840665D01*
X187340002Y-122007196D01*
X187340000Y-122007208D01*
X187329500Y-122109982D01*
X187329500Y-123110009D01*
X187340000Y-123212797D01*
X187395185Y-123379334D01*
X187487288Y-123528656D01*
X187487293Y-123528662D01*
X187611337Y-123652706D01*
X187611341Y-123652709D01*
X187611344Y-123652712D01*
X187652383Y-123678025D01*
X187744646Y-123734933D01*
X187792125Y-123787719D01*
X187804500Y-123842174D01*
X187804500Y-124786905D01*
X187784498Y-124855026D01*
X187730842Y-124901519D01*
X187660568Y-124911623D01*
X187604440Y-124888842D01*
X187563214Y-124858890D01*
X187563215Y-124858890D01*
X187419906Y-124795085D01*
X187390286Y-124781897D01*
X187390284Y-124781896D01*
X187390283Y-124781896D01*
X187205129Y-124742541D01*
X187015837Y-124742541D01*
X186830682Y-124781896D01*
X186657751Y-124858890D01*
X186657748Y-124858892D01*
X186639407Y-124872218D01*
X186572539Y-124896075D01*
X186503388Y-124879992D01*
X186458106Y-124836422D01*
X186454266Y-124830196D01*
X186454260Y-124830189D01*
X186330216Y-124706145D01*
X186330207Y-124706138D01*
X186330134Y-124706093D01*
X186330094Y-124706048D01*
X186324455Y-124701590D01*
X186325216Y-124700626D01*
X186282655Y-124653308D01*
X186271252Y-124583233D01*
X186299544Y-124518117D01*
X186324651Y-124496361D01*
X186324455Y-124496114D01*
X186329965Y-124491757D01*
X186330134Y-124491611D01*
X186330143Y-124491605D01*
X186330210Y-124491564D01*
X186454266Y-124367508D01*
X186546368Y-124218186D01*
X186601553Y-124051649D01*
X186612054Y-123948861D01*
X186612053Y-123173844D01*
X186603817Y-123093223D01*
X186601553Y-123071054D01*
X186546368Y-122904517D01*
X186476516Y-122791269D01*
X186454266Y-122755196D01*
X186454265Y-122755195D01*
X186454260Y-122755189D01*
X186330216Y-122631145D01*
X186330210Y-122631140D01*
X186261139Y-122588537D01*
X186257850Y-122586508D01*
X186210373Y-122533723D01*
X186198970Y-122463648D01*
X186227262Y-122398533D01*
X186274881Y-122366323D01*
X186273771Y-122363829D01*
X186279800Y-122361144D01*
X186279803Y-122361144D01*
X186452730Y-122284151D01*
X186452730Y-122284150D01*
X186452732Y-122284150D01*
X186452732Y-122284149D01*
X186605871Y-122172888D01*
X186732533Y-122032216D01*
X186827179Y-121868284D01*
X186885674Y-121688256D01*
X186905460Y-121500000D01*
X186885674Y-121311744D01*
X186885674Y-121311743D01*
X186827181Y-121131721D01*
X186827177Y-121131713D01*
X186823301Y-121125000D01*
X186756175Y-121008733D01*
X186732534Y-120967785D01*
X186732533Y-120967783D01*
X186605873Y-120827113D01*
X186452732Y-120715850D01*
X186452732Y-120715849D01*
X186327145Y-120659934D01*
X186279803Y-120638856D01*
X186279801Y-120638855D01*
X186279800Y-120638855D01*
X186094646Y-120599500D01*
X185905354Y-120599500D01*
X185720199Y-120638855D01*
X185547267Y-120715849D01*
X185547267Y-120715850D01*
X185394126Y-120827113D01*
X185267466Y-120967783D01*
X185267465Y-120967785D01*
X185172822Y-121131713D01*
X185172818Y-121131721D01*
X185114325Y-121311743D01*
X185094540Y-121500000D01*
X185114325Y-121688256D01*
X185172818Y-121868278D01*
X185172822Y-121868286D01*
X185267465Y-122032214D01*
X185267466Y-122032216D01*
X185394126Y-122172886D01*
X185493955Y-122245416D01*
X185537309Y-122301638D01*
X185543384Y-122372374D01*
X185510253Y-122435166D01*
X185448433Y-122470077D01*
X185419894Y-122473352D01*
X185235335Y-122473352D01*
X185167214Y-122453350D01*
X185146240Y-122436447D01*
X182819804Y-120110012D01*
X187330000Y-120110012D01*
X187330000Y-120360000D01*
X188180000Y-120360000D01*
X188180000Y-119410000D01*
X188030021Y-119410000D01*
X187927308Y-119420493D01*
X187760877Y-119475642D01*
X187611655Y-119567683D01*
X187611649Y-119567688D01*
X187487688Y-119691649D01*
X187487683Y-119691655D01*
X187395642Y-119840877D01*
X187340493Y-120007308D01*
X187330000Y-120110012D01*
X182819804Y-120110012D01*
X182598248Y-119888456D01*
X182598236Y-119888442D01*
X182503940Y-119794146D01*
X182503934Y-119794141D01*
X182436160Y-119748856D01*
X182435304Y-119748284D01*
X182435295Y-119748278D01*
X182401485Y-119725686D01*
X182320994Y-119692347D01*
X182320992Y-119692345D01*
X182320992Y-119692346D01*
X182287661Y-119678539D01*
X182287655Y-119678537D01*
X182257442Y-119672527D01*
X182227231Y-119666518D01*
X182227230Y-119666517D01*
X182166813Y-119654500D01*
X182166809Y-119654500D01*
X182166808Y-119654500D01*
X181714639Y-119654500D01*
X181646518Y-119634498D01*
X181621004Y-119612812D01*
X181615872Y-119607112D01*
X181462732Y-119495850D01*
X181462732Y-119495849D01*
X181321746Y-119433078D01*
X181289803Y-119418856D01*
X181289801Y-119418855D01*
X181289800Y-119418855D01*
X181104646Y-119379500D01*
X180915354Y-119379500D01*
X180730199Y-119418855D01*
X180557267Y-119495849D01*
X180557267Y-119495850D01*
X180404126Y-119607113D01*
X180277466Y-119747783D01*
X180277465Y-119747785D01*
X180182822Y-119911713D01*
X180182818Y-119911721D01*
X180124325Y-120091743D01*
X180104540Y-120280000D01*
X180124325Y-120468256D01*
X180182818Y-120648278D01*
X180182822Y-120648286D01*
X180277465Y-120812214D01*
X180277466Y-120812216D01*
X180404126Y-120952886D01*
X180557267Y-121064149D01*
X180557267Y-121064150D01*
X180604612Y-121085229D01*
X180730197Y-121141144D01*
X180915354Y-121180500D01*
X181104646Y-121180500D01*
X181289803Y-121141144D01*
X181462730Y-121064151D01*
X181462730Y-121064150D01*
X181462732Y-121064150D01*
X181462732Y-121064149D01*
X181615871Y-120952888D01*
X181615873Y-120952886D01*
X181621004Y-120947188D01*
X181681451Y-120909949D01*
X181714639Y-120905500D01*
X181793922Y-120905500D01*
X181862043Y-120925502D01*
X181883017Y-120942405D01*
X183178017Y-122237405D01*
X183212043Y-122299717D01*
X183206978Y-122370532D01*
X183164431Y-122427368D01*
X183097911Y-122452179D01*
X183088922Y-122452500D01*
X182775021Y-122452500D01*
X182672308Y-122462993D01*
X182505877Y-122518142D01*
X182356655Y-122610183D01*
X182356649Y-122610188D01*
X182232688Y-122734149D01*
X182232683Y-122734155D01*
X182140642Y-122883377D01*
X182085493Y-123049808D01*
X182075000Y-123152512D01*
X182075000Y-123290000D01*
X183424000Y-123290000D01*
X183492121Y-123310002D01*
X183538614Y-123363658D01*
X183550000Y-123416000D01*
X183550000Y-123664000D01*
X183529998Y-123732121D01*
X183476342Y-123778614D01*
X183424000Y-123790000D01*
X182075001Y-123790000D01*
X182075001Y-123927478D01*
X182085493Y-124030191D01*
X182140642Y-124196622D01*
X182232683Y-124345844D01*
X182232688Y-124345850D01*
X182356649Y-124469811D01*
X182356659Y-124469819D01*
X182356894Y-124469964D01*
X182357021Y-124470105D01*
X182362411Y-124474367D01*
X182361682Y-124475287D01*
X182404374Y-124522748D01*
X182415778Y-124592823D01*
X182387488Y-124657939D01*
X182361959Y-124680060D01*
X182362099Y-124680238D01*
X182358167Y-124683346D01*
X182356901Y-124684444D01*
X182356348Y-124684785D01*
X182356337Y-124684793D01*
X182232293Y-124808837D01*
X182232288Y-124808843D01*
X182166571Y-124915388D01*
X182113785Y-124962866D01*
X182043710Y-124974269D01*
X181978594Y-124945976D01*
X181965694Y-124933551D01*
X181905873Y-124867113D01*
X181752732Y-124755850D01*
X181752732Y-124755849D01*
X181594220Y-124685275D01*
X181579803Y-124678856D01*
X181579801Y-124678855D01*
X181579800Y-124678855D01*
X181394646Y-124639500D01*
X181336280Y-124639500D01*
X181268159Y-124619498D01*
X181247185Y-124602595D01*
X179732405Y-123087815D01*
X179698379Y-123025503D01*
X179695500Y-122998720D01*
X179695500Y-119000000D01*
X190000000Y-119000000D01*
X196000000Y-119000000D01*
X196000000Y-116084982D01*
X197304500Y-116084982D01*
X197304500Y-117135009D01*
X197315000Y-117237797D01*
X197370185Y-117404334D01*
X197462288Y-117553656D01*
X197462293Y-117553662D01*
X197586337Y-117677706D01*
X197586343Y-117677711D01*
X197586344Y-117677712D01*
X197612090Y-117693592D01*
X197735665Y-117769814D01*
X197902196Y-117824997D01*
X197902197Y-117824997D01*
X197902203Y-117824999D01*
X198004991Y-117835500D01*
X198681219Y-117835499D01*
X198749340Y-117855501D01*
X198770314Y-117872404D01*
X199767595Y-118869685D01*
X199801621Y-118931997D01*
X199804500Y-118958780D01*
X199804500Y-120671608D01*
X199810742Y-120702986D01*
X199813300Y-120715850D01*
X199816994Y-120734418D01*
X199810666Y-120805132D01*
X199767112Y-120861200D01*
X199700159Y-120884819D01*
X199693415Y-120885000D01*
X199680000Y-120885000D01*
X199680000Y-123334999D01*
X199817478Y-123334999D01*
X199875095Y-123329113D01*
X199944896Y-123342089D01*
X199996601Y-123390742D01*
X200013210Y-123441291D01*
X200032551Y-123625320D01*
X200091044Y-123805342D01*
X200091048Y-123805350D01*
X200185691Y-123969278D01*
X200185692Y-123969280D01*
X200312352Y-124109950D01*
X200465493Y-124221213D01*
X200465493Y-124221214D01*
X200512838Y-124242293D01*
X200638423Y-124298208D01*
X200823580Y-124337564D01*
X201012872Y-124337564D01*
X201198029Y-124298208D01*
X201370956Y-124221215D01*
X201370956Y-124221214D01*
X201370958Y-124221214D01*
X201370958Y-124221213D01*
X201524097Y-124109952D01*
X201576594Y-124051649D01*
X201650759Y-123969280D01*
X201650760Y-123969278D01*
X201662548Y-123948860D01*
X201745405Y-123805348D01*
X201803900Y-123625320D01*
X201821473Y-123458113D01*
X201848486Y-123392458D01*
X201857679Y-123382199D01*
X201874034Y-123365844D01*
X201936344Y-123331820D01*
X201950321Y-123329593D01*
X201995297Y-123324999D01*
X202161834Y-123269814D01*
X202311156Y-123177712D01*
X202435212Y-123053656D01*
X202527314Y-122904334D01*
X202582499Y-122737797D01*
X202593000Y-122635009D01*
X202593000Y-122531006D01*
X204023036Y-122531006D01*
X204033528Y-122633719D01*
X204088677Y-122800150D01*
X204180718Y-122949372D01*
X204180723Y-122949378D01*
X204304684Y-123073339D01*
X204304690Y-123073344D01*
X204453912Y-123165385D01*
X204620343Y-123220534D01*
X204723047Y-123231027D01*
X204860535Y-123231027D01*
X204860535Y-122256028D01*
X204023036Y-122256028D01*
X204023036Y-122531006D01*
X202593000Y-122531006D01*
X202592999Y-121584992D01*
X202592325Y-121578397D01*
X202582499Y-121482202D01*
X202555635Y-121401133D01*
X202553194Y-121330179D01*
X202589502Y-121269168D01*
X202653031Y-121237473D01*
X202675239Y-121235500D01*
X203908593Y-121235500D01*
X203976714Y-121255502D01*
X204023207Y-121309158D01*
X204033940Y-121374307D01*
X204023035Y-121481040D01*
X204023035Y-121756028D01*
X205234535Y-121756028D01*
X205302656Y-121776030D01*
X205349149Y-121829686D01*
X205360535Y-121882028D01*
X205360535Y-123231027D01*
X205498013Y-123231027D01*
X205600726Y-123220534D01*
X205767160Y-123165384D01*
X205853772Y-123111961D01*
X205922251Y-123093223D01*
X205989990Y-123114482D01*
X206035482Y-123168989D01*
X206044283Y-123239438D01*
X206039755Y-123258129D01*
X206038296Y-123262617D01*
X206018511Y-123450875D01*
X206038296Y-123639131D01*
X206096789Y-123819153D01*
X206096793Y-123819161D01*
X206191436Y-123983089D01*
X206191437Y-123983091D01*
X206318097Y-124123761D01*
X206471238Y-124235024D01*
X206471238Y-124235025D01*
X206518583Y-124256104D01*
X206644168Y-124312019D01*
X206829325Y-124351375D01*
X207018617Y-124351375D01*
X207203774Y-124312019D01*
X207376701Y-124235026D01*
X207376701Y-124235025D01*
X207376703Y-124235025D01*
X207376703Y-124235024D01*
X207529842Y-124123763D01*
X207656504Y-123983091D01*
X207751150Y-123819159D01*
X207755638Y-123805348D01*
X207809645Y-123639131D01*
X207810425Y-123631713D01*
X207829431Y-123450875D01*
X207810368Y-123269498D01*
X207823140Y-123199660D01*
X207869530Y-123149088D01*
X207991691Y-123073740D01*
X208115747Y-122949684D01*
X208207849Y-122800362D01*
X208263034Y-122633825D01*
X208273535Y-122531037D01*
X208273534Y-121481020D01*
X208273068Y-121476462D01*
X208263034Y-121378230D01*
X208207849Y-121211693D01*
X208134410Y-121092630D01*
X208115747Y-121062372D01*
X208115746Y-121062371D01*
X208115741Y-121062365D01*
X207991697Y-120938321D01*
X207991691Y-120938316D01*
X207842369Y-120846213D01*
X207675838Y-120791030D01*
X207675826Y-120791028D01*
X207573052Y-120780528D01*
X207573044Y-120780528D01*
X206896817Y-120780528D01*
X206828696Y-120760526D01*
X206807722Y-120743623D01*
X206763193Y-120699094D01*
X206729167Y-120636782D01*
X206734232Y-120565967D01*
X206763190Y-120520906D01*
X207030857Y-120253241D01*
X207043008Y-120235057D01*
X207099311Y-120150793D01*
X207146463Y-120036959D01*
X207157054Y-119983714D01*
X207170500Y-119916114D01*
X207170500Y-119792901D01*
X207170500Y-119359464D01*
X207190502Y-119291343D01*
X207230354Y-119252223D01*
X207267213Y-119229488D01*
X207351156Y-119177712D01*
X207475212Y-119053656D01*
X207567314Y-118904334D01*
X207622499Y-118737797D01*
X207633000Y-118635009D01*
X207632999Y-117584992D01*
X207624776Y-117504498D01*
X207622499Y-117482202D01*
X207567314Y-117315665D01*
X207504839Y-117214377D01*
X207475212Y-117166344D01*
X207475211Y-117166343D01*
X207475206Y-117166337D01*
X207351162Y-117042293D01*
X207351153Y-117042286D01*
X207230354Y-116967777D01*
X207182875Y-116914991D01*
X207170500Y-116860536D01*
X207170500Y-116346280D01*
X207190502Y-116278159D01*
X207207405Y-116257185D01*
X207260055Y-116204535D01*
X207322367Y-116170509D01*
X207349150Y-116167630D01*
X207401962Y-116167630D01*
X207426999Y-116171341D01*
X207427216Y-116170255D01*
X207433287Y-116171462D01*
X207433288Y-116171463D01*
X207492959Y-116183332D01*
X207554133Y-116195500D01*
X207554134Y-116195500D01*
X210550325Y-116195500D01*
X210618446Y-116215502D01*
X210664939Y-116269158D01*
X210675043Y-116339432D01*
X210645549Y-116404012D01*
X210601576Y-116436605D01*
X210539286Y-116464338D01*
X210431187Y-116512467D01*
X210431187Y-116512468D01*
X210278046Y-116623731D01*
X210151386Y-116764401D01*
X210151385Y-116764403D01*
X210056742Y-116928331D01*
X210056738Y-116928339D01*
X209998245Y-117108361D01*
X209978460Y-117296618D01*
X209998245Y-117484874D01*
X210056738Y-117664896D01*
X210056742Y-117664904D01*
X210151385Y-117828832D01*
X210151386Y-117828834D01*
X210278046Y-117969504D01*
X210431187Y-118080767D01*
X210431187Y-118080768D01*
X210478532Y-118101847D01*
X210604117Y-118157762D01*
X210789274Y-118197118D01*
X210978566Y-118197118D01*
X211163723Y-118157762D01*
X211287251Y-118102762D01*
X211357617Y-118093328D01*
X211421915Y-118123434D01*
X211459728Y-118183522D01*
X211464500Y-118217869D01*
X211464500Y-118527065D01*
X211444498Y-118595186D01*
X211390842Y-118641679D01*
X211320568Y-118651783D01*
X211287256Y-118642174D01*
X211279803Y-118638856D01*
X211094646Y-118599500D01*
X210905354Y-118599500D01*
X210720199Y-118638855D01*
X210547267Y-118715849D01*
X210547267Y-118715850D01*
X210394126Y-118827113D01*
X210267466Y-118967783D01*
X210267465Y-118967785D01*
X210172822Y-119131713D01*
X210172818Y-119131721D01*
X210114325Y-119311743D01*
X210094540Y-119500000D01*
X210114325Y-119688256D01*
X210172818Y-119868278D01*
X210172821Y-119868285D01*
X210191130Y-119899996D01*
X210207868Y-119968991D01*
X210184648Y-120036083D01*
X210175648Y-120047306D01*
X210064478Y-120170773D01*
X209969836Y-120334699D01*
X209969832Y-120334707D01*
X209911339Y-120514729D01*
X209891554Y-120702986D01*
X209911339Y-120891242D01*
X209969832Y-121071264D01*
X209969836Y-121071272D01*
X210064479Y-121235200D01*
X210064480Y-121235202D01*
X210191140Y-121375872D01*
X210344281Y-121487135D01*
X210344281Y-121487136D01*
X210373174Y-121500000D01*
X210517211Y-121564130D01*
X210702368Y-121603486D01*
X210891660Y-121603486D01*
X211076817Y-121564130D01*
X211249744Y-121487137D01*
X211249744Y-121487136D01*
X211249746Y-121487136D01*
X211249748Y-121487134D01*
X211264438Y-121476462D01*
X211331306Y-121452603D01*
X211400457Y-121468682D01*
X211449938Y-121519596D01*
X211464500Y-121578397D01*
X211464500Y-125030544D01*
X211444498Y-125098665D01*
X211432137Y-125114854D01*
X211357464Y-125197787D01*
X211262822Y-125361713D01*
X211262818Y-125361721D01*
X211204325Y-125541743D01*
X211184540Y-125730000D01*
X211204325Y-125918256D01*
X211262818Y-126098278D01*
X211262822Y-126098286D01*
X211357465Y-126262214D01*
X211357466Y-126262216D01*
X211484126Y-126402886D01*
X211637267Y-126514149D01*
X211637267Y-126514150D01*
X211660442Y-126524468D01*
X211810197Y-126591144D01*
X211995354Y-126630500D01*
X212184646Y-126630500D01*
X212369803Y-126591144D01*
X212542730Y-126514151D01*
X212542730Y-126514150D01*
X212542732Y-126514150D01*
X212542732Y-126514149D01*
X212695871Y-126402888D01*
X212697442Y-126401144D01*
X212822533Y-126262216D01*
X212822534Y-126262214D01*
X212917179Y-126098284D01*
X212975674Y-125918256D01*
X212995460Y-125730000D01*
X212975674Y-125541744D01*
X212975674Y-125541743D01*
X212917181Y-125361721D01*
X212917177Y-125361713D01*
X212822535Y-125197787D01*
X212822534Y-125197786D01*
X212822533Y-125197784D01*
X212783092Y-125153980D01*
X212747863Y-125114854D01*
X212717146Y-125050846D01*
X212715500Y-125030544D01*
X212715500Y-123941500D01*
X212735502Y-123873379D01*
X212789158Y-123826886D01*
X212841500Y-123815500D01*
X214568394Y-123815500D01*
X219463719Y-123815500D01*
X219531840Y-123835502D01*
X219552815Y-123852405D01*
X219815216Y-124114807D01*
X219849241Y-124177119D01*
X219844176Y-124247935D01*
X219801629Y-124304770D01*
X219767033Y-124323075D01*
X219685190Y-124351172D01*
X219466491Y-124469525D01*
X219466490Y-124469526D01*
X219270249Y-124622267D01*
X219101835Y-124805214D01*
X218965826Y-125013393D01*
X218865938Y-125241115D01*
X218865935Y-125241122D01*
X218804893Y-125482171D01*
X218804892Y-125482177D01*
X218804892Y-125482179D01*
X218784357Y-125730000D01*
X218804836Y-125977149D01*
X218804893Y-125977828D01*
X218865935Y-126218877D01*
X218865938Y-126218884D01*
X218965826Y-126446606D01*
X219101835Y-126654785D01*
X219270249Y-126837732D01*
X219270254Y-126837736D01*
X219270256Y-126837738D01*
X219466490Y-126990473D01*
X219466491Y-126990474D01*
X219685190Y-127108828D01*
X219685192Y-127108829D01*
X219772658Y-127138856D01*
X219920386Y-127189571D01*
X220165665Y-127230500D01*
X220165669Y-127230500D01*
X220401000Y-127230500D01*
X220469121Y-127250502D01*
X220515614Y-127304158D01*
X220527000Y-127356500D01*
X220527000Y-127980009D01*
X220537500Y-128082797D01*
X220592685Y-128249334D01*
X220684788Y-128398656D01*
X220684793Y-128398662D01*
X220808839Y-128522708D01*
X220808843Y-128522711D01*
X220808844Y-128522712D01*
X220854646Y-128550962D01*
X220902124Y-128603746D01*
X220914500Y-128658203D01*
X220914500Y-129193965D01*
X220894498Y-129262086D01*
X220840842Y-129308579D01*
X220828134Y-129313569D01*
X220808166Y-129320185D01*
X220808165Y-129320186D01*
X220658846Y-129412286D01*
X220658837Y-129412293D01*
X220534793Y-129536337D01*
X220534788Y-129536343D01*
X220442685Y-129685665D01*
X220387502Y-129852196D01*
X220387500Y-129852208D01*
X220377000Y-129954982D01*
X220377001Y-130603500D01*
X220356999Y-130671621D01*
X220303343Y-130718114D01*
X220251001Y-130729500D01*
X220165665Y-130729500D01*
X220001953Y-130756818D01*
X219920390Y-130770428D01*
X219920381Y-130770430D01*
X219685192Y-130851170D01*
X219685190Y-130851171D01*
X219466491Y-130969525D01*
X219466490Y-130969526D01*
X219270249Y-131122267D01*
X219101835Y-131305214D01*
X218965826Y-131513393D01*
X218865938Y-131741115D01*
X218865935Y-131741122D01*
X218804893Y-131982171D01*
X218804892Y-131982177D01*
X218804892Y-131982179D01*
X218796786Y-132080003D01*
X218784357Y-132230000D01*
X218804893Y-132477828D01*
X218865935Y-132718877D01*
X218865938Y-132718884D01*
X218965826Y-132946606D01*
X219101835Y-133154785D01*
X219270249Y-133337732D01*
X219270254Y-133337736D01*
X219270256Y-133337738D01*
X219465953Y-133490055D01*
X219466490Y-133490473D01*
X219466491Y-133490474D01*
X219685190Y-133608828D01*
X219685192Y-133608829D01*
X219808677Y-133651221D01*
X219920386Y-133689571D01*
X220165665Y-133730500D01*
X220165669Y-133730500D01*
X220414331Y-133730500D01*
X220414335Y-133730500D01*
X220659614Y-133689571D01*
X220894810Y-133608828D01*
X221113509Y-133490474D01*
X221309744Y-133337738D01*
X221478164Y-133154785D01*
X221614173Y-132946607D01*
X221714063Y-132718881D01*
X221775108Y-132477821D01*
X221795643Y-132230000D01*
X221775108Y-131982179D01*
X221775106Y-131982171D01*
X221744582Y-131861633D01*
X221747249Y-131790687D01*
X221787849Y-131732445D01*
X221853492Y-131705399D01*
X221853698Y-131705377D01*
X221955297Y-131694999D01*
X222121834Y-131639814D01*
X222271156Y-131547712D01*
X222395212Y-131423656D01*
X222395546Y-131423114D01*
X222395871Y-131422821D01*
X222399762Y-131417901D01*
X222400602Y-131418565D01*
X222448322Y-131375631D01*
X222518396Y-131364219D01*
X222583515Y-131392502D01*
X222605409Y-131417765D01*
X222605633Y-131417589D01*
X222609547Y-131422539D01*
X222610033Y-131423100D01*
X222610184Y-131423345D01*
X222610188Y-131423350D01*
X222734149Y-131547311D01*
X222734155Y-131547316D01*
X222883377Y-131639357D01*
X223049808Y-131694506D01*
X223152512Y-131704999D01*
X223213712Y-131704999D01*
X223281833Y-131725000D01*
X223328327Y-131778655D01*
X223338432Y-131848929D01*
X223335859Y-131861930D01*
X223305387Y-131982260D01*
X223284859Y-132230000D01*
X223305388Y-132477743D01*
X223366411Y-132718716D01*
X223466268Y-132946367D01*
X223566564Y-133099881D01*
X224266212Y-132400233D01*
X224277482Y-132442292D01*
X224349890Y-132567708D01*
X224452292Y-132670110D01*
X224577708Y-132742518D01*
X224619764Y-132753787D01*
X223919942Y-133453609D01*
X223919942Y-133453610D01*
X223966760Y-133490050D01*
X223966768Y-133490055D01*
X224185392Y-133608367D01*
X224185394Y-133608369D01*
X224420505Y-133689082D01*
X224420512Y-133689084D01*
X224665710Y-133730000D01*
X224914290Y-133730000D01*
X225159487Y-133689084D01*
X225159494Y-133689082D01*
X225394605Y-133608369D01*
X225394607Y-133608367D01*
X225613233Y-133490054D01*
X225613234Y-133490053D01*
X225660057Y-133453609D01*
X224960235Y-132753787D01*
X225002292Y-132742518D01*
X225127708Y-132670110D01*
X225230110Y-132567708D01*
X225302518Y-132442292D01*
X225313787Y-132400235D01*
X226013433Y-133099881D01*
X226013434Y-133099881D01*
X226113731Y-132946367D01*
X226213588Y-132718716D01*
X226274611Y-132477743D01*
X226295140Y-132230000D01*
X226274611Y-131982256D01*
X226213588Y-131741283D01*
X226113731Y-131513632D01*
X226013434Y-131360117D01*
X225313787Y-132059764D01*
X225302518Y-132017708D01*
X225230110Y-131892292D01*
X225127708Y-131789890D01*
X225002292Y-131717482D01*
X224960234Y-131706212D01*
X225660057Y-131006389D01*
X225613231Y-130969944D01*
X225394607Y-130851632D01*
X225394605Y-130851630D01*
X225159494Y-130770917D01*
X225159487Y-130770915D01*
X224914290Y-130730000D01*
X223416000Y-130730000D01*
X223347879Y-130709998D01*
X223301386Y-130656342D01*
X223290000Y-130604000D01*
X223290000Y-130230000D01*
X223790000Y-130230000D01*
X224627499Y-130230000D01*
X224627499Y-129955021D01*
X224617006Y-129852308D01*
X224561857Y-129685877D01*
X224469816Y-129536655D01*
X224469811Y-129536649D01*
X224345850Y-129412688D01*
X224345844Y-129412683D01*
X224196622Y-129320642D01*
X224030191Y-129265493D01*
X223927487Y-129255000D01*
X223790000Y-129255000D01*
X223790000Y-130230000D01*
X223290000Y-130230000D01*
X223290000Y-129255000D01*
X223152521Y-129255000D01*
X223049808Y-129265493D01*
X222883377Y-129320642D01*
X222734155Y-129412683D01*
X222734149Y-129412688D01*
X222610188Y-129536649D01*
X222610178Y-129536662D01*
X222610028Y-129536906D01*
X222609881Y-129537037D01*
X222605633Y-129542411D01*
X222604714Y-129541684D01*
X222557238Y-129584380D01*
X222487162Y-129595777D01*
X222422049Y-129567479D01*
X222399939Y-129541958D01*
X222399762Y-129542099D01*
X222396641Y-129538152D01*
X222395551Y-129536893D01*
X222395212Y-129536344D01*
X222395209Y-129536341D01*
X222395208Y-129536339D01*
X222271162Y-129412293D01*
X222271153Y-129412286D01*
X222225352Y-129384035D01*
X222177874Y-129331249D01*
X222165500Y-129276795D01*
X222165500Y-128658203D01*
X222185502Y-128590082D01*
X222225352Y-128550963D01*
X222271156Y-128522712D01*
X222290522Y-128503346D01*
X222363405Y-128430464D01*
X222425717Y-128396438D01*
X222496532Y-128401503D01*
X222541595Y-128430464D01*
X222633837Y-128522706D01*
X222633843Y-128522711D01*
X222633844Y-128522712D01*
X222670765Y-128545485D01*
X222783165Y-128614814D01*
X222949696Y-128669997D01*
X222949697Y-128669997D01*
X222949703Y-128669999D01*
X223052491Y-128680500D01*
X223677508Y-128680499D01*
X223677509Y-128680499D01*
X223780297Y-128669999D01*
X223946834Y-128614814D01*
X224002085Y-128580735D01*
X224096156Y-128522712D01*
X224220212Y-128398656D01*
X224312314Y-128249334D01*
X224367499Y-128082797D01*
X224378000Y-127980009D01*
X224377999Y-127330756D01*
X224398001Y-127262637D01*
X224451657Y-127216144D01*
X224521930Y-127206040D01*
X224524738Y-127206476D01*
X224665710Y-127230000D01*
X224914290Y-127230000D01*
X225159487Y-127189084D01*
X225159494Y-127189082D01*
X225394605Y-127108369D01*
X225394607Y-127108367D01*
X225613233Y-126990054D01*
X225613234Y-126990053D01*
X225660056Y-126953610D01*
X224960233Y-126253787D01*
X225002292Y-126242518D01*
X225127708Y-126170110D01*
X225230110Y-126067708D01*
X225302518Y-125942292D01*
X225313787Y-125900235D01*
X226013433Y-126599881D01*
X226013434Y-126599881D01*
X226113731Y-126446367D01*
X226213588Y-126218716D01*
X226274611Y-125977743D01*
X226295140Y-125730000D01*
X226274611Y-125482256D01*
X226213588Y-125241283D01*
X226113731Y-125013632D01*
X226013434Y-124860117D01*
X225313787Y-125559764D01*
X225302518Y-125517708D01*
X225230110Y-125392292D01*
X225127708Y-125289890D01*
X225002292Y-125217482D01*
X224960234Y-125206212D01*
X225660056Y-124506389D01*
X225613231Y-124469944D01*
X225394607Y-124351632D01*
X225394605Y-124351630D01*
X225159494Y-124270917D01*
X225159487Y-124270915D01*
X224914290Y-124230000D01*
X224665710Y-124230000D01*
X224420512Y-124270915D01*
X224420505Y-124270917D01*
X224185394Y-124351630D01*
X224185392Y-124351632D01*
X223966767Y-124469944D01*
X223966760Y-124469949D01*
X223919942Y-124506388D01*
X223919941Y-124506389D01*
X224619764Y-125206212D01*
X224577708Y-125217482D01*
X224452292Y-125289890D01*
X224349890Y-125392292D01*
X224277482Y-125517708D01*
X224266212Y-125559765D01*
X223566564Y-124860117D01*
X223466270Y-125013629D01*
X223466266Y-125013635D01*
X223366411Y-125241283D01*
X223305388Y-125482255D01*
X223300782Y-125537837D01*
X223275222Y-125604073D01*
X223217910Y-125645976D01*
X223147041Y-125650241D01*
X223086117Y-125616526D01*
X220268046Y-122798456D01*
X220268034Y-122798442D01*
X220173738Y-122704146D01*
X220173732Y-122704141D01*
X220114122Y-122664311D01*
X220071286Y-122635688D01*
X220071287Y-122635688D01*
X220071285Y-122635687D01*
X219975126Y-122595858D01*
X219957452Y-122588537D01*
X219957449Y-122588536D01*
X219894020Y-122575920D01*
X219874882Y-122572113D01*
X219836609Y-122564500D01*
X219836607Y-122564500D01*
X219836606Y-122564500D01*
X214691606Y-122564500D01*
X212841500Y-122564500D01*
X212773379Y-122544498D01*
X212726886Y-122490842D01*
X212715500Y-122438500D01*
X212715500Y-120271671D01*
X212735502Y-120203550D01*
X212789158Y-120157057D01*
X212859432Y-120146953D01*
X212904504Y-120162554D01*
X212907267Y-120164148D01*
X212907270Y-120164151D01*
X213080197Y-120241144D01*
X213265354Y-120280500D01*
X213454646Y-120280500D01*
X213639803Y-120241144D01*
X213812730Y-120164151D01*
X213812730Y-120164150D01*
X213812732Y-120164150D01*
X213812732Y-120164149D01*
X213965871Y-120052888D01*
X213981003Y-120036083D01*
X214092533Y-119912216D01*
X214092534Y-119912214D01*
X214110401Y-119881267D01*
X214187179Y-119748284D01*
X214202316Y-119701694D01*
X214233052Y-119651536D01*
X214476547Y-119408041D01*
X214476555Y-119408035D01*
X214483730Y-119400859D01*
X214483733Y-119400858D01*
X214570858Y-119313733D01*
X214639311Y-119211286D01*
X214686463Y-119097452D01*
X214710500Y-118976606D01*
X214710500Y-117936294D01*
X214730502Y-117868173D01*
X214784158Y-117821680D01*
X214854432Y-117811576D01*
X214919012Y-117841070D01*
X214925595Y-117847199D01*
X215623952Y-118545556D01*
X215623966Y-118545571D01*
X215627127Y-118548732D01*
X215627128Y-118548733D01*
X215714253Y-118635858D01*
X215763267Y-118668608D01*
X215816700Y-118704312D01*
X215884870Y-118732548D01*
X215884871Y-118732549D01*
X215897556Y-118737803D01*
X215930534Y-118751463D01*
X215945798Y-118754499D01*
X215945802Y-118754501D01*
X215945803Y-118754500D01*
X216051373Y-118775499D01*
X216051376Y-118775499D01*
X216051379Y-118775500D01*
X216051380Y-118775500D01*
X231010794Y-118775500D01*
X231078915Y-118795502D01*
X231123060Y-118844296D01*
X231129949Y-118857816D01*
X231254896Y-119029792D01*
X231254898Y-119029794D01*
X231254900Y-119029797D01*
X231392279Y-119167176D01*
X231426305Y-119229488D01*
X231421240Y-119300303D01*
X231378693Y-119357139D01*
X231369331Y-119363512D01*
X231216655Y-119457683D01*
X231216649Y-119457688D01*
X231092688Y-119581649D01*
X231092683Y-119581655D01*
X231000642Y-119730877D01*
X230945493Y-119897308D01*
X230935000Y-120000012D01*
X230935000Y-120400000D01*
X232005854Y-120400000D01*
X231967370Y-120466657D01*
X231935000Y-120587465D01*
X231935000Y-120712535D01*
X231967370Y-120833343D01*
X232005854Y-120900000D01*
X230935001Y-120900000D01*
X230935001Y-121299978D01*
X230945493Y-121402691D01*
X231000642Y-121569122D01*
X231092683Y-121718344D01*
X231092688Y-121718350D01*
X231216649Y-121842311D01*
X231216655Y-121842316D01*
X231365877Y-121934357D01*
X231532308Y-121989506D01*
X231635012Y-121999999D01*
X232160000Y-121999999D01*
X232160000Y-121054145D01*
X232226657Y-121092630D01*
X232347465Y-121125000D01*
X232472535Y-121125000D01*
X232593343Y-121092630D01*
X232660000Y-121054145D01*
X232660000Y-121999999D01*
X233184978Y-121999999D01*
X233287691Y-121989506D01*
X233454122Y-121934357D01*
X233603344Y-121842316D01*
X233603350Y-121842311D01*
X233727311Y-121718350D01*
X233727316Y-121718344D01*
X233819357Y-121569122D01*
X233874506Y-121402691D01*
X233884999Y-121299987D01*
X233885000Y-121299987D01*
X233885000Y-120900000D01*
X232814146Y-120900000D01*
X232852630Y-120833343D01*
X232885000Y-120712535D01*
X232885000Y-120587465D01*
X232852630Y-120466657D01*
X232814146Y-120400000D01*
X233884999Y-120400000D01*
X233884999Y-120000021D01*
X233874506Y-119897308D01*
X233819357Y-119730877D01*
X233727316Y-119581655D01*
X233727311Y-119581649D01*
X233603350Y-119457688D01*
X233603344Y-119457683D01*
X233450668Y-119363512D01*
X233403190Y-119310726D01*
X233391787Y-119240651D01*
X233420079Y-119175536D01*
X233427709Y-119167186D01*
X233565104Y-119029792D01*
X233690051Y-118857816D01*
X233786557Y-118668412D01*
X233852246Y-118466243D01*
X233885500Y-118256287D01*
X233885500Y-118043713D01*
X233852246Y-117833757D01*
X233786557Y-117631588D01*
X233690051Y-117442184D01*
X233565104Y-117270208D01*
X233565101Y-117270205D01*
X233565099Y-117270202D01*
X233414797Y-117119900D01*
X233414794Y-117119898D01*
X233414792Y-117119896D01*
X233252433Y-117001936D01*
X233209079Y-116945714D01*
X233203004Y-116874978D01*
X233236135Y-116812186D01*
X233252433Y-116798064D01*
X233268567Y-116786342D01*
X233414792Y-116680104D01*
X233565104Y-116529792D01*
X233690051Y-116357816D01*
X233786557Y-116168412D01*
X233852246Y-115966243D01*
X233885500Y-115756287D01*
X233885500Y-115543713D01*
X233852246Y-115333757D01*
X233786557Y-115131588D01*
X233690051Y-114942184D01*
X233565104Y-114770208D01*
X233565101Y-114770205D01*
X233565099Y-114770202D01*
X233414797Y-114619900D01*
X233414794Y-114619898D01*
X233414792Y-114619896D01*
X233252433Y-114501936D01*
X233209079Y-114445714D01*
X233203004Y-114374978D01*
X233236135Y-114312186D01*
X233252433Y-114298064D01*
X233263248Y-114290205D01*
X233414792Y-114180104D01*
X233565104Y-114029792D01*
X233690051Y-113857816D01*
X233786557Y-113668412D01*
X233852246Y-113466243D01*
X233885500Y-113256287D01*
X233885500Y-113043713D01*
X233852246Y-112833757D01*
X233786557Y-112631588D01*
X233690051Y-112442184D01*
X233565104Y-112270208D01*
X233565101Y-112270205D01*
X233565099Y-112270202D01*
X233414797Y-112119900D01*
X233414794Y-112119898D01*
X233414792Y-112119896D01*
X233264670Y-112010827D01*
X233242819Y-111994951D01*
X233242818Y-111994950D01*
X233242816Y-111994949D01*
X233053412Y-111898443D01*
X232851243Y-111832754D01*
X232641287Y-111799500D01*
X232178713Y-111799500D01*
X231968757Y-111832754D01*
X231968754Y-111832754D01*
X231968753Y-111832755D01*
X231766588Y-111898443D01*
X231766586Y-111898444D01*
X231577180Y-111994951D01*
X231405205Y-112119898D01*
X231405202Y-112119900D01*
X231254900Y-112270202D01*
X231254898Y-112270205D01*
X231129951Y-112442180D01*
X231033444Y-112631586D01*
X231033443Y-112631588D01*
X230979538Y-112797491D01*
X230967754Y-112833757D01*
X230934500Y-113043713D01*
X230934500Y-113256287D01*
X230967754Y-113466243D01*
X231033443Y-113668412D01*
X231129949Y-113857816D01*
X231254896Y-114029792D01*
X231254898Y-114029794D01*
X231254900Y-114029797D01*
X231405202Y-114180099D01*
X231405205Y-114180101D01*
X231405208Y-114180104D01*
X231438312Y-114204155D01*
X231567566Y-114298064D01*
X231610920Y-114354286D01*
X231616995Y-114425022D01*
X231583864Y-114487814D01*
X231567566Y-114501936D01*
X231405205Y-114619898D01*
X231405202Y-114619900D01*
X231254900Y-114770202D01*
X231254898Y-114770205D01*
X231129949Y-114942183D01*
X231123060Y-114955704D01*
X231074312Y-115007319D01*
X231010794Y-115024500D01*
X216872049Y-115024500D01*
X216803928Y-115004498D01*
X216797988Y-115000436D01*
X216678088Y-114913324D01*
X216678086Y-114913323D01*
X216659983Y-114905263D01*
X216573158Y-114866605D01*
X216519064Y-114820627D01*
X216498415Y-114752700D01*
X216517767Y-114684391D01*
X216570978Y-114637390D01*
X216624409Y-114625500D01*
X229931605Y-114625500D01*
X229931606Y-114625500D01*
X230052452Y-114601463D01*
X230166286Y-114554311D01*
X230268733Y-114485858D01*
X230355858Y-114398733D01*
X230424311Y-114296286D01*
X230471463Y-114182452D01*
X230495500Y-114061606D01*
X230495500Y-109531280D01*
X230515502Y-109463159D01*
X230532405Y-109442185D01*
X232357186Y-107617405D01*
X232419498Y-107583379D01*
X232446281Y-107580500D01*
X232504646Y-107580500D01*
X232689803Y-107541144D01*
X232862730Y-107464151D01*
X232862730Y-107464150D01*
X232862732Y-107464150D01*
X232862732Y-107464149D01*
X233015871Y-107352888D01*
X233142533Y-107212216D01*
X233237179Y-107048284D01*
X233244436Y-107025951D01*
X233295674Y-106868256D01*
X233301614Y-106811737D01*
X233315460Y-106680000D01*
X233295674Y-106491744D01*
X233295674Y-106491743D01*
X233237181Y-106311721D01*
X233237177Y-106311713D01*
X233142534Y-106147785D01*
X233142533Y-106147783D01*
X233015873Y-106007113D01*
X232862732Y-105895850D01*
X232862732Y-105895849D01*
X232737145Y-105839934D01*
X232689803Y-105818856D01*
X232689801Y-105818855D01*
X232689800Y-105818855D01*
X232504646Y-105779500D01*
X232315354Y-105779500D01*
X232130199Y-105818855D01*
X231957267Y-105895849D01*
X231957266Y-105895850D01*
X231849061Y-105974466D01*
X231782193Y-105998325D01*
X231713041Y-105982244D01*
X231700939Y-105974466D01*
X231592733Y-105895850D01*
X231592732Y-105895849D01*
X231467145Y-105839934D01*
X231419803Y-105818856D01*
X231419801Y-105818855D01*
X231419800Y-105818855D01*
X231234646Y-105779500D01*
X231045354Y-105779500D01*
X230860199Y-105818855D01*
X230687267Y-105895849D01*
X230687267Y-105895850D01*
X230534126Y-106007113D01*
X230407466Y-106147783D01*
X230407465Y-106147785D01*
X230312822Y-106311713D01*
X230312818Y-106311721D01*
X230254325Y-106491742D01*
X230236752Y-106658946D01*
X230209739Y-106724602D01*
X230200537Y-106734870D01*
X229021269Y-107914140D01*
X229021267Y-107914142D01*
X228977704Y-107957705D01*
X228934141Y-108001267D01*
X228899915Y-108052490D01*
X228865686Y-108103716D01*
X228832347Y-108184207D01*
X228832347Y-108184208D01*
X228818535Y-108217551D01*
X228794500Y-108338388D01*
X228794500Y-112748500D01*
X228774498Y-112816621D01*
X228720842Y-112863114D01*
X228668500Y-112874500D01*
X214098390Y-112874500D01*
X214058802Y-112882375D01*
X214045605Y-112885000D01*
X214045604Y-112885000D01*
X213977553Y-112898535D01*
X213930395Y-112918068D01*
X213863717Y-112945686D01*
X213863714Y-112945689D01*
X213761271Y-113014139D01*
X213761264Y-113014144D01*
X213358195Y-113417214D01*
X212961270Y-113814139D01*
X212961267Y-113814142D01*
X212944184Y-113831225D01*
X212930594Y-113844815D01*
X212868281Y-113878839D01*
X212797466Y-113873773D01*
X212740631Y-113831225D01*
X212715821Y-113764705D01*
X212715500Y-113755718D01*
X212715500Y-113584454D01*
X212735502Y-113516333D01*
X212747864Y-113500143D01*
X212822533Y-113417216D01*
X212917179Y-113253284D01*
X212975674Y-113073256D01*
X212995460Y-112885000D01*
X212975674Y-112696744D01*
X212975011Y-112694702D01*
X212917181Y-112516721D01*
X212917177Y-112516713D01*
X212906248Y-112497784D01*
X212827360Y-112361144D01*
X212822534Y-112352785D01*
X212822533Y-112352783D01*
X212695873Y-112212113D01*
X212542732Y-112100850D01*
X212542732Y-112100849D01*
X212417145Y-112044934D01*
X212369803Y-112023856D01*
X212369801Y-112023855D01*
X212369800Y-112023855D01*
X212184646Y-111984500D01*
X211995354Y-111984500D01*
X211810199Y-112023855D01*
X211637267Y-112100849D01*
X211637267Y-112100850D01*
X211484126Y-112212113D01*
X211357466Y-112352783D01*
X211357465Y-112352785D01*
X211262822Y-112516713D01*
X211262818Y-112516721D01*
X211204325Y-112696743D01*
X211184540Y-112885000D01*
X211204325Y-113073256D01*
X211262818Y-113253278D01*
X211262821Y-113253285D01*
X211337465Y-113382572D01*
X211357467Y-113417216D01*
X211401614Y-113466246D01*
X211432136Y-113500143D01*
X211462853Y-113564150D01*
X211464500Y-113584454D01*
X211464500Y-114818500D01*
X211444498Y-114886621D01*
X211390842Y-114933114D01*
X211338500Y-114944500D01*
X208239154Y-114944500D01*
X208171033Y-114924498D01*
X208130035Y-114881500D01*
X208045404Y-114734915D01*
X208045403Y-114734913D01*
X207918743Y-114594243D01*
X207765602Y-114482980D01*
X207765602Y-114482979D01*
X207634166Y-114424460D01*
X207592673Y-114405986D01*
X207592671Y-114405985D01*
X207592670Y-114405985D01*
X207407516Y-114366630D01*
X207218224Y-114366630D01*
X207033069Y-114405985D01*
X206860137Y-114482979D01*
X206860137Y-114482980D01*
X206706996Y-114594243D01*
X206580336Y-114734913D01*
X206580335Y-114734915D01*
X206485692Y-114898843D01*
X206485688Y-114898851D01*
X206427195Y-115078872D01*
X206409622Y-115246077D01*
X206382609Y-115311733D01*
X206373408Y-115322001D01*
X206146270Y-115549139D01*
X206146267Y-115549142D01*
X206102704Y-115592704D01*
X206059142Y-115636266D01*
X206048881Y-115651622D01*
X206038689Y-115666877D01*
X206019515Y-115695571D01*
X205990689Y-115738711D01*
X205966195Y-115797847D01*
X205943539Y-115852542D01*
X205943537Y-115852549D01*
X205919500Y-115973388D01*
X205919500Y-116860536D01*
X205899498Y-116928657D01*
X205859646Y-116967777D01*
X205738846Y-117042286D01*
X205738837Y-117042293D01*
X205614793Y-117166337D01*
X205614785Y-117166348D01*
X205614444Y-117166901D01*
X205614111Y-117167200D01*
X205610238Y-117172099D01*
X205609400Y-117171436D01*
X205561657Y-117214377D01*
X205491582Y-117225778D01*
X205426467Y-117197483D01*
X205404590Y-117172234D01*
X205404367Y-117172411D01*
X205400431Y-117167433D01*
X205399964Y-117166894D01*
X205399819Y-117166659D01*
X205399811Y-117166649D01*
X205275850Y-117042688D01*
X205275844Y-117042683D01*
X205126622Y-116950642D01*
X204960191Y-116895493D01*
X204857487Y-116885000D01*
X204720000Y-116885000D01*
X204720000Y-119334999D01*
X204857478Y-119334999D01*
X204960191Y-119324506D01*
X205126622Y-119269357D01*
X205275844Y-119177316D01*
X205275850Y-119177311D01*
X205399813Y-119053348D01*
X205399959Y-119053112D01*
X205400101Y-119052983D01*
X205404367Y-119047589D01*
X205405288Y-119048317D01*
X205452740Y-119005629D01*
X205522814Y-118994219D01*
X205587932Y-119022506D01*
X205610060Y-119048041D01*
X205610238Y-119047901D01*
X205613349Y-119051836D01*
X205614446Y-119053101D01*
X205614788Y-119053656D01*
X205614790Y-119053659D01*
X205738837Y-119177706D01*
X205738841Y-119177709D01*
X205738844Y-119177712D01*
X205793278Y-119211287D01*
X205859646Y-119252223D01*
X205907125Y-119305009D01*
X205919500Y-119359464D01*
X205919500Y-119543225D01*
X205899498Y-119611346D01*
X205882596Y-119632320D01*
X205567322Y-119947595D01*
X205505009Y-119981620D01*
X205478226Y-119984500D01*
X201181500Y-119984500D01*
X201113379Y-119964498D01*
X201066886Y-119910842D01*
X201055500Y-119858500D01*
X201055500Y-118634978D01*
X203382501Y-118634978D01*
X203392993Y-118737691D01*
X203448142Y-118904122D01*
X203540183Y-119053344D01*
X203540188Y-119053350D01*
X203664149Y-119177311D01*
X203664155Y-119177316D01*
X203813377Y-119269357D01*
X203979808Y-119324506D01*
X204082512Y-119334999D01*
X204220000Y-119334999D01*
X204220000Y-118360000D01*
X203382501Y-118360000D01*
X203382501Y-118634978D01*
X201055500Y-118634978D01*
X201055500Y-118585898D01*
X201055500Y-118585894D01*
X201048108Y-118548733D01*
X201040152Y-118508733D01*
X201031463Y-118465048D01*
X201007123Y-118406286D01*
X200984312Y-118351214D01*
X200943075Y-118289500D01*
X200915858Y-118248767D01*
X200915856Y-118248765D01*
X200915853Y-118248761D01*
X200825587Y-118158495D01*
X200825556Y-118158466D01*
X200717184Y-118050094D01*
X200683158Y-117987782D01*
X200688223Y-117916967D01*
X200730770Y-117860131D01*
X200797290Y-117835320D01*
X200806279Y-117834999D01*
X200854978Y-117834999D01*
X200957691Y-117824506D01*
X201124122Y-117769357D01*
X201273344Y-117677316D01*
X201273350Y-117677311D01*
X201365649Y-117585012D01*
X203382500Y-117585012D01*
X203382500Y-117860000D01*
X204220000Y-117860000D01*
X204220000Y-116885000D01*
X204082521Y-116885000D01*
X203979808Y-116895493D01*
X203813377Y-116950642D01*
X203664155Y-117042683D01*
X203664149Y-117042688D01*
X203540188Y-117166649D01*
X203540183Y-117166655D01*
X203448142Y-117315877D01*
X203392993Y-117482308D01*
X203382500Y-117585012D01*
X201365649Y-117585012D01*
X201397311Y-117553350D01*
X201397316Y-117553344D01*
X201489357Y-117404122D01*
X201544506Y-117237691D01*
X201554999Y-117134987D01*
X201555000Y-117134987D01*
X201555000Y-116860000D01*
X200343500Y-116860000D01*
X200275379Y-116839998D01*
X200228886Y-116786342D01*
X200217500Y-116734000D01*
X200217500Y-116360000D01*
X200717500Y-116360000D01*
X201554999Y-116360000D01*
X201554999Y-116085021D01*
X201544506Y-115982308D01*
X201489357Y-115815877D01*
X201397316Y-115666655D01*
X201397311Y-115666649D01*
X201273350Y-115542688D01*
X201273344Y-115542683D01*
X201124122Y-115450642D01*
X200957691Y-115395493D01*
X200854987Y-115385000D01*
X200717500Y-115385000D01*
X200717500Y-116360000D01*
X200217500Y-116360000D01*
X200217500Y-115385000D01*
X200080021Y-115385000D01*
X199977305Y-115395493D01*
X199977299Y-115395494D01*
X199970113Y-115397876D01*
X199899159Y-115400313D01*
X199838150Y-115364003D01*
X199806458Y-115300472D01*
X199805176Y-115265100D01*
X199807028Y-115247478D01*
X201730001Y-115247478D01*
X201740493Y-115350191D01*
X201795642Y-115516622D01*
X201887683Y-115665844D01*
X201887688Y-115665850D01*
X202011649Y-115789811D01*
X202011655Y-115789816D01*
X202160877Y-115881857D01*
X202327308Y-115937006D01*
X202430012Y-115947499D01*
X202680000Y-115947499D01*
X203180000Y-115947499D01*
X203429978Y-115947499D01*
X203532691Y-115937006D01*
X203699122Y-115881857D01*
X203848344Y-115789816D01*
X203848350Y-115789811D01*
X203972311Y-115665850D01*
X203972316Y-115665844D01*
X204064357Y-115516622D01*
X204119506Y-115350191D01*
X204129999Y-115247487D01*
X204130000Y-115247487D01*
X204130000Y-115185000D01*
X203180000Y-115185000D01*
X203180000Y-115947499D01*
X202680000Y-115947499D01*
X202680000Y-115185000D01*
X201730001Y-115185000D01*
X201730001Y-115247478D01*
X199807028Y-115247478D01*
X199807175Y-115246077D01*
X199822807Y-115097347D01*
X199803021Y-114909091D01*
X199799694Y-114898851D01*
X199744528Y-114729068D01*
X199744524Y-114729060D01*
X199649881Y-114565132D01*
X199649880Y-114565130D01*
X199523220Y-114424460D01*
X199370079Y-114313197D01*
X199370079Y-114313196D01*
X199244492Y-114257281D01*
X199197150Y-114236203D01*
X199197148Y-114236202D01*
X199197147Y-114236202D01*
X199011993Y-114196847D01*
X198822701Y-114196847D01*
X198637546Y-114236202D01*
X198464614Y-114313196D01*
X198464614Y-114313197D01*
X198311473Y-114424460D01*
X198184813Y-114565130D01*
X198184812Y-114565132D01*
X198090169Y-114729060D01*
X198090165Y-114729068D01*
X198031672Y-114909090D01*
X198011887Y-115097347D01*
X198028464Y-115255077D01*
X198015691Y-115324916D01*
X197967189Y-115376762D01*
X197915963Y-115393594D01*
X197902207Y-115394999D01*
X197902204Y-115395000D01*
X197735665Y-115450185D01*
X197586343Y-115542288D01*
X197586337Y-115542293D01*
X197462293Y-115666337D01*
X197462288Y-115666343D01*
X197370185Y-115815665D01*
X197315002Y-115982196D01*
X197315000Y-115982208D01*
X197304500Y-116084982D01*
X196000000Y-116084982D01*
X196000000Y-114000000D01*
X190000000Y-114000000D01*
X190000000Y-119000000D01*
X179695500Y-119000000D01*
X179695500Y-113729454D01*
X179715502Y-113661333D01*
X179727864Y-113645143D01*
X179802533Y-113562216D01*
X179897179Y-113398284D01*
X179955674Y-113218256D01*
X179975460Y-113030000D01*
X179955674Y-112841744D01*
X179953078Y-112833753D01*
X179897181Y-112661721D01*
X179897177Y-112661713D01*
X179879784Y-112631588D01*
X179820072Y-112528162D01*
X179802534Y-112497785D01*
X179802533Y-112497783D01*
X179675873Y-112357113D01*
X179522732Y-112245850D01*
X179522732Y-112245849D01*
X179397145Y-112189934D01*
X179349803Y-112168856D01*
X179349801Y-112168855D01*
X179349800Y-112168855D01*
X179164646Y-112129500D01*
X178975354Y-112129500D01*
X178790199Y-112168855D01*
X178617267Y-112245849D01*
X178617267Y-112245850D01*
X178464126Y-112357113D01*
X178337466Y-112497783D01*
X178337465Y-112497785D01*
X178242822Y-112661713D01*
X178242818Y-112661721D01*
X178184325Y-112841743D01*
X178164540Y-113030000D01*
X171450000Y-113030000D01*
X171450000Y-111700592D01*
X196927909Y-111700592D01*
X196947694Y-111888848D01*
X197006187Y-112068870D01*
X197006191Y-112068878D01*
X197100834Y-112232806D01*
X197100835Y-112232808D01*
X197227495Y-112373478D01*
X197380636Y-112484741D01*
X197380636Y-112484742D01*
X197409927Y-112497783D01*
X197553566Y-112561736D01*
X197738723Y-112601092D01*
X197928015Y-112601092D01*
X198113172Y-112561736D01*
X198286099Y-112484743D01*
X198286099Y-112484742D01*
X198286101Y-112484742D01*
X198286101Y-112484741D01*
X198439240Y-112373480D01*
X198450348Y-112361144D01*
X198565902Y-112232808D01*
X198565903Y-112232806D01*
X198577851Y-112212112D01*
X198660548Y-112068876D01*
X198684569Y-111994949D01*
X198719043Y-111888848D01*
X198738829Y-111700590D01*
X198738829Y-111700589D01*
X198736588Y-111679272D01*
X198749358Y-111609434D01*
X198797859Y-111557586D01*
X198866691Y-111540190D01*
X198888094Y-111542853D01*
X198933808Y-111552570D01*
X198933813Y-111552570D01*
X199123105Y-111552570D01*
X199308262Y-111513214D01*
X199337941Y-111500000D01*
X200524540Y-111500000D01*
X200544325Y-111688256D01*
X200602818Y-111868278D01*
X200602822Y-111868286D01*
X200697465Y-112032214D01*
X200697466Y-112032216D01*
X200824126Y-112172886D01*
X200977267Y-112284149D01*
X200977267Y-112284150D01*
X201009610Y-112298550D01*
X201150197Y-112361144D01*
X201299554Y-112392890D01*
X201362027Y-112426618D01*
X201362452Y-112427042D01*
X201692595Y-112757185D01*
X201726621Y-112819497D01*
X201729500Y-112846280D01*
X201729500Y-113422509D01*
X201740000Y-113525297D01*
X201795185Y-113691834D01*
X201887288Y-113841156D01*
X201887293Y-113841162D01*
X201979889Y-113933758D01*
X202013915Y-113996070D01*
X202008850Y-114066885D01*
X201979890Y-114111948D01*
X201887683Y-114204155D01*
X201795642Y-114353377D01*
X201740493Y-114519808D01*
X201730000Y-114622512D01*
X201730000Y-114685000D01*
X204129999Y-114685000D01*
X204129999Y-114622521D01*
X204119506Y-114519808D01*
X204064357Y-114353377D01*
X203972316Y-114204155D01*
X203972311Y-114204149D01*
X203880110Y-114111948D01*
X203846084Y-114049636D01*
X203851149Y-113978821D01*
X203880108Y-113933759D01*
X203972712Y-113841156D01*
X204064814Y-113691834D01*
X204119999Y-113525297D01*
X204130500Y-113422509D01*
X204130499Y-112797492D01*
X204125494Y-112748500D01*
X204119999Y-112694702D01*
X204064813Y-112528162D01*
X204034985Y-112479804D01*
X204016247Y-112411325D01*
X204037506Y-112343586D01*
X204090974Y-112298551D01*
X204171353Y-112262764D01*
X204324494Y-112151501D01*
X204352952Y-112119896D01*
X204451156Y-112010829D01*
X204451157Y-112010827D01*
X204469321Y-111979366D01*
X204545802Y-111846897D01*
X204604297Y-111666869D01*
X204624083Y-111478613D01*
X204604297Y-111290357D01*
X204597913Y-111270709D01*
X204545804Y-111110334D01*
X204545801Y-111110327D01*
X204530918Y-111084549D01*
X204514180Y-111015554D01*
X204537400Y-110948462D01*
X204593207Y-110904575D01*
X204663883Y-110897826D01*
X204666214Y-110898297D01*
X204773970Y-110921202D01*
X204963262Y-110921202D01*
X205148419Y-110881846D01*
X205321346Y-110804853D01*
X205321346Y-110804852D01*
X205321348Y-110804852D01*
X205321348Y-110804851D01*
X205474487Y-110693590D01*
X205601149Y-110552918D01*
X205695795Y-110388986D01*
X205754290Y-110208958D01*
X205764596Y-110110897D01*
X206082749Y-110110897D01*
X206102534Y-110299153D01*
X206161027Y-110479175D01*
X206161031Y-110479183D01*
X206255674Y-110643111D01*
X206255675Y-110643113D01*
X206382335Y-110783783D01*
X206535476Y-110895046D01*
X206535476Y-110895047D01*
X206582821Y-110916126D01*
X206708406Y-110972041D01*
X206893563Y-111011397D01*
X207082855Y-111011397D01*
X207268012Y-110972041D01*
X207440939Y-110895048D01*
X207440939Y-110895047D01*
X207440941Y-110895047D01*
X207440941Y-110895046D01*
X207594080Y-110783785D01*
X207720742Y-110643113D01*
X207815388Y-110479181D01*
X207873883Y-110299153D01*
X207893669Y-110110897D01*
X207873883Y-109922641D01*
X207856103Y-109867919D01*
X207815390Y-109742618D01*
X207815386Y-109742610D01*
X207720743Y-109578682D01*
X207720742Y-109578680D01*
X207594082Y-109438010D01*
X207440941Y-109326747D01*
X207440941Y-109326746D01*
X207315354Y-109270831D01*
X207268012Y-109249753D01*
X207268010Y-109249752D01*
X207268009Y-109249752D01*
X207082855Y-109210397D01*
X206893563Y-109210397D01*
X206708408Y-109249752D01*
X206535476Y-109326746D01*
X206535476Y-109326747D01*
X206382335Y-109438010D01*
X206255675Y-109578680D01*
X206255674Y-109578682D01*
X206161031Y-109742610D01*
X206161027Y-109742618D01*
X206102534Y-109922640D01*
X206082749Y-110110897D01*
X205764596Y-110110897D01*
X205774076Y-110020702D01*
X205754290Y-109832446D01*
X205754290Y-109832445D01*
X205695797Y-109652423D01*
X205695793Y-109652415D01*
X205601150Y-109488487D01*
X205601149Y-109488485D01*
X205474489Y-109347815D01*
X205321348Y-109236552D01*
X205321348Y-109236551D01*
X205195761Y-109180636D01*
X205148419Y-109159558D01*
X205148417Y-109159557D01*
X205148416Y-109159557D01*
X204963262Y-109120202D01*
X204773970Y-109120202D01*
X204588815Y-109159557D01*
X204415883Y-109236551D01*
X204415883Y-109236552D01*
X204262742Y-109347815D01*
X204136082Y-109488485D01*
X204136081Y-109488487D01*
X204041438Y-109652415D01*
X204041434Y-109652423D01*
X203982941Y-109832445D01*
X203963156Y-110020702D01*
X203982941Y-110208958D01*
X204041434Y-110388980D01*
X204041436Y-110388985D01*
X204056321Y-110414766D01*
X204073058Y-110483761D01*
X204049837Y-110550853D01*
X203994029Y-110594740D01*
X203923354Y-110601488D01*
X203921005Y-110601012D01*
X203813271Y-110578113D01*
X203813269Y-110578113D01*
X203648549Y-110578113D01*
X203580428Y-110558111D01*
X203533935Y-110504455D01*
X203523239Y-110438943D01*
X203528489Y-110388988D01*
X203530463Y-110370209D01*
X203510677Y-110181953D01*
X203490500Y-110119854D01*
X203452184Y-110001930D01*
X203452180Y-110001922D01*
X203357537Y-109837994D01*
X203357536Y-109837992D01*
X203230876Y-109697322D01*
X203077735Y-109586059D01*
X203077735Y-109586058D01*
X202952148Y-109530143D01*
X202904806Y-109509065D01*
X202904804Y-109509064D01*
X202904803Y-109509064D01*
X202719649Y-109469709D01*
X202530357Y-109469709D01*
X202345202Y-109509064D01*
X202172270Y-109586058D01*
X202172270Y-109586059D01*
X202019129Y-109697322D01*
X201892469Y-109837992D01*
X201892468Y-109837994D01*
X201797825Y-110001922D01*
X201797821Y-110001930D01*
X201739328Y-110181952D01*
X201719543Y-110370209D01*
X201730518Y-110474639D01*
X201717745Y-110544477D01*
X201669243Y-110596323D01*
X201600410Y-110613717D01*
X201579012Y-110611055D01*
X201524648Y-110599500D01*
X201524646Y-110599500D01*
X201335354Y-110599500D01*
X201150199Y-110638855D01*
X200977267Y-110715849D01*
X200977267Y-110715850D01*
X200824126Y-110827113D01*
X200697466Y-110967783D01*
X200697465Y-110967785D01*
X200602822Y-111131713D01*
X200602818Y-111131721D01*
X200544325Y-111311743D01*
X200524540Y-111500000D01*
X199337941Y-111500000D01*
X199481189Y-111436221D01*
X199481189Y-111436220D01*
X199481191Y-111436220D01*
X199481191Y-111436219D01*
X199634330Y-111324958D01*
X199680317Y-111273885D01*
X199760992Y-111184286D01*
X199760993Y-111184284D01*
X199770177Y-111168377D01*
X199855638Y-111020354D01*
X199914133Y-110840326D01*
X199933919Y-110652070D01*
X199914133Y-110463814D01*
X199906052Y-110438943D01*
X199855640Y-110283791D01*
X199855636Y-110283783D01*
X199760993Y-110119855D01*
X199760992Y-110119853D01*
X199634332Y-109979183D01*
X199481191Y-109867920D01*
X199481191Y-109867919D01*
X199355604Y-109812004D01*
X199308262Y-109790926D01*
X199308260Y-109790925D01*
X199308259Y-109790925D01*
X199123105Y-109751570D01*
X198933813Y-109751570D01*
X198748658Y-109790925D01*
X198575726Y-109867919D01*
X198575726Y-109867920D01*
X198422585Y-109979183D01*
X198295925Y-110119853D01*
X198295924Y-110119855D01*
X198201281Y-110283783D01*
X198201277Y-110283791D01*
X198142784Y-110463813D01*
X198122999Y-110652070D01*
X198125240Y-110673393D01*
X198112467Y-110743231D01*
X198063965Y-110795077D01*
X197995132Y-110812471D01*
X197973734Y-110809809D01*
X197928017Y-110800092D01*
X197928015Y-110800092D01*
X197738723Y-110800092D01*
X197553568Y-110839447D01*
X197380636Y-110916441D01*
X197380636Y-110916442D01*
X197227495Y-111027705D01*
X197100835Y-111168375D01*
X197100834Y-111168377D01*
X197006191Y-111332305D01*
X197006187Y-111332313D01*
X196947694Y-111512335D01*
X196927909Y-111700592D01*
X171450000Y-111700592D01*
X171450000Y-83946000D01*
X171470002Y-83877879D01*
X171500000Y-83851885D01*
X171500000Y-110241800D01*
X196500000Y-110241800D01*
X196500000Y-108496280D01*
X214720330Y-108451678D01*
X214774042Y-96205263D01*
X223339500Y-96205263D01*
X223339500Y-96434736D01*
X223369450Y-96662231D01*
X223369452Y-96662238D01*
X223428842Y-96883887D01*
X223516656Y-97095888D01*
X223516657Y-97095889D01*
X223516662Y-97095900D01*
X223631386Y-97294608D01*
X223631391Y-97294615D01*
X223771073Y-97476652D01*
X223771092Y-97476673D01*
X223933326Y-97638907D01*
X223933347Y-97638926D01*
X224115384Y-97778608D01*
X224115391Y-97778613D01*
X224314099Y-97893337D01*
X224314103Y-97893338D01*
X224314112Y-97893344D01*
X224526113Y-97981158D01*
X224747762Y-98040548D01*
X224747766Y-98040548D01*
X224747768Y-98040549D01*
X224806398Y-98048267D01*
X224975266Y-98070500D01*
X224975273Y-98070500D01*
X225204727Y-98070500D01*
X225204734Y-98070500D01*
X225410345Y-98043430D01*
X225432231Y-98040549D01*
X225432231Y-98040548D01*
X225432238Y-98040548D01*
X225653887Y-97981158D01*
X225865888Y-97893344D01*
X226064612Y-97778611D01*
X226246661Y-97638919D01*
X226408919Y-97476661D01*
X226548611Y-97294612D01*
X226663344Y-97095888D01*
X226751158Y-96883887D01*
X226810548Y-96662238D01*
X226840500Y-96434734D01*
X226840500Y-96205266D01*
X226810548Y-95977762D01*
X226751158Y-95756113D01*
X226663344Y-95544112D01*
X226663338Y-95544103D01*
X226663337Y-95544099D01*
X226548613Y-95345391D01*
X226548608Y-95345384D01*
X226408926Y-95163347D01*
X226408907Y-95163326D01*
X226246673Y-95001092D01*
X226246652Y-95001073D01*
X226064615Y-94861391D01*
X226064608Y-94861386D01*
X225865900Y-94746662D01*
X225865892Y-94746658D01*
X225865888Y-94746656D01*
X225653887Y-94658842D01*
X225432238Y-94599452D01*
X225432231Y-94599450D01*
X225204736Y-94569500D01*
X225204734Y-94569500D01*
X224975266Y-94569500D01*
X224975263Y-94569500D01*
X224747768Y-94599450D01*
X224526113Y-94658842D01*
X224314110Y-94746657D01*
X224314099Y-94746662D01*
X224115391Y-94861386D01*
X224115384Y-94861391D01*
X223933347Y-95001073D01*
X223933326Y-95001092D01*
X223771092Y-95163326D01*
X223771073Y-95163347D01*
X223631391Y-95345384D01*
X223631386Y-95345391D01*
X223516662Y-95544099D01*
X223516657Y-95544110D01*
X223428842Y-95756113D01*
X223369450Y-95977768D01*
X223339500Y-96205263D01*
X214774042Y-96205263D01*
X214788099Y-93000310D01*
X196241940Y-92955130D01*
X196245264Y-95241800D01*
X195927600Y-95241800D01*
X195927599Y-94297828D01*
X195921191Y-94238217D01*
X195899900Y-94181135D01*
X195870898Y-94103373D01*
X195870896Y-94103370D01*
X195870896Y-94103369D01*
X195827771Y-94045761D01*
X195784646Y-93988153D01*
X195707691Y-93930545D01*
X195669431Y-93901904D01*
X195669429Y-93901903D01*
X195669426Y-93901901D01*
X195534583Y-93851609D01*
X195534586Y-93851609D01*
X195474978Y-93845200D01*
X195474973Y-93845200D01*
X195409673Y-93845200D01*
X195341552Y-93825198D01*
X195295059Y-93771542D01*
X195284955Y-93701268D01*
X195300554Y-93656200D01*
X195327178Y-93610085D01*
X195327179Y-93610084D01*
X195385674Y-93430056D01*
X195405460Y-93241800D01*
X195385674Y-93053544D01*
X195327179Y-92873516D01*
X195232534Y-92709585D01*
X195232533Y-92709583D01*
X195105873Y-92568913D01*
X194952732Y-92457650D01*
X194952732Y-92457649D01*
X194827145Y-92401734D01*
X194779803Y-92380656D01*
X194779801Y-92380655D01*
X194779800Y-92380655D01*
X194594646Y-92341300D01*
X194405354Y-92341300D01*
X194220199Y-92380655D01*
X194047267Y-92457649D01*
X194047267Y-92457650D01*
X193894126Y-92568913D01*
X193767466Y-92709583D01*
X193767465Y-92709585D01*
X193672822Y-92873513D01*
X193672818Y-92873521D01*
X193614325Y-93053543D01*
X193594540Y-93241800D01*
X193614325Y-93430056D01*
X193672818Y-93610078D01*
X193672821Y-93610085D01*
X193699446Y-93656200D01*
X193716184Y-93725195D01*
X193692964Y-93792287D01*
X193637157Y-93836174D01*
X193590329Y-93845200D01*
X193525036Y-93845200D01*
X193525014Y-93845202D01*
X193465419Y-93851608D01*
X193465418Y-93851608D01*
X193330573Y-93901901D01*
X193330570Y-93901903D01*
X193215353Y-93988153D01*
X193129103Y-94103370D01*
X193129101Y-94103373D01*
X193078809Y-94238215D01*
X193072400Y-94297821D01*
X193072400Y-95241800D01*
X192500000Y-95241800D01*
X192500000Y-91399459D01*
X206815912Y-91399459D01*
X212315912Y-91399459D01*
X212315912Y-86399459D01*
X206815912Y-86399459D01*
X206815912Y-91399459D01*
X192500000Y-91399459D01*
X192500000Y-83820000D01*
X236094000Y-83820000D01*
X236162121Y-83840002D01*
G37*
%TD.AperFunction*%
%TD*%
%TA.AperFunction,NonConductor*%
G36*
X202475991Y-111259154D02*
G01*
X202530352Y-111270709D01*
X202695077Y-111270709D01*
X202763198Y-111290711D01*
X202809691Y-111344367D01*
X202820387Y-111409879D01*
X202813163Y-111478612D01*
X202832948Y-111666869D01*
X202892885Y-111851334D01*
X202894913Y-111922301D01*
X202858250Y-111983099D01*
X202794538Y-112014425D01*
X202724004Y-112006332D01*
X202683957Y-111979366D01*
X202365510Y-111660920D01*
X202331485Y-111598607D01*
X202329295Y-111558653D01*
X202329407Y-111557586D01*
X202335460Y-111500000D01*
X202324484Y-111395569D01*
X202337256Y-111325732D01*
X202385758Y-111273885D01*
X202454591Y-111256491D01*
X202475991Y-111259154D01*
G37*
%TD.AperFunction*%
%TA.AperFunction,NonConductor*%
G36*
X189474032Y-123531503D02*
G01*
X189519095Y-123560464D01*
X189611337Y-123652706D01*
X189611343Y-123652711D01*
X189611344Y-123652712D01*
X189702169Y-123708733D01*
X189742396Y-123733545D01*
X189789874Y-123786331D01*
X189801277Y-123856406D01*
X189772985Y-123921521D01*
X189769895Y-123925086D01*
X189767466Y-123927783D01*
X189767465Y-123927785D01*
X189672822Y-124091713D01*
X189672818Y-124091721D01*
X189614325Y-124271742D01*
X189596752Y-124438946D01*
X189569739Y-124504602D01*
X189560538Y-124514870D01*
X189419095Y-124656314D01*
X189356783Y-124690339D01*
X189285967Y-124685275D01*
X189240904Y-124656314D01*
X189092405Y-124507815D01*
X189058379Y-124445503D01*
X189055500Y-124418720D01*
X189055500Y-123842174D01*
X189075502Y-123774053D01*
X189115354Y-123734933D01*
X189157831Y-123708733D01*
X189248656Y-123652712D01*
X189276048Y-123625320D01*
X189340905Y-123560464D01*
X189403217Y-123526438D01*
X189474032Y-123531503D01*
G37*
%TD.AperFunction*%
%TA.AperFunction,NonConductor*%
G36*
X231078915Y-116295502D02*
G01*
X231123060Y-116344296D01*
X231129949Y-116357816D01*
X231254896Y-116529792D01*
X231254898Y-116529794D01*
X231254900Y-116529797D01*
X231405202Y-116680099D01*
X231405205Y-116680101D01*
X231405208Y-116680104D01*
X231479390Y-116734000D01*
X231567566Y-116798064D01*
X231610920Y-116854286D01*
X231616995Y-116925022D01*
X231583864Y-116987814D01*
X231567566Y-117001936D01*
X231405205Y-117119898D01*
X231405202Y-117119900D01*
X231254900Y-117270202D01*
X231254898Y-117270205D01*
X231129949Y-117442183D01*
X231123060Y-117455704D01*
X231074312Y-117507319D01*
X231010794Y-117524500D01*
X216424266Y-117524500D01*
X216356145Y-117504498D01*
X216335171Y-117487595D01*
X215920250Y-117072674D01*
X215886224Y-117010362D01*
X215883345Y-116983579D01*
X215883345Y-116700993D01*
X215903347Y-116632872D01*
X215957003Y-116586379D01*
X216027277Y-116576275D01*
X216035537Y-116577745D01*
X216130712Y-116597975D01*
X216320004Y-116597975D01*
X216505161Y-116558619D01*
X216678088Y-116481626D01*
X216678088Y-116481625D01*
X216678090Y-116481625D01*
X216678090Y-116481624D01*
X216831229Y-116370363D01*
X216879106Y-116317189D01*
X216939552Y-116279950D01*
X216972743Y-116275500D01*
X231010794Y-116275500D01*
X231078915Y-116295502D01*
G37*
%TD.AperFunction*%
%TA.AperFunction,Conductor*%
%TO.N,GND*%
G36*
X214788099Y-93000310D02*
G01*
X214720330Y-108451678D01*
X196264530Y-108496857D01*
X196260087Y-105440000D01*
X204584540Y-105440000D01*
X204604325Y-105628256D01*
X204662818Y-105808278D01*
X204662822Y-105808286D01*
X204757465Y-105972214D01*
X204757466Y-105972216D01*
X204884126Y-106112886D01*
X205037267Y-106224149D01*
X205037267Y-106224150D01*
X205084612Y-106245229D01*
X205210197Y-106301144D01*
X205395354Y-106340500D01*
X205584646Y-106340500D01*
X205769803Y-106301144D01*
X205942730Y-106224151D01*
X205942730Y-106224150D01*
X205942732Y-106224150D01*
X205942732Y-106224149D01*
X206095871Y-106112888D01*
X206101001Y-106107191D01*
X206101004Y-106107188D01*
X206161451Y-106069949D01*
X206194639Y-106065500D01*
X211285359Y-106065500D01*
X211353480Y-106085502D01*
X211378997Y-106107191D01*
X211384129Y-106112891D01*
X211537267Y-106224152D01*
X211537267Y-106224153D01*
X211584612Y-106245232D01*
X211710197Y-106301147D01*
X211895354Y-106340503D01*
X212084646Y-106340503D01*
X212269803Y-106301147D01*
X212442730Y-106224154D01*
X212442730Y-106224153D01*
X212442732Y-106224153D01*
X212442732Y-106224152D01*
X212595871Y-106112891D01*
X212601004Y-106107191D01*
X212722533Y-105972219D01*
X212722534Y-105972217D01*
X212722536Y-105972214D01*
X212817179Y-105808287D01*
X212875674Y-105628259D01*
X212893247Y-105461049D01*
X212920260Y-105395395D01*
X212929452Y-105385136D01*
X213475858Y-104838733D01*
X213544312Y-104736285D01*
X213591463Y-104622451D01*
X213615501Y-104501606D01*
X213615501Y-104378393D01*
X213615501Y-104373201D01*
X213615500Y-104373175D01*
X213615500Y-99139454D01*
X213635502Y-99071333D01*
X213647864Y-99055143D01*
X213722533Y-98972216D01*
X213817179Y-98808284D01*
X213875674Y-98628256D01*
X213895460Y-98440000D01*
X213875674Y-98251744D01*
X213817179Y-98071716D01*
X213722534Y-97907785D01*
X213722533Y-97907783D01*
X213595873Y-97767113D01*
X213442732Y-97655850D01*
X213442732Y-97655849D01*
X213317145Y-97599934D01*
X213269803Y-97578856D01*
X213269801Y-97578855D01*
X213269800Y-97578855D01*
X213084646Y-97539500D01*
X212895354Y-97539500D01*
X212710199Y-97578855D01*
X212537267Y-97655849D01*
X212537267Y-97655850D01*
X212384126Y-97767113D01*
X212257466Y-97907783D01*
X212257465Y-97907785D01*
X212162822Y-98071713D01*
X212162818Y-98071721D01*
X212104325Y-98251743D01*
X212084540Y-98440000D01*
X212104325Y-98628256D01*
X212162818Y-98808278D01*
X212162821Y-98808285D01*
X212257466Y-98972214D01*
X212257467Y-98972216D01*
X212332136Y-99055143D01*
X212362853Y-99119150D01*
X212364500Y-99139454D01*
X212364500Y-104128718D01*
X212344498Y-104196839D01*
X212327596Y-104217813D01*
X212042812Y-104502598D01*
X211980499Y-104536623D01*
X211953716Y-104539503D01*
X211895354Y-104539503D01*
X211710199Y-104578858D01*
X211537267Y-104655852D01*
X211537267Y-104655853D01*
X211384131Y-104767112D01*
X211381641Y-104769877D01*
X211378999Y-104772812D01*
X211318555Y-104810050D01*
X211285365Y-104814500D01*
X206194639Y-104814500D01*
X206126518Y-104794498D01*
X206101004Y-104772812D01*
X206095872Y-104767112D01*
X205942732Y-104655850D01*
X205942732Y-104655849D01*
X205817145Y-104599934D01*
X205769803Y-104578856D01*
X205769801Y-104578855D01*
X205769800Y-104578855D01*
X205584646Y-104539500D01*
X205395354Y-104539500D01*
X205210199Y-104578855D01*
X205037267Y-104655849D01*
X205037267Y-104655850D01*
X204884126Y-104767113D01*
X204757466Y-104907783D01*
X204757465Y-104907785D01*
X204662822Y-105071713D01*
X204662818Y-105071721D01*
X204604325Y-105251743D01*
X204584540Y-105440000D01*
X196260087Y-105440000D01*
X196251811Y-99746400D01*
X198238500Y-99746400D01*
X198306621Y-99766402D01*
X198353114Y-99820058D01*
X198364500Y-99872400D01*
X198364500Y-102501613D01*
X198379864Y-102578854D01*
X198379865Y-102578854D01*
X198388537Y-102622453D01*
X198388539Y-102622458D01*
X198435687Y-102736285D01*
X198456286Y-102767112D01*
X198456287Y-102767114D01*
X198504141Y-102838731D01*
X198504146Y-102838738D01*
X198598437Y-102933029D01*
X198598450Y-102933040D01*
X199591267Y-103925858D01*
X199693715Y-103994312D01*
X199757504Y-104020734D01*
X199807548Y-104041463D01*
X199827595Y-104045450D01*
X199827596Y-104045451D01*
X199827597Y-104045451D01*
X199928394Y-104065501D01*
X200057820Y-104065501D01*
X200057840Y-104065500D01*
X201933501Y-104065500D01*
X201939057Y-104065773D01*
X201942464Y-104065773D01*
X202069084Y-104065773D01*
X202074640Y-104065500D01*
X203285361Y-104065500D01*
X203353482Y-104085502D01*
X203378996Y-104107188D01*
X203384127Y-104112887D01*
X203537267Y-104224149D01*
X203537267Y-104224150D01*
X203584612Y-104245229D01*
X203710197Y-104301144D01*
X203895354Y-104340500D01*
X204084646Y-104340500D01*
X204269803Y-104301144D01*
X204442730Y-104224151D01*
X204442730Y-104224150D01*
X204442732Y-104224150D01*
X204442732Y-104224149D01*
X204595871Y-104112888D01*
X204601004Y-104107188D01*
X204722533Y-103972216D01*
X204722534Y-103972214D01*
X204817179Y-103808284D01*
X204875674Y-103628256D01*
X204895460Y-103440000D01*
X204875674Y-103251744D01*
X204817179Y-103071716D01*
X204722534Y-102907785D01*
X204722533Y-102907783D01*
X204595873Y-102767113D01*
X204442732Y-102655850D01*
X204442732Y-102655849D01*
X204317145Y-102599934D01*
X204269803Y-102578856D01*
X204269801Y-102578855D01*
X204269800Y-102578855D01*
X204084646Y-102539500D01*
X203895354Y-102539500D01*
X203710199Y-102578855D01*
X203537267Y-102655849D01*
X203537267Y-102655850D01*
X203384127Y-102767112D01*
X203378996Y-102772812D01*
X203318549Y-102810051D01*
X203285361Y-102814500D01*
X200301281Y-102814500D01*
X200233160Y-102794498D01*
X200212186Y-102777595D01*
X199652405Y-102217814D01*
X199618379Y-102155502D01*
X199615500Y-102128719D01*
X199615500Y-99127839D01*
X199615501Y-99127818D01*
X199615501Y-98993201D01*
X199615500Y-98993175D01*
X199615500Y-98639454D01*
X199635502Y-98571333D01*
X199647864Y-98555143D01*
X199722533Y-98472216D01*
X199817179Y-98308284D01*
X199875674Y-98128256D01*
X199895460Y-97940000D01*
X199875674Y-97751744D01*
X199817179Y-97571716D01*
X199722534Y-97407785D01*
X199722533Y-97407783D01*
X199595873Y-97267113D01*
X199442732Y-97155850D01*
X199442732Y-97155849D01*
X199317145Y-97099934D01*
X199269803Y-97078856D01*
X199269801Y-97078855D01*
X199269800Y-97078855D01*
X199084646Y-97039500D01*
X198895354Y-97039500D01*
X198710199Y-97078855D01*
X198537267Y-97155849D01*
X198537267Y-97155850D01*
X198384126Y-97267113D01*
X198257466Y-97407783D01*
X198257465Y-97407785D01*
X198162822Y-97571713D01*
X198162818Y-97571721D01*
X198104325Y-97751743D01*
X198084540Y-97940000D01*
X198104325Y-98128256D01*
X198162818Y-98308278D01*
X198165506Y-98314314D01*
X198163834Y-98315058D01*
X198178471Y-98375399D01*
X198155249Y-98442490D01*
X198099440Y-98486376D01*
X198052614Y-98495400D01*
X196249993Y-98495400D01*
X196241940Y-92955130D01*
X214788099Y-93000310D01*
G37*
%TD.AperFunction*%
%TD*%
%TA.AperFunction,Conductor*%
%TO.N,GND*%
G36*
X192500000Y-95241800D02*
G01*
X193072401Y-95241800D01*
X193072401Y-95460364D01*
X193072402Y-95460385D01*
X193078808Y-95519980D01*
X193078808Y-95519981D01*
X193129101Y-95654826D01*
X193129103Y-95654829D01*
X193215353Y-95770046D01*
X193264446Y-95806796D01*
X193293809Y-95828778D01*
X193336356Y-95885613D01*
X193344300Y-95929645D01*
X193344300Y-98070354D01*
X193324298Y-98138475D01*
X193293810Y-98171221D01*
X193215354Y-98229953D01*
X193182285Y-98274128D01*
X193157220Y-98307609D01*
X193100386Y-98350156D01*
X193056354Y-98358100D01*
X191696588Y-98358100D01*
X191636171Y-98370117D01*
X191636171Y-98370118D01*
X191575748Y-98382137D01*
X191575746Y-98382138D01*
X191528595Y-98401668D01*
X191461917Y-98429286D01*
X191461914Y-98429289D01*
X191359471Y-98497739D01*
X191359464Y-98497744D01*
X191272339Y-98584870D01*
X186552815Y-103304395D01*
X186490503Y-103338421D01*
X186463720Y-103341300D01*
X186405354Y-103341300D01*
X186220199Y-103380655D01*
X186047267Y-103457649D01*
X186047267Y-103457650D01*
X185894126Y-103568913D01*
X185767466Y-103709583D01*
X185767465Y-103709585D01*
X185672822Y-103873513D01*
X185672818Y-103873521D01*
X185614325Y-104053543D01*
X185594540Y-104241800D01*
X185614325Y-104430056D01*
X185672818Y-104610078D01*
X185672822Y-104610086D01*
X185767465Y-104774014D01*
X185767466Y-104774016D01*
X185894126Y-104914686D01*
X186047267Y-105025949D01*
X186047267Y-105025950D01*
X186076652Y-105039033D01*
X186220197Y-105102944D01*
X186405354Y-105142300D01*
X186594646Y-105142300D01*
X186779803Y-105102944D01*
X186952730Y-105025951D01*
X186952730Y-105025950D01*
X186952732Y-105025950D01*
X186952732Y-105025949D01*
X187105871Y-104914688D01*
X187232533Y-104774016D01*
X187327179Y-104610084D01*
X187385674Y-104430056D01*
X187403247Y-104262849D01*
X187430260Y-104197194D01*
X187439453Y-104186935D01*
X191980385Y-99646005D01*
X192042697Y-99611979D01*
X192069480Y-99609100D01*
X192949215Y-99609100D01*
X193017336Y-99629102D01*
X193063829Y-99682758D01*
X193074493Y-99721634D01*
X193078808Y-99761780D01*
X193078808Y-99761781D01*
X193129101Y-99896626D01*
X193129103Y-99896629D01*
X193215353Y-100011846D01*
X193271054Y-100053543D01*
X193330569Y-100098096D01*
X193330571Y-100098096D01*
X193330573Y-100098098D01*
X193390930Y-100120609D01*
X193465414Y-100148390D01*
X193465417Y-100148391D01*
X193525027Y-100154800D01*
X195474972Y-100154799D01*
X195534583Y-100148391D01*
X195669431Y-100098096D01*
X195784646Y-100011846D01*
X195870896Y-99896631D01*
X195879516Y-99873521D01*
X195896356Y-99828369D01*
X195938902Y-99771533D01*
X196005421Y-99746721D01*
X196014412Y-99746400D01*
X196251811Y-99746400D01*
X196264530Y-108496857D01*
X196500000Y-108496280D01*
X196500000Y-110241800D01*
X171500000Y-110241800D01*
X171500000Y-100241800D01*
X179094540Y-100241800D01*
X179114325Y-100430056D01*
X179172818Y-100610078D01*
X179172821Y-100610085D01*
X179267465Y-100774013D01*
X179267468Y-100774017D01*
X179340136Y-100854722D01*
X179370853Y-100918729D01*
X179372500Y-100939033D01*
X179372500Y-103303605D01*
X179379998Y-103341300D01*
X179396614Y-103424835D01*
X179430062Y-103505584D01*
X179443917Y-103539033D01*
X179491388Y-103610078D01*
X179491391Y-103610082D01*
X179491392Y-103610084D01*
X179512589Y-103641808D01*
X179512592Y-103641812D01*
X180674384Y-104803603D01*
X181822589Y-105951808D01*
X182599992Y-106729211D01*
X182702767Y-106797883D01*
X182816965Y-106845185D01*
X182938196Y-106869300D01*
X182938197Y-106869300D01*
X186551214Y-106869300D01*
X186619335Y-106889302D01*
X186644847Y-106910986D01*
X186648180Y-106914688D01*
X186757843Y-106994363D01*
X186801318Y-107025949D01*
X186801318Y-107025950D01*
X186848663Y-107047029D01*
X186974248Y-107102944D01*
X187159405Y-107142300D01*
X187348697Y-107142300D01*
X187533854Y-107102944D01*
X187706781Y-107025951D01*
X187706781Y-107025950D01*
X187706783Y-107025950D01*
X187706783Y-107025949D01*
X187859922Y-106914688D01*
X187863253Y-106910988D01*
X187923699Y-106873750D01*
X187956888Y-106869300D01*
X192561802Y-106869300D01*
X192561803Y-106869300D01*
X192683035Y-106845186D01*
X192763784Y-106811737D01*
X192797233Y-106797883D01*
X192900008Y-106729211D01*
X192987411Y-106641808D01*
X194487411Y-105141808D01*
X194556083Y-105039033D01*
X194603385Y-104924835D01*
X194627500Y-104803603D01*
X194627500Y-104679997D01*
X194627500Y-103939033D01*
X194647502Y-103870912D01*
X194659864Y-103854722D01*
X194732533Y-103774016D01*
X194827179Y-103610084D01*
X194885674Y-103430056D01*
X194905460Y-103241800D01*
X194885674Y-103053544D01*
X194885674Y-103053543D01*
X194827181Y-102873521D01*
X194827177Y-102873513D01*
X194732534Y-102709585D01*
X194732533Y-102709583D01*
X194605873Y-102568913D01*
X194452732Y-102457650D01*
X194452732Y-102457649D01*
X194327145Y-102401734D01*
X194279803Y-102380656D01*
X194279801Y-102380655D01*
X194279800Y-102380655D01*
X194094646Y-102341300D01*
X193905354Y-102341300D01*
X193720199Y-102380655D01*
X193547267Y-102457649D01*
X193547267Y-102457650D01*
X193394126Y-102568913D01*
X193267466Y-102709583D01*
X193267465Y-102709585D01*
X193172822Y-102873513D01*
X193172818Y-102873521D01*
X193114325Y-103053543D01*
X193094540Y-103241800D01*
X193114325Y-103430056D01*
X193172818Y-103610078D01*
X193172820Y-103610082D01*
X193267465Y-103774013D01*
X193267468Y-103774017D01*
X193340136Y-103854722D01*
X193370853Y-103918729D01*
X193372500Y-103939033D01*
X193372500Y-104429691D01*
X193352498Y-104497812D01*
X193335595Y-104518786D01*
X192276986Y-105577395D01*
X192214674Y-105611421D01*
X192187891Y-105614300D01*
X187956888Y-105614300D01*
X187888767Y-105594298D01*
X187863254Y-105572613D01*
X187859922Y-105568912D01*
X187816444Y-105537324D01*
X187706783Y-105457650D01*
X187706783Y-105457649D01*
X187581196Y-105401734D01*
X187533854Y-105380656D01*
X187533852Y-105380655D01*
X187533851Y-105380655D01*
X187348697Y-105341300D01*
X187159405Y-105341300D01*
X186974250Y-105380655D01*
X186801318Y-105457649D01*
X186801318Y-105457650D01*
X186648182Y-105568910D01*
X186648180Y-105568911D01*
X186648180Y-105568912D01*
X186644848Y-105572611D01*
X186584403Y-105609850D01*
X186551214Y-105614300D01*
X183312109Y-105614300D01*
X183243988Y-105594298D01*
X183223014Y-105577395D01*
X180887419Y-103241800D01*
X182594540Y-103241800D01*
X182614325Y-103430056D01*
X182672818Y-103610078D01*
X182672820Y-103610082D01*
X182767465Y-103774014D01*
X182767466Y-103774016D01*
X182894126Y-103914686D01*
X183047267Y-104025949D01*
X183047267Y-104025950D01*
X183094612Y-104047029D01*
X183220197Y-104102944D01*
X183405354Y-104142300D01*
X183594646Y-104142300D01*
X183779803Y-104102944D01*
X183952730Y-104025951D01*
X183952730Y-104025950D01*
X183952732Y-104025950D01*
X183952732Y-104025949D01*
X184105871Y-103914688D01*
X184232533Y-103774016D01*
X184327179Y-103610084D01*
X184385674Y-103430056D01*
X184405460Y-103241800D01*
X184385674Y-103053544D01*
X184385674Y-103053543D01*
X184327181Y-102873521D01*
X184327177Y-102873513D01*
X184232534Y-102709585D01*
X184232533Y-102709583D01*
X184105873Y-102568913D01*
X183952732Y-102457650D01*
X183952732Y-102457649D01*
X183827145Y-102401734D01*
X183779803Y-102380656D01*
X183779801Y-102380655D01*
X183779800Y-102380655D01*
X183594646Y-102341300D01*
X183405354Y-102341300D01*
X183220199Y-102380655D01*
X183047267Y-102457649D01*
X183047267Y-102457650D01*
X182894126Y-102568913D01*
X182767466Y-102709583D01*
X182767465Y-102709585D01*
X182672822Y-102873513D01*
X182672818Y-102873521D01*
X182614325Y-103053543D01*
X182594540Y-103241800D01*
X180887419Y-103241800D01*
X180664405Y-103018786D01*
X180630379Y-102956474D01*
X180627500Y-102929691D01*
X180627500Y-100939033D01*
X180647502Y-100870912D01*
X180659864Y-100854722D01*
X180732533Y-100774016D01*
X180827179Y-100610084D01*
X180885674Y-100430056D01*
X180905460Y-100241800D01*
X180885674Y-100053544D01*
X180885674Y-100053543D01*
X180827181Y-99873521D01*
X180827177Y-99873513D01*
X180732534Y-99709585D01*
X180732533Y-99709583D01*
X180605873Y-99568913D01*
X180452732Y-99457650D01*
X180452732Y-99457649D01*
X180327145Y-99401734D01*
X180279803Y-99380656D01*
X180279801Y-99380655D01*
X180279800Y-99380655D01*
X180094646Y-99341300D01*
X179905354Y-99341300D01*
X179720199Y-99380655D01*
X179547267Y-99457649D01*
X179547267Y-99457650D01*
X179394126Y-99568913D01*
X179267466Y-99709583D01*
X179267465Y-99709585D01*
X179172822Y-99873513D01*
X179172818Y-99873521D01*
X179114325Y-100053543D01*
X179094540Y-100241800D01*
X171500000Y-100241800D01*
X171500000Y-98741800D01*
X186594540Y-98741800D01*
X186614325Y-98930056D01*
X186672818Y-99110078D01*
X186672822Y-99110086D01*
X186767465Y-99274014D01*
X186767466Y-99274016D01*
X186894126Y-99414686D01*
X187047267Y-99525949D01*
X187047267Y-99525950D01*
X187094612Y-99547029D01*
X187220197Y-99602944D01*
X187405354Y-99642300D01*
X187594646Y-99642300D01*
X187779803Y-99602944D01*
X187948752Y-99527721D01*
X188019118Y-99518288D01*
X188051245Y-99527720D01*
X188220197Y-99602944D01*
X188405354Y-99642300D01*
X188594646Y-99642300D01*
X188779803Y-99602944D01*
X188952730Y-99525951D01*
X188952730Y-99525950D01*
X188952732Y-99525950D01*
X188952732Y-99525949D01*
X189105871Y-99414688D01*
X189232533Y-99274016D01*
X189327179Y-99110084D01*
X189385674Y-98930056D01*
X189405460Y-98741800D01*
X189385674Y-98553544D01*
X189374592Y-98519437D01*
X189327181Y-98373521D01*
X189327177Y-98373513D01*
X189325216Y-98370117D01*
X189232534Y-98209585D01*
X189232533Y-98209583D01*
X189105873Y-98068913D01*
X188952732Y-97957650D01*
X188952732Y-97957649D01*
X188827145Y-97901734D01*
X188779803Y-97880656D01*
X188779801Y-97880655D01*
X188779800Y-97880655D01*
X188594646Y-97841300D01*
X188405354Y-97841300D01*
X188220199Y-97880655D01*
X188051249Y-97955877D01*
X187980882Y-97965311D01*
X187948751Y-97955877D01*
X187855508Y-97914362D01*
X187779803Y-97880656D01*
X187779801Y-97880655D01*
X187779800Y-97880655D01*
X187594646Y-97841300D01*
X187405354Y-97841300D01*
X187220199Y-97880655D01*
X187047267Y-97957649D01*
X187047267Y-97957650D01*
X186894126Y-98068913D01*
X186767466Y-98209583D01*
X186767465Y-98209585D01*
X186672822Y-98373513D01*
X186672818Y-98373521D01*
X186614325Y-98553543D01*
X186594540Y-98741800D01*
X171500000Y-98741800D01*
X171500000Y-97241800D01*
X183594540Y-97241800D01*
X183614325Y-97430056D01*
X183672818Y-97610078D01*
X183672822Y-97610086D01*
X183767465Y-97774014D01*
X183767466Y-97774016D01*
X183894126Y-97914686D01*
X184047267Y-98025949D01*
X184047267Y-98025950D01*
X184094612Y-98047029D01*
X184220197Y-98102944D01*
X184405354Y-98142300D01*
X184594646Y-98142300D01*
X184779803Y-98102944D01*
X184952730Y-98025951D01*
X184952730Y-98025950D01*
X184952732Y-98025950D01*
X184952732Y-98025949D01*
X185105871Y-97914688D01*
X185232533Y-97774016D01*
X185327179Y-97610084D01*
X185385674Y-97430056D01*
X185405460Y-97241800D01*
X185385674Y-97053544D01*
X185327179Y-96873516D01*
X185232534Y-96709585D01*
X185232533Y-96709583D01*
X185105873Y-96568913D01*
X184952732Y-96457650D01*
X184952732Y-96457649D01*
X184827145Y-96401734D01*
X184779803Y-96380656D01*
X184779801Y-96380655D01*
X184779800Y-96380655D01*
X184594646Y-96341300D01*
X184405354Y-96341300D01*
X184220199Y-96380655D01*
X184047267Y-96457649D01*
X184047267Y-96457650D01*
X183894126Y-96568913D01*
X183767466Y-96709583D01*
X183767465Y-96709585D01*
X183672822Y-96873513D01*
X183672818Y-96873521D01*
X183614325Y-97053543D01*
X183594540Y-97241800D01*
X171500000Y-97241800D01*
X171500000Y-90260000D01*
X185310000Y-90260000D01*
X186289553Y-90260000D01*
X186329398Y-90266466D01*
X187810000Y-90760000D01*
X189794952Y-90263761D01*
X189825511Y-90260000D01*
X190810000Y-90260000D01*
X190810000Y-85260000D01*
X185310000Y-85260000D01*
X185310000Y-90260000D01*
X171500000Y-90260000D01*
X171500000Y-83851885D01*
X171523658Y-83831386D01*
X171576000Y-83820000D01*
X192500000Y-83820000D01*
X192500000Y-95241800D01*
G37*
%TD.AperFunction*%
%TA.AperFunction,Conductor*%
G36*
X196249993Y-98495400D02*
G01*
X196014412Y-98495400D01*
X195946291Y-98475398D01*
X195899798Y-98421742D01*
X195896356Y-98413431D01*
X195870898Y-98345173D01*
X195870896Y-98345170D01*
X195870896Y-98345169D01*
X195784646Y-98229954D01*
X195757437Y-98209585D01*
X195706190Y-98171221D01*
X195663644Y-98114385D01*
X195655700Y-98070354D01*
X195655700Y-95929645D01*
X195675702Y-95861524D01*
X195706189Y-95828778D01*
X195784646Y-95770046D01*
X195870896Y-95654831D01*
X195921191Y-95519983D01*
X195927600Y-95460373D01*
X195927600Y-95241800D01*
X196245264Y-95241800D01*
X196249993Y-98495400D01*
G37*
%TD.AperFunction*%
%TD*%
M02*
